<?xml version="1.0" encoding="UTF-8" standalone="no"?>
<svg
   version="1.0"
   width="100mm"
   height="100mm"
   viewBox="0 0 100 100"
   preserveAspectRatio="xMidYMid"
   id="svg2743"
   sodipodi:docname="radio_logo.svg"
   inkscape:version="1.2.2 (b0a8486541, 2022-12-01)"
   xmlns:inkscape="http://www.inkscape.org/namespaces/inkscape"
   xmlns:sodipodi="http://sodipodi.sourceforge.net/DTD/sodipodi-0.dtd"
   xmlns="http://www.w3.org/2000/svg"
   xmlns:svg="http://www.w3.org/2000/svg">
  <defs
     id="defs2747" />
  <sodipodi:namedview
     id="namedview2745"
     pagecolor="#ffffff"
     bordercolor="#666666"
     borderopacity="1.0"
     inkscape:showpageshadow="2"
     inkscape:pageopacity="0.0"
     inkscape:pagecheckerboard="0"
     inkscape:deskcolor="#d1d1d1"
     inkscape:document-units="mm"
     showgrid="false"
     inkscape:zoom="2.4583333"
     inkscape:cx="57.559322"
     inkscape:cy="207.86441"
     inkscape:window-width="2560"
     inkscape:window-height="1390"
     inkscape:window-x="1920"
     inkscape:window-y="0"
     inkscape:window-maximized="1"
     inkscape:current-layer="g2907" />
  <g
     inkscape:label="[fixed] BG"
     inkscape:groupmode="layer"
     id="g2893"
     sodipodi:insensitive="true">
    <rect
       x="0"
       y="0"
       width="100"
       height="100"
       style="fill:#ffffff;fill-opacity:1;stroke:none"
       id="rect2891" />
  </g>
  <g
     inkscape:label="Edge.Cuts"
     inkscape:groupmode="layer"
     id="g2895" />
  <g
     inkscape:label="B.Cu"
     inkscape:groupmode="layer"
     id="g2897" />
  <g
     inkscape:label="B.Mask"
     inkscape:groupmode="layer"
     id="g2899" />
  <g
     inkscape:label="B.SilkS"
     inkscape:groupmode="layer"
     id="g2901" />
  <g
     inkscape:label="F.Cu"
     inkscape:groupmode="layer"
     id="g2903" />
  <g
     inkscape:label="F.Mask"
     inkscape:groupmode="layer"
     id="g2905" />
  <g
     inkscape:label="F.SilkS"
     inkscape:groupmode="layer"
     id="g2907">
    <g
       transform="matrix(0.00174772,0,0,-0.00174772,44.651977,55.348023)"
       fill="#000000"
       stroke="none"
       id="g2741">
      <path
         d="m 3029,5432 c -14,-26 -77,-137 -141,-247 -195,-337 -326,-565 -543,-940 -114,-198 -249,-432 -300,-520 -51,-88 -127,-221 -170,-295 -43,-74 -129,-223 -190,-330 C 1570,2901 1512,2800 1145,2165 1031,1967 896,1733 845,1645 794,1557 718,1424 675,1350 632,1276 546,1127 485,1020 423,913 349,785 321,737 c -28,-49 -51,-90 -51,-93 0,-2 1256,-4 2790,-4 1535,0 2790,3 2790,8 0,4 -6,16 -14,27 -7,11 -90,153 -183,315 -94,162 -246,426 -338,585 -92,160 -218,378 -280,485 -127,221 -274,476 -380,660 -126,217 -484,838 -598,1035 -60,105 -160,278 -222,385 -61,107 -147,256 -190,330 -43,74 -119,207 -170,295 -51,88 -152,264 -226,390 -73,127 -144,251 -158,277 -14,26 -28,48 -31,48 -3,0 -17,-22 -31,-48 z m 94,-815 c 30,-51 64,-108 74,-127 30,-53 273,-473 438,-760 148,-255 325,-564 362,-630 11,-19 35,-60 53,-90 18,-30 83,-143 145,-250 62,-107 146,-253 187,-325 146,-253 225,-391 250,-435 14,-25 65,-112 113,-195 232,-398 445,-773 445,-784 0,-8 -530,-10 -2127,-9 -1965,3 -2128,4 -2127,19 1,14 185,340 354,629 21,36 87,151 148,255 60,105 119,206 131,225 11,19 24,42 28,50 3,8 25,47 48,85 72,122 174,298 450,780 76,132 203,352 283,489 79,137 152,264 163,283 64,114 325,567 374,648 23,39 64,109 91,157 27,47 52,84 56,82 4,-3 32,-46 61,-97 z"
         id="path2723" />
      <path
         d="m 2162,2813 c -62,-138 -102,-309 -102,-443 0,-127 48,-327 107,-445 14,-27 27,-52 29,-54 4,-4 112,58 118,68 3,4 -8,35 -24,67 -45,93 -72,206 -77,330 -8,156 19,289 81,412 14,28 26,56 26,61 0,10 -101,71 -117,71 -6,0 -24,-30 -41,-67 z"
         id="path2725" />
      <path
         d="m 3868,2846 c -26,-17 -46,-35 -43,-41 82,-186 105,-277 105,-430 0,-131 -17,-215 -65,-333 -19,-48 -36,-91 -38,-96 -2,-7 99,-75 113,-76 9,0 61,110 87,185 66,193 69,426 7,620 -30,93 -86,205 -103,204 -9,-1 -37,-15 -63,-33 z"
         id="path2727" />
      <path
         d="m 2420,2677 c -84,-186 -86,-416 -3,-599 14,-32 30,-58 35,-58 9,0 68,31 125,66 l 21,13 -19,40 c -68,141 -67,338 2,473 l 19,38 -41,25 c -22,14 -56,35 -75,46 l -35,19 z"
         id="path2729" />
      <path
         d="m 3618,2698 c -38,-22 -68,-45 -68,-53 0,-7 11,-37 25,-67 53,-117 53,-281 0,-409 -14,-32 -25,-62 -25,-67 0,-8 123,-82 138,-82 13,0 57,102 78,180 23,85 24,271 1,354 -15,55 -72,187 -79,185 -2,0 -33,-19 -70,-41 z"
         id="path2731" />
      <path
         d="m 2700,2528 c -32,-73 -39,-196 -15,-269 31,-93 31,-93 105,-48 36,22 64,45 63,52 -1,6 -8,33 -14,60 -12,45 -6,102 16,158 4,12 -7,24 -42,44 -26,16 -58,34 -69,42 -20,13 -23,11 -44,-39 z"
         id="path2733" />
      <path
         d="m 3341,2535 c -29,-18 -55,-36 -57,-38 -2,-2 3,-21 12,-43 18,-43 15,-157 -5,-177 -6,-6 -11,-14 -11,-18 0,-9 118,-79 135,-79 43,0 71,216 40,311 -19,59 -32,79 -49,79 -6,0 -35,-16 -65,-35 z"
         id="path2735" />
      <path
         d="m 3024,2490 c -11,-4 -33,-22 -47,-40 -70,-83 -1,-211 105,-197 54,7 88,34 105,82 34,100 -66,195 -163,155 z"
         id="path2737" />
      <path
         d="m 2926,2088 c -10,-40 -30,-134 -46,-208 -16,-74 -56,-258 -89,-409 -34,-151 -61,-281 -61,-288 0,-10 64,-13 335,-13 250,0 335,3 335,12 0,13 -110,536 -141,668 -10,47 -29,135 -42,195 -22,107 -23,110 -47,105 -38,-7 -172,-4 -201,4 -26,8 -27,6 -43,-66 z"
         id="path2739" />
    </g>
  </g>
  <g
     inkscape:label="Dwgs.User"
     inkscape:groupmode="layer"
     id="g2909" />
</svg>
