%TF.GenerationSoftware,KiCad,Pcbnew,8.0.1*%
%TF.CreationDate,2024-04-02T00:15:23+02:00*%
%TF.ProjectId,frontpanel,66726f6e-7470-4616-9e65-6c2e6b696361,rev?*%
%TF.SameCoordinates,Original*%
%TF.FileFunction,Copper,L2,Bot*%
%TF.FilePolarity,Positive*%
%FSLAX46Y46*%
G04 Gerber Fmt 4.6, Leading zero omitted, Abs format (unit mm)*
G04 Created by KiCad (PCBNEW 8.0.1) date 2024-04-02 00:15:23*
%MOMM*%
%LPD*%
G01*
G04 APERTURE LIST*
%ADD10C,0.300000*%
%TA.AperFunction,NonConductor*%
%ADD11C,0.300000*%
%TD*%
%TA.AperFunction,NonConductor*%
%ADD12C,0.200000*%
%TD*%
%TA.AperFunction,ComponentPad*%
%ADD13C,0.700000*%
%TD*%
%TA.AperFunction,ComponentPad*%
%ADD14C,4.400000*%
%TD*%
G04 APERTURE END LIST*
D10*
D11*
X-6785711Y116836423D02*
X-7642854Y116836423D01*
X-7214283Y116836423D02*
X-7214283Y118336423D01*
X-7214283Y118336423D02*
X-7357140Y118122137D01*
X-7357140Y118122137D02*
X-7499997Y117979280D01*
X-7499997Y117979280D02*
X-7642854Y117907852D01*
X-5357140Y116836423D02*
X-6214283Y116836423D01*
X-5785712Y116836423D02*
X-5785712Y118336423D01*
X-5785712Y118336423D02*
X-5928569Y118122137D01*
X-5928569Y118122137D02*
X-6071426Y117979280D01*
X-6071426Y117979280D02*
X-6214283Y117907852D01*
X-4071426Y117836423D02*
X-4071427Y116836423D01*
X-4428569Y118407852D02*
X-4785712Y117336423D01*
X-4785712Y117336423D02*
X-3857141Y117336423D01*
X-3285713Y116979280D02*
X-3214284Y116907852D01*
X-3214284Y116907852D02*
X-3285713Y116836423D01*
X-3285713Y116836423D02*
X-3357141Y116907852D01*
X-3357141Y116907852D02*
X-3285713Y116979280D01*
X-3285713Y116979280D02*
X-3285713Y116836423D01*
X-2499998Y116836423D02*
X-2214284Y116836423D01*
X-2214284Y116836423D02*
X-2071427Y116907852D01*
X-2071427Y116907852D02*
X-1999998Y116979280D01*
X-1999998Y116979280D02*
X-1857141Y117193566D01*
X-1857141Y117193566D02*
X-1785712Y117479280D01*
X-1785712Y117479280D02*
X-1785712Y118050709D01*
X-1785712Y118050709D02*
X-1857141Y118193566D01*
X-1857141Y118193566D02*
X-1928569Y118264994D01*
X-1928569Y118264994D02*
X-2071427Y118336423D01*
X-2071427Y118336423D02*
X-2357141Y118336423D01*
X-2357141Y118336423D02*
X-2499998Y118264994D01*
X-2499998Y118264994D02*
X-2571427Y118193566D01*
X-2571427Y118193566D02*
X-2642855Y118050709D01*
X-2642855Y118050709D02*
X-2642855Y117693566D01*
X-2642855Y117693566D02*
X-2571427Y117550709D01*
X-2571427Y117550709D02*
X-2499998Y117479280D01*
X-2499998Y117479280D02*
X-2357141Y117407852D01*
X-2357141Y117407852D02*
X-2071427Y117407852D01*
X-2071427Y117407852D02*
X-1928570Y117479280D01*
X-1928570Y117479280D02*
X-1857141Y117550709D01*
X-1857141Y117550709D02*
X-1785712Y117693566D01*
X-857141Y118336423D02*
X-714284Y118336423D01*
X-714284Y118336423D02*
X-571427Y118264994D01*
X-571427Y118264994D02*
X-499998Y118193566D01*
X-499998Y118193566D02*
X-428570Y118050709D01*
X-428570Y118050709D02*
X-357141Y117764994D01*
X-357141Y117764994D02*
X-357141Y117407852D01*
X-357141Y117407852D02*
X-428570Y117122137D01*
X-428570Y117122137D02*
X-499999Y116979280D01*
X-499999Y116979280D02*
X-571427Y116907852D01*
X-571427Y116907852D02*
X-714284Y116836423D01*
X-714284Y116836423D02*
X-857141Y116836423D01*
X-857141Y116836423D02*
X-999999Y116907852D01*
X-999999Y116907852D02*
X-1071427Y116979280D01*
X-1071427Y116979280D02*
X-1142856Y117122137D01*
X-1142856Y117122137D02*
X-1214284Y117407852D01*
X-1214284Y117407852D02*
X-1214284Y117764994D01*
X-1214284Y117764994D02*
X-1142856Y118050709D01*
X-1142856Y118050709D02*
X-1071427Y118193566D01*
X-1071427Y118193566D02*
X-999998Y118264994D01*
X-999998Y118264994D02*
X-857141Y118336423D01*
X571429Y118336423D02*
X714286Y118336423D01*
X714286Y118336423D02*
X857143Y118264994D01*
X857143Y118264994D02*
X928572Y118193566D01*
X928572Y118193566D02*
X1000000Y118050709D01*
X1000000Y118050709D02*
X1071429Y117764994D01*
X1071429Y117764994D02*
X1071429Y117407851D01*
X1071429Y117407851D02*
X1000000Y117122137D01*
X1000000Y117122137D02*
X928571Y116979280D01*
X928571Y116979280D02*
X857143Y116907851D01*
X857143Y116907851D02*
X714286Y116836423D01*
X714286Y116836423D02*
X571429Y116836423D01*
X571429Y116836423D02*
X428571Y116907851D01*
X428571Y116907851D02*
X357143Y116979280D01*
X357143Y116979280D02*
X285714Y117122137D01*
X285714Y117122137D02*
X214286Y117407851D01*
X214286Y117407851D02*
X214286Y117764994D01*
X214286Y117764994D02*
X285714Y118050709D01*
X285714Y118050709D02*
X357143Y118193566D01*
X357143Y118193566D02*
X428572Y118264994D01*
X428572Y118264994D02*
X571429Y118336423D01*
X2000000Y118336423D02*
X2142857Y118336423D01*
X2142857Y118336423D02*
X2285714Y118264994D01*
X2285714Y118264994D02*
X2357143Y118193566D01*
X2357143Y118193566D02*
X2428571Y118050709D01*
X2428571Y118050709D02*
X2500000Y117764994D01*
X2500000Y117764994D02*
X2500000Y117407851D01*
X2500000Y117407851D02*
X2428571Y117122137D01*
X2428571Y117122137D02*
X2357142Y116979280D01*
X2357142Y116979280D02*
X2285714Y116907851D01*
X2285714Y116907851D02*
X2142857Y116836423D01*
X2142857Y116836423D02*
X2000000Y116836423D01*
X2000000Y116836423D02*
X1857142Y116907851D01*
X1857142Y116907851D02*
X1785714Y116979280D01*
X1785714Y116979280D02*
X1714285Y117122137D01*
X1714285Y117122137D02*
X1642857Y117407851D01*
X1642857Y117407851D02*
X1642857Y117764994D01*
X1642857Y117764994D02*
X1714285Y118050709D01*
X1714285Y118050709D02*
X1785714Y118193566D01*
X1785714Y118193566D02*
X1857143Y118264994D01*
X1857143Y118264994D02*
X2000000Y118336423D01*
X4285713Y116836423D02*
X4285713Y117836423D01*
X4285713Y117693566D02*
X4357142Y117764994D01*
X4357142Y117764994D02*
X4499999Y117836423D01*
X4499999Y117836423D02*
X4714285Y117836423D01*
X4714285Y117836423D02*
X4857142Y117764994D01*
X4857142Y117764994D02*
X4928571Y117622137D01*
X4928571Y117622137D02*
X4928570Y116836423D01*
X4928571Y117622137D02*
X4999999Y117764994D01*
X4999999Y117764994D02*
X5142856Y117836423D01*
X5142856Y117836423D02*
X5357142Y117836423D01*
X5357142Y117836423D02*
X5499999Y117764994D01*
X5499999Y117764994D02*
X5571428Y117622137D01*
X5571428Y117622137D02*
X5571428Y116836423D01*
X6285713Y116836423D02*
X6285713Y117836423D01*
X6285713Y117693566D02*
X6357142Y117764994D01*
X6357142Y117764994D02*
X6499999Y117836423D01*
X6499999Y117836423D02*
X6714285Y117836423D01*
X6714285Y117836423D02*
X6857142Y117764994D01*
X6857142Y117764994D02*
X6928571Y117622137D01*
X6928571Y117622137D02*
X6928570Y116836423D01*
X6928571Y117622137D02*
X6999999Y117764994D01*
X6999999Y117764994D02*
X7142856Y117836423D01*
X7142856Y117836423D02*
X7357142Y117836423D01*
X7357142Y117836423D02*
X7499999Y117764994D01*
X7499999Y117764994D02*
X7571428Y117622137D01*
X7571428Y117622137D02*
X7571428Y116836423D01*
D12*
X-57450000Y33147359D02*
X-57449999Y116301173D01*
X57450000Y33147358D02*
X57450001Y116301172D01*
X-57449999Y115714753D02*
X57450001Y115714752D01*
X-57449999Y115714753D02*
X57450001Y115714752D01*
X-57449999Y115714753D02*
X-56323495Y116301174D01*
X-57449999Y115714753D02*
X-56323495Y115128332D01*
X57450001Y115714752D02*
X56323497Y115128331D01*
X57450001Y115714752D02*
X56323497Y116301173D01*
D13*
%TO.P,H1,1,1*%
%TO.N,GND*%
X-51650000Y88250000D03*
X-51166726Y89416726D03*
X-51166726Y87083274D03*
X-50000000Y89900000D03*
D14*
X-50000000Y88250000D03*
D13*
X-50000000Y86600000D03*
X-48833274Y89416726D03*
X-48833274Y87083274D03*
X-48350000Y88250000D03*
%TD*%
%TO.P,H2,1,1*%
%TO.N,GND*%
X50000000Y86600000D03*
X48833274Y87083274D03*
X51166726Y87083274D03*
X48350000Y88250000D03*
D14*
X50000000Y88250000D03*
D13*
X51650000Y88250000D03*
X48833274Y89416726D03*
X51166726Y89416726D03*
X50000000Y89900000D03*
%TD*%
%TO.P,H5,1,1*%
%TO.N,GND*%
X-54650000Y-3000000D03*
X-54166726Y-1833274D03*
X-54166726Y-4166726D03*
X-53000000Y-1350000D03*
D14*
X-53000000Y-3000000D03*
D13*
X-53000000Y-4650000D03*
X-51833274Y-1833274D03*
X-51833274Y-4166726D03*
X-51350000Y-3000000D03*
%TD*%
%TO.P,H4,1,1*%
%TO.N,GND*%
X34350000Y-30000000D03*
X34833274Y-28833274D03*
X34833274Y-31166726D03*
X36000000Y-28350000D03*
D14*
X36000000Y-30000000D03*
D13*
X36000000Y-31650000D03*
X37166726Y-28833274D03*
X37166726Y-31166726D03*
X37650000Y-30000000D03*
%TD*%
%TO.P,H6,1,1*%
%TO.N,GND*%
X51350000Y-3000000D03*
X51833274Y-1833274D03*
X51833274Y-4166726D03*
X53000000Y-1350000D03*
D14*
X53000000Y-3000000D03*
D13*
X53000000Y-4650000D03*
X54166726Y-1833274D03*
X54166726Y-4166726D03*
X54650000Y-3000000D03*
%TD*%
%TO.P,H3,1,1*%
%TO.N,GND*%
X-37650000Y-30000000D03*
X-37166726Y-28833274D03*
X-37166726Y-31166726D03*
X-36000000Y-28350000D03*
D14*
X-36000000Y-30000000D03*
D13*
X-36000000Y-31650000D03*
X-34833274Y-28833274D03*
X-34833274Y-31166726D03*
X-34350000Y-30000000D03*
%TD*%
%TA.AperFunction,Conductor*%
%TO.N,GND*%
G36*
X-29748821Y91350175D02*
G01*
X-10247192Y85720839D01*
X-7750000Y85000000D01*
X10250005Y85000000D01*
X20348217Y88250000D01*
X47295065Y88250000D01*
X47314786Y87923961D01*
X47373667Y87602658D01*
X47470835Y87290835D01*
X47470839Y87290824D01*
X47604897Y86992958D01*
X47604898Y86992956D01*
X47773881Y86713422D01*
X47773886Y86713416D01*
X47921474Y86525030D01*
X47921476Y86525029D01*
X49063709Y87667262D01*
X49160967Y87533398D01*
X49283398Y87410967D01*
X49417262Y87313709D01*
X48275029Y86171476D01*
X48275030Y86171474D01*
X48463416Y86023886D01*
X48463422Y86023881D01*
X48742956Y85854898D01*
X48742958Y85854897D01*
X49040824Y85720839D01*
X49040835Y85720835D01*
X49352658Y85623667D01*
X49673961Y85564786D01*
X50000000Y85545065D01*
X50326038Y85564786D01*
X50647341Y85623667D01*
X50959164Y85720835D01*
X50959175Y85720839D01*
X51257041Y85854897D01*
X51257043Y85854898D01*
X51536576Y86023881D01*
X51724968Y86171476D01*
X50582737Y87313709D01*
X50716602Y87410967D01*
X50839033Y87533398D01*
X50936290Y87667261D01*
X52078522Y86525030D01*
X52078523Y86525030D01*
X52226118Y86713423D01*
X52395101Y86992956D01*
X52395102Y86992958D01*
X52529160Y87290824D01*
X52529164Y87290835D01*
X52626332Y87602658D01*
X52685213Y87923961D01*
X52704934Y88250000D01*
X52685213Y88576038D01*
X52626332Y88897341D01*
X52529164Y89209164D01*
X52529160Y89209175D01*
X52395102Y89507041D01*
X52395101Y89507043D01*
X52226112Y89786586D01*
X52078522Y89974968D01*
X50936290Y88832737D01*
X50839033Y88966602D01*
X50716602Y89089033D01*
X50582737Y89186290D01*
X51724968Y90328522D01*
X51724968Y90328523D01*
X51536586Y90476112D01*
X51257043Y90645101D01*
X51257041Y90645102D01*
X50959175Y90779160D01*
X50959164Y90779164D01*
X50647341Y90876332D01*
X50326038Y90935213D01*
X50000000Y90954934D01*
X49673961Y90935213D01*
X49352658Y90876332D01*
X49040835Y90779164D01*
X49040824Y90779160D01*
X48742958Y90645102D01*
X48742956Y90645101D01*
X48463423Y90476118D01*
X48275030Y90328523D01*
X48275030Y90328522D01*
X49417262Y89186290D01*
X49283398Y89089033D01*
X49160967Y88966602D01*
X49063708Y88832736D01*
X47921476Y89974968D01*
X47773881Y89786576D01*
X47604898Y89507043D01*
X47604897Y89507041D01*
X47470839Y89209175D01*
X47470835Y89209164D01*
X47373667Y88897341D01*
X47314786Y88576038D01*
X47295065Y88250000D01*
X20348217Y88250000D01*
X29729856Y91269379D01*
X29977486Y91349076D01*
X30015475Y91355039D01*
X51417726Y91355039D01*
X51428130Y91354602D01*
X51577069Y91342061D01*
X51589381Y91340400D01*
X51734369Y91313382D01*
X51746391Y91310515D01*
X51887349Y91269379D01*
X51899007Y91265337D01*
X52034952Y91210487D01*
X52046102Y91205332D01*
X52176088Y91137230D01*
X52186739Y91130955D01*
X52309655Y91050013D01*
X52319651Y91042688D01*
X52433857Y90949879D01*
X52444325Y90940329D01*
X53076292Y90293864D01*
X53076549Y90293600D01*
X53636669Y89717207D01*
X53636670Y89717207D01*
X54196800Y89140813D01*
X54756920Y88564419D01*
X55317040Y87988025D01*
X55691534Y87602658D01*
X55877169Y87411633D01*
X55877170Y87411632D01*
X56997410Y86258844D01*
X56997524Y86258726D01*
X57030157Y86225056D01*
X57036768Y86217665D01*
X57121153Y86115373D01*
X57148629Y86051133D01*
X57149500Y86036465D01*
X57149500Y33107797D01*
X57169979Y33031367D01*
X57169982Y33031362D01*
X57209535Y32962853D01*
X57209541Y32962845D01*
X57265487Y32906899D01*
X57265495Y32906893D01*
X57334004Y32867340D01*
X57334013Y32867336D01*
X57358096Y32860883D01*
X57417755Y32824517D01*
X57448283Y32761670D01*
X57450000Y32741109D01*
X57450000Y28581577D01*
X57449588Y28571480D01*
X57437523Y28423803D01*
X57435819Y28411088D01*
X57408901Y28267266D01*
X57406137Y28255632D01*
X57365593Y28115424D01*
X57361634Y28103893D01*
X57307684Y27968761D01*
X57302561Y27957575D01*
X57235439Y27828367D01*
X57229237Y27817751D01*
X57149376Y27695406D01*
X57142130Y27685427D01*
X57050469Y27571567D01*
X57041136Y27561222D01*
X56552442Y27077219D01*
X56552110Y27076891D01*
X56132810Y26664734D01*
X55713400Y26252469D01*
X55294001Y25840205D01*
X55294000Y25840204D01*
X54035770Y24603409D01*
X53616324Y24191109D01*
X53578154Y24153528D01*
X53578152Y24153526D01*
X53474000Y24032449D01*
X53473998Y24032446D01*
X53383006Y23902494D01*
X53383001Y23902487D01*
X53305698Y23764707D01*
X53305697Y23764704D01*
X53242402Y23620230D01*
X53242395Y23620209D01*
X53193501Y23470097D01*
X53193498Y23470087D01*
X53159598Y23315390D01*
X53141401Y23157242D01*
X53141400Y23157224D01*
X53138400Y20322255D01*
X53138400Y17594362D01*
X53138000Y14866441D01*
X53138000Y14866440D01*
X53137590Y12138480D01*
X53137590Y3902258D01*
X53150590Y3746740D01*
X53150591Y3746731D01*
X53178189Y3594102D01*
X53220185Y3445452D01*
X53220190Y3445439D01*
X53276286Y3301697D01*
X53345989Y3163862D01*
X53428791Y3033078D01*
X53524489Y2910250D01*
X53524491Y2910248D01*
X54020326Y2401383D01*
X54219793Y2198143D01*
X54444800Y1968880D01*
X54869280Y1536380D01*
X55293760Y1103870D01*
X55718240Y671370D01*
X56142720Y238860D01*
X56567200Y-193640D01*
X56991674Y-626143D01*
X56991678Y-626151D01*
X56991680Y-626150D01*
X57024870Y-659973D01*
X57031594Y-667404D01*
X57124453Y-778752D01*
X57131736Y-788405D01*
X57212253Y-906718D01*
X57218518Y-916959D01*
X57286825Y-1041830D01*
X57292102Y-1052704D01*
X57347899Y-1183564D01*
X57352023Y-1194682D01*
X57395116Y-1330438D01*
X57398185Y-1342018D01*
X57428065Y-1481708D01*
X57430013Y-1493627D01*
X57446139Y-1635364D01*
X57446934Y-1649298D01*
X57449930Y-6045970D01*
X57449930Y-10344990D01*
X57449950Y-14644030D01*
X57450000Y-25691910D01*
X57450000Y-30038834D01*
X57449578Y-30049053D01*
X57437506Y-30195039D01*
X57435890Y-30207207D01*
X57409784Y-30349433D01*
X57407052Y-30361107D01*
X57367470Y-30499663D01*
X57363565Y-30511166D01*
X57310708Y-30644949D01*
X57305766Y-30655879D01*
X57240144Y-30784096D01*
X57234140Y-30794542D01*
X57156236Y-30916017D01*
X57149060Y-30926067D01*
X57059436Y-31039221D01*
X57050412Y-31049412D01*
X56663950Y-31440298D01*
X56663529Y-31440721D01*
X56345210Y-31759597D01*
X56345211Y-31759598D01*
X56116758Y-31988468D01*
X56026610Y-32078780D01*
X55708010Y-32397960D01*
X55389410Y-32717130D01*
X55070800Y-33036310D01*
X54752200Y-33355480D01*
X54752199Y-33355480D01*
X54433616Y-33674642D01*
X54433617Y-33674643D01*
X54399734Y-33708615D01*
X54392189Y-33715578D01*
X54280107Y-33810730D01*
X54270471Y-33818130D01*
X54151309Y-33900683D01*
X54140960Y-33907124D01*
X54014739Y-33977318D01*
X54003904Y-33982670D01*
X53875342Y-34038551D01*
X53872537Y-34039771D01*
X53871706Y-34040132D01*
X53860324Y-34044428D01*
X53722983Y-34088707D01*
X53711333Y-34091846D01*
X53570032Y-34122634D01*
X53557777Y-34124668D01*
X53414175Y-34141156D01*
X53400134Y-34141965D01*
X49785450Y-34144960D01*
X46269710Y-34144960D01*
X42753980Y-34144960D01*
X39238240Y-34144960D01*
X35722500Y-34144960D01*
X32206760Y-34144960D01*
X28691020Y-34144960D01*
X25175280Y-34144960D01*
X25127183Y-34144960D01*
X25117005Y-34144542D01*
X24970484Y-34132475D01*
X24958057Y-34130815D01*
X24881449Y-34116610D01*
X24815367Y-34104357D01*
X24803665Y-34101594D01*
X24664505Y-34061525D01*
X24653110Y-34057635D01*
X24518868Y-34004407D01*
X24507778Y-33999366D01*
X24379250Y-33933142D01*
X24368748Y-33927063D01*
X24248315Y-33849244D01*
X24246957Y-33848366D01*
X24237082Y-33841276D01*
X24123649Y-33751076D01*
X24113296Y-33741853D01*
X23622189Y-33252438D01*
X23621849Y-33252098D01*
X23202550Y-32830990D01*
X22783099Y-32409729D01*
X22783099Y-32409728D01*
X22363640Y-31988470D01*
X22363638Y-31988468D01*
X21944189Y-31567199D01*
X21944189Y-31567198D01*
X21524740Y-31145940D01*
X21258820Y-30878873D01*
X21105290Y-30724680D01*
X21105289Y-30724678D01*
X20685830Y-30303420D01*
X20685785Y-30303375D01*
X20648330Y-30265720D01*
X20527781Y-30163091D01*
X20527782Y-30163091D01*
X20398548Y-30073388D01*
X20398544Y-30073386D01*
X20266641Y-30000000D01*
X33295065Y-30000000D01*
X33314786Y-30326038D01*
X33373667Y-30647341D01*
X33470835Y-30959164D01*
X33470839Y-30959175D01*
X33604897Y-31257041D01*
X33604898Y-31257043D01*
X33773881Y-31536576D01*
X33921476Y-31724968D01*
X35063708Y-30582736D01*
X35160967Y-30716602D01*
X35283398Y-30839033D01*
X35417262Y-30936290D01*
X34275030Y-32078522D01*
X34275030Y-32078523D01*
X34463423Y-32226118D01*
X34742956Y-32395101D01*
X34742958Y-32395102D01*
X35040824Y-32529160D01*
X35040835Y-32529164D01*
X35352658Y-32626332D01*
X35673961Y-32685213D01*
X36000000Y-32704934D01*
X36326038Y-32685213D01*
X36647341Y-32626332D01*
X36959164Y-32529164D01*
X36959175Y-32529160D01*
X37257041Y-32395102D01*
X37257043Y-32395101D01*
X37536586Y-32226112D01*
X37724968Y-32078523D01*
X37724968Y-32078522D01*
X36582737Y-30936290D01*
X36716602Y-30839033D01*
X36839033Y-30716602D01*
X36936290Y-30582737D01*
X38078522Y-31724968D01*
X38078523Y-31724968D01*
X38226112Y-31536586D01*
X38395101Y-31257043D01*
X38395102Y-31257041D01*
X38523195Y-30972428D01*
X48360400Y-30972428D01*
X48374469Y-31111548D01*
X48388452Y-31148120D01*
X48424070Y-31241280D01*
X48507170Y-31353210D01*
X48619630Y-31438910D01*
X48757710Y-31490010D01*
X48775046Y-31490293D01*
X49260432Y-31498230D01*
X49643818Y-31498355D01*
X49657510Y-31498360D01*
X50054558Y-31498479D01*
X50054559Y-31498480D01*
X50054560Y-31498480D01*
X50451610Y-31498610D01*
X50848660Y-31498740D01*
X51245708Y-31498859D01*
X51245709Y-31498860D01*
X51245710Y-31498860D01*
X51642770Y-31498990D01*
X52039820Y-31499110D01*
X52067920Y-31499110D01*
X52151520Y-31492110D01*
X52233720Y-31478510D01*
X52313920Y-31456410D01*
X52391820Y-31428010D01*
X52391823Y-31428008D01*
X52391827Y-31428007D01*
X52466703Y-31392218D01*
X52466720Y-31392210D01*
X52538120Y-31349410D01*
X52605720Y-31300010D01*
X52880940Y-31049840D01*
X53113860Y-30836680D01*
X53346780Y-30623510D01*
X53579710Y-30410350D01*
X53812630Y-30197180D01*
X53947891Y-30073388D01*
X54045548Y-29984012D01*
X54045550Y-29984010D01*
X54188277Y-29853391D01*
X54278470Y-29770850D01*
X54511390Y-29557680D01*
X54511401Y-29557692D01*
X54511441Y-29557633D01*
X54534690Y-29536380D01*
X54598090Y-29467180D01*
X54653690Y-29392380D01*
X54700990Y-29312480D01*
X54739890Y-29228280D01*
X54770290Y-29140580D01*
X54790190Y-29049780D01*
X54801790Y-28956780D01*
X54803840Y-28418320D01*
X54803880Y-27942870D01*
X54803920Y-27467410D01*
X54803970Y-26991960D01*
X54804020Y-26516500D01*
X54804060Y-26041040D01*
X54804100Y-25565590D01*
X54804150Y-25090130D01*
X54804150Y-25033230D01*
X54763650Y-24882170D01*
X54763648Y-24882167D01*
X54763648Y-24882166D01*
X54725312Y-24823006D01*
X54683350Y-24758250D01*
X54572740Y-24665360D01*
X54572737Y-24665358D01*
X54484808Y-24626270D01*
X54441370Y-24606960D01*
X54441368Y-24606959D01*
X54441367Y-24606959D01*
X54298741Y-24587260D01*
X54298740Y-24587260D01*
X54250566Y-24594593D01*
X54154218Y-24609260D01*
X54017410Y-24676659D01*
X53936336Y-24752004D01*
X53816461Y-24882170D01*
X53256270Y-25490450D01*
X53256269Y-25490450D01*
X52576200Y-26228910D01*
X51896140Y-26967359D01*
X51896140Y-26967360D01*
X51216070Y-27705810D01*
X51216069Y-27705809D01*
X50536000Y-28444260D01*
X49855930Y-29182720D01*
X49175870Y-29921169D01*
X49175870Y-29921170D01*
X48495800Y-30659620D01*
X48495729Y-30659696D01*
X48458903Y-30699615D01*
X48458900Y-30699619D01*
X48458900Y-30699620D01*
X48435786Y-30742760D01*
X48387800Y-30832320D01*
X48360400Y-30972428D01*
X38523195Y-30972428D01*
X38529160Y-30959175D01*
X38529164Y-30959164D01*
X38626332Y-30647341D01*
X38685213Y-30326038D01*
X38704934Y-30000000D01*
X38685213Y-29673961D01*
X38626332Y-29352658D01*
X38529164Y-29040835D01*
X38529160Y-29040824D01*
X38395102Y-28742958D01*
X38395101Y-28742956D01*
X38226118Y-28463423D01*
X38078522Y-28275030D01*
X36936290Y-29417262D01*
X36839033Y-29283398D01*
X36716602Y-29160967D01*
X36582736Y-29063709D01*
X37724968Y-27921476D01*
X37536576Y-27773881D01*
X37257043Y-27604898D01*
X37257041Y-27604897D01*
X36959175Y-27470839D01*
X36959164Y-27470835D01*
X36647341Y-27373667D01*
X36326038Y-27314786D01*
X36000000Y-27295065D01*
X35673961Y-27314786D01*
X35352658Y-27373667D01*
X35040835Y-27470835D01*
X35040824Y-27470839D01*
X34742958Y-27604897D01*
X34742956Y-27604898D01*
X34463422Y-27773881D01*
X34463416Y-27773886D01*
X34275030Y-27921474D01*
X34275029Y-27921476D01*
X35417262Y-29063709D01*
X35283398Y-29160967D01*
X35160967Y-29283398D01*
X35063709Y-29417262D01*
X33921476Y-28275029D01*
X33921474Y-28275030D01*
X33773886Y-28463416D01*
X33773881Y-28463422D01*
X33604898Y-28742956D01*
X33604897Y-28742958D01*
X33470839Y-29040824D01*
X33470835Y-29040835D01*
X33373667Y-29352658D01*
X33314786Y-29673961D01*
X33295065Y-30000000D01*
X20266641Y-30000000D01*
X20261585Y-29997187D01*
X20185411Y-29964140D01*
X20117990Y-29934890D01*
X19968890Y-29886790D01*
X19968888Y-29886789D01*
X19968887Y-29886789D01*
X19815388Y-29853391D01*
X19815380Y-29853390D01*
X19658410Y-29835390D01*
X19658402Y-29835389D01*
X19658399Y-29835389D01*
X18812682Y-29832390D01*
X18812620Y-29832390D01*
X18072890Y-29832390D01*
X17333160Y-29832390D01*
X16593430Y-29832390D01*
X15853700Y-29832390D01*
X15113970Y-29832390D01*
X14374230Y-29832390D01*
X13634500Y-29832390D01*
X13581100Y-29832390D01*
X13581098Y-29832390D01*
X13550000Y-29834938D01*
X13422470Y-29845390D01*
X13422463Y-29845391D01*
X13422456Y-29845392D01*
X13266990Y-29874287D01*
X13266982Y-29874289D01*
X13266980Y-29874290D01*
X13115590Y-29917990D01*
X13115584Y-29917992D01*
X13115579Y-29917994D01*
X12969506Y-29976187D01*
X12829777Y-30048486D01*
X12829765Y-30048492D01*
X12697384Y-30134494D01*
X12573547Y-30233692D01*
X12573546Y-30233693D01*
X12081321Y-30727879D01*
X11665830Y-31148118D01*
X11665830Y-31148120D01*
X11552205Y-31263050D01*
X11250351Y-31568369D01*
X11250350Y-31568370D01*
X10834860Y-31988620D01*
X10419380Y-32408860D01*
X10003890Y-32829110D01*
X9588410Y-33249350D01*
X9172955Y-33669564D01*
X9172918Y-33669602D01*
X9138952Y-33703928D01*
X9131392Y-33710958D01*
X9019028Y-33807029D01*
X9009321Y-33814529D01*
X8964200Y-33845960D01*
X8889589Y-33897931D01*
X8879258Y-33904397D01*
X8752434Y-33975352D01*
X8741551Y-33980758D01*
X8608571Y-34038880D01*
X8597204Y-34043198D01*
X8459133Y-34088029D01*
X8447320Y-34091229D01*
X8305230Y-34122290D01*
X8292968Y-34124333D01*
X8148352Y-34141026D01*
X8134557Y-34141843D01*
X7263943Y-34144819D01*
X7263519Y-34144820D01*
X6492430Y-34144820D01*
X5721210Y-34144820D01*
X-4949080Y-34144820D01*
X-5720300Y-34144820D01*
X-6491510Y-34144820D01*
X-7262740Y-34144820D01*
X-8033960Y-34144820D01*
X-8082282Y-34144820D01*
X-8092410Y-34144406D01*
X-8104560Y-34143410D01*
X-8239628Y-34132339D01*
X-8252237Y-34130650D01*
X-8395535Y-34103919D01*
X-8407194Y-34101155D01*
X-8546924Y-34060810D01*
X-8558429Y-34056868D01*
X-8693132Y-34003190D01*
X-8704283Y-33998094D01*
X-8833168Y-33931303D01*
X-8843611Y-33925228D01*
X-8965764Y-33845965D01*
X-8975720Y-33838780D01*
X-9089357Y-33747889D01*
X-9099749Y-33738572D01*
X-9587150Y-33249350D01*
X-9587484Y-33249012D01*
X-10002630Y-32829110D01*
X-10002631Y-32829109D01*
X-10299171Y-32529164D01*
X-10418110Y-32408860D01*
X-10418110Y-32408858D01*
X-10833600Y-31988620D01*
X-10833602Y-31988618D01*
X-11249078Y-31568370D01*
X-11249079Y-31568371D01*
X-11317645Y-31499020D01*
X-11664570Y-31148120D01*
X-12080050Y-30727880D01*
X-12109927Y-30697660D01*
X-12495511Y-30307647D01*
X-12495512Y-30307648D01*
X-12533125Y-30269634D01*
X-12653987Y-30166091D01*
X-12783731Y-30075688D01*
X-12921158Y-29998695D01*
X-12921167Y-29998691D01*
X-13065339Y-29935786D01*
X-13215055Y-29887191D01*
X-13369268Y-29853488D01*
X-13526956Y-29835389D01*
X-14374177Y-29832390D01*
X-14374240Y-29832390D01*
X-15113980Y-29832390D01*
X-15853710Y-29832390D01*
X-16593440Y-29832390D01*
X-17333170Y-29832390D01*
X-18072900Y-29832390D01*
X-18812630Y-29832390D01*
X-19552360Y-29832390D01*
X-19605560Y-29832390D01*
X-19605561Y-29832390D01*
X-19763400Y-29845389D01*
X-19865114Y-29864189D01*
X-19918140Y-29873990D01*
X-19918145Y-29873991D01*
X-19918148Y-29873992D01*
X-20068718Y-29917192D01*
X-20177459Y-29960301D01*
X-20214260Y-29974890D01*
X-20214263Y-29974891D01*
X-20257611Y-29997190D01*
X-20353450Y-30046490D01*
X-20485410Y-30131690D01*
X-20609090Y-30230090D01*
X-21105290Y-30724680D01*
X-21105361Y-30724751D01*
X-21105456Y-30724846D01*
X-21524740Y-31145940D01*
X-21944189Y-31567198D01*
X-21944189Y-31567199D01*
X-22363638Y-31988468D01*
X-22363640Y-31988470D01*
X-22783099Y-32409728D01*
X-22783099Y-32409729D01*
X-23202550Y-32830990D01*
X-23622000Y-33252250D01*
X-24041427Y-33673486D01*
X-24041450Y-33673510D01*
X-24071706Y-33703928D01*
X-24075297Y-33707538D01*
X-24082887Y-33714556D01*
X-24194975Y-33809829D01*
X-24204589Y-33817221D01*
X-24250745Y-33849244D01*
X-24323880Y-33899984D01*
X-24334214Y-33906425D01*
X-24460546Y-33976794D01*
X-24471465Y-33982191D01*
X-24603984Y-34039771D01*
X-24615182Y-34044007D01*
X-24667048Y-34060810D01*
X-24752723Y-34088565D01*
X-24764580Y-34091767D01*
X-24906082Y-34122548D01*
X-24918240Y-34124566D01*
X-25062102Y-34141149D01*
X-25076198Y-34141965D01*
X-28691010Y-34144960D01*
X-32206750Y-34144960D01*
X-35722490Y-34144960D01*
X-39238230Y-34144960D01*
X-42753970Y-34144960D01*
X-46269710Y-34144960D01*
X-49785440Y-34144960D01*
X-53301180Y-34144960D01*
X-53349178Y-34144960D01*
X-53359370Y-34144540D01*
X-53375091Y-34143243D01*
X-53505650Y-34132473D01*
X-53518022Y-34130822D01*
X-53660513Y-34104449D01*
X-53672160Y-34101706D01*
X-53811049Y-34061836D01*
X-53822529Y-34057924D01*
X-53956598Y-34004780D01*
X-53967569Y-33999801D01*
X-54095929Y-33933855D01*
X-54106501Y-33927749D01*
X-54139540Y-33906428D01*
X-54228151Y-33849244D01*
X-54237990Y-33842190D01*
X-54351478Y-33752138D01*
X-54361753Y-33743013D01*
X-54751915Y-33355772D01*
X-54752323Y-33355365D01*
X-55070809Y-33036310D01*
X-55070811Y-33036309D01*
X-55389410Y-32717130D01*
X-55389410Y-32717129D01*
X-55708010Y-32397960D01*
X-56026620Y-32078780D01*
X-56026621Y-32078779D01*
X-56116768Y-31988468D01*
X-56345220Y-31759600D01*
X-56345220Y-31759599D01*
X-56663820Y-31440430D01*
X-56663821Y-31440429D01*
X-56687366Y-31416841D01*
X-56982420Y-31121250D01*
X-56992096Y-31111548D01*
X-57016219Y-31087359D01*
X-57023110Y-31079857D01*
X-57117653Y-30968037D01*
X-57125066Y-30958339D01*
X-57207174Y-30839190D01*
X-57213522Y-30828947D01*
X-57283356Y-30702969D01*
X-57288715Y-30692074D01*
X-57345791Y-30560107D01*
X-57350049Y-30548775D01*
X-57394054Y-30411660D01*
X-57397180Y-30399993D01*
X-57427707Y-30258916D01*
X-57429698Y-30246879D01*
X-57446190Y-30103685D01*
X-57447004Y-30089581D01*
X-57450000Y-25691995D01*
X-57450000Y-25691910D01*
X-57449997Y-25090080D01*
X-54804158Y-25090080D01*
X-54804113Y-25565540D01*
X-54804068Y-26040990D01*
X-54804023Y-26516450D01*
X-54803978Y-26991910D01*
X-54803933Y-27467360D01*
X-54803888Y-27942820D01*
X-54803843Y-28418270D01*
X-54803798Y-28893730D01*
X-54803798Y-28925330D01*
X-54795598Y-29018930D01*
X-54777918Y-29110530D01*
X-54750898Y-29199330D01*
X-54714978Y-29284830D01*
X-54670428Y-29366230D01*
X-54617568Y-29442830D01*
X-54617563Y-29442835D01*
X-54617560Y-29442840D01*
X-54556685Y-29514022D01*
X-54556678Y-29514030D01*
X-54278437Y-29770890D01*
X-54054118Y-29976187D01*
X-54045516Y-29984060D01*
X-53812595Y-30197229D01*
X-53579673Y-30410390D01*
X-53346752Y-30623550D01*
X-53346750Y-30623552D01*
X-53171331Y-30784096D01*
X-53113831Y-30836720D01*
X-52880909Y-31049890D01*
X-52647988Y-31263050D01*
X-52627218Y-31282050D01*
X-52561108Y-31333650D01*
X-52490898Y-31378650D01*
X-52490889Y-31378654D01*
X-52490887Y-31378656D01*
X-52477956Y-31385350D01*
X-52417108Y-31416850D01*
X-52340238Y-31448050D01*
X-52260798Y-31472450D01*
X-52179288Y-31488550D01*
X-52179278Y-31488551D01*
X-52179274Y-31488552D01*
X-52133187Y-31493876D01*
X-52096208Y-31498150D01*
X-51643053Y-31499020D01*
X-51245958Y-31498900D01*
X-50848863Y-31498780D01*
X-50451768Y-31498650D01*
X-50054673Y-31498520D01*
X-49657578Y-31498400D01*
X-49260483Y-31498270D01*
X-48863388Y-31498150D01*
X-48808928Y-31498150D01*
X-48663089Y-31460450D01*
X-48541715Y-31385350D01*
X-48448474Y-31281250D01*
X-48387034Y-31156520D01*
X-48361024Y-31019590D01*
X-48361024Y-31019587D01*
X-48361023Y-31019583D01*
X-48374244Y-30878873D01*
X-48374246Y-30878865D01*
X-48430213Y-30742763D01*
X-48430215Y-30742760D01*
X-49104170Y-30000000D01*
X-38704934Y-30000000D01*
X-38685213Y-30326038D01*
X-38626332Y-30647341D01*
X-38529164Y-30959164D01*
X-38529160Y-30959175D01*
X-38395102Y-31257041D01*
X-38395101Y-31257043D01*
X-38226112Y-31536586D01*
X-38078522Y-31724968D01*
X-36936290Y-30582737D01*
X-36839033Y-30716602D01*
X-36716602Y-30839033D01*
X-36582737Y-30936290D01*
X-37724968Y-32078522D01*
X-37724968Y-32078523D01*
X-37536586Y-32226112D01*
X-37257043Y-32395101D01*
X-37257041Y-32395102D01*
X-36959175Y-32529160D01*
X-36959164Y-32529164D01*
X-36647341Y-32626332D01*
X-36326038Y-32685213D01*
X-36000000Y-32704934D01*
X-35673961Y-32685213D01*
X-35352658Y-32626332D01*
X-35040835Y-32529164D01*
X-35040824Y-32529160D01*
X-34742958Y-32395102D01*
X-34742956Y-32395101D01*
X-34463423Y-32226118D01*
X-34275030Y-32078523D01*
X-34275030Y-32078522D01*
X-35417262Y-30936290D01*
X-35283398Y-30839033D01*
X-35160967Y-30716602D01*
X-35063708Y-30582736D01*
X-33921476Y-31724968D01*
X-33773881Y-31536576D01*
X-33604898Y-31257043D01*
X-33604897Y-31257041D01*
X-33470839Y-30959175D01*
X-33470835Y-30959164D01*
X-33373667Y-30647341D01*
X-33314786Y-30326038D01*
X-33295065Y-30000000D01*
X-33314786Y-29673961D01*
X-33373667Y-29352658D01*
X-33470835Y-29040835D01*
X-33470839Y-29040824D01*
X-33604897Y-28742958D01*
X-33604898Y-28742956D01*
X-33773881Y-28463422D01*
X-33773886Y-28463416D01*
X-33921474Y-28275030D01*
X-33921476Y-28275029D01*
X-35063709Y-29417262D01*
X-35160967Y-29283398D01*
X-35283398Y-29160967D01*
X-35417262Y-29063709D01*
X-34275029Y-27921476D01*
X-34275030Y-27921474D01*
X-34463416Y-27773886D01*
X-34463422Y-27773881D01*
X-34742956Y-27604898D01*
X-34742958Y-27604897D01*
X-35040824Y-27470839D01*
X-35040835Y-27470835D01*
X-35352658Y-27373667D01*
X-35673961Y-27314786D01*
X-36000000Y-27295065D01*
X-36326038Y-27314786D01*
X-36647341Y-27373667D01*
X-36959164Y-27470835D01*
X-36959175Y-27470839D01*
X-37257041Y-27604897D01*
X-37257043Y-27604898D01*
X-37536576Y-27773881D01*
X-37724968Y-27921476D01*
X-36582736Y-29063709D01*
X-36716602Y-29160967D01*
X-36839033Y-29283398D01*
X-36936290Y-29417262D01*
X-38078522Y-28275030D01*
X-38078523Y-28275030D01*
X-38226118Y-28463423D01*
X-38395101Y-28742956D01*
X-38395102Y-28742958D01*
X-38529160Y-29040824D01*
X-38529164Y-29040835D01*
X-38626332Y-29352658D01*
X-38685213Y-29673961D01*
X-38704934Y-30000000D01*
X-49104170Y-30000000D01*
X-49175865Y-29920986D01*
X-49855930Y-29182530D01*
X-52576194Y-26228730D01*
X-53256261Y-25490270D01*
X-53936319Y-24751828D01*
X-53936326Y-24751820D01*
X-53974904Y-24709922D01*
X-53974907Y-24709919D01*
X-54107069Y-24626271D01*
X-54107071Y-24626270D01*
X-54107072Y-24626270D01*
X-54150237Y-24615101D01*
X-54250069Y-24589270D01*
X-54250070Y-24589270D01*
X-54250071Y-24589270D01*
X-54394397Y-24595270D01*
X-54465002Y-24619376D01*
X-54530590Y-24641769D01*
X-54530592Y-24641770D01*
X-54649157Y-24723570D01*
X-54649158Y-24723571D01*
X-54649159Y-24723572D01*
X-54671966Y-24752004D01*
X-54740595Y-24837560D01*
X-54795425Y-24979980D01*
X-54804158Y-25090080D01*
X-57449997Y-25090080D01*
X-57449983Y-21918550D01*
X-42600548Y-21918550D01*
X-42322788Y-22715790D01*
X-41776281Y-23336500D01*
X-41030192Y-23711520D01*
X-40186716Y-23762028D01*
X-40025540Y-23771680D01*
X-40025537Y-23771680D01*
X-39600534Y-23771680D01*
X-39175532Y-23771680D01*
X-38750530Y-23771680D01*
X-38453679Y-23771680D01*
X-38453677Y-23771680D01*
X-37656431Y-23493930D01*
X-37035713Y-22947430D01*
X-36660684Y-22201350D01*
X-36648124Y-21918550D01*
X-36000517Y-21918550D01*
X-35722757Y-22715790D01*
X-35176249Y-23336500D01*
X-34430161Y-23711520D01*
X-33586684Y-23762028D01*
X-33425508Y-23771680D01*
X-33425505Y-23771680D01*
X-33000502Y-23771680D01*
X-32575500Y-23771680D01*
X-32150498Y-23771680D01*
X-31853647Y-23771680D01*
X-31853645Y-23771680D01*
X-31056399Y-23493930D01*
X-30435679Y-22947430D01*
X-30060650Y-22201350D01*
X-30048090Y-21918550D01*
X-29400485Y-21918550D01*
X-29122724Y-22715790D01*
X-28576216Y-23336500D01*
X-27830127Y-23711520D01*
X-26986650Y-23762028D01*
X-26825474Y-23771680D01*
X-26825471Y-23771680D01*
X-26400469Y-23771680D01*
X-25975467Y-23771680D01*
X-25550465Y-23771680D01*
X-25253614Y-23771680D01*
X-25253612Y-23771680D01*
X-24456366Y-23493930D01*
X-23835648Y-22947430D01*
X-23460619Y-22201350D01*
X-23448059Y-21918550D01*
X-22800452Y-21918550D01*
X-22522692Y-22715790D01*
X-21976184Y-23336500D01*
X-21230095Y-23711520D01*
X-20386618Y-23762028D01*
X-20225442Y-23771680D01*
X-20225439Y-23771680D01*
X-19800437Y-23771680D01*
X-19375435Y-23771680D01*
X-18950433Y-23771680D01*
X-18653582Y-23771680D01*
X-18653580Y-23771680D01*
X-17856334Y-23493930D01*
X-17235615Y-22947430D01*
X-16860586Y-22201350D01*
X-16848026Y-21918550D01*
X-16200419Y-21918550D01*
X-15922659Y-22715790D01*
X-15376151Y-23336500D01*
X-14630063Y-23711520D01*
X-7837809Y-23765252D01*
X-7025389Y-23771680D01*
X-7025374Y-23771680D01*
X-340Y-23771680D01*
X7024700Y-23771680D01*
X14049730Y-23771680D01*
X14346578Y-23771680D01*
X14346580Y-23771680D01*
X15143830Y-23493930D01*
X15764550Y-22947430D01*
X16139580Y-22201350D01*
X16152139Y-21918550D01*
X16799740Y-21918550D01*
X17077500Y-22715790D01*
X17624010Y-23336500D01*
X18370100Y-23711520D01*
X19204463Y-23761483D01*
X19374747Y-23771680D01*
X19374750Y-23771680D01*
X19799760Y-23771680D01*
X20224760Y-23771680D01*
X20649760Y-23771680D01*
X20946608Y-23771680D01*
X20946610Y-23771680D01*
X21743860Y-23493930D01*
X22364580Y-22947430D01*
X22739610Y-22201350D01*
X22752169Y-21918550D01*
X23399770Y-21918550D01*
X23677530Y-22715790D01*
X24224040Y-23336500D01*
X24970130Y-23711520D01*
X25804503Y-23761483D01*
X25974787Y-23771680D01*
X25974790Y-23771680D01*
X26399790Y-23771680D01*
X26824790Y-23771680D01*
X27249790Y-23771680D01*
X27546638Y-23771680D01*
X27546640Y-23771680D01*
X28343890Y-23493930D01*
X28964610Y-22947430D01*
X29339640Y-22201350D01*
X29352199Y-21918550D01*
X29999810Y-21918550D01*
X30277570Y-22715790D01*
X30824080Y-23336500D01*
X31570170Y-23711520D01*
X32404533Y-23761483D01*
X32574817Y-23771680D01*
X32574820Y-23771680D01*
X32999820Y-23771680D01*
X33424830Y-23771680D01*
X33849830Y-23771680D01*
X34146678Y-23771680D01*
X34146680Y-23771680D01*
X34943930Y-23493930D01*
X35564650Y-22947430D01*
X35939680Y-22201350D01*
X35952239Y-21918550D01*
X36599840Y-21918550D01*
X36877600Y-22715790D01*
X37424110Y-23336500D01*
X38170200Y-23711520D01*
X39004563Y-23761483D01*
X39174847Y-23771680D01*
X39174850Y-23771680D01*
X39599860Y-23771680D01*
X40024860Y-23771680D01*
X40449860Y-23771680D01*
X40746708Y-23771680D01*
X40746710Y-23771680D01*
X41543960Y-23493930D01*
X42164680Y-22947430D01*
X42539710Y-22201350D01*
X42599870Y-20846700D01*
X42599870Y-20071690D01*
X42599870Y-19296680D01*
X42599870Y-18521680D01*
X42599870Y-18224830D01*
X42322120Y-17427580D01*
X41775610Y-16806860D01*
X41767831Y-16802950D01*
X41029521Y-16431840D01*
X40024863Y-16371680D01*
X40024860Y-16371680D01*
X39599860Y-16371680D01*
X39174850Y-16371680D01*
X38749850Y-16371680D01*
X38453000Y-16371680D01*
X38452998Y-16371680D01*
X37655749Y-16649430D01*
X37035032Y-17195937D01*
X37035030Y-17195939D01*
X37035030Y-17195940D01*
X36660000Y-17942030D01*
X36599840Y-19296680D01*
X36599840Y-20071690D01*
X36599840Y-20846700D01*
X36599840Y-21621700D01*
X36599840Y-21918550D01*
X35952239Y-21918550D01*
X35999840Y-20846700D01*
X35999840Y-20071690D01*
X35999840Y-19296680D01*
X35999840Y-18521680D01*
X35999840Y-18224830D01*
X35722090Y-17427580D01*
X35175580Y-16806860D01*
X35167801Y-16802950D01*
X34429491Y-16431840D01*
X33424833Y-16371680D01*
X33424830Y-16371680D01*
X32999820Y-16371680D01*
X32574820Y-16371680D01*
X32149820Y-16371680D01*
X31852970Y-16371680D01*
X31852968Y-16371680D01*
X31055719Y-16649430D01*
X30435002Y-17195937D01*
X30435000Y-17195939D01*
X30435000Y-17195940D01*
X30059970Y-17942030D01*
X29999810Y-19296680D01*
X29999810Y-20071690D01*
X29999810Y-20846700D01*
X29999810Y-21621700D01*
X29999810Y-21918550D01*
X29352199Y-21918550D01*
X29399800Y-20846700D01*
X29399800Y-20071690D01*
X29399800Y-19296680D01*
X29399800Y-18521680D01*
X29399800Y-18224830D01*
X29122050Y-17427580D01*
X28575540Y-16806860D01*
X28567761Y-16802950D01*
X27829451Y-16431840D01*
X26824793Y-16371680D01*
X26824790Y-16371680D01*
X26399790Y-16371680D01*
X25974790Y-16371680D01*
X25549790Y-16371680D01*
X25252930Y-16371680D01*
X25252928Y-16371680D01*
X24455679Y-16649430D01*
X23834961Y-17195929D01*
X23834960Y-17195930D01*
X23459930Y-17942020D01*
X23399770Y-19296680D01*
X23399770Y-20071690D01*
X23399770Y-20846700D01*
X23399770Y-21621700D01*
X23399770Y-21918550D01*
X22752169Y-21918550D01*
X22799770Y-20846700D01*
X22799770Y-20071690D01*
X22799770Y-19296680D01*
X22799770Y-18521680D01*
X22799770Y-18224830D01*
X22522020Y-17427580D01*
X21975510Y-16806860D01*
X21967731Y-16802950D01*
X21229421Y-16431840D01*
X20224763Y-16371680D01*
X20224760Y-16371680D01*
X19799760Y-16371680D01*
X19374750Y-16371680D01*
X18949750Y-16371680D01*
X18652900Y-16371680D01*
X18652898Y-16371680D01*
X17855649Y-16649430D01*
X17234932Y-17195937D01*
X17234930Y-17195939D01*
X17234930Y-17195940D01*
X16859900Y-17942030D01*
X16799740Y-19296680D01*
X16799740Y-20071690D01*
X16799740Y-20846700D01*
X16799740Y-21621700D01*
X16799740Y-21918550D01*
X16152139Y-21918550D01*
X16199740Y-20846700D01*
X16199740Y-20071690D01*
X16199740Y-19296680D01*
X16199740Y-18521680D01*
X16199740Y-18224830D01*
X15921990Y-17427580D01*
X15375480Y-16806860D01*
X15371569Y-16804894D01*
X14629392Y-16431840D01*
X7024715Y-16371680D01*
X7024700Y-16371680D01*
X-340Y-16371680D01*
X-7025374Y-16371680D01*
X-14050409Y-16371680D01*
X-14347263Y-16371680D01*
X-14347264Y-16371680D01*
X-15144514Y-16649430D01*
X-15765232Y-17195939D01*
X-15765235Y-17195943D01*
X-16140255Y-17942024D01*
X-16140255Y-17942027D01*
X-16140257Y-17942030D01*
X-16200419Y-19296680D01*
X-16200419Y-20071690D01*
X-16200419Y-20846700D01*
X-16200419Y-21621700D01*
X-16200419Y-21918550D01*
X-16848026Y-21918550D01*
X-16800422Y-20846700D01*
X-16800422Y-20071690D01*
X-16800422Y-19296680D01*
X-16800422Y-18521680D01*
X-16800422Y-18224830D01*
X-16800421Y-18224830D01*
X-17078177Y-17427579D01*
X-17624679Y-16806863D01*
X-17624684Y-16806858D01*
X-18370773Y-16431840D01*
X-19375432Y-16371680D01*
X-19375435Y-16371680D01*
X-19800437Y-16371680D01*
X-20225439Y-16371680D01*
X-20650441Y-16371680D01*
X-20947296Y-16371680D01*
X-20947297Y-16371680D01*
X-21744546Y-16649430D01*
X-22365265Y-17195939D01*
X-22365268Y-17195943D01*
X-22740288Y-17942024D01*
X-22740288Y-17942027D01*
X-22740290Y-17942030D01*
X-22800452Y-19296680D01*
X-22800452Y-20071690D01*
X-22800452Y-20846700D01*
X-22800452Y-21621700D01*
X-22800452Y-21918550D01*
X-23448059Y-21918550D01*
X-23400455Y-20846700D01*
X-23400455Y-20071690D01*
X-23400455Y-19296680D01*
X-23400455Y-18521680D01*
X-23400455Y-18224830D01*
X-23400454Y-18224830D01*
X-23678210Y-17427579D01*
X-24224712Y-16806863D01*
X-24224717Y-16806858D01*
X-24970806Y-16431840D01*
X-25975464Y-16371680D01*
X-25975467Y-16371680D01*
X-26400469Y-16371680D01*
X-26825471Y-16371680D01*
X-27250473Y-16371680D01*
X-27547328Y-16371680D01*
X-27547329Y-16371680D01*
X-28344578Y-16649430D01*
X-28965298Y-17195939D01*
X-28965301Y-17195943D01*
X-29340321Y-17942024D01*
X-29340321Y-17942027D01*
X-29340323Y-17942030D01*
X-29400485Y-19296680D01*
X-29400485Y-20071690D01*
X-29400485Y-20846700D01*
X-29400485Y-21621700D01*
X-29400485Y-21918550D01*
X-30048090Y-21918550D01*
X-30000486Y-20846700D01*
X-30000486Y-20071690D01*
X-30000486Y-19296680D01*
X-30000486Y-18521680D01*
X-30000486Y-18224830D01*
X-30000485Y-18224830D01*
X-30278241Y-17427579D01*
X-30824744Y-16806863D01*
X-30824749Y-16806858D01*
X-31570838Y-16431840D01*
X-32575497Y-16371680D01*
X-32575500Y-16371680D01*
X-33000502Y-16371680D01*
X-33425505Y-16371680D01*
X-33850507Y-16371680D01*
X-34147361Y-16371680D01*
X-34147362Y-16371680D01*
X-34944612Y-16649430D01*
X-35565330Y-17195939D01*
X-35565333Y-17195943D01*
X-35940353Y-17942024D01*
X-35940353Y-17942027D01*
X-35940355Y-17942030D01*
X-36000517Y-19296680D01*
X-36000517Y-20071690D01*
X-36000517Y-20846700D01*
X-36000517Y-21621700D01*
X-36000517Y-21918550D01*
X-36648124Y-21918550D01*
X-36600520Y-20846700D01*
X-36600520Y-20071690D01*
X-36600520Y-19296680D01*
X-36600520Y-18521680D01*
X-36600520Y-18224830D01*
X-36600519Y-18224830D01*
X-36878275Y-17427579D01*
X-37424777Y-16806863D01*
X-37424782Y-16806858D01*
X-38170871Y-16431840D01*
X-39175529Y-16371680D01*
X-39175532Y-16371680D01*
X-39600534Y-16371680D01*
X-40025537Y-16371680D01*
X-40450539Y-16371680D01*
X-40747393Y-16371680D01*
X-40747394Y-16371680D01*
X-41544643Y-16649430D01*
X-42165362Y-17195939D01*
X-42165365Y-17195943D01*
X-42540384Y-17942024D01*
X-42540384Y-17942027D01*
X-42540386Y-17942030D01*
X-42600548Y-19296680D01*
X-42600548Y-20071690D01*
X-42600548Y-20846700D01*
X-42600548Y-21621700D01*
X-42600548Y-21918550D01*
X-57449983Y-21918550D01*
X-57449950Y-14644030D01*
X-57449947Y-14018540D01*
X-42600548Y-14018540D01*
X-42322793Y-14815790D01*
X-41920565Y-15272640D01*
X-41846521Y-15356740D01*
X-41776288Y-15436510D01*
X-41030196Y-15811530D01*
X-40186716Y-15862038D01*
X-40025540Y-15871690D01*
X-40025537Y-15871690D01*
X-39600535Y-15871690D01*
X-39175532Y-15871690D01*
X-38750530Y-15871690D01*
X-38453678Y-15871690D01*
X-38453676Y-15871690D01*
X-37656425Y-15593940D01*
X-37035706Y-15047430D01*
X-37035703Y-15047426D01*
X-36660683Y-14301345D01*
X-36660682Y-14301339D01*
X-36659485Y-14274377D01*
X-36648123Y-14018540D01*
X-36000517Y-14018540D01*
X-35722762Y-14815790D01*
X-35176256Y-15436510D01*
X-34430164Y-15811530D01*
X-33586684Y-15862038D01*
X-33425508Y-15871690D01*
X-33425505Y-15871690D01*
X-33000502Y-15871690D01*
X-32575500Y-15871690D01*
X-32150498Y-15871690D01*
X-31853645Y-15871690D01*
X-31853643Y-15871690D01*
X-31056393Y-15593940D01*
X-30435672Y-15047430D01*
X-30435669Y-15047426D01*
X-30060649Y-14301345D01*
X-30060648Y-14301339D01*
X-30059451Y-14274377D01*
X-30047476Y-14004740D01*
X-29300485Y-14004740D01*
X-29035646Y-14764900D01*
X-28514557Y-15356740D01*
X-27803168Y-15714320D01*
X-27238405Y-15747453D01*
X-26825482Y-15771680D01*
X-26825471Y-15771680D01*
X-26400469Y-15771680D01*
X-25975467Y-15771680D01*
X-25550465Y-15771680D01*
X-25267421Y-15771680D01*
X-25267419Y-15771680D01*
X-24507252Y-15506850D01*
X-24211327Y-15246305D01*
X-23915404Y-14985761D01*
X-23915404Y-14985760D01*
X-23915403Y-14985760D01*
X-23557820Y-14274380D01*
X-23557819Y-14274379D01*
X-23557819Y-14274378D01*
X-23557819Y-14274377D01*
X-23546765Y-14018540D01*
X-22800452Y-14018540D01*
X-22522697Y-14815790D01*
X-21976191Y-15436510D01*
X-21230099Y-15811530D01*
X-20386618Y-15862038D01*
X-20225442Y-15871690D01*
X-20225439Y-15871690D01*
X-19800437Y-15871690D01*
X-19375435Y-15871690D01*
X-18950433Y-15871690D01*
X-18653580Y-15871690D01*
X-18653578Y-15871690D01*
X-17856328Y-15593940D01*
X-17235608Y-15047430D01*
X-17235605Y-15047426D01*
X-16860585Y-14301345D01*
X-16860584Y-14301339D01*
X-16859387Y-14274377D01*
X-16800422Y-12946690D01*
X-16200419Y-12946690D01*
X-16140257Y-14301340D01*
X-16140255Y-14301343D01*
X-16140255Y-14301345D01*
X-15796232Y-14985760D01*
X-15765233Y-15047430D01*
X-15144514Y-15593940D01*
X-14347263Y-15871690D01*
X-14347261Y-15871690D01*
X-12775403Y-15871690D01*
X-12775400Y-15871690D01*
X-12614223Y-15862038D01*
X-11770743Y-15811530D01*
X-11770741Y-15811529D01*
X-11770740Y-15811529D01*
X-11024652Y-15436511D01*
X-11024647Y-15436506D01*
X-10478145Y-14815790D01*
X-10298914Y-14301337D01*
X-10200390Y-14018540D01*
X-9600387Y-14018540D01*
X-9322632Y-14815790D01*
X-8776126Y-15436510D01*
X-8030034Y-15811530D01*
X-7186554Y-15862038D01*
X-7025378Y-15871690D01*
X-7025375Y-15871690D01*
X-6600372Y-15871690D01*
X-6175370Y-15871690D01*
X-5750368Y-15871690D01*
X-5453516Y-15871690D01*
X-5453514Y-15871690D01*
X-4656263Y-15593940D01*
X-4035544Y-15047430D01*
X-4035541Y-15047426D01*
X-3660521Y-14301345D01*
X-3660520Y-14301339D01*
X-3659323Y-14274377D01*
X-3647961Y-14018540D01*
X-3000355Y-14018540D01*
X-2722600Y-14815790D01*
X-2176094Y-15436510D01*
X-1430002Y-15811530D01*
X-586522Y-15862038D01*
X-425346Y-15871690D01*
X-425343Y-15871690D01*
X-342Y-15871690D01*
X424660Y-15871690D01*
X849660Y-15871690D01*
X1146508Y-15871690D01*
X1146510Y-15871690D01*
X1943760Y-15593940D01*
X2564480Y-15047430D01*
X2939510Y-14301340D01*
X2952069Y-14018540D01*
X3599680Y-14018540D01*
X3877430Y-14815790D01*
X4423940Y-15436510D01*
X5170030Y-15811530D01*
X6004403Y-15861493D01*
X6174687Y-15871690D01*
X6174690Y-15871690D01*
X6599690Y-15871690D01*
X7024700Y-15871690D01*
X7449700Y-15871690D01*
X7746548Y-15871690D01*
X7746550Y-15871690D01*
X8543800Y-15593940D01*
X9164520Y-15047430D01*
X9539550Y-14301340D01*
X9599710Y-12946690D01*
X10199710Y-12946690D01*
X10259870Y-14301340D01*
X10634900Y-15047430D01*
X11255620Y-15593940D01*
X12052870Y-15871690D01*
X12349720Y-15871690D01*
X12774720Y-15871690D01*
X13199730Y-15871690D01*
X13624730Y-15871690D01*
X14049728Y-15871690D01*
X14049730Y-15871690D01*
X14629390Y-15811530D01*
X15375480Y-15436510D01*
X15921990Y-14815790D01*
X16199740Y-14018540D01*
X16199740Y-13721690D01*
X16199740Y-12946690D01*
X16799740Y-12946690D01*
X16859900Y-14301340D01*
X17234930Y-15047430D01*
X17855650Y-15593940D01*
X18652900Y-15871690D01*
X18949750Y-15871690D01*
X19374750Y-15871690D01*
X19799760Y-15871690D01*
X20224760Y-15871690D01*
X20649758Y-15871690D01*
X20649760Y-15871690D01*
X21229420Y-15811530D01*
X21975510Y-15436510D01*
X22522020Y-14815790D01*
X22799770Y-14018540D01*
X22799770Y-13721690D01*
X22799770Y-12946690D01*
X23399770Y-12946690D01*
X23459930Y-14301350D01*
X23834960Y-15047440D01*
X24455680Y-15593940D01*
X25252930Y-15871690D01*
X25549790Y-15871690D01*
X25974790Y-15871690D01*
X26399790Y-15871690D01*
X26824790Y-15871690D01*
X27249788Y-15871690D01*
X27249790Y-15871690D01*
X27829450Y-15811530D01*
X28575540Y-15436510D01*
X29122050Y-14815790D01*
X29399800Y-14018540D01*
X29999810Y-14018540D01*
X30277560Y-14815790D01*
X30824070Y-15436510D01*
X31570160Y-15811530D01*
X32404533Y-15861493D01*
X32574817Y-15871690D01*
X32574820Y-15871690D01*
X32999820Y-15871690D01*
X33424830Y-15871690D01*
X33849830Y-15871690D01*
X34146678Y-15871690D01*
X34146680Y-15871690D01*
X34943930Y-15593940D01*
X35564650Y-15047430D01*
X35939680Y-14301340D01*
X35952239Y-14018540D01*
X36599840Y-14018540D01*
X36877590Y-14815790D01*
X37424100Y-15436510D01*
X38170190Y-15811530D01*
X39004563Y-15861493D01*
X39174847Y-15871690D01*
X39174850Y-15871690D01*
X39599860Y-15871690D01*
X40024860Y-15871690D01*
X40449860Y-15871690D01*
X40746708Y-15871690D01*
X40746710Y-15871690D01*
X41543960Y-15593940D01*
X42164680Y-15047430D01*
X42539710Y-14301340D01*
X42599870Y-12946690D01*
X42599870Y-12171690D01*
X42599870Y-11396700D01*
X42599870Y-10621700D01*
X42599870Y-10324850D01*
X42322120Y-9527600D01*
X41775610Y-8906880D01*
X41635631Y-8836520D01*
X41029521Y-8531860D01*
X40024863Y-8471700D01*
X40024860Y-8471700D01*
X39599860Y-8471700D01*
X39174850Y-8471700D01*
X38749850Y-8471700D01*
X38453000Y-8471700D01*
X38452998Y-8471700D01*
X37655749Y-8749450D01*
X37035032Y-9295957D01*
X37035030Y-9295959D01*
X37035030Y-9295960D01*
X36660000Y-10042050D01*
X36599840Y-11396700D01*
X36599840Y-12171690D01*
X36599840Y-12946690D01*
X36599840Y-13721690D01*
X36599840Y-14018540D01*
X35952239Y-14018540D01*
X35999840Y-12946690D01*
X35999840Y-12171690D01*
X35999840Y-11396700D01*
X35999840Y-10621700D01*
X35999840Y-10324850D01*
X35722090Y-9527600D01*
X35175580Y-8906880D01*
X35035601Y-8836520D01*
X34429491Y-8531860D01*
X33424833Y-8471700D01*
X33424830Y-8471700D01*
X32999820Y-8471700D01*
X32574820Y-8471700D01*
X32149820Y-8471700D01*
X31852970Y-8471700D01*
X31852968Y-8471700D01*
X31055719Y-8749450D01*
X30435002Y-9295957D01*
X30435000Y-9295959D01*
X30435000Y-9295960D01*
X30059970Y-10042050D01*
X29999810Y-11396700D01*
X29999810Y-12171690D01*
X29999810Y-12946690D01*
X29999810Y-13721690D01*
X29999810Y-14018540D01*
X29399800Y-14018540D01*
X29399800Y-13721690D01*
X29399800Y-12946690D01*
X29399800Y-12171690D01*
X29399800Y-11396700D01*
X29339640Y-10042050D01*
X28964610Y-9295960D01*
X28613276Y-8986630D01*
X28343890Y-8749450D01*
X27546641Y-8471700D01*
X27546640Y-8471700D01*
X27249790Y-8471700D01*
X26824790Y-8471700D01*
X26399790Y-8471700D01*
X25974790Y-8471700D01*
X25974787Y-8471700D01*
X24970129Y-8531860D01*
X24970127Y-8531860D01*
X24224041Y-8906879D01*
X24224039Y-8906880D01*
X23677530Y-9527598D01*
X23488907Y-10069001D01*
X23399770Y-10324850D01*
X23399770Y-10621700D01*
X23399770Y-11396700D01*
X23399770Y-12171690D01*
X23399770Y-12946690D01*
X22799770Y-12946690D01*
X22799770Y-12171690D01*
X22799770Y-11396700D01*
X22739610Y-10042050D01*
X22364580Y-9295960D01*
X22013246Y-8986630D01*
X21743860Y-8749450D01*
X20946611Y-8471700D01*
X20946610Y-8471700D01*
X20649760Y-8471700D01*
X20224760Y-8471700D01*
X19799760Y-8471700D01*
X19374750Y-8471700D01*
X19374747Y-8471700D01*
X18370089Y-8531860D01*
X18370087Y-8531860D01*
X17624001Y-8906879D01*
X17623999Y-8906880D01*
X17077490Y-9527599D01*
X16799740Y-10324848D01*
X16799740Y-10324850D01*
X16799740Y-10621700D01*
X16799740Y-11396700D01*
X16799740Y-12171690D01*
X16799740Y-12946690D01*
X16199740Y-12946690D01*
X16199740Y-12171690D01*
X16199740Y-11396700D01*
X16139580Y-10042050D01*
X15764550Y-9295960D01*
X15413216Y-8986630D01*
X15143830Y-8749450D01*
X14346581Y-8471700D01*
X14346580Y-8471700D01*
X14049730Y-8471700D01*
X13624730Y-8471700D01*
X13199730Y-8471700D01*
X12774720Y-8471700D01*
X12774717Y-8471700D01*
X11770059Y-8531860D01*
X11770057Y-8531860D01*
X11023971Y-8906879D01*
X11023969Y-8906880D01*
X10477460Y-9527599D01*
X10199710Y-10324848D01*
X10199710Y-10324850D01*
X10199710Y-10621700D01*
X10199710Y-11396700D01*
X10199710Y-12171690D01*
X10199710Y-12946690D01*
X9599710Y-12946690D01*
X9599710Y-12171690D01*
X9599710Y-11396700D01*
X9599710Y-10621700D01*
X9599710Y-10324850D01*
X9321960Y-9527600D01*
X8775450Y-8906880D01*
X8635471Y-8836520D01*
X8029361Y-8531860D01*
X7024703Y-8471700D01*
X7024700Y-8471700D01*
X6599690Y-8471700D01*
X6174690Y-8471700D01*
X5749690Y-8471700D01*
X5452840Y-8471700D01*
X5452838Y-8471700D01*
X4655589Y-8749450D01*
X4034872Y-9295957D01*
X4034870Y-9295959D01*
X4034870Y-9295960D01*
X3659840Y-10042050D01*
X3599680Y-11396700D01*
X3599680Y-12171690D01*
X3599680Y-12946690D01*
X3599680Y-13721690D01*
X3599680Y-14018540D01*
X2952069Y-14018540D01*
X2999670Y-12946690D01*
X2999670Y-12171690D01*
X2999670Y-11396700D01*
X2999670Y-10621700D01*
X2999670Y-10324850D01*
X2721920Y-9527600D01*
X2175410Y-8906880D01*
X2035431Y-8836520D01*
X1429321Y-8531860D01*
X424663Y-8471700D01*
X424660Y-8471700D01*
X-342Y-8471700D01*
X-425343Y-8471700D01*
X-850344Y-8471700D01*
X-1147199Y-8471700D01*
X-1147200Y-8471700D01*
X-1944449Y-8749450D01*
X-2565168Y-9295959D01*
X-2565171Y-9295963D01*
X-2940191Y-10042044D01*
X-2940191Y-10042047D01*
X-2940193Y-10042050D01*
X-3000355Y-11396700D01*
X-3000355Y-12171690D01*
X-3000355Y-12946690D01*
X-3000355Y-13721690D01*
X-3000355Y-14018540D01*
X-3647961Y-14018540D01*
X-3600358Y-12946690D01*
X-3600358Y-12171690D01*
X-3600358Y-11396700D01*
X-3600358Y-10621700D01*
X-3600358Y-10324850D01*
X-3600357Y-10324850D01*
X-3878113Y-9527599D01*
X-4424615Y-8906883D01*
X-4424620Y-8906878D01*
X-5170709Y-8531860D01*
X-6175367Y-8471700D01*
X-6175370Y-8471700D01*
X-6600372Y-8471700D01*
X-7025375Y-8471700D01*
X-7450377Y-8471700D01*
X-7747231Y-8471700D01*
X-7747232Y-8471700D01*
X-8544482Y-8749450D01*
X-9165200Y-9295959D01*
X-9165203Y-9295963D01*
X-9540223Y-10042044D01*
X-9540223Y-10042047D01*
X-9540225Y-10042050D01*
X-9600387Y-11396700D01*
X-9600387Y-12171690D01*
X-9600387Y-12946690D01*
X-9600387Y-13721690D01*
X-9600387Y-14018540D01*
X-10200390Y-14018540D01*
X-10200390Y-13721690D01*
X-10200390Y-12946690D01*
X-10200390Y-12171690D01*
X-10200390Y-11396700D01*
X-10200390Y-10621700D01*
X-10200391Y-10621680D01*
X-10260550Y-10042052D01*
X-10260552Y-10042047D01*
X-10635573Y-9295963D01*
X-10635576Y-9295959D01*
X-11256295Y-8749450D01*
X-12053544Y-8471700D01*
X-12053546Y-8471700D01*
X-12350401Y-8471700D01*
X-12775403Y-8471700D01*
X-13200405Y-8471700D01*
X-13625407Y-8471700D01*
X-13625410Y-8471700D01*
X-14630066Y-8531860D01*
X-14630068Y-8531860D01*
X-15376156Y-8906878D01*
X-15376158Y-8906880D01*
X-15922664Y-9527600D01*
X-16200419Y-10324850D01*
X-16200419Y-10621700D01*
X-16200419Y-11396700D01*
X-16200419Y-12171690D01*
X-16200419Y-12946690D01*
X-16800422Y-12946690D01*
X-16800422Y-12171690D01*
X-16800422Y-11396700D01*
X-16800422Y-10621700D01*
X-16800422Y-10324850D01*
X-16800421Y-10324850D01*
X-17078177Y-9527599D01*
X-17624679Y-8906883D01*
X-17624684Y-8906878D01*
X-18370773Y-8531860D01*
X-19375432Y-8471700D01*
X-19375435Y-8471700D01*
X-19800437Y-8471700D01*
X-20225439Y-8471700D01*
X-20650441Y-8471700D01*
X-20947296Y-8471700D01*
X-20947297Y-8471700D01*
X-21744546Y-8749450D01*
X-22365265Y-9295959D01*
X-22365268Y-9295963D01*
X-22740288Y-10042044D01*
X-22740288Y-10042047D01*
X-22740290Y-10042050D01*
X-22800452Y-11396700D01*
X-22800452Y-12171690D01*
X-22800452Y-12946690D01*
X-22800452Y-13721690D01*
X-22800452Y-14018540D01*
X-23546765Y-14018540D01*
X-23500455Y-12946699D01*
X-23500455Y-10338648D01*
X-23765286Y-9578479D01*
X-24286370Y-8986631D01*
X-24293824Y-8982883D01*
X-24997765Y-8629040D01*
X-25079240Y-8624260D01*
X-25975456Y-8571680D01*
X-25975467Y-8571680D01*
X-26400469Y-8571680D01*
X-26825471Y-8571680D01*
X-27250473Y-8571680D01*
X-27533522Y-8571680D01*
X-28293696Y-8836520D01*
X-28885546Y-9357608D01*
X-28885547Y-9357610D01*
X-29243125Y-10068997D01*
X-29243125Y-10068999D01*
X-29243126Y-10069000D01*
X-29300485Y-11396700D01*
X-29300485Y-12171690D01*
X-29300485Y-12946690D01*
X-29300485Y-13721690D01*
X-29300485Y-14004740D01*
X-30047476Y-14004740D01*
X-30000486Y-12946690D01*
X-30000486Y-12171690D01*
X-30000486Y-11396700D01*
X-30000486Y-10621700D01*
X-30000486Y-10324850D01*
X-30000485Y-10324850D01*
X-30278241Y-9527599D01*
X-30824744Y-8906883D01*
X-30824749Y-8906878D01*
X-31570838Y-8531860D01*
X-32575497Y-8471700D01*
X-32575500Y-8471700D01*
X-33000502Y-8471700D01*
X-33425505Y-8471700D01*
X-33850507Y-8471700D01*
X-34147361Y-8471700D01*
X-34147362Y-8471700D01*
X-34944612Y-8749450D01*
X-35565330Y-9295959D01*
X-35565333Y-9295963D01*
X-35940353Y-10042044D01*
X-35940353Y-10042047D01*
X-35940355Y-10042050D01*
X-36000517Y-11396700D01*
X-36000517Y-12171690D01*
X-36000517Y-12946690D01*
X-36000517Y-13721690D01*
X-36000517Y-14018540D01*
X-36648123Y-14018540D01*
X-36600520Y-12946690D01*
X-36600520Y-12171690D01*
X-36600520Y-11396700D01*
X-36600520Y-10621700D01*
X-36600520Y-10324850D01*
X-36600519Y-10324850D01*
X-36878275Y-9527599D01*
X-37424777Y-8906883D01*
X-37424782Y-8906878D01*
X-38170871Y-8531860D01*
X-39175529Y-8471700D01*
X-39175532Y-8471700D01*
X-39600535Y-8471700D01*
X-40025537Y-8471700D01*
X-40450539Y-8471700D01*
X-40747393Y-8471700D01*
X-40747394Y-8471700D01*
X-41544643Y-8749450D01*
X-42165362Y-9295959D01*
X-42165365Y-9295963D01*
X-42540384Y-10042044D01*
X-42540384Y-10042047D01*
X-42540386Y-10042050D01*
X-42600548Y-11396700D01*
X-42600548Y-12171690D01*
X-42600548Y-12946690D01*
X-42600548Y-13721690D01*
X-42600548Y-14018540D01*
X-57449947Y-14018540D01*
X-57449930Y-10344989D01*
X-57449930Y-6118530D01*
X-42600548Y-6118530D01*
X-42322796Y-6915780D01*
X-41776291Y-7536500D01*
X-41030198Y-7911530D01*
X-40527867Y-7941610D01*
X-40025540Y-7971690D01*
X-40025537Y-7971690D01*
X-39600535Y-7971690D01*
X-39175532Y-7971690D01*
X-38750530Y-7971690D01*
X-38453676Y-7971690D01*
X-38453675Y-7971690D01*
X-37656422Y-7693930D01*
X-37035702Y-7147430D01*
X-37035701Y-7147429D01*
X-37035699Y-7147427D01*
X-36660681Y-6401341D01*
X-36600520Y-5046680D01*
X-36000517Y-5046680D01*
X-35940356Y-6401340D01*
X-35940355Y-6401341D01*
X-35681769Y-6915790D01*
X-35565335Y-7147430D01*
X-34944615Y-7693930D01*
X-34147362Y-7971690D01*
X-34147361Y-7971690D01*
X-32575500Y-7971690D01*
X-32575497Y-7971690D01*
X-31972702Y-7935594D01*
X-31570838Y-7911530D01*
X-30824744Y-7536500D01*
X-30278238Y-6915780D01*
X-30000486Y-6118530D01*
X-29400485Y-6118530D01*
X-29122733Y-6915780D01*
X-28576227Y-7536500D01*
X-27830133Y-7911530D01*
X-27327802Y-7941610D01*
X-26825474Y-7971690D01*
X-26825471Y-7971690D01*
X-26400469Y-7971690D01*
X-25975467Y-7971690D01*
X-25550465Y-7971690D01*
X-25253611Y-7971690D01*
X-25253610Y-7971690D01*
X-24456357Y-7693930D01*
X-23835637Y-7147430D01*
X-23835636Y-7147429D01*
X-23835634Y-7147427D01*
X-23460616Y-6401341D01*
X-23448056Y-6118530D01*
X-22800452Y-6118530D01*
X-22522700Y-6915780D01*
X-21976194Y-7536500D01*
X-21230100Y-7911530D01*
X-20727769Y-7941610D01*
X-20225442Y-7971690D01*
X-20225439Y-7971690D01*
X-19800437Y-7971690D01*
X-19375435Y-7971690D01*
X-18950433Y-7971690D01*
X-18653578Y-7971690D01*
X-18653577Y-7971690D01*
X-17856325Y-7693930D01*
X-17235604Y-7147430D01*
X-17235603Y-7147429D01*
X-17235601Y-7147427D01*
X-16860583Y-6401341D01*
X-16834840Y-5821678D01*
X-16200419Y-5821678D01*
X-16200417Y-5821699D01*
X-16140259Y-6401336D01*
X-16140258Y-6401337D01*
X-16140258Y-6401340D01*
X-16140257Y-6401341D01*
X-15881671Y-6915790D01*
X-15765237Y-7147430D01*
X-15144517Y-7693930D01*
X-14347264Y-7971690D01*
X-14347263Y-7971690D01*
X-12775403Y-7971690D01*
X-12775400Y-7971690D01*
X-12172606Y-7935594D01*
X-11770742Y-7911530D01*
X-11024648Y-7536500D01*
X-10478142Y-6915780D01*
X-10200390Y-6118530D01*
X-9600387Y-6118530D01*
X-9322635Y-6915780D01*
X-8776130Y-7536500D01*
X-8030036Y-7911530D01*
X-7527705Y-7941610D01*
X-7025378Y-7971690D01*
X-7025375Y-7971690D01*
X-6600373Y-7971690D01*
X-6175370Y-7971690D01*
X-5750368Y-7971690D01*
X-5453514Y-7971690D01*
X-5453513Y-7971690D01*
X-4656260Y-7693930D01*
X-4035540Y-7147430D01*
X-4035539Y-7147429D01*
X-4035537Y-7147427D01*
X-3660519Y-6401341D01*
X-3647959Y-6118530D01*
X-3000355Y-6118530D01*
X-2722603Y-6915780D01*
X-2176097Y-7536500D01*
X-1430003Y-7911530D01*
X-927673Y-7941610D01*
X-425346Y-7971690D01*
X-425343Y-7971690D01*
X-342Y-7971690D01*
X424660Y-7971690D01*
X849660Y-7971690D01*
X1146519Y-7971690D01*
X1146520Y-7971690D01*
X1943770Y-7693930D01*
X2564490Y-7147430D01*
X2939510Y-6401340D01*
X2952069Y-6118531D01*
X3599680Y-6118531D01*
X3877430Y-6915780D01*
X4081382Y-7147427D01*
X4423940Y-7536500D01*
X5170030Y-7911530D01*
X5571894Y-7935594D01*
X6174687Y-7971690D01*
X6174690Y-7971690D01*
X6599700Y-7971690D01*
X7024700Y-7971690D01*
X7449700Y-7971690D01*
X7746559Y-7971690D01*
X7746560Y-7971690D01*
X8543810Y-7693930D01*
X9164530Y-7147430D01*
X9539550Y-6401340D01*
X9599710Y-5046680D01*
X10199710Y-5046680D01*
X10234128Y-5821699D01*
X10259870Y-6401341D01*
X10634887Y-7147427D01*
X10634889Y-7147429D01*
X10634890Y-7147430D01*
X11255610Y-7693930D01*
X12052860Y-7971690D01*
X12052861Y-7971690D01*
X13624730Y-7971690D01*
X13624733Y-7971690D01*
X14127060Y-7941610D01*
X14629390Y-7911530D01*
X15375480Y-7536500D01*
X15921990Y-6915780D01*
X16199740Y-6118531D01*
X16799740Y-6118531D01*
X17077490Y-6915780D01*
X17281442Y-7147427D01*
X17624000Y-7536500D01*
X18370090Y-7911530D01*
X18771954Y-7935594D01*
X19374747Y-7971690D01*
X19374750Y-7971690D01*
X19799760Y-7971690D01*
X20224760Y-7971690D01*
X20649760Y-7971690D01*
X20946619Y-7971690D01*
X20946620Y-7971690D01*
X21743870Y-7693930D01*
X22364590Y-7147430D01*
X22739610Y-6401340D01*
X22752169Y-6118533D01*
X23399770Y-6118533D01*
X23677517Y-6915785D01*
X23677519Y-6915789D01*
X24224019Y-7536497D01*
X24224030Y-7536510D01*
X24970130Y-7911530D01*
X25813610Y-7962038D01*
X25974787Y-7971690D01*
X25974790Y-7971690D01*
X26399790Y-7971690D01*
X26824790Y-7971690D01*
X27249790Y-7971690D01*
X27546649Y-7971690D01*
X27546650Y-7971690D01*
X28343900Y-7693930D01*
X28964620Y-7147430D01*
X29339640Y-6401340D01*
X29352199Y-6118531D01*
X29999810Y-6118531D01*
X30277560Y-6915780D01*
X30481512Y-7147427D01*
X30824070Y-7536500D01*
X31570160Y-7911530D01*
X31972024Y-7935594D01*
X32574817Y-7971690D01*
X32574820Y-7971690D01*
X32999820Y-7971690D01*
X33424830Y-7971690D01*
X33849830Y-7971690D01*
X34146689Y-7971690D01*
X34146690Y-7971690D01*
X34943940Y-7693930D01*
X35564660Y-7147430D01*
X35939680Y-6401340D01*
X35952239Y-6118531D01*
X36599840Y-6118531D01*
X36877590Y-6915780D01*
X37081542Y-7147427D01*
X37424100Y-7536500D01*
X38170190Y-7911530D01*
X38572054Y-7935594D01*
X39174847Y-7971690D01*
X39174850Y-7971690D01*
X39599860Y-7971690D01*
X40024860Y-7971690D01*
X40449860Y-7971690D01*
X40746719Y-7971690D01*
X40746720Y-7971690D01*
X41543970Y-7693930D01*
X42164690Y-7147430D01*
X42539710Y-6401340D01*
X42599870Y-5046680D01*
X42599870Y-4271690D01*
X42599870Y-3496690D01*
X42599870Y-3000000D01*
X50295065Y-3000000D01*
X50314786Y-3326038D01*
X50373667Y-3647341D01*
X50470835Y-3959164D01*
X50470839Y-3959175D01*
X50604897Y-4257041D01*
X50604898Y-4257043D01*
X50773881Y-4536576D01*
X50921476Y-4724968D01*
X52063708Y-3582736D01*
X52160967Y-3716602D01*
X52283398Y-3839033D01*
X52417262Y-3936290D01*
X51275030Y-5078522D01*
X51275030Y-5078523D01*
X51463423Y-5226118D01*
X51742956Y-5395101D01*
X51742958Y-5395102D01*
X52040824Y-5529160D01*
X52040835Y-5529164D01*
X52352658Y-5626332D01*
X52673961Y-5685213D01*
X53000000Y-5704934D01*
X53326038Y-5685213D01*
X53647341Y-5626332D01*
X53959164Y-5529164D01*
X53959175Y-5529160D01*
X54257041Y-5395102D01*
X54257043Y-5395101D01*
X54536586Y-5226112D01*
X54724968Y-5078523D01*
X54724968Y-5078522D01*
X53582737Y-3936290D01*
X53716602Y-3839033D01*
X53839033Y-3716602D01*
X53936290Y-3582737D01*
X55078522Y-4724968D01*
X55078523Y-4724968D01*
X55226112Y-4536586D01*
X55395101Y-4257043D01*
X55395102Y-4257041D01*
X55529160Y-3959175D01*
X55529164Y-3959164D01*
X55626332Y-3647341D01*
X55685213Y-3326038D01*
X55704934Y-3000000D01*
X55685213Y-2673961D01*
X55626332Y-2352658D01*
X55529164Y-2040835D01*
X55529160Y-2040824D01*
X55395102Y-1742958D01*
X55395101Y-1742956D01*
X55226118Y-1463423D01*
X55078522Y-1275030D01*
X53936290Y-2417261D01*
X53839033Y-2283398D01*
X53716602Y-2160967D01*
X53582736Y-2063709D01*
X54724968Y-921476D01*
X54536576Y-773881D01*
X54257043Y-604898D01*
X54257041Y-604897D01*
X53959175Y-470839D01*
X53959164Y-470835D01*
X53647341Y-373667D01*
X53326038Y-314786D01*
X53000000Y-295065D01*
X52673961Y-314786D01*
X52352658Y-373667D01*
X52040835Y-470835D01*
X52040824Y-470839D01*
X51742958Y-604897D01*
X51742956Y-604898D01*
X51463422Y-773881D01*
X51463416Y-773886D01*
X51275030Y-921474D01*
X51275029Y-921476D01*
X52417262Y-2063709D01*
X52283398Y-2160967D01*
X52160967Y-2283398D01*
X52063709Y-2417262D01*
X50921476Y-1275029D01*
X50921474Y-1275030D01*
X50773886Y-1463416D01*
X50773881Y-1463422D01*
X50604898Y-1742956D01*
X50604897Y-1742958D01*
X50470839Y-2040824D01*
X50470835Y-2040835D01*
X50373667Y-2352658D01*
X50314786Y-2673961D01*
X50295065Y-3000000D01*
X42599870Y-3000000D01*
X42599870Y-2721690D01*
X42599870Y-2424840D01*
X42322120Y-1627590D01*
X41775610Y-1006870D01*
X41664608Y-951075D01*
X41029521Y-631850D01*
X40024863Y-571690D01*
X40024860Y-571690D01*
X39599860Y-571690D01*
X39174850Y-571690D01*
X38749850Y-571690D01*
X38453000Y-571690D01*
X38452998Y-571690D01*
X37655749Y-849440D01*
X37035032Y-1395947D01*
X37035030Y-1395949D01*
X37035030Y-1395950D01*
X36660000Y-2142040D01*
X36647441Y-2424838D01*
X36599840Y-3496691D01*
X36599840Y-6118531D01*
X35952239Y-6118531D01*
X35999840Y-5046680D01*
X35999840Y-4271690D01*
X35999840Y-3496690D01*
X35999840Y-2721690D01*
X35999840Y-2424840D01*
X35722090Y-1627590D01*
X35175580Y-1006870D01*
X35064578Y-951075D01*
X34429491Y-631850D01*
X33424833Y-571690D01*
X33424830Y-571690D01*
X32999820Y-571690D01*
X32574820Y-571690D01*
X32149820Y-571690D01*
X31852970Y-571690D01*
X31852968Y-571690D01*
X31055719Y-849440D01*
X30435002Y-1395947D01*
X30435000Y-1395949D01*
X30435000Y-1395950D01*
X30059970Y-2142040D01*
X30047411Y-2424838D01*
X29999810Y-3496691D01*
X29999810Y-6118531D01*
X29352199Y-6118531D01*
X29399800Y-5046680D01*
X29399800Y-4271690D01*
X29399800Y-3496690D01*
X29399800Y-2721690D01*
X29399800Y-2424840D01*
X29122050Y-1627590D01*
X28575540Y-1006870D01*
X28464538Y-951075D01*
X27829451Y-631850D01*
X26824793Y-571690D01*
X26824790Y-571690D01*
X26399790Y-571690D01*
X25974790Y-571690D01*
X25549790Y-571690D01*
X25252930Y-571690D01*
X25252928Y-571690D01*
X24455679Y-849440D01*
X23909358Y-1330438D01*
X23834960Y-1395940D01*
X23459930Y-2142030D01*
X23421828Y-2999999D01*
X23399770Y-3496691D01*
X23399770Y-6118533D01*
X22752169Y-6118533D01*
X22799770Y-5046680D01*
X22799770Y-4271690D01*
X22799770Y-3496690D01*
X22799770Y-2721690D01*
X22799770Y-2424840D01*
X22522020Y-1627590D01*
X21975510Y-1006870D01*
X21864508Y-951075D01*
X21229421Y-631850D01*
X20224763Y-571690D01*
X20224760Y-571690D01*
X19799760Y-571690D01*
X19374750Y-571690D01*
X18949750Y-571690D01*
X18652900Y-571690D01*
X18652898Y-571690D01*
X17855649Y-849440D01*
X17234932Y-1395947D01*
X17234930Y-1395949D01*
X17234930Y-1395950D01*
X16859900Y-2142040D01*
X16847341Y-2424838D01*
X16799740Y-3496691D01*
X16799740Y-6118531D01*
X16199740Y-6118531D01*
X16199740Y-6118530D01*
X16199740Y-5821680D01*
X16199740Y-5046680D01*
X16199740Y-4271690D01*
X16199740Y-3496690D01*
X16199740Y-2721690D01*
X16139580Y-2142040D01*
X15764550Y-1395950D01*
X15690142Y-1330438D01*
X15143830Y-849440D01*
X14346581Y-571690D01*
X14346580Y-571690D01*
X14049730Y-571690D01*
X13624730Y-571690D01*
X13199720Y-571690D01*
X12774720Y-571690D01*
X12774717Y-571690D01*
X11770059Y-631850D01*
X11770057Y-631850D01*
X11023971Y-1006869D01*
X11023969Y-1006870D01*
X10477460Y-1627589D01*
X10199710Y-2424838D01*
X10199710Y-2424840D01*
X10199710Y-2721690D01*
X10199710Y-3496690D01*
X10199710Y-4271690D01*
X10199710Y-5046680D01*
X9599710Y-5046680D01*
X9599710Y-4271690D01*
X9599710Y-3496690D01*
X9599710Y-2721690D01*
X9599710Y-2424840D01*
X9321960Y-1627590D01*
X8775450Y-1006870D01*
X8664448Y-951075D01*
X8029361Y-631850D01*
X7024703Y-571690D01*
X7024700Y-571690D01*
X6599700Y-571690D01*
X6174690Y-571690D01*
X5749690Y-571690D01*
X5452840Y-571690D01*
X5452838Y-571690D01*
X4655589Y-849440D01*
X4034872Y-1395947D01*
X4034870Y-1395949D01*
X4034870Y-1395950D01*
X3659840Y-2142040D01*
X3647281Y-2424838D01*
X3599680Y-3496691D01*
X3599680Y-6118531D01*
X2952069Y-6118531D01*
X2999670Y-5046680D01*
X2999670Y-4271690D01*
X2999670Y-3496690D01*
X2999670Y-2721690D01*
X2999670Y-2424840D01*
X2721920Y-1627590D01*
X2175410Y-1006870D01*
X2064408Y-951075D01*
X1429321Y-631850D01*
X424663Y-571690D01*
X424660Y-571690D01*
X-342Y-571690D01*
X-425343Y-571690D01*
X-850344Y-571690D01*
X-1147199Y-571690D01*
X-1147200Y-571690D01*
X-1944449Y-849440D01*
X-2565168Y-1395949D01*
X-2565171Y-1395953D01*
X-2940191Y-2142034D01*
X-2940191Y-2142037D01*
X-2940193Y-2142040D01*
X-3000355Y-3496690D01*
X-3000355Y-4271690D01*
X-3000355Y-5046680D01*
X-3000355Y-5821680D01*
X-3000355Y-6118530D01*
X-3647959Y-6118530D01*
X-3600358Y-5046678D01*
X-3600358Y-2424840D01*
X-3600357Y-2424840D01*
X-3878113Y-1627589D01*
X-4424615Y-1006873D01*
X-4424620Y-1006868D01*
X-5170709Y-631850D01*
X-6175367Y-571690D01*
X-6175370Y-571690D01*
X-6600373Y-571690D01*
X-7025375Y-571690D01*
X-7450377Y-571690D01*
X-7747231Y-571690D01*
X-7747232Y-571690D01*
X-8544482Y-849440D01*
X-9165200Y-1395949D01*
X-9165203Y-1395953D01*
X-9540223Y-2142034D01*
X-9540223Y-2142037D01*
X-9540225Y-2142040D01*
X-9600387Y-3496690D01*
X-9600387Y-4271690D01*
X-9600387Y-5046680D01*
X-9600387Y-5821680D01*
X-9600387Y-6118530D01*
X-10200390Y-6118530D01*
X-10200390Y-5821680D01*
X-10200390Y-5046680D01*
X-10200390Y-4271690D01*
X-10200390Y-3496690D01*
X-10260552Y-2142040D01*
X-10260553Y-2142034D01*
X-10635573Y-1395953D01*
X-10635576Y-1395949D01*
X-11256295Y-849440D01*
X-12053544Y-571690D01*
X-12053546Y-571690D01*
X-12350401Y-571690D01*
X-12775403Y-571690D01*
X-13200405Y-571690D01*
X-13625407Y-571690D01*
X-13625410Y-571690D01*
X-14630066Y-631850D01*
X-14630068Y-631850D01*
X-15376156Y-1006868D01*
X-15376161Y-1006873D01*
X-15718710Y-1395940D01*
X-15922664Y-1627590D01*
X-16175271Y-2352658D01*
X-16200419Y-2424840D01*
X-16200419Y-5821678D01*
X-16834840Y-5821678D01*
X-16800422Y-5046678D01*
X-16800422Y-2424840D01*
X-16800421Y-2424840D01*
X-17078177Y-1627589D01*
X-17624679Y-1006873D01*
X-17624684Y-1006868D01*
X-18370773Y-631850D01*
X-19375432Y-571690D01*
X-19375435Y-571690D01*
X-19800437Y-571690D01*
X-20225439Y-571690D01*
X-20650441Y-571690D01*
X-20947296Y-571690D01*
X-20947297Y-571690D01*
X-21744546Y-849440D01*
X-22365265Y-1395949D01*
X-22365268Y-1395953D01*
X-22740288Y-2142034D01*
X-22740288Y-2142037D01*
X-22740290Y-2142040D01*
X-22800452Y-3496690D01*
X-22800452Y-4271690D01*
X-22800452Y-5046680D01*
X-22800452Y-5821680D01*
X-22800452Y-6118530D01*
X-23448056Y-6118530D01*
X-23400455Y-5046678D01*
X-23400455Y-2424840D01*
X-23400454Y-2424840D01*
X-23678210Y-1627589D01*
X-24224712Y-1006873D01*
X-24224717Y-1006868D01*
X-24970806Y-631850D01*
X-25975464Y-571690D01*
X-25975467Y-571690D01*
X-26400469Y-571690D01*
X-26825471Y-571690D01*
X-27250473Y-571690D01*
X-27547328Y-571690D01*
X-27547329Y-571690D01*
X-28344578Y-849440D01*
X-28965298Y-1395949D01*
X-28965301Y-1395953D01*
X-29340321Y-2142034D01*
X-29340321Y-2142037D01*
X-29340323Y-2142040D01*
X-29400485Y-3496690D01*
X-29400485Y-4271690D01*
X-29400485Y-5046680D01*
X-29400485Y-5821680D01*
X-29400485Y-6118530D01*
X-30000486Y-6118530D01*
X-30000486Y-5821680D01*
X-30000486Y-5046680D01*
X-30000486Y-4271690D01*
X-30000486Y-3496690D01*
X-30060648Y-2142040D01*
X-30060649Y-2142034D01*
X-30435669Y-1395953D01*
X-30435672Y-1395949D01*
X-31056392Y-849440D01*
X-31853641Y-571690D01*
X-31853643Y-571690D01*
X-32150498Y-571690D01*
X-32575500Y-571690D01*
X-33000502Y-571690D01*
X-33425505Y-571690D01*
X-33850507Y-571690D01*
X-34430165Y-631850D01*
X-35176254Y-1006868D01*
X-35176259Y-1006873D01*
X-35518808Y-1395940D01*
X-35722762Y-1627590D01*
X-36000517Y-2424840D01*
X-36000517Y-2721690D01*
X-36000517Y-3496690D01*
X-36000517Y-4271690D01*
X-36000517Y-5046680D01*
X-36600520Y-5046680D01*
X-36600520Y-5046678D01*
X-36600520Y-2424840D01*
X-36600519Y-2424840D01*
X-36878275Y-1627589D01*
X-37424777Y-1006873D01*
X-37424782Y-1006868D01*
X-38170871Y-631850D01*
X-39175529Y-571690D01*
X-39175532Y-571690D01*
X-39600535Y-571690D01*
X-40025537Y-571690D01*
X-40450539Y-571690D01*
X-40747393Y-571690D01*
X-40747394Y-571690D01*
X-41544643Y-849440D01*
X-42165362Y-1395949D01*
X-42165365Y-1395953D01*
X-42540384Y-2142034D01*
X-42540384Y-2142037D01*
X-42540386Y-2142040D01*
X-42600548Y-3496690D01*
X-42600548Y-4271690D01*
X-42600548Y-5046680D01*
X-42600548Y-5821680D01*
X-42600548Y-6118530D01*
X-57449930Y-6118530D01*
X-57449930Y-3000000D01*
X-55704934Y-3000000D01*
X-55685213Y-3326038D01*
X-55626332Y-3647341D01*
X-55529164Y-3959164D01*
X-55529160Y-3959175D01*
X-55395102Y-4257041D01*
X-55395101Y-4257043D01*
X-55226112Y-4536586D01*
X-55078522Y-4724968D01*
X-53936290Y-3582737D01*
X-53839033Y-3716602D01*
X-53716602Y-3839033D01*
X-53582737Y-3936290D01*
X-54724968Y-5078522D01*
X-54724968Y-5078523D01*
X-54536586Y-5226112D01*
X-54257043Y-5395101D01*
X-54257041Y-5395102D01*
X-53959175Y-5529160D01*
X-53959164Y-5529164D01*
X-53647341Y-5626332D01*
X-53326038Y-5685213D01*
X-53000000Y-5704934D01*
X-52673961Y-5685213D01*
X-52352658Y-5626332D01*
X-52040835Y-5529164D01*
X-52040824Y-5529160D01*
X-51742958Y-5395102D01*
X-51742956Y-5395101D01*
X-51463423Y-5226118D01*
X-51275030Y-5078523D01*
X-51275030Y-5078522D01*
X-52417262Y-3936290D01*
X-52283398Y-3839033D01*
X-52160967Y-3716602D01*
X-52063708Y-3582736D01*
X-50921476Y-4724968D01*
X-50773881Y-4536576D01*
X-50604898Y-4257043D01*
X-50604897Y-4257041D01*
X-50470839Y-3959175D01*
X-50470835Y-3959164D01*
X-50373667Y-3647341D01*
X-50314786Y-3326038D01*
X-50295065Y-3000000D01*
X-50314786Y-2673961D01*
X-50373667Y-2352658D01*
X-50470835Y-2040835D01*
X-50470839Y-2040824D01*
X-50604897Y-1742958D01*
X-50604898Y-1742956D01*
X-50773881Y-1463422D01*
X-50773886Y-1463416D01*
X-50921474Y-1275030D01*
X-50921476Y-1275029D01*
X-52063709Y-2417262D01*
X-52160967Y-2283398D01*
X-52283398Y-2160967D01*
X-52417262Y-2063709D01*
X-51275029Y-921476D01*
X-51275030Y-921474D01*
X-51463416Y-773886D01*
X-51463422Y-773881D01*
X-51742956Y-604898D01*
X-51742958Y-604897D01*
X-52040824Y-470839D01*
X-52040835Y-470835D01*
X-52352658Y-373667D01*
X-52673961Y-314786D01*
X-53000000Y-295065D01*
X-53326038Y-314786D01*
X-53647341Y-373667D01*
X-53959164Y-470835D01*
X-53959175Y-470839D01*
X-54257041Y-604897D01*
X-54257043Y-604898D01*
X-54536576Y-773881D01*
X-54724968Y-921476D01*
X-53582736Y-2063709D01*
X-53716602Y-2160967D01*
X-53839033Y-2283398D01*
X-53936290Y-2417261D01*
X-55078522Y-1275030D01*
X-55078523Y-1275030D01*
X-55226118Y-1463423D01*
X-55395101Y-1742956D01*
X-55395102Y-1742958D01*
X-55529160Y-2040824D01*
X-55529164Y-2040835D01*
X-55626332Y-2352658D01*
X-55685213Y-2673961D01*
X-55704934Y-3000000D01*
X-57449930Y-3000000D01*
X-57449930Y-1699695D01*
X-57449500Y-1689371D01*
X-57437423Y-1544813D01*
X-57435876Y-1533080D01*
X-57410393Y-1392103D01*
X-57407702Y-1380458D01*
X-57368958Y-1243333D01*
X-57365150Y-1231984D01*
X-57313405Y-1099405D01*
X-57308524Y-1088486D01*
X-57244239Y-961492D01*
X-57238317Y-951075D01*
X-57161746Y-830360D01*
X-57154839Y-820554D01*
X-57067044Y-707907D01*
X-57058044Y-697589D01*
X-56742366Y-373667D01*
X-56566930Y-193650D01*
X-56142500Y238860D01*
X-55718060Y671360D01*
X-55293630Y1103870D01*
X-54869190Y1536370D01*
X-54444760Y1968880D01*
X-54337379Y2078300D01*
X-42600548Y2078300D01*
X-42600545Y1781450D01*
X-42322786Y984210D01*
X-41776282Y363501D01*
X-41776279Y363498D01*
X-41463080Y206070D01*
X-41030192Y-11520D01*
X-40186716Y-62028D01*
X-40025540Y-71680D01*
X-40025537Y-71680D01*
X-39600535Y-71680D01*
X-39175532Y-71680D01*
X-38750530Y-71680D01*
X-38453679Y-71680D01*
X-38453677Y-71680D01*
X-38055054Y67195D01*
X-37656432Y206069D01*
X-37035713Y752570D01*
X-36919277Y984209D01*
X-36660687Y1498650D01*
X-36600520Y2853300D01*
X-36000517Y2853300D01*
X-35940350Y1498650D01*
X-35565324Y752570D01*
X-34944606Y206070D01*
X-34944604Y206069D01*
X-34759106Y141444D01*
X-34147360Y-71680D01*
X-34147358Y-71680D01*
X-32575500Y-71680D01*
X-32575497Y-71680D01*
X-32414320Y-62028D01*
X-31570844Y-11520D01*
X-31570842Y-11519D01*
X-31570841Y-11519D01*
X-30824756Y363498D01*
X-30278247Y984211D01*
X-30000488Y1781450D01*
X-30000486Y2078300D01*
X-29400485Y2078300D01*
X-29400482Y1781450D01*
X-29122723Y984210D01*
X-28576217Y363501D01*
X-28576214Y363498D01*
X-28263015Y206070D01*
X-27830127Y-11520D01*
X-26986650Y-62028D01*
X-26825474Y-71680D01*
X-26825471Y-71680D01*
X-26400469Y-71680D01*
X-25975467Y-71680D01*
X-25550465Y-71680D01*
X-25253614Y-71680D01*
X-25253612Y-71680D01*
X-24854989Y67195D01*
X-24456367Y206069D01*
X-23835648Y752570D01*
X-23719212Y984209D01*
X-23460622Y1498650D01*
X-23434877Y2078300D01*
X-22800452Y2078300D01*
X-22800449Y1781450D01*
X-22522690Y984210D01*
X-22247249Y671370D01*
X-21976182Y363498D01*
X-21662983Y206070D01*
X-21230095Y-11520D01*
X-20386618Y-62028D01*
X-20225442Y-71680D01*
X-20225439Y-71680D01*
X-19800437Y-71680D01*
X-19375435Y-71680D01*
X-18950433Y-71680D01*
X-18653582Y-71680D01*
X-18653580Y-71680D01*
X-18134083Y109305D01*
X-17856333Y206070D01*
X-17235615Y752569D01*
X-16860586Y1498650D01*
X-16860586Y1498651D01*
X-16848026Y1781450D01*
X-16200419Y1781450D01*
X-15922659Y984210D01*
X-15376151Y363500D01*
X-14630063Y-11520D01*
X-13786586Y-62028D01*
X-13625410Y-71680D01*
X-13625407Y-71680D01*
X-13200405Y-71680D01*
X-12775403Y-71680D01*
X-12350401Y-71680D01*
X-12053550Y-71680D01*
X-12053548Y-71680D01*
X-11534051Y109305D01*
X-11256301Y206070D01*
X-10635583Y752569D01*
X-10260554Y1498650D01*
X-10260554Y1498651D01*
X-10247994Y1781450D01*
X-9600387Y1781450D01*
X-9322627Y984210D01*
X-8776119Y363500D01*
X-8030031Y-11520D01*
X-7186554Y-62028D01*
X-7025378Y-71680D01*
X-7025375Y-71680D01*
X-6600372Y-71680D01*
X-6175370Y-71680D01*
X-5750368Y-71680D01*
X-5453517Y-71680D01*
X-5453515Y-71680D01*
X-5054892Y67195D01*
X-4656270Y206069D01*
X-4035551Y752570D01*
X-3660522Y1498650D01*
X-3660522Y1498651D01*
X-3647962Y1781450D01*
X-3000355Y1781450D01*
X-2722595Y984210D01*
X-2176087Y363500D01*
X-1429998Y-11520D01*
X-586522Y-62028D01*
X-425346Y-71680D01*
X-425343Y-71680D01*
X-342Y-71680D01*
X424660Y-71680D01*
X849660Y-71680D01*
X1146508Y-71680D01*
X1146510Y-71680D01*
X1943760Y206070D01*
X2472252Y671370D01*
X2564479Y752569D01*
X2680917Y984209D01*
X2939510Y1498650D01*
X2952069Y1781451D01*
X3599680Y1781451D01*
X3877440Y984209D01*
X4423948Y363501D01*
X4423951Y363499D01*
X5170038Y-11519D01*
X5170040Y-11520D01*
X6004403Y-61483D01*
X6174687Y-71680D01*
X6174690Y-71680D01*
X6599690Y-71680D01*
X7024700Y-71680D01*
X7449700Y-71680D01*
X7746548Y-71680D01*
X7746550Y-71680D01*
X8543800Y206070D01*
X9072292Y671370D01*
X9164519Y752569D01*
X9280957Y984209D01*
X9539550Y1498650D01*
X9552109Y1781451D01*
X10199710Y1781451D01*
X10477470Y984209D01*
X11023978Y363501D01*
X11023981Y363499D01*
X11770068Y-11519D01*
X11770070Y-11520D01*
X12604433Y-61483D01*
X12774717Y-71680D01*
X12774720Y-71680D01*
X13199730Y-71680D01*
X13624730Y-71680D01*
X14049730Y-71680D01*
X14346578Y-71680D01*
X14346580Y-71680D01*
X15143830Y206070D01*
X15672322Y671370D01*
X15764549Y752569D01*
X15880987Y984209D01*
X16139580Y1498650D01*
X16152139Y1781451D01*
X16799740Y1781451D01*
X17077500Y984209D01*
X17624008Y363501D01*
X17624011Y363499D01*
X18370098Y-11519D01*
X18370100Y-11520D01*
X19204463Y-61483D01*
X19374747Y-71680D01*
X19374750Y-71680D01*
X19799750Y-71680D01*
X20224760Y-71680D01*
X20649760Y-71680D01*
X20946608Y-71680D01*
X20946610Y-71680D01*
X21743860Y206070D01*
X22272352Y671370D01*
X22364579Y752569D01*
X22481017Y984209D01*
X22739610Y1498650D01*
X22752169Y1781451D01*
X23399770Y1781451D01*
X23677530Y984209D01*
X24224038Y363501D01*
X24224041Y363499D01*
X24970128Y-11519D01*
X24970130Y-11520D01*
X25804503Y-61483D01*
X25974787Y-71680D01*
X25974790Y-71680D01*
X26399790Y-71680D01*
X26824790Y-71680D01*
X27249790Y-71680D01*
X27546638Y-71680D01*
X27546640Y-71680D01*
X28343890Y206070D01*
X28872382Y671370D01*
X28964609Y752569D01*
X29081047Y984209D01*
X29339640Y1498650D01*
X29352199Y1781451D01*
X29999810Y1781451D01*
X30277570Y984209D01*
X30824078Y363501D01*
X30824081Y363499D01*
X31570168Y-11519D01*
X31570170Y-11520D01*
X32404533Y-61483D01*
X32574817Y-71680D01*
X32574820Y-71680D01*
X32999820Y-71680D01*
X33424830Y-71680D01*
X33849830Y-71680D01*
X34146678Y-71680D01*
X34146680Y-71680D01*
X34943930Y206070D01*
X35472422Y671370D01*
X35564649Y752569D01*
X35681087Y984209D01*
X35939680Y1498650D01*
X35952239Y1781451D01*
X36599840Y1781451D01*
X36877600Y984209D01*
X37424108Y363501D01*
X37424111Y363499D01*
X38170198Y-11519D01*
X38170200Y-11520D01*
X39004563Y-61483D01*
X39174847Y-71680D01*
X39174850Y-71680D01*
X39599860Y-71680D01*
X40024860Y-71680D01*
X40449860Y-71680D01*
X40746708Y-71680D01*
X40746710Y-71680D01*
X41543960Y206070D01*
X42072452Y671370D01*
X42164679Y752569D01*
X42281117Y984209D01*
X42539710Y1498650D01*
X42599870Y2853300D01*
X42599870Y3628310D01*
X42599870Y4403310D01*
X42599870Y5178320D01*
X42599870Y5475170D01*
X42322120Y6272420D01*
X41775610Y6893140D01*
X41029520Y7268160D01*
X40186039Y7318668D01*
X40024863Y7328320D01*
X40024860Y7328320D01*
X39599860Y7328320D01*
X39174850Y7328320D01*
X38749850Y7328320D01*
X38453000Y7328320D01*
X37655750Y7050570D01*
X37035030Y6504060D01*
X36660000Y5757970D01*
X36660000Y5757967D01*
X36599840Y4403308D01*
X36599840Y1781451D01*
X35952239Y1781451D01*
X35999840Y2853300D01*
X35999840Y3628310D01*
X35999840Y4403310D01*
X35999840Y5178320D01*
X35999840Y5475170D01*
X35722090Y6272420D01*
X35175580Y6893140D01*
X34429490Y7268160D01*
X33586009Y7318668D01*
X33424833Y7328320D01*
X33424830Y7328320D01*
X32999820Y7328320D01*
X32574820Y7328320D01*
X32149820Y7328320D01*
X31852970Y7328320D01*
X31055720Y7050570D01*
X30435000Y6504060D01*
X30059970Y5757970D01*
X30059970Y5757967D01*
X29999810Y4403308D01*
X29999810Y1781451D01*
X29352199Y1781451D01*
X29399800Y2853300D01*
X29399800Y3628310D01*
X29399800Y4403310D01*
X29399800Y5178320D01*
X29399800Y5475170D01*
X29122050Y6272420D01*
X28575540Y6893140D01*
X27829450Y7268160D01*
X26985969Y7318668D01*
X26824793Y7328320D01*
X26824790Y7328320D01*
X26399790Y7328320D01*
X25974790Y7328320D01*
X25549790Y7328320D01*
X25252930Y7328320D01*
X24455680Y7050570D01*
X23834960Y6504070D01*
X23459930Y5757980D01*
X23447371Y5475171D01*
X23399770Y4403308D01*
X23399770Y1781451D01*
X22752169Y1781451D01*
X22799770Y2853300D01*
X22799770Y3628310D01*
X22799770Y4403310D01*
X22799770Y5178320D01*
X22799770Y5475170D01*
X22522020Y6272420D01*
X21975510Y6893140D01*
X21229420Y7268160D01*
X20385939Y7318668D01*
X20224763Y7328320D01*
X20224760Y7328320D01*
X19799750Y7328320D01*
X19374750Y7328320D01*
X18949750Y7328320D01*
X18652900Y7328320D01*
X17855650Y7050570D01*
X17234930Y6504060D01*
X16859900Y5757970D01*
X16859900Y5757967D01*
X16799740Y4403308D01*
X16799740Y1781451D01*
X16152139Y1781451D01*
X16199740Y2853300D01*
X16199740Y3628310D01*
X16199740Y4403310D01*
X16199740Y5178320D01*
X16199740Y5475170D01*
X15921990Y6272420D01*
X15375480Y6893140D01*
X14629390Y7268160D01*
X13785909Y7318668D01*
X13624733Y7328320D01*
X13624730Y7328320D01*
X13199730Y7328320D01*
X12774720Y7328320D01*
X12349720Y7328320D01*
X12052870Y7328320D01*
X11255620Y7050570D01*
X10634900Y6504060D01*
X10259870Y5757970D01*
X10259870Y5757967D01*
X10199710Y4403308D01*
X10199710Y1781451D01*
X9552109Y1781451D01*
X9599710Y2853300D01*
X9599710Y3628310D01*
X9599710Y4403310D01*
X9599710Y5178320D01*
X9599710Y5475170D01*
X9321960Y6272420D01*
X8775450Y6893140D01*
X8029360Y7268160D01*
X7185879Y7318668D01*
X7024703Y7328320D01*
X7024700Y7328320D01*
X6599690Y7328320D01*
X6174690Y7328320D01*
X5749690Y7328320D01*
X5452840Y7328320D01*
X4655590Y7050570D01*
X4034870Y6504060D01*
X3659840Y5757970D01*
X3659840Y5757967D01*
X3599680Y4403308D01*
X3599680Y1781451D01*
X2952069Y1781451D01*
X2999670Y2853300D01*
X2999670Y3628310D01*
X2999670Y4403310D01*
X2999670Y5178320D01*
X2999670Y5475170D01*
X2721920Y6272420D01*
X2175410Y6893140D01*
X1429320Y7268160D01*
X585839Y7318668D01*
X424663Y7328320D01*
X424660Y7328320D01*
X-342Y7328320D01*
X-425343Y7328320D01*
X-850344Y7328320D01*
X-1147199Y7328320D01*
X-1944449Y7050570D01*
X-2565169Y6504060D01*
X-2565171Y6504056D01*
X-2940191Y5757975D01*
X-2940191Y5757973D01*
X-2940193Y5757970D01*
X-3000355Y4403310D01*
X-3000355Y3628310D01*
X-3000355Y2853300D01*
X-3000355Y2078300D01*
X-3000355Y1781450D01*
X-3647962Y1781450D01*
X-3600358Y2853303D01*
X-3600358Y5475169D01*
X-3600359Y5475171D01*
X-3878113Y6272420D01*
X-4082058Y6504060D01*
X-4424615Y6893136D01*
X-4424620Y6893141D01*
X-5170709Y7268159D01*
X-5170711Y7268160D01*
X-6005083Y7318123D01*
X-6175367Y7328320D01*
X-6175370Y7328320D01*
X-6600372Y7328320D01*
X-7025375Y7328320D01*
X-7450377Y7328320D01*
X-7747231Y7328320D01*
X-8544482Y7050570D01*
X-9165201Y6504060D01*
X-9165203Y6504056D01*
X-9540223Y5757975D01*
X-9540223Y5757973D01*
X-9540225Y5757970D01*
X-9600387Y4403310D01*
X-9600387Y3628310D01*
X-9600387Y2853300D01*
X-9600387Y2078300D01*
X-9600387Y1781450D01*
X-10247994Y1781450D01*
X-10200390Y2853303D01*
X-10200390Y5475169D01*
X-10200391Y5475171D01*
X-10478145Y6272420D01*
X-10682090Y6504060D01*
X-11024647Y6893136D01*
X-11024652Y6893141D01*
X-11770741Y7268159D01*
X-11770743Y7268160D01*
X-12605116Y7318123D01*
X-12775400Y7328320D01*
X-12775403Y7328320D01*
X-13200405Y7328320D01*
X-13625407Y7328320D01*
X-14050409Y7328320D01*
X-14347263Y7328320D01*
X-15144514Y7050570D01*
X-15765233Y6504060D01*
X-15765235Y6504056D01*
X-16140255Y5757975D01*
X-16140255Y5757973D01*
X-16140257Y5757970D01*
X-16200419Y4403310D01*
X-16200419Y3628310D01*
X-16200419Y2853300D01*
X-16200419Y2078300D01*
X-16200419Y1781450D01*
X-16848026Y1781450D01*
X-16800422Y2853303D01*
X-16800422Y5475169D01*
X-16800423Y5475171D01*
X-17078177Y6272420D01*
X-17282122Y6504060D01*
X-17624679Y6893136D01*
X-17624684Y6893141D01*
X-18370773Y7268159D01*
X-18370775Y7268160D01*
X-19205148Y7318123D01*
X-19375432Y7328320D01*
X-19375435Y7328320D01*
X-19800437Y7328320D01*
X-20225439Y7328320D01*
X-20650441Y7328320D01*
X-20947296Y7328320D01*
X-21744546Y7050570D01*
X-22365266Y6504060D01*
X-22365268Y6504056D01*
X-22740288Y5757975D01*
X-22740288Y5757973D01*
X-22740290Y5757970D01*
X-22800452Y4403310D01*
X-22800452Y3628310D01*
X-22800452Y2853300D01*
X-22800452Y2078300D01*
X-23434877Y2078300D01*
X-23400455Y2853300D01*
X-23400455Y3628310D01*
X-23400455Y4403310D01*
X-23400455Y5178320D01*
X-23400455Y5475170D01*
X-23678210Y6272420D01*
X-23882155Y6504060D01*
X-24224712Y6893136D01*
X-24224717Y6893141D01*
X-24970806Y7268159D01*
X-24970808Y7268160D01*
X-25805180Y7318123D01*
X-25975464Y7328320D01*
X-25975467Y7328320D01*
X-26400469Y7328320D01*
X-26825471Y7328320D01*
X-27250473Y7328320D01*
X-27547328Y7328320D01*
X-28344578Y7050570D01*
X-28965299Y6504060D01*
X-28965301Y6504056D01*
X-29340321Y5757975D01*
X-29340321Y5757973D01*
X-29340323Y5757970D01*
X-29400485Y4403310D01*
X-29400485Y3628310D01*
X-29400485Y2853300D01*
X-29400485Y2078300D01*
X-30000486Y2078300D01*
X-30000486Y5178319D01*
X-30000487Y5178339D01*
X-30060646Y5757967D01*
X-30060648Y5757972D01*
X-30435669Y6504056D01*
X-30435672Y6504060D01*
X-30877584Y6893139D01*
X-31056393Y7050570D01*
X-31853643Y7328320D01*
X-31853644Y7328320D01*
X-33425508Y7328320D01*
X-33578502Y7319158D01*
X-34430164Y7268160D01*
X-35176256Y6893140D01*
X-35722762Y6272420D01*
X-36000517Y5475170D01*
X-36000517Y5178320D01*
X-36000517Y4403310D01*
X-36000517Y3628310D01*
X-36000517Y2853300D01*
X-36600520Y2853300D01*
X-36600520Y3628310D01*
X-36600520Y4403310D01*
X-36600520Y5178320D01*
X-36600520Y5475170D01*
X-36878275Y6272420D01*
X-37082220Y6504060D01*
X-37424777Y6893136D01*
X-37424782Y6893141D01*
X-38170871Y7268159D01*
X-38170873Y7268160D01*
X-39005245Y7318123D01*
X-39175529Y7328320D01*
X-39175532Y7328320D01*
X-39600535Y7328320D01*
X-40025537Y7328320D01*
X-40450539Y7328320D01*
X-40747393Y7328320D01*
X-41544643Y7050570D01*
X-42165363Y6504060D01*
X-42165365Y6504056D01*
X-42540384Y5757975D01*
X-42540384Y5757973D01*
X-42540386Y5757970D01*
X-42600548Y4403310D01*
X-42600548Y3628310D01*
X-42600548Y2853300D01*
X-42600548Y2078300D01*
X-54337379Y2078300D01*
X-54020320Y2401380D01*
X-53595890Y2833890D01*
X-53576840Y2853303D01*
X-53559195Y2871284D01*
X-53459215Y2991255D01*
X-53371916Y3119484D01*
X-53297720Y3255048D01*
X-53297715Y3255059D01*
X-53237020Y3396889D01*
X-53237018Y3396894D01*
X-53190323Y3544019D01*
X-53190320Y3544030D01*
X-53157919Y3695494D01*
X-53140320Y3850133D01*
X-53137320Y6682655D01*
X-53137320Y10753320D01*
X-42600548Y10753320D01*
X-42540387Y9398650D01*
X-42540386Y9398648D01*
X-42165368Y8652562D01*
X-42165366Y8652560D01*
X-41544646Y8106060D01*
X-40747394Y7828300D01*
X-40747393Y7828300D01*
X-39175532Y7828300D01*
X-39175529Y7828300D01*
X-38170873Y7888459D01*
X-38170870Y7888460D01*
X-37424778Y8263489D01*
X-37424776Y8263490D01*
X-36878272Y8884209D01*
X-36600520Y9681459D01*
X-36600520Y9681460D01*
X-36000517Y9681460D01*
X-35722765Y8884210D01*
X-35722764Y8884209D01*
X-35176260Y8263490D01*
X-35176258Y8263489D01*
X-34430166Y7888460D01*
X-34430163Y7888459D01*
X-33425508Y7828300D01*
X-31853642Y7828300D01*
X-31853640Y7828300D01*
X-31056388Y8106050D01*
X-30435669Y8652559D01*
X-30435666Y8652563D01*
X-30060647Y9398648D01*
X-30000486Y10753320D01*
X-29400485Y10753320D01*
X-29340324Y9398650D01*
X-29340323Y9398648D01*
X-28965304Y8652563D01*
X-28965301Y8652559D01*
X-28344582Y8106050D01*
X-27547330Y7828300D01*
X-25975467Y7828300D01*
X-25975464Y7828300D01*
X-24970808Y7888459D01*
X-24970805Y7888460D01*
X-24224713Y8263489D01*
X-24224711Y8263490D01*
X-23678207Y8884209D01*
X-23400455Y9681459D01*
X-23400455Y9681460D01*
X-22800452Y9681460D01*
X-22522700Y8884210D01*
X-22522699Y8884209D01*
X-21976194Y8263490D01*
X-21976192Y8263489D01*
X-21230100Y7888460D01*
X-21230097Y7888459D01*
X-20225442Y7828300D01*
X-20225439Y7828300D01*
X-19800437Y7828300D01*
X-19375435Y7828300D01*
X-18950433Y7828300D01*
X-18653578Y7828300D01*
X-18653577Y7828300D01*
X-18254951Y7967180D01*
X-17856324Y8106060D01*
X-17235603Y8652560D01*
X-17235601Y8652562D01*
X-16860583Y9398648D01*
X-16800422Y10753311D01*
X-16800422Y10753320D01*
X-16200419Y10753320D01*
X-16140258Y9398650D01*
X-16140257Y9398648D01*
X-15765239Y8652562D01*
X-15765237Y8652560D01*
X-15144517Y8106060D01*
X-14347264Y7828300D01*
X-14347263Y7828300D01*
X-12775403Y7828300D01*
X-12775400Y7828300D01*
X-11770744Y7888459D01*
X-11770741Y7888460D01*
X-11024649Y8263489D01*
X-11024647Y8263490D01*
X-10478142Y8884209D01*
X-10200390Y9681459D01*
X-10200390Y9681460D01*
X-9600387Y9681460D01*
X-9322635Y8884210D01*
X-9322634Y8884209D01*
X-8776130Y8263490D01*
X-8776128Y8263489D01*
X-8030036Y7888460D01*
X-8030033Y7888459D01*
X-7025378Y7828300D01*
X-7025375Y7828300D01*
X-6600372Y7828300D01*
X-6175370Y7828300D01*
X-5750368Y7828300D01*
X-5453514Y7828300D01*
X-5453513Y7828300D01*
X-5054886Y7967180D01*
X-4656259Y8106060D01*
X-4035539Y8652560D01*
X-4035537Y8652562D01*
X-3660519Y9398648D01*
X-3600358Y10753311D01*
X-3600358Y10753320D01*
X-3000355Y10753320D01*
X-2940194Y9398650D01*
X-2940193Y9398648D01*
X-2565175Y8652562D01*
X-2565173Y8652560D01*
X-1944452Y8106060D01*
X-1147200Y7828300D01*
X-1147199Y7828300D01*
X424660Y7828300D01*
X424663Y7828300D01*
X1429317Y7888459D01*
X1429320Y7888460D01*
X2175410Y8263490D01*
X2517968Y8652563D01*
X2721919Y8884209D01*
X2721920Y8884210D01*
X2999669Y9681458D01*
X3599680Y9681458D01*
X3877430Y8884209D01*
X4423937Y8263492D01*
X4423939Y8263490D01*
X4423940Y8263490D01*
X4792991Y8077982D01*
X5170029Y7888460D01*
X5170032Y7888459D01*
X6174687Y7828300D01*
X6174690Y7828300D01*
X6599700Y7828300D01*
X7024700Y7828300D01*
X7449700Y7828300D01*
X7746559Y7828300D01*
X7746560Y7828300D01*
X8024319Y7925070D01*
X8543809Y8106059D01*
X9164530Y8652560D01*
X9164532Y8652562D01*
X9539549Y9398648D01*
X9539550Y9398650D01*
X9599710Y10753320D01*
X9599710Y10753321D01*
X10199710Y10753321D01*
X10259870Y9398648D01*
X10634887Y8652562D01*
X10634889Y8652560D01*
X11255610Y8106059D01*
X11846868Y7900067D01*
X12052860Y7828300D01*
X12052861Y7828300D01*
X13624730Y7828300D01*
X13624733Y7828300D01*
X14629387Y7888459D01*
X14629390Y7888460D01*
X15375480Y8263490D01*
X15718038Y8652563D01*
X15921989Y8884209D01*
X15921990Y8884210D01*
X16199739Y9681458D01*
X16799740Y9681458D01*
X17077490Y8884209D01*
X17623997Y8263492D01*
X17623999Y8263490D01*
X17624000Y8263490D01*
X17993051Y8077982D01*
X18370089Y7888460D01*
X18370092Y7888459D01*
X19374747Y7828300D01*
X19374750Y7828300D01*
X19799760Y7828300D01*
X20224760Y7828300D01*
X20649760Y7828300D01*
X20946619Y7828300D01*
X20946620Y7828300D01*
X21224379Y7925070D01*
X21743869Y8106059D01*
X22364590Y8652560D01*
X22364592Y8652562D01*
X22739609Y9398648D01*
X22739610Y9398650D01*
X22752169Y9681456D01*
X23399770Y9681456D01*
X23677517Y8884204D01*
X23677519Y8884200D01*
X24224029Y8263480D01*
X24970129Y7888460D01*
X25974787Y7828300D01*
X25974790Y7828300D01*
X26399790Y7828300D01*
X26824790Y7828300D01*
X27249790Y7828300D01*
X27546649Y7828300D01*
X27546650Y7828300D01*
X27824409Y7925070D01*
X28343899Y8106059D01*
X28964620Y8652560D01*
X28964622Y8652562D01*
X29339639Y9398648D01*
X29339640Y9398650D01*
X29352199Y9681458D01*
X29999810Y9681458D01*
X30277560Y8884209D01*
X30824067Y8263492D01*
X30824069Y8263490D01*
X30824070Y8263490D01*
X31193121Y8077982D01*
X31570159Y7888460D01*
X31570162Y7888459D01*
X32574817Y7828300D01*
X32574820Y7828300D01*
X32999820Y7828300D01*
X33424830Y7828300D01*
X33849830Y7828300D01*
X34146689Y7828300D01*
X34146690Y7828300D01*
X34424449Y7925070D01*
X34943939Y8106059D01*
X35564660Y8652560D01*
X35564662Y8652562D01*
X35939679Y9398648D01*
X35939680Y9398650D01*
X35952239Y9681458D01*
X36599840Y9681458D01*
X36877590Y8884209D01*
X37424097Y8263492D01*
X37424099Y8263490D01*
X37424100Y8263490D01*
X37793151Y8077982D01*
X38170189Y7888460D01*
X38170192Y7888459D01*
X39174847Y7828300D01*
X39174850Y7828300D01*
X39599860Y7828300D01*
X40024860Y7828300D01*
X40449860Y7828300D01*
X40746719Y7828300D01*
X40746720Y7828300D01*
X41024479Y7925070D01*
X41543969Y8106059D01*
X42164690Y8652560D01*
X42164692Y8652562D01*
X42539709Y9398648D01*
X42539710Y9398650D01*
X42599870Y10753310D01*
X42599870Y11528320D01*
X42599870Y12303320D01*
X42599870Y13078330D01*
X42599870Y13375180D01*
X42322100Y14172420D01*
X41775600Y14793120D01*
X41029510Y15168140D01*
X40186039Y15218648D01*
X40024863Y15228300D01*
X40024860Y15228300D01*
X39599860Y15228300D01*
X39174850Y15228300D01*
X38749850Y15228300D01*
X38453000Y15228300D01*
X38280318Y15168140D01*
X37655752Y14950551D01*
X37655750Y14950550D01*
X37035040Y14404060D01*
X36660010Y13657980D01*
X36599841Y12303330D01*
X36599840Y12303317D01*
X36599840Y9681458D01*
X35952239Y9681458D01*
X35999840Y10753310D01*
X35999840Y11528320D01*
X35999840Y12303320D01*
X35999840Y13078330D01*
X35999840Y13375180D01*
X35722070Y14172420D01*
X35175570Y14793120D01*
X34429480Y15168140D01*
X33586009Y15218648D01*
X33424833Y15228300D01*
X33424830Y15228300D01*
X32999820Y15228300D01*
X32574820Y15228300D01*
X32149820Y15228300D01*
X31852970Y15228300D01*
X31680288Y15168140D01*
X31055722Y14950551D01*
X31055720Y14950550D01*
X30435010Y14404060D01*
X30059980Y13657980D01*
X29999811Y12303330D01*
X29999810Y12303317D01*
X29999810Y9681458D01*
X29352199Y9681458D01*
X29399800Y10753310D01*
X29399800Y11528320D01*
X29399800Y12303320D01*
X29399800Y13078330D01*
X29399800Y13375180D01*
X29122030Y14172420D01*
X28575530Y14793120D01*
X27829440Y15168140D01*
X26985969Y15218648D01*
X26824793Y15228300D01*
X26824790Y15228300D01*
X26399790Y15228300D01*
X25974790Y15228300D01*
X25549790Y15228300D01*
X25252940Y15228300D01*
X24455690Y14950550D01*
X23834970Y14404060D01*
X23459940Y13657980D01*
X23399771Y12303330D01*
X23399770Y12303317D01*
X23399770Y9681456D01*
X22752169Y9681456D01*
X22799770Y10753310D01*
X22799770Y11528320D01*
X22799770Y12303320D01*
X22799770Y13078330D01*
X22799770Y13375180D01*
X22522000Y14172420D01*
X21975500Y14793120D01*
X21229410Y15168140D01*
X20385939Y15218648D01*
X20224763Y15228300D01*
X20224760Y15228300D01*
X19799760Y15228300D01*
X19374750Y15228300D01*
X18949750Y15228300D01*
X18652900Y15228300D01*
X18480218Y15168140D01*
X17855652Y14950551D01*
X17855650Y14950550D01*
X17234940Y14404060D01*
X16859910Y13657980D01*
X16799741Y12303330D01*
X16799740Y12303317D01*
X16799740Y9681458D01*
X16199739Y9681458D01*
X16199740Y9681460D01*
X16199740Y9978310D01*
X16199740Y10753320D01*
X16199740Y11528320D01*
X16199740Y12303330D01*
X16199740Y13078330D01*
X16139570Y13657980D01*
X15764540Y14404060D01*
X15143830Y14950550D01*
X14346580Y15228300D01*
X14346579Y15228300D01*
X12774717Y15228300D01*
X12613540Y15218648D01*
X11770070Y15168140D01*
X11770068Y15168139D01*
X11770067Y15168139D01*
X11395069Y14979647D01*
X11023980Y14793120D01*
X11023978Y14793118D01*
X10477480Y14172421D01*
X10199710Y13375181D01*
X10199710Y10753321D01*
X9599710Y10753321D01*
X9599710Y11528320D01*
X9599710Y12303330D01*
X9599710Y13078330D01*
X9599710Y13375180D01*
X9321940Y14172420D01*
X8775440Y14793120D01*
X8029350Y15168140D01*
X7185879Y15218648D01*
X7024703Y15228300D01*
X7024700Y15228300D01*
X6599700Y15228300D01*
X6174690Y15228300D01*
X5749690Y15228300D01*
X5452840Y15228300D01*
X5280158Y15168140D01*
X4655592Y14950551D01*
X4655590Y14950550D01*
X4034880Y14404060D01*
X3659850Y13657980D01*
X3634104Y13078329D01*
X3599680Y12303327D01*
X3599680Y9681458D01*
X2999669Y9681458D01*
X2999670Y9681460D01*
X2999670Y9978310D01*
X2999670Y10753320D01*
X2999670Y11528320D01*
X2999670Y12303330D01*
X2999670Y13078330D01*
X2939500Y13657980D01*
X2564470Y14404060D01*
X1943760Y14950550D01*
X1146510Y15228300D01*
X1146509Y15228300D01*
X-425346Y15228300D01*
X-578340Y15219138D01*
X-1429996Y15168140D01*
X-2176083Y14793120D01*
X-2722590Y14172420D01*
X-3000351Y13375180D01*
X-3000355Y13078330D01*
X-3000355Y12303330D01*
X-3000355Y11528320D01*
X-3000355Y10753320D01*
X-3600358Y10753320D01*
X-3600358Y13078329D01*
X-3600361Y13375178D01*
X-3878123Y14172421D01*
X-4424627Y14793119D01*
X-5170714Y15168139D01*
X-5170716Y15168140D01*
X-6005083Y15218103D01*
X-6175367Y15228300D01*
X-6175370Y15228300D01*
X-6600372Y15228300D01*
X-7025375Y15228300D01*
X-7450377Y15228300D01*
X-7747229Y15228300D01*
X-8544473Y14950550D01*
X-9165190Y14404060D01*
X-9540218Y13657980D01*
X-9600387Y12303320D01*
X-9600387Y11528320D01*
X-9600387Y10753310D01*
X-9600387Y9978310D01*
X-9600387Y9681460D01*
X-10200390Y9681460D01*
X-10200390Y13078335D01*
X-10260558Y13657978D01*
X-10635587Y14404060D01*
X-11256304Y14950549D01*
X-11256305Y14950550D01*
X-12053549Y15228300D01*
X-12053550Y15228300D01*
X-13625410Y15228300D01*
X-13778404Y15219138D01*
X-14630061Y15168140D01*
X-15376148Y14793120D01*
X-15922654Y14172420D01*
X-16200415Y13375180D01*
X-16200419Y13078330D01*
X-16200419Y12303330D01*
X-16200419Y11528320D01*
X-16200419Y10753320D01*
X-16800422Y10753320D01*
X-16800422Y13078329D01*
X-16800425Y13375178D01*
X-17078187Y14172420D01*
X-17624693Y14793119D01*
X-17624694Y14793120D01*
X-18370781Y15168140D01*
X-19205148Y15218103D01*
X-19375432Y15228300D01*
X-19375435Y15228300D01*
X-19800437Y15228300D01*
X-20225439Y15228300D01*
X-20650441Y15228300D01*
X-20947293Y15228300D01*
X-21744537Y14950550D01*
X-22365255Y14404060D01*
X-22740283Y13657980D01*
X-22800452Y12303320D01*
X-22800452Y11528320D01*
X-22800452Y10753310D01*
X-22800452Y9978310D01*
X-22800452Y9681460D01*
X-23400455Y9681460D01*
X-23400455Y12303326D01*
X-23460624Y13657977D01*
X-23460624Y13657979D01*
X-23460624Y13657980D01*
X-23835652Y14404060D01*
X-24456369Y14950550D01*
X-25253613Y15228300D01*
X-25253614Y15228300D01*
X-27250471Y15228300D01*
X-27250473Y15228300D01*
X-27830125Y15168140D01*
X-28576213Y14793120D01*
X-29122720Y14172420D01*
X-29400481Y13375180D01*
X-29400485Y13078330D01*
X-29400485Y12303330D01*
X-29400485Y11528320D01*
X-29400485Y10753320D01*
X-30000486Y10753320D01*
X-30000486Y10753321D01*
X-30000486Y13078329D01*
X-30000489Y13375178D01*
X-30278251Y14172420D01*
X-30824757Y14793119D01*
X-30824758Y14793120D01*
X-31570846Y15168140D01*
X-32405213Y15218103D01*
X-32575497Y15228300D01*
X-32575500Y15228300D01*
X-33000502Y15228300D01*
X-33425505Y15228300D01*
X-33850507Y15228300D01*
X-34147359Y15228300D01*
X-34944603Y14950550D01*
X-35565320Y14404060D01*
X-35940348Y13657980D01*
X-36000517Y12303330D01*
X-36000517Y11528320D01*
X-36000517Y10753320D01*
X-36000517Y9978310D01*
X-36000517Y9681460D01*
X-36600520Y9681460D01*
X-36600520Y13078335D01*
X-36660688Y13657978D01*
X-37035717Y14404060D01*
X-37477621Y14793120D01*
X-37656434Y14950550D01*
X-38453678Y15228300D01*
X-38453679Y15228300D01*
X-40025540Y15228300D01*
X-40178534Y15219138D01*
X-41030191Y15168140D01*
X-41776277Y14793120D01*
X-42322783Y14172420D01*
X-42600544Y13375180D01*
X-42600548Y13078330D01*
X-42600548Y12303330D01*
X-42600548Y11528320D01*
X-42600548Y10753320D01*
X-53137320Y10753320D01*
X-53137320Y12138481D01*
X-53137690Y14866430D01*
X-53138060Y17594380D01*
X-53138060Y19253310D01*
X-42600548Y19253310D01*
X-42540386Y17898660D01*
X-42540385Y17898659D01*
X-42540384Y17898654D01*
X-42165365Y17152573D01*
X-42165362Y17152569D01*
X-41544643Y16606060D01*
X-40747394Y16328310D01*
X-40747393Y16328310D01*
X-40450539Y16328310D01*
X-39256783Y16328310D01*
X-38063026Y16328310D01*
X-36869278Y16328310D01*
X-36869270Y16328310D01*
X-35292902Y16381785D01*
X-35095856Y16388470D01*
X-35095855Y16388470D01*
X-34349766Y16763488D01*
X-34349761Y16763492D01*
X-33803260Y17384209D01*
X-33525505Y18181460D01*
X-33525505Y19253310D01*
X-32925501Y19253310D01*
X-32865339Y17898660D01*
X-32865338Y17898659D01*
X-32865337Y17898654D01*
X-32490317Y17152573D01*
X-32490314Y17152569D01*
X-31869596Y16606060D01*
X-31072346Y16328310D01*
X-31072345Y16328310D01*
X-30775491Y16328310D01*
X-29581735Y16328310D01*
X-28387979Y16328310D01*
X-27194231Y16328310D01*
X-27194223Y16328310D01*
X-25617855Y16381785D01*
X-25420809Y16388470D01*
X-25420808Y16388470D01*
X-24674719Y16763488D01*
X-24674714Y16763493D01*
X-24128212Y17384209D01*
X-23850457Y18181460D01*
X-23850457Y19253310D01*
X-23250454Y19253310D01*
X-23190292Y17898660D01*
X-23190291Y17898659D01*
X-23190290Y17898654D01*
X-22815270Y17152573D01*
X-22815267Y17152569D01*
X-22194548Y16606060D01*
X-21397299Y16328310D01*
X-21397298Y16328310D01*
X-21100443Y16328310D01*
X-19906687Y16328310D01*
X-18712931Y16328310D01*
X-17519184Y16328310D01*
X-17519176Y16328310D01*
X-15942808Y16381785D01*
X-15745762Y16388470D01*
X-15745761Y16388470D01*
X-14999672Y16763488D01*
X-14999667Y16763493D01*
X-14453165Y17384209D01*
X-14175410Y18181460D01*
X-14175410Y19253310D01*
X-13575406Y19253310D01*
X-13515244Y17898660D01*
X-13515243Y17898659D01*
X-13515242Y17898654D01*
X-13140222Y17152573D01*
X-13140219Y17152569D01*
X-12519501Y16606060D01*
X-11722251Y16328310D01*
X-11722250Y16328310D01*
X-11425396Y16328310D01*
X-10232656Y16328310D01*
X-9039916Y16328310D01*
X-7847179Y16328310D01*
X-7847176Y16328310D01*
X-6073930Y16387530D01*
X-5637744Y16606060D01*
X-5326467Y16762010D01*
X-5326465Y16762011D01*
X-4778784Y17382969D01*
X-4500362Y18181061D01*
X-4500362Y19253310D01*
X4499680Y19253310D01*
X4559849Y17898662D01*
X4559850Y17898632D01*
X4559851Y17898626D01*
X4934900Y17152519D01*
X4934902Y17152516D01*
X5555668Y16606010D01*
X5555670Y16606009D01*
X6352968Y16328290D01*
X6352971Y16328289D01*
X6649840Y16328310D01*
X11428631Y16328310D01*
X11718050Y16358845D01*
X12007470Y16389380D01*
X12752250Y16764910D01*
X13297620Y17385400D01*
X13574597Y18181458D01*
X14174730Y18181458D01*
X14452480Y17384209D01*
X14998989Y16763490D01*
X14998991Y16763489D01*
X15745078Y16388470D01*
X16099764Y16376438D01*
X17518500Y16328310D01*
X17518508Y16328310D01*
X21396610Y16328310D01*
X21396611Y16328310D01*
X22193860Y16606060D01*
X22814577Y17152567D01*
X22814580Y17152570D01*
X23189610Y17898660D01*
X23202169Y18181458D01*
X23849780Y18181458D01*
X24127530Y17384209D01*
X24674039Y16763490D01*
X24674041Y16763489D01*
X25420128Y16388470D01*
X25774814Y16376438D01*
X27193550Y16328310D01*
X27193558Y16328310D01*
X31071660Y16328310D01*
X31071661Y16328310D01*
X31868910Y16606060D01*
X32489627Y17152567D01*
X32489630Y17152570D01*
X32864660Y17898660D01*
X32877219Y18181460D01*
X33524820Y18181460D01*
X33802580Y17384208D01*
X34349089Y16763490D01*
X34349091Y16763489D01*
X35095178Y16388470D01*
X35449862Y16376438D01*
X36868590Y16328310D01*
X36868598Y16328310D01*
X40746710Y16328310D01*
X40746711Y16328310D01*
X41543960Y16606060D01*
X42164677Y17152567D01*
X42164680Y17152570D01*
X42539710Y17898660D01*
X42599870Y19253310D01*
X42599870Y20028310D01*
X42599870Y20803300D01*
X42599870Y21578303D01*
X42599870Y21875156D01*
X42322120Y22672404D01*
X42322117Y22672406D01*
X42322117Y22672408D01*
X41942223Y23103885D01*
X41775610Y23293122D01*
X41029520Y23668145D01*
X39256100Y23728307D01*
X39256092Y23728307D01*
X35377981Y23728307D01*
X35377980Y23728307D01*
X34580730Y23450555D01*
X33960010Y22904051D01*
X33584980Y22157960D01*
X33559238Y21578303D01*
X33524820Y20803298D01*
X33524820Y18181460D01*
X32877219Y18181460D01*
X32924820Y19253310D01*
X32924820Y20028310D01*
X32924820Y20803300D01*
X32924820Y21578303D01*
X32924820Y21875156D01*
X32647070Y22672404D01*
X32647067Y22672406D01*
X32647067Y22672408D01*
X32267173Y23103885D01*
X32100560Y23293122D01*
X31354470Y23668145D01*
X29581050Y23728307D01*
X29581042Y23728307D01*
X25702941Y23728307D01*
X25702940Y23728307D01*
X24905680Y23450553D01*
X24869810Y23418972D01*
X24284962Y22904051D01*
X24284958Y22904046D01*
X23909940Y22157959D01*
X23849780Y20803298D01*
X23849780Y18181458D01*
X23202169Y18181458D01*
X23249770Y19253310D01*
X23249770Y20028310D01*
X23249770Y20803300D01*
X23249770Y21578303D01*
X23249770Y21875156D01*
X22972020Y22672404D01*
X22972017Y22672406D01*
X22972017Y22672408D01*
X22592123Y23103885D01*
X22425510Y23293122D01*
X21679420Y23668145D01*
X19906010Y23728307D01*
X19906002Y23728307D01*
X16027891Y23728307D01*
X16027890Y23728307D01*
X15230630Y23450553D01*
X15194760Y23418972D01*
X14609912Y22904051D01*
X14609908Y22904046D01*
X14234890Y22157959D01*
X14174730Y20803298D01*
X14174730Y18181458D01*
X13574597Y18181458D01*
X13574730Y18181840D01*
X13574730Y18478310D01*
X13574730Y19253310D01*
X13574730Y20028310D01*
X13574730Y20803300D01*
X13514570Y22157958D01*
X13139550Y22904048D01*
X13139545Y22904052D01*
X12851993Y23157224D01*
X12518830Y23450553D01*
X11721570Y23728307D01*
X11721569Y23728307D01*
X7846503Y23728307D01*
X7846500Y23728307D01*
X6073250Y23669088D01*
X5700273Y23482223D01*
X5325789Y23294604D01*
X5157578Y23103888D01*
X4778100Y22673642D01*
X4778099Y22673640D01*
X4778098Y22673639D01*
X4499680Y21875556D01*
X4499680Y21875554D01*
X4499680Y21578303D01*
X4499680Y20803300D01*
X4499680Y20028310D01*
X4499680Y19253310D01*
X-4500362Y19253310D01*
X-4500362Y20803296D01*
X-4547951Y21874773D01*
X-4560529Y22157985D01*
X-4560529Y22157986D01*
X-4935584Y22904100D01*
X-4935585Y22904101D01*
X-5556345Y23450600D01*
X-5556347Y23450601D01*
X-5556349Y23450603D01*
X-5556350Y23450603D01*
X-5556353Y23450605D01*
X-6353648Y23728327D01*
X-6353648Y23728326D01*
X-6353649Y23728327D01*
X-6650518Y23728307D01*
X-7845216Y23728307D01*
X-9039914Y23728307D01*
X-10234612Y23728307D01*
X-11429310Y23728307D01*
X-12008150Y23667240D01*
X-12752924Y23291700D01*
X-13298297Y22671216D01*
X-13575406Y21874775D01*
X-13575406Y21578303D01*
X-13575406Y20803300D01*
X-13575406Y20028310D01*
X-13575406Y19253310D01*
X-14175410Y19253310D01*
X-14175410Y20803297D01*
X-14235572Y22157959D01*
X-14610591Y22904045D01*
X-14610594Y22904048D01*
X-15077796Y23315390D01*
X-15231314Y23450553D01*
X-16028565Y23728307D01*
X-16028566Y23728307D01*
X-21100441Y23728307D01*
X-21100443Y23728307D01*
X-21100462Y23728305D01*
X-21680097Y23668146D01*
X-21680098Y23668145D01*
X-21680101Y23668145D01*
X-22426194Y23293122D01*
X-22972700Y22672404D01*
X-23250454Y21875156D01*
X-23250454Y21578303D01*
X-23250454Y20803300D01*
X-23250454Y20028310D01*
X-23250454Y19253310D01*
X-23850457Y19253310D01*
X-23850457Y20803297D01*
X-23910619Y22157959D01*
X-24285638Y22904045D01*
X-24285641Y22904048D01*
X-24752843Y23315390D01*
X-24906361Y23450553D01*
X-25703612Y23728307D01*
X-25703613Y23728307D01*
X-30775489Y23728307D01*
X-30775491Y23728307D01*
X-30775510Y23728305D01*
X-31355145Y23668146D01*
X-31355146Y23668145D01*
X-31355149Y23668145D01*
X-32101241Y23293122D01*
X-32647747Y22672404D01*
X-32925501Y21875156D01*
X-32925501Y21578303D01*
X-32925501Y20803300D01*
X-32925501Y20028310D01*
X-32925501Y19253310D01*
X-33525505Y19253310D01*
X-33525505Y21578302D01*
X-33525506Y21578322D01*
X-33585665Y22157954D01*
X-33585667Y22157959D01*
X-33960686Y22904045D01*
X-33960689Y22904048D01*
X-33960749Y22904101D01*
X-34581409Y23450552D01*
X-35378659Y23728307D01*
X-39256775Y23728307D01*
X-39256783Y23728307D01*
X-41030197Y23668145D01*
X-41776289Y23293122D01*
X-42322794Y22672404D01*
X-42600548Y21875156D01*
X-42600548Y21578303D01*
X-42600548Y20803300D01*
X-42600548Y20028310D01*
X-42600548Y19253310D01*
X-53138060Y19253310D01*
X-53138060Y23103888D01*
X-53151058Y23262975D01*
X-53156435Y23291699D01*
X-53180260Y23418962D01*
X-53180260Y23418963D01*
X-53180262Y23418972D01*
X-53180262Y23418973D01*
X-53224156Y23570724D01*
X-53224158Y23570732D01*
X-53282655Y23717213D01*
X-53282659Y23717221D01*
X-53282660Y23717224D01*
X-53355460Y23857341D01*
X-53355462Y23857345D01*
X-53442056Y23990031D01*
X-53442063Y23990041D01*
X-53541958Y24114188D01*
X-54035827Y24603466D01*
X-54455180Y25015675D01*
X-55294000Y25840205D01*
X-55294001Y25840206D01*
X-55713400Y26252470D01*
X-56552220Y27077000D01*
X-56971585Y27489221D01*
X-56971630Y27489265D01*
X-57006206Y27523182D01*
X-57013345Y27530802D01*
X-57110076Y27643165D01*
X-57117633Y27652880D01*
X-57201652Y27772716D01*
X-57208228Y27783165D01*
X-57279609Y27910219D01*
X-57285051Y27921130D01*
X-57343542Y28054458D01*
X-57347894Y28065878D01*
X-57392995Y28204378D01*
X-57396216Y28216236D01*
X-57427455Y28358827D01*
X-57429516Y28371193D01*
X-57446193Y28516162D01*
X-57447005Y28530243D01*
X-57450000Y32647359D01*
X-57450000Y32741110D01*
X-57430315Y32808149D01*
X-57377511Y32853904D01*
X-57358096Y32860884D01*
X-57334013Y32867337D01*
X-57334004Y32867341D01*
X-57265495Y32906894D01*
X-57265487Y32906900D01*
X-57209541Y32962846D01*
X-57209535Y32962854D01*
X-57169982Y33031363D01*
X-57169979Y33031368D01*
X-57149499Y33107798D01*
X-57149499Y44323906D01*
X-43199997Y44323906D01*
X-43172127Y31593656D01*
X-42998131Y31246526D01*
X-42998128Y31246524D01*
X-42998128Y31246523D01*
X-42792725Y31065786D01*
X-42709688Y30992720D01*
X-42338501Y30863910D01*
X-42200001Y30863910D01*
X-21100001Y30863910D01*
X0Y30863910D01*
X21099919Y30863910D01*
X21100000Y30863910D01*
X42470250Y30891780D01*
X42817350Y31065786D01*
X42817351Y31065787D01*
X43071158Y31354215D01*
X43071159Y31354217D01*
X43071160Y31354218D01*
X43199960Y31725406D01*
X43199960Y31863906D01*
X43199960Y44323906D01*
X43199960Y56783906D01*
X43199960Y69243906D01*
X43172160Y81974156D01*
X42998150Y82321286D01*
X42709690Y82575092D01*
X42338500Y82703902D01*
X42338499Y82703902D01*
X-42199998Y82703902D01*
X-42200001Y82703902D01*
X-42470251Y82676032D01*
X-42817381Y82502036D01*
X-43071187Y82213593D01*
X-43199997Y81842406D01*
X-43199997Y81703906D01*
X-43199997Y69243906D01*
X-43199997Y56783906D01*
X-43199997Y44323906D01*
X-57149499Y44323906D01*
X-57149499Y86035833D01*
X-57129814Y86102872D01*
X-57123668Y86111588D01*
X-57073107Y86177109D01*
X-57064110Y86187518D01*
X-56438487Y86834982D01*
X-56438240Y86835238D01*
X-55878080Y87411632D01*
X-55878079Y87411633D01*
X-55317910Y87988025D01*
X-55063309Y88250000D01*
X-52704934Y88250000D01*
X-52685213Y87923961D01*
X-52626332Y87602658D01*
X-52529164Y87290835D01*
X-52529160Y87290824D01*
X-52395102Y86992958D01*
X-52395101Y86992956D01*
X-52226118Y86713423D01*
X-52078522Y86525030D01*
X-50936290Y87667262D01*
X-50839033Y87533398D01*
X-50716602Y87410967D01*
X-50582737Y87313709D01*
X-51724968Y86171476D01*
X-51536576Y86023881D01*
X-51257043Y85854898D01*
X-51257041Y85854897D01*
X-50959175Y85720839D01*
X-50959164Y85720835D01*
X-50647341Y85623667D01*
X-50326038Y85564786D01*
X-50000000Y85545065D01*
X-49673961Y85564786D01*
X-49352658Y85623667D01*
X-49040835Y85720835D01*
X-49040824Y85720839D01*
X-48742958Y85854897D01*
X-48742956Y85854898D01*
X-48463422Y86023881D01*
X-48463416Y86023886D01*
X-48275030Y86171474D01*
X-48275029Y86171476D01*
X-49417262Y87313709D01*
X-49283398Y87410967D01*
X-49160967Y87533398D01*
X-49063709Y87667262D01*
X-47921476Y86525029D01*
X-47921474Y86525030D01*
X-47773886Y86713416D01*
X-47773881Y86713422D01*
X-47604898Y86992956D01*
X-47604897Y86992958D01*
X-47470839Y87290824D01*
X-47470835Y87290835D01*
X-47373667Y87602658D01*
X-47314786Y87923961D01*
X-47295065Y88250000D01*
X-47314786Y88576038D01*
X-47373667Y88897341D01*
X-47470835Y89209164D01*
X-47470839Y89209175D01*
X-47604897Y89507041D01*
X-47604898Y89507043D01*
X-47773881Y89786576D01*
X-47921476Y89974968D01*
X-49063708Y88832736D01*
X-49160967Y88966602D01*
X-49283398Y89089033D01*
X-49417262Y89186290D01*
X-48275030Y90328522D01*
X-48275030Y90328523D01*
X-48463423Y90476118D01*
X-48742956Y90645101D01*
X-48742958Y90645102D01*
X-49040824Y90779160D01*
X-49040835Y90779164D01*
X-49352658Y90876332D01*
X-49673961Y90935213D01*
X-50000000Y90954934D01*
X-50326038Y90935213D01*
X-50647341Y90876332D01*
X-50959164Y90779164D01*
X-50959175Y90779160D01*
X-51257041Y90645102D01*
X-51257043Y90645101D01*
X-51536586Y90476112D01*
X-51724968Y90328523D01*
X-51724968Y90328522D01*
X-50582737Y89186290D01*
X-50716602Y89089033D01*
X-50839033Y88966602D01*
X-50936290Y88832737D01*
X-52078522Y89974968D01*
X-52078523Y89974968D01*
X-52226112Y89786586D01*
X-52395101Y89507043D01*
X-52395102Y89507041D01*
X-52529160Y89209175D01*
X-52529164Y89209164D01*
X-52626332Y88897341D01*
X-52685213Y88576038D01*
X-52704934Y88250000D01*
X-55063309Y88250000D01*
X-54757740Y88564419D01*
X-54757739Y88564419D01*
X-54197579Y89140813D01*
X-54197579Y89140814D01*
X-53637410Y89717207D01*
X-53077240Y90293600D01*
X-52517070Y90869994D01*
X-52517034Y90870031D01*
X-52482976Y90905046D01*
X-52475471Y90912145D01*
X-52423827Y90957067D01*
X-52362696Y91010243D01*
X-52352916Y91017924D01*
X-52232520Y91103061D01*
X-52222128Y91109661D01*
X-52094516Y91182082D01*
X-52083474Y91187640D01*
X-51949364Y91246960D01*
X-51937894Y91251368D01*
X-51798577Y91297121D01*
X-51786664Y91300385D01*
X-51643004Y91332157D01*
X-51630783Y91334226D01*
X-51484795Y91351483D01*
X-51470268Y91352340D01*
X-39765090Y91355039D01*
X-29783211Y91355039D01*
X-29748821Y91350175D01*
G37*
%TD.AperFunction*%
%TD*%
M02*
