%TF.GenerationSoftware,KiCad,Pcbnew,8.0.1*%
%TF.CreationDate,2024-04-02T00:15:24+02:00*%
%TF.ProjectId,frontpanel,66726f6e-7470-4616-9e65-6c2e6b696361,rev?*%
%TF.SameCoordinates,Original*%
%TF.FileFunction,Soldermask,Top*%
%TF.FilePolarity,Negative*%
%FSLAX46Y46*%
G04 Gerber Fmt 4.6, Leading zero omitted, Abs format (unit mm)*
G04 Created by KiCad (PCBNEW 8.0.1) date 2024-04-02 00:15:24*
%MOMM*%
%LPD*%
G01*
G04 APERTURE LIST*
%ADD10C,0.200000*%
%ADD11C,0.300000*%
%ADD12C,0.010000*%
%ADD13C,0.700000*%
%ADD14C,4.400000*%
G04 APERTURE END LIST*
D10*
X40000000Y84300000D02*
X31000000Y84300000D01*
D11*
G36*
X-18297419Y86596545D02*
G01*
X-18161021Y86576287D01*
X-18038454Y86514272D01*
X-17955518Y86410960D01*
X-17916176Y86289567D01*
X-17905907Y86165268D01*
X-17905907Y84566088D01*
X-17920691Y84419510D01*
X-17964929Y84303304D01*
X-18053543Y84206086D01*
X-18181750Y84150138D01*
X-18322951Y84135000D01*
X-19600341Y84135000D01*
X-19600341Y86278230D01*
X-19239473Y86278230D01*
X-19239473Y84449462D01*
X-18406605Y84449462D01*
X-18305674Y84482442D01*
X-18266775Y84601503D01*
X-18266775Y86122526D01*
X-18306160Y86238846D01*
X-18424312Y86278230D01*
X-19239473Y86278230D01*
X-19600341Y86278230D01*
X-19600341Y86596967D01*
X-18322951Y86596967D01*
X-18297419Y86596545D01*
G37*
G36*
X-16117831Y86596545D02*
G01*
X-15979923Y86576319D01*
X-15856434Y86514527D01*
X-15773190Y86411823D01*
X-15733841Y86291401D01*
X-15723597Y86168321D01*
X-15723597Y84562424D01*
X-15738348Y84417545D01*
X-15782619Y84302410D01*
X-15871610Y84205840D01*
X-16000851Y84150113D01*
X-16143695Y84135000D01*
X-16997323Y84135000D01*
X-17138806Y84150689D01*
X-17267833Y84207815D01*
X-17357432Y84305361D01*
X-17402355Y84420039D01*
X-17417421Y84562424D01*
X-17417421Y84605167D01*
X-17057163Y84605167D01*
X-17016405Y84494113D01*
X-16899626Y84449462D01*
X-16241392Y84449462D01*
X-16123239Y84488846D01*
X-16083855Y84605167D01*
X-16083855Y86126189D01*
X-16123239Y86242510D01*
X-16241392Y86281894D01*
X-16899626Y86281894D01*
X-17011248Y86242336D01*
X-17057163Y86126189D01*
X-17057163Y84605167D01*
X-17417421Y84605167D01*
X-17417421Y86168321D01*
X-17402355Y86311046D01*
X-17347071Y86442442D01*
X-17251800Y86534596D01*
X-17138806Y86581218D01*
X-16997323Y86596967D01*
X-16143695Y86596967D01*
X-16117831Y86596545D01*
G37*
G36*
X-14369270Y84135000D02*
G01*
X-14369270Y86284947D01*
X-13756831Y86284947D01*
X-13756831Y86596967D01*
X-15338914Y86596967D01*
X-15338914Y86284947D01*
X-14730139Y86284947D01*
X-14730139Y84135000D01*
X-14369270Y84135000D01*
G37*
G36*
X-12278551Y84135000D02*
G01*
X-12278551Y85740896D01*
X-11879825Y84804225D01*
X-11578796Y84804225D01*
X-11190450Y85772648D01*
X-11190450Y84135000D01*
X-10826528Y84135000D01*
X-10826528Y86596967D01*
X-11190450Y86596967D01*
X-11729005Y85328736D01*
X-12296259Y86596967D01*
X-12639420Y86596967D01*
X-12639420Y84135000D01*
X-12278551Y84135000D01*
G37*
G36*
X-8594759Y84135000D02*
G01*
X-8990432Y84135000D01*
X-9193154Y84799340D01*
X-9882529Y84799340D01*
X-10085861Y84135000D01*
X-10477871Y84135000D01*
X-10175189Y85124794D01*
X-9798876Y85124794D01*
X-9280471Y85124794D01*
X-9539979Y86006510D01*
X-9798876Y85124794D01*
X-10175189Y85124794D01*
X-9724993Y86596967D01*
X-9361071Y86596967D01*
X-8594759Y84135000D01*
G37*
G36*
X-7659919Y84135000D02*
G01*
X-7659919Y86284947D01*
X-7047480Y86284947D01*
X-7047480Y86596967D01*
X-8629563Y86596967D01*
X-8629563Y86284947D01*
X-8020788Y86284947D01*
X-8020788Y84135000D01*
X-7659919Y84135000D01*
G37*
G36*
X-5398039Y86586693D02*
G01*
X-5263044Y86537880D01*
X-5168306Y86449075D01*
X-5113785Y86320469D01*
X-5099033Y86178702D01*
X-5099033Y85536953D01*
X-5101995Y85488845D01*
X-5138875Y85365144D01*
X-5218101Y85268897D01*
X-5256570Y85247526D01*
X-5221154Y85226765D01*
X-5212468Y85219726D01*
X-5145306Y85114882D01*
X-5109413Y84995345D01*
X-4994009Y84135000D01*
X-5368311Y84135000D01*
X-5480662Y84918408D01*
X-5535235Y85033890D01*
X-5655296Y85072892D01*
X-6267735Y85072892D01*
X-6267735Y84135000D01*
X-6628604Y84135000D01*
X-6628604Y86270903D01*
X-6267735Y86270903D01*
X-6267735Y85398346D01*
X-5630872Y85398346D01*
X-5515467Y85448568D01*
X-5473335Y85565652D01*
X-5473335Y86107260D01*
X-5512719Y86230527D01*
X-5630872Y86270903D01*
X-6267735Y86270903D01*
X-6628604Y86270903D01*
X-6628604Y86596967D01*
X-5519131Y86596967D01*
X-5398039Y86586693D01*
G37*
G36*
X-3744706Y84135000D02*
G01*
X-3744706Y84446409D01*
X-4049399Y84446409D01*
X-4049399Y86284947D01*
X-3744706Y86284947D01*
X-3744706Y86596967D01*
X-4714351Y86596967D01*
X-4714351Y86284947D01*
X-4409658Y86284947D01*
X-4409658Y84446409D01*
X-4714351Y84446409D01*
X-4714351Y84135000D01*
X-3744706Y84135000D01*
G37*
G36*
X-3060216Y84135000D02*
G01*
X-2678586Y84934284D01*
X-2304284Y84135000D01*
X-1887850Y84135000D01*
X-2468538Y85370868D01*
X-1894567Y86596967D01*
X-2290240Y86596967D01*
X-2668206Y85797072D01*
X-3039455Y86596967D01*
X-3459553Y86596967D01*
X-2878255Y85356824D01*
X-3455889Y84135000D01*
X-3060216Y84135000D01*
G37*
G36*
X1288527Y84135000D02*
G01*
X1872878Y86596967D01*
X1501629Y86596967D01*
X1105956Y84821322D01*
X658381Y86596967D01*
X283468Y86596967D01*
X-118921Y84821322D01*
X-559780Y86596967D01*
X-934692Y86596967D01*
X-325307Y84135000D01*
X63039Y84135000D01*
X462376Y85870956D01*
X899570Y84135000D01*
X1288527Y84135000D01*
G37*
G36*
X3086765Y84135000D02*
G01*
X3086765Y84446409D01*
X2782072Y84446409D01*
X2782072Y86284947D01*
X3086765Y86284947D01*
X3086765Y86596967D01*
X2117121Y86596967D01*
X2117121Y86284947D01*
X2421814Y86284947D01*
X2421814Y84446409D01*
X2117121Y84446409D01*
X2117121Y84135000D01*
X3086765Y84135000D01*
G37*
G36*
X4334846Y84135000D02*
G01*
X4334846Y86284947D01*
X4947285Y86284947D01*
X4947285Y86596967D01*
X3365202Y86596967D01*
X3365202Y86284947D01*
X3973977Y86284947D01*
X3973977Y84135000D01*
X4334846Y84135000D01*
G37*
G36*
X5727030Y84135000D02*
G01*
X5727030Y85215774D01*
X6664923Y85215774D01*
X6664923Y84135000D01*
X7028845Y84135000D01*
X7028845Y86596967D01*
X6664923Y86596967D01*
X6664923Y85541838D01*
X5727030Y85541838D01*
X5727030Y86596967D01*
X5366161Y86596967D01*
X5366161Y84135000D01*
X5727030Y84135000D01*
G37*
G36*
X9341214Y84135000D02*
G01*
X9471776Y84164061D01*
X9561819Y84248713D01*
X9600453Y84369287D01*
X9603164Y84418321D01*
X9603164Y85194403D01*
X9582443Y85314861D01*
X9510816Y85416244D01*
X9402608Y85477205D01*
X9341214Y85494822D01*
X8703740Y85643199D01*
X8604564Y85717438D01*
X8588335Y85787913D01*
X8588335Y86140844D01*
X8649069Y86249122D01*
X8717784Y86260523D01*
X9540272Y86260523D01*
X9519511Y86596967D01*
X8486974Y86596967D01*
X8356271Y86567764D01*
X8265951Y86482836D01*
X8227139Y86362084D01*
X8224413Y86313035D01*
X8224413Y85582749D01*
X8245148Y85462304D01*
X8316889Y85361036D01*
X8425378Y85300356D01*
X8486974Y85282941D01*
X9127501Y85138227D01*
X9223207Y85061770D01*
X9239242Y84986186D01*
X9239242Y84590512D01*
X9178779Y84482234D01*
X9109794Y84470833D01*
X8234794Y84470833D01*
X8256165Y84135000D01*
X9341214Y84135000D01*
G37*
G36*
X10929403Y84135000D02*
G01*
X10929403Y86284947D01*
X11541842Y86284947D01*
X11541842Y86596967D01*
X9959759Y86596967D01*
X9959759Y86284947D01*
X10568534Y86284947D01*
X10568534Y84135000D01*
X10929403Y84135000D01*
G37*
G36*
X13221011Y84135000D02*
G01*
X13221011Y84463506D01*
X12321587Y84463506D01*
X12321587Y85212721D01*
X13063475Y85212721D01*
X13063475Y85541838D01*
X12321587Y85541838D01*
X12321587Y86274567D01*
X13213684Y86274567D01*
X13213684Y86596967D01*
X11960718Y86596967D01*
X11960718Y84135000D01*
X13221011Y84135000D01*
G37*
G36*
X14940062Y86586693D02*
G01*
X15075057Y86537880D01*
X15169795Y86449075D01*
X15224316Y86320469D01*
X15239068Y86178702D01*
X15239068Y85536953D01*
X15236105Y85488845D01*
X15199226Y85365144D01*
X15119999Y85268897D01*
X15081531Y85247526D01*
X15116946Y85226765D01*
X15125632Y85219726D01*
X15192795Y85114882D01*
X15228688Y84995345D01*
X15344092Y84135000D01*
X14969790Y84135000D01*
X14857438Y84918408D01*
X14802865Y85033890D01*
X14682805Y85072892D01*
X14070366Y85072892D01*
X14070366Y84135000D01*
X13709497Y84135000D01*
X13709497Y86270903D01*
X14070366Y86270903D01*
X14070366Y85398346D01*
X14707229Y85398346D01*
X14822634Y85448568D01*
X14864766Y85565652D01*
X14864766Y86107260D01*
X14825382Y86230527D01*
X14707229Y86270903D01*
X14070366Y86270903D01*
X13709497Y86270903D01*
X13709497Y86596967D01*
X14818970Y86596967D01*
X14940062Y86586693D01*
G37*
G36*
X17023872Y84135000D02*
G01*
X17023872Y84463506D01*
X16124448Y84463506D01*
X16124448Y85212721D01*
X16866336Y85212721D01*
X16866336Y85541838D01*
X16124448Y85541838D01*
X16124448Y86274567D01*
X17016545Y86274567D01*
X17016545Y86596967D01*
X15763579Y86596967D01*
X15763579Y84135000D01*
X17023872Y84135000D01*
G37*
G36*
X18777144Y86596545D02*
G01*
X18915052Y86576319D01*
X19038541Y86514527D01*
X19121785Y86411823D01*
X19161134Y86291401D01*
X19171378Y86168321D01*
X19171378Y84562424D01*
X19156626Y84417545D01*
X19112355Y84302410D01*
X19023364Y84205840D01*
X18894123Y84150113D01*
X18751280Y84135000D01*
X17897651Y84135000D01*
X17756169Y84150689D01*
X17627141Y84207815D01*
X17537542Y84305361D01*
X17492619Y84420039D01*
X17477554Y84562424D01*
X17477554Y84605167D01*
X17837812Y84605167D01*
X17878570Y84494113D01*
X17995348Y84449462D01*
X18653583Y84449462D01*
X18771735Y84488846D01*
X18811120Y84605167D01*
X18811120Y86126189D01*
X18771735Y86242510D01*
X18653583Y86281894D01*
X17995348Y86281894D01*
X17883727Y86242336D01*
X17837812Y86126189D01*
X17837812Y84605167D01*
X17477554Y84605167D01*
X17477554Y86168321D01*
X17492619Y86311046D01*
X17547903Y86442442D01*
X17643175Y86534596D01*
X17756169Y86581218D01*
X17897651Y86596967D01*
X18751280Y86596967D01*
X18777144Y86596545D01*
G37*
G36*
X21448332Y84135000D02*
G01*
X21578894Y84164061D01*
X21668937Y84248713D01*
X21707571Y84369287D01*
X21710282Y84418321D01*
X21710282Y85194403D01*
X21689561Y85314861D01*
X21617934Y85416244D01*
X21509726Y85477205D01*
X21448332Y85494822D01*
X20810858Y85643199D01*
X20711682Y85717438D01*
X20695453Y85787913D01*
X20695453Y86140844D01*
X20756187Y86249122D01*
X20824902Y86260523D01*
X21647390Y86260523D01*
X21626629Y86596967D01*
X20594092Y86596967D01*
X20463389Y86567764D01*
X20373069Y86482836D01*
X20334257Y86362084D01*
X20331531Y86313035D01*
X20331531Y85582749D01*
X20352266Y85462304D01*
X20424007Y85361036D01*
X20532496Y85300356D01*
X20594092Y85282941D01*
X21234619Y85138227D01*
X21330325Y85061770D01*
X21346360Y84986186D01*
X21346360Y84590512D01*
X21285897Y84482234D01*
X21216912Y84470833D01*
X20341912Y84470833D01*
X20363283Y84135000D01*
X21448332Y84135000D01*
G37*
G36*
X23471491Y86596545D02*
G01*
X23609399Y86576319D01*
X23732888Y86514527D01*
X23816132Y86411823D01*
X23855482Y86291401D01*
X23865725Y86168321D01*
X23865725Y84562424D01*
X23850974Y84417545D01*
X23806703Y84302410D01*
X23717712Y84205840D01*
X23588471Y84150113D01*
X23445628Y84135000D01*
X22591999Y84135000D01*
X22450516Y84150689D01*
X22321489Y84207815D01*
X22231890Y84305361D01*
X22186967Y84420039D01*
X22171901Y84562424D01*
X22171901Y84605167D01*
X22532159Y84605167D01*
X22572917Y84494113D01*
X22689696Y84449462D01*
X23347930Y84449462D01*
X23466083Y84488846D01*
X23505467Y84605167D01*
X23505467Y86126189D01*
X23466083Y86242510D01*
X23347930Y86281894D01*
X22689696Y86281894D01*
X22578074Y86242336D01*
X22532159Y86126189D01*
X22532159Y84605167D01*
X22171901Y84605167D01*
X22171901Y86168321D01*
X22186967Y86311046D01*
X22242251Y86442442D01*
X22337522Y86534596D01*
X22450516Y86581218D01*
X22591999Y86596967D01*
X23445628Y86596967D01*
X23471491Y86596545D01*
G37*
G36*
X24390237Y84566088D02*
G01*
X24401430Y84428579D01*
X24447303Y84297382D01*
X24536001Y84202008D01*
X24652073Y84152231D01*
X24780818Y84135489D01*
X24810334Y84135000D01*
X25629159Y84135000D01*
X25751714Y84145512D01*
X25871054Y84185891D01*
X25972270Y84271314D01*
X26032802Y84398034D01*
X26052510Y84539548D01*
X26052920Y84566088D01*
X26052920Y86596967D01*
X25685334Y86596967D01*
X25685334Y84618600D01*
X25650911Y84499914D01*
X25545505Y84460453D01*
X24890935Y84460453D01*
X24777410Y84510407D01*
X24751106Y84618600D01*
X24751106Y86596967D01*
X24390237Y86596967D01*
X24390237Y84566088D01*
G37*
G36*
X26973715Y84135000D02*
G01*
X26973715Y85814780D01*
X27956793Y84135000D01*
X28275530Y84135000D01*
X28275530Y86596967D01*
X27911608Y86596967D01*
X27911608Y85018548D01*
X26966388Y86596967D01*
X26612847Y86596967D01*
X26612847Y84135000D01*
X26973715Y84135000D01*
G37*
G36*
X30138379Y86596545D02*
G01*
X30274777Y86576287D01*
X30397344Y86514272D01*
X30480280Y86410960D01*
X30519622Y86289567D01*
X30529891Y86165268D01*
X30529891Y84566088D01*
X30515108Y84419510D01*
X30470869Y84303304D01*
X30382255Y84206086D01*
X30254048Y84150138D01*
X30112847Y84135000D01*
X28835457Y84135000D01*
X28835457Y86278230D01*
X29196325Y86278230D01*
X29196325Y84449462D01*
X30029193Y84449462D01*
X30130125Y84482442D01*
X30169023Y84601503D01*
X30169023Y86122526D01*
X30129638Y86238846D01*
X30011486Y86278230D01*
X29196325Y86278230D01*
X28835457Y86278230D01*
X28835457Y86596967D01*
X30112847Y86596967D01*
X30138379Y86596545D01*
G37*
D10*
X-20000000Y85300000D02*
X-40000000Y85300000D01*
X40000000Y85300000D02*
X31000000Y85300000D01*
X-20000000Y84300000D02*
X-40000000Y84300000D01*
X40000000Y86300000D02*
X31000000Y86300000D01*
X-20000000Y86300000D02*
X-40000000Y86300000D01*
D12*
%TO.C,N1*%
X51180201Y451102D02*
X51310061Y320866D01*
X51351035Y272358D01*
X51555910Y21667D01*
X51555910Y-26902333D01*
X51359733Y-27142116D01*
X51163557Y-27381898D01*
X51118589Y-13468449D01*
X51113889Y-11946730D01*
X51109757Y-10471063D01*
X51106200Y-9050325D01*
X51103223Y-7693391D01*
X51100832Y-6409136D01*
X51099031Y-5206435D01*
X51097827Y-4094165D01*
X51097225Y-3081199D01*
X51097231Y-2176415D01*
X51097850Y-1388687D01*
X51099088Y-726890D01*
X51100950Y-199900D01*
X51103442Y183407D01*
X51106569Y414157D01*
X51109891Y484025D01*
X51180201Y451102D01*
G36*
X51180201Y451102D02*
G01*
X51310061Y320866D01*
X51351035Y272358D01*
X51555910Y21667D01*
X51555910Y-26902333D01*
X51359733Y-27142116D01*
X51163557Y-27381898D01*
X51118589Y-13468449D01*
X51113889Y-11946730D01*
X51109757Y-10471063D01*
X51106200Y-9050325D01*
X51103223Y-7693391D01*
X51100832Y-6409136D01*
X51099031Y-5206435D01*
X51097827Y-4094165D01*
X51097225Y-3081199D01*
X51097231Y-2176415D01*
X51097850Y-1388687D01*
X51099088Y-726890D01*
X51100950Y-199900D01*
X51103442Y183407D01*
X51106569Y414157D01*
X51109891Y484025D01*
X51180201Y451102D01*
G37*
X-51141712Y-13419167D02*
X-51141537Y-14937456D01*
X-51141678Y-16409257D01*
X-51142120Y-17825712D01*
X-51142848Y-19177964D01*
X-51143847Y-20457153D01*
X-51145102Y-21654423D01*
X-51146599Y-22760914D01*
X-51148321Y-23767769D01*
X-51150256Y-24666130D01*
X-51152387Y-25447138D01*
X-51154699Y-26101936D01*
X-51157178Y-26621665D01*
X-51159809Y-26997467D01*
X-51162576Y-27220484D01*
X-51165078Y-27283333D01*
X-51227221Y-27222542D01*
X-51347125Y-27072375D01*
X-51376745Y-27032762D01*
X-51562000Y-26782190D01*
X-51561580Y-13422595D01*
X-51561159Y-63000D01*
X-51144757Y445000D01*
X-51141712Y-13419167D01*
G36*
X-51141712Y-13419167D02*
G01*
X-51141537Y-14937456D01*
X-51141678Y-16409257D01*
X-51142120Y-17825712D01*
X-51142848Y-19177964D01*
X-51143847Y-20457153D01*
X-51145102Y-21654423D01*
X-51146599Y-22760914D01*
X-51148321Y-23767769D01*
X-51150256Y-24666130D01*
X-51152387Y-25447138D01*
X-51154699Y-26101936D01*
X-51157178Y-26621665D01*
X-51159809Y-26997467D01*
X-51162576Y-27220484D01*
X-51165078Y-27283333D01*
X-51227221Y-27222542D01*
X-51347125Y-27072375D01*
X-51376745Y-27032762D01*
X-51562000Y-26782190D01*
X-51561580Y-13422595D01*
X-51561159Y-63000D01*
X-51144757Y445000D01*
X-51141712Y-13419167D01*
G37*
X51858333Y-274667D02*
X52070000Y-473517D01*
X52070000Y-26342557D01*
X51652018Y-26817667D01*
X51649342Y-13446741D01*
X51646667Y-75816D01*
X51858333Y-274667D01*
G36*
X51858333Y-274667D02*
G01*
X52070000Y-473517D01*
X52070000Y-26342557D01*
X51652018Y-26817667D01*
X51649342Y-13446741D01*
X51646667Y-75816D01*
X51858333Y-274667D01*
G37*
X-51646667Y-13425575D02*
X-51646894Y-14910222D01*
X-51647558Y-16348185D01*
X-51648634Y-17730405D01*
X-51650099Y-19047829D01*
X-51651927Y-20291399D01*
X-51654093Y-21452060D01*
X-51656572Y-22520756D01*
X-51659341Y-23488431D01*
X-51662374Y-24346029D01*
X-51665647Y-25084494D01*
X-51669135Y-25694770D01*
X-51672812Y-26167802D01*
X-51676656Y-26494534D01*
X-51680640Y-26665908D01*
X-51682855Y-26690667D01*
X-51754094Y-26631276D01*
X-51879589Y-26486402D01*
X-51894522Y-26467582D01*
X-52070000Y-26244497D01*
X-52070000Y-558184D01*
X-51858333Y-359333D01*
X-51646667Y-160483D01*
X-51646667Y-13425575D01*
G36*
X-51646667Y-13425575D02*
G01*
X-51646894Y-14910222D01*
X-51647558Y-16348185D01*
X-51648634Y-17730405D01*
X-51650099Y-19047829D01*
X-51651927Y-20291399D01*
X-51654093Y-21452060D01*
X-51656572Y-22520756D01*
X-51659341Y-23488431D01*
X-51662374Y-24346029D01*
X-51665647Y-25084494D01*
X-51669135Y-25694770D01*
X-51672812Y-26167802D01*
X-51676656Y-26494534D01*
X-51680640Y-26665908D01*
X-51682855Y-26690667D01*
X-51754094Y-26631276D01*
X-51879589Y-26486402D01*
X-51894522Y-26467582D01*
X-52070000Y-26244497D01*
X-52070000Y-558184D01*
X-51858333Y-359333D01*
X-51646667Y-160483D01*
X-51646667Y-13425575D01*
G37*
X52330729Y-760723D02*
X52466166Y-914634D01*
X52487568Y-943903D01*
X52662667Y-1189807D01*
X52659622Y-13453403D01*
X52656577Y-25717000D01*
X52464222Y-25951989D01*
X52324310Y-26091123D01*
X52224512Y-26134582D01*
X52213267Y-26128378D01*
X52204465Y-26036724D01*
X52196401Y-25787632D01*
X52189067Y-25392383D01*
X52182454Y-24862260D01*
X52176552Y-24208545D01*
X52171353Y-23442520D01*
X52166847Y-22575466D01*
X52163025Y-21618667D01*
X52159879Y-20583403D01*
X52157400Y-19480957D01*
X52155578Y-18322611D01*
X52154404Y-17119647D01*
X52153870Y-15883347D01*
X52153966Y-14624993D01*
X52154684Y-13355867D01*
X52156014Y-12087251D01*
X52157948Y-10830427D01*
X52160476Y-9596677D01*
X52163590Y-8397283D01*
X52167279Y-7243527D01*
X52171537Y-6146692D01*
X52176353Y-5118058D01*
X52181718Y-4168909D01*
X52187623Y-3310526D01*
X52194060Y-2554191D01*
X52201019Y-1911186D01*
X52208492Y-1392794D01*
X52216469Y-1010296D01*
X52224941Y-774974D01*
X52233568Y-698000D01*
X52330729Y-760723D01*
G36*
X52330729Y-760723D02*
G01*
X52466166Y-914634D01*
X52487568Y-943903D01*
X52662667Y-1189807D01*
X52659622Y-13453403D01*
X52656577Y-25717000D01*
X52464222Y-25951989D01*
X52324310Y-26091123D01*
X52224512Y-26134582D01*
X52213267Y-26128378D01*
X52204465Y-26036724D01*
X52196401Y-25787632D01*
X52189067Y-25392383D01*
X52182454Y-24862260D01*
X52176552Y-24208545D01*
X52171353Y-23442520D01*
X52166847Y-22575466D01*
X52163025Y-21618667D01*
X52159879Y-20583403D01*
X52157400Y-19480957D01*
X52155578Y-18322611D01*
X52154404Y-17119647D01*
X52153870Y-15883347D01*
X52153966Y-14624993D01*
X52154684Y-13355867D01*
X52156014Y-12087251D01*
X52157948Y-10830427D01*
X52160476Y-9596677D01*
X52163590Y-8397283D01*
X52167279Y-7243527D01*
X52171537Y-6146692D01*
X52176353Y-5118058D01*
X52181718Y-4168909D01*
X52187623Y-3310526D01*
X52194060Y-2554191D01*
X52201019Y-1911186D01*
X52208492Y-1392794D01*
X52216469Y-1010296D01*
X52224941Y-774974D01*
X52233568Y-698000D01*
X52330729Y-760723D01*
G37*
X-52223801Y-865446D02*
X-52214983Y-1106238D01*
X-52206742Y-1493724D01*
X-52199082Y-2016583D01*
X-52192009Y-2663495D01*
X-52185529Y-3423142D01*
X-52179647Y-4284203D01*
X-52174368Y-5235360D01*
X-52169698Y-6265291D01*
X-52165642Y-7362678D01*
X-52162207Y-8516201D01*
X-52159396Y-9714540D01*
X-52157217Y-10946375D01*
X-52155675Y-12200388D01*
X-52154774Y-13465258D01*
X-52154521Y-14729665D01*
X-52154921Y-15982290D01*
X-52155979Y-17211814D01*
X-52157702Y-18406917D01*
X-52160093Y-19556278D01*
X-52163160Y-20648579D01*
X-52166908Y-21672500D01*
X-52171341Y-22616721D01*
X-52176466Y-23469922D01*
X-52182288Y-24220784D01*
X-52188812Y-24857987D01*
X-52196045Y-25370212D01*
X-52203990Y-25746139D01*
X-52212655Y-25974447D01*
X-52220909Y-26044279D01*
X-52305276Y-26008109D01*
X-52434118Y-25867677D01*
X-52474909Y-25811204D01*
X-52662667Y-25537188D01*
X-52662667Y-1228836D01*
X-52487188Y-1005751D01*
X-52346037Y-853382D01*
X-52239011Y-783194D01*
X-52233188Y-782667D01*
X-52223801Y-865446D01*
G36*
X-52223801Y-865446D02*
G01*
X-52214983Y-1106238D01*
X-52206742Y-1493724D01*
X-52199082Y-2016583D01*
X-52192009Y-2663495D01*
X-52185529Y-3423142D01*
X-52179647Y-4284203D01*
X-52174368Y-5235360D01*
X-52169698Y-6265291D01*
X-52165642Y-7362678D01*
X-52162207Y-8516201D01*
X-52159396Y-9714540D01*
X-52157217Y-10946375D01*
X-52155675Y-12200388D01*
X-52154774Y-13465258D01*
X-52154521Y-14729665D01*
X-52154921Y-15982290D01*
X-52155979Y-17211814D01*
X-52157702Y-18406917D01*
X-52160093Y-19556278D01*
X-52163160Y-20648579D01*
X-52166908Y-21672500D01*
X-52171341Y-22616721D01*
X-52176466Y-23469922D01*
X-52182288Y-24220784D01*
X-52188812Y-24857987D01*
X-52196045Y-25370212D01*
X-52203990Y-25746139D01*
X-52212655Y-25974447D01*
X-52220909Y-26044279D01*
X-52305276Y-26008109D01*
X-52434118Y-25867677D01*
X-52474909Y-25811204D01*
X-52662667Y-25537188D01*
X-52662667Y-1228836D01*
X-52487188Y-1005751D01*
X-52346037Y-853382D01*
X-52239011Y-783194D01*
X-52233188Y-782667D01*
X-52223801Y-865446D01*
G37*
X53003815Y-1524836D02*
X53255333Y-1801338D01*
X53255333Y-25079328D01*
X53003815Y-25355831D01*
X52752297Y-25632333D01*
X52752297Y-1248333D01*
X53003815Y-1524836D01*
G36*
X53003815Y-1524836D02*
G01*
X53255333Y-1801338D01*
X53255333Y-25079328D01*
X53003815Y-25355831D01*
X52752297Y-25632333D01*
X52752297Y-1248333D01*
X53003815Y-1524836D01*
G37*
X-52747333Y-13424493D02*
X-52747573Y-14840319D01*
X-52748273Y-16209027D01*
X-52749406Y-17521126D01*
X-52750945Y-18767127D01*
X-52752862Y-19937541D01*
X-52755131Y-21022878D01*
X-52757724Y-22013649D01*
X-52760613Y-22900365D01*
X-52763771Y-23673537D01*
X-52767171Y-24323674D01*
X-52770785Y-24841287D01*
X-52774587Y-25216887D01*
X-52778548Y-25440985D01*
X-52782141Y-25505333D01*
X-52853147Y-25446966D01*
X-52987767Y-25301339D01*
X-53036141Y-25244837D01*
X-53255333Y-24984341D01*
X-53255333Y-1830347D01*
X-53001333Y-1587000D01*
X-52747333Y-1343652D01*
X-52747333Y-13424493D01*
G36*
X-52747333Y-13424493D02*
G01*
X-52747573Y-14840319D01*
X-52748273Y-16209027D01*
X-52749406Y-17521126D01*
X-52750945Y-18767127D01*
X-52752862Y-19937541D01*
X-52755131Y-21022878D01*
X-52757724Y-22013649D01*
X-52760613Y-22900365D01*
X-52763771Y-23673537D01*
X-52767171Y-24323674D01*
X-52770785Y-24841287D01*
X-52774587Y-25216887D01*
X-52778548Y-25440985D01*
X-52782141Y-25505333D01*
X-52853147Y-25446966D01*
X-52987767Y-25301339D01*
X-53036141Y-25244837D01*
X-53255333Y-24984341D01*
X-53255333Y-1830347D01*
X-53001333Y-1587000D01*
X-52747333Y-1343652D01*
X-52747333Y-13424493D01*
G37*
X53517725Y-2024415D02*
X53623211Y-2122833D01*
X53643425Y-2154669D01*
X53661610Y-2208885D01*
X53677872Y-2294034D01*
X53692319Y-2418665D01*
X53705055Y-2591332D01*
X53716188Y-2820584D01*
X53725823Y-3114975D01*
X53734066Y-3483054D01*
X53741024Y-3933374D01*
X53746803Y-4474485D01*
X53751509Y-5114940D01*
X53755249Y-5863289D01*
X53758127Y-6728084D01*
X53760252Y-7717877D01*
X53761728Y-8841218D01*
X53762662Y-10106659D01*
X53763161Y-11522752D01*
X53763330Y-13098048D01*
X53763333Y-13406994D01*
X53763180Y-15019283D01*
X53762653Y-16470715D01*
X53761654Y-17769770D01*
X53760085Y-18924923D01*
X53757847Y-19944654D01*
X53754840Y-20837438D01*
X53750967Y-21611754D01*
X53746128Y-22276078D01*
X53740225Y-22838889D01*
X53733159Y-23308664D01*
X53724832Y-23693880D01*
X53715144Y-24003014D01*
X53703997Y-24244545D01*
X53691292Y-24426949D01*
X53676931Y-24558704D01*
X53660814Y-24648287D01*
X53642844Y-24704177D01*
X53631532Y-24724494D01*
X53507242Y-24864142D01*
X53419866Y-24912667D01*
X53408239Y-24828813D01*
X53397405Y-24580499D01*
X53387397Y-24172597D01*
X53378249Y-23609979D01*
X53369995Y-22897517D01*
X53362669Y-22040082D01*
X53356305Y-21042546D01*
X53350936Y-19909780D01*
X53346596Y-18646658D01*
X53343320Y-17258050D01*
X53341142Y-15748828D01*
X53340094Y-14123865D01*
X53340000Y-13440333D01*
X53340518Y-12061187D01*
X53342031Y-10729408D01*
X53344479Y-9454735D01*
X53347800Y-8246904D01*
X53351935Y-7115654D01*
X53356822Y-6070723D01*
X53362400Y-5121848D01*
X53368610Y-4278767D01*
X53375390Y-3551219D01*
X53382679Y-2948940D01*
X53390417Y-2481668D01*
X53398543Y-2159142D01*
X53406996Y-1991100D01*
X53411544Y-1968000D01*
X53517725Y-2024415D01*
G36*
X53517725Y-2024415D02*
G01*
X53623211Y-2122833D01*
X53643425Y-2154669D01*
X53661610Y-2208885D01*
X53677872Y-2294034D01*
X53692319Y-2418665D01*
X53705055Y-2591332D01*
X53716188Y-2820584D01*
X53725823Y-3114975D01*
X53734066Y-3483054D01*
X53741024Y-3933374D01*
X53746803Y-4474485D01*
X53751509Y-5114940D01*
X53755249Y-5863289D01*
X53758127Y-6728084D01*
X53760252Y-7717877D01*
X53761728Y-8841218D01*
X53762662Y-10106659D01*
X53763161Y-11522752D01*
X53763330Y-13098048D01*
X53763333Y-13406994D01*
X53763180Y-15019283D01*
X53762653Y-16470715D01*
X53761654Y-17769770D01*
X53760085Y-18924923D01*
X53757847Y-19944654D01*
X53754840Y-20837438D01*
X53750967Y-21611754D01*
X53746128Y-22276078D01*
X53740225Y-22838889D01*
X53733159Y-23308664D01*
X53724832Y-23693880D01*
X53715144Y-24003014D01*
X53703997Y-24244545D01*
X53691292Y-24426949D01*
X53676931Y-24558704D01*
X53660814Y-24648287D01*
X53642844Y-24704177D01*
X53631532Y-24724494D01*
X53507242Y-24864142D01*
X53419866Y-24912667D01*
X53408239Y-24828813D01*
X53397405Y-24580499D01*
X53387397Y-24172597D01*
X53378249Y-23609979D01*
X53369995Y-22897517D01*
X53362669Y-22040082D01*
X53356305Y-21042546D01*
X53350936Y-19909780D01*
X53346596Y-18646658D01*
X53343320Y-17258050D01*
X53341142Y-15748828D01*
X53340094Y-14123865D01*
X53340000Y-13440333D01*
X53340518Y-12061187D01*
X53342031Y-10729408D01*
X53344479Y-9454735D01*
X53347800Y-8246904D01*
X53351935Y-7115654D01*
X53356822Y-6070723D01*
X53362400Y-5121848D01*
X53368610Y-4278767D01*
X53375390Y-3551219D01*
X53382679Y-2948940D01*
X53390417Y-2481668D01*
X53398543Y-2159142D01*
X53406996Y-1991100D01*
X53411544Y-1968000D01*
X53517725Y-2024415D01*
G37*
X-53389976Y-2135704D02*
X-53383356Y-2378301D01*
X-53377021Y-2770683D01*
X-53371019Y-3303077D01*
X-53365401Y-3965708D01*
X-53360215Y-4748803D01*
X-53355509Y-5642587D01*
X-53351332Y-6637287D01*
X-53347733Y-7723129D01*
X-53344762Y-8890338D01*
X-53342465Y-10129142D01*
X-53340893Y-11429765D01*
X-53340095Y-12782434D01*
X-53340000Y-13440333D01*
X-53340548Y-14909395D01*
X-53342155Y-16310262D01*
X-53344766Y-17634571D01*
X-53348327Y-18873960D01*
X-53352781Y-20020067D01*
X-53358075Y-21064528D01*
X-53364152Y-21998982D01*
X-53370959Y-22815066D01*
X-53378439Y-23504418D01*
X-53386539Y-24058674D01*
X-53395202Y-24469474D01*
X-53404375Y-24728453D01*
X-53414001Y-24827249D01*
X-53414929Y-24828000D01*
X-53510407Y-24764326D01*
X-53626596Y-24619312D01*
X-53646435Y-24578014D01*
X-53664276Y-24512101D01*
X-53680224Y-24412977D01*
X-53694383Y-24272048D01*
X-53706859Y-24080720D01*
X-53717755Y-23830397D01*
X-53727175Y-23512485D01*
X-53735226Y-23118389D01*
X-53742010Y-22639515D01*
X-53747632Y-22067267D01*
X-53752197Y-21393051D01*
X-53755810Y-20608272D01*
X-53758574Y-19704336D01*
X-53760595Y-18672647D01*
X-53761976Y-17504611D01*
X-53762823Y-16191634D01*
X-53763240Y-14725120D01*
X-53763333Y-13371768D01*
X-53763261Y-11778513D01*
X-53762962Y-10345938D01*
X-53762317Y-9065391D01*
X-53761207Y-7928218D01*
X-53759512Y-6925768D01*
X-53757111Y-6049386D01*
X-53753885Y-5290420D01*
X-53749714Y-4640217D01*
X-53744479Y-4090124D01*
X-53738058Y-3631488D01*
X-53730334Y-3255657D01*
X-53721185Y-2953977D01*
X-53710491Y-2717796D01*
X-53698134Y-2538461D01*
X-53683993Y-2407318D01*
X-53667948Y-2315715D01*
X-53649880Y-2255000D01*
X-53629668Y-2216518D01*
X-53608500Y-2192789D01*
X-53468843Y-2085044D01*
X-53396833Y-2052667D01*
X-53389976Y-2135704D01*
G36*
X-53389976Y-2135704D02*
G01*
X-53383356Y-2378301D01*
X-53377021Y-2770683D01*
X-53371019Y-3303077D01*
X-53365401Y-3965708D01*
X-53360215Y-4748803D01*
X-53355509Y-5642587D01*
X-53351332Y-6637287D01*
X-53347733Y-7723129D01*
X-53344762Y-8890338D01*
X-53342465Y-10129142D01*
X-53340893Y-11429765D01*
X-53340095Y-12782434D01*
X-53340000Y-13440333D01*
X-53340548Y-14909395D01*
X-53342155Y-16310262D01*
X-53344766Y-17634571D01*
X-53348327Y-18873960D01*
X-53352781Y-20020067D01*
X-53358075Y-21064528D01*
X-53364152Y-21998982D01*
X-53370959Y-22815066D01*
X-53378439Y-23504418D01*
X-53386539Y-24058674D01*
X-53395202Y-24469474D01*
X-53404375Y-24728453D01*
X-53414001Y-24827249D01*
X-53414929Y-24828000D01*
X-53510407Y-24764326D01*
X-53626596Y-24619312D01*
X-53646435Y-24578014D01*
X-53664276Y-24512101D01*
X-53680224Y-24412977D01*
X-53694383Y-24272048D01*
X-53706859Y-24080720D01*
X-53717755Y-23830397D01*
X-53727175Y-23512485D01*
X-53735226Y-23118389D01*
X-53742010Y-22639515D01*
X-53747632Y-22067267D01*
X-53752197Y-21393051D01*
X-53755810Y-20608272D01*
X-53758574Y-19704336D01*
X-53760595Y-18672647D01*
X-53761976Y-17504611D01*
X-53762823Y-16191634D01*
X-53763240Y-14725120D01*
X-53763333Y-13371768D01*
X-53763261Y-11778513D01*
X-53762962Y-10345938D01*
X-53762317Y-9065391D01*
X-53761207Y-7928218D01*
X-53759512Y-6925768D01*
X-53757111Y-6049386D01*
X-53753885Y-5290420D01*
X-53749714Y-4640217D01*
X-53744479Y-4090124D01*
X-53738058Y-3631488D01*
X-53730334Y-3255657D01*
X-53721185Y-2953977D01*
X-53710491Y-2717796D01*
X-53698134Y-2538461D01*
X-53683993Y-2407318D01*
X-53667948Y-2315715D01*
X-53649880Y-2255000D01*
X-53629668Y-2216518D01*
X-53608500Y-2192789D01*
X-53468843Y-2085044D01*
X-53396833Y-2052667D01*
X-53389976Y-2135704D01*
G37*
%TD*%
D13*
%TO.C,H1*%
X-51650000Y88250000D03*
X-51166726Y89416726D03*
X-51166726Y87083274D03*
X-50000000Y89900000D03*
D14*
X-50000000Y88250000D03*
D13*
X-50000000Y86600000D03*
X-48833274Y89416726D03*
X-48833274Y87083274D03*
X-48350000Y88250000D03*
%TD*%
%TO.C,H2*%
X50000000Y86600000D03*
X48833274Y87083274D03*
X51166726Y87083274D03*
X48350000Y88250000D03*
D14*
X50000000Y88250000D03*
D13*
X51650000Y88250000D03*
X48833274Y89416726D03*
X51166726Y89416726D03*
X50000000Y89900000D03*
%TD*%
%TO.C,H5*%
X-54650000Y-3000000D03*
X-54166726Y-1833274D03*
X-54166726Y-4166726D03*
X-53000000Y-1350000D03*
D14*
X-53000000Y-3000000D03*
D13*
X-53000000Y-4650000D03*
X-51833274Y-1833274D03*
X-51833274Y-4166726D03*
X-51350000Y-3000000D03*
%TD*%
%TO.C,H4*%
X34350000Y-30000000D03*
X34833274Y-28833274D03*
X34833274Y-31166726D03*
X36000000Y-28350000D03*
D14*
X36000000Y-30000000D03*
D13*
X36000000Y-31650000D03*
X37166726Y-28833274D03*
X37166726Y-31166726D03*
X37650000Y-30000000D03*
%TD*%
%TO.C,H6*%
X51350000Y-3000000D03*
X51833274Y-1833274D03*
X51833274Y-4166726D03*
X53000000Y-1350000D03*
D14*
X53000000Y-3000000D03*
D13*
X53000000Y-4650000D03*
X54166726Y-1833274D03*
X54166726Y-4166726D03*
X54650000Y-3000000D03*
%TD*%
%TO.C,H3*%
X-37650000Y-30000000D03*
X-37166726Y-28833274D03*
X-37166726Y-31166726D03*
X-36000000Y-28350000D03*
D14*
X-36000000Y-30000000D03*
D13*
X-36000000Y-31650000D03*
X-34833274Y-28833274D03*
X-34833274Y-31166726D03*
X-34350000Y-30000000D03*
%TD*%
M02*
