M48
; DRILL file {KiCad 8.0.1} date 2024-04-02T00:16:13+0200
; FORMAT={-:-/ absolute / inch / decimal}
; #@! TF.CreationDate,2024-04-02T00:16:13+02:00
; #@! TF.GenerationSoftware,Kicad,Pcbnew,8.0.1
; #@! TF.FileFunction,Plated,1,2,PTH
FMAT,2
INCH
; #@! TA.AperFunction,Plated,PTH,ComponentDrill
T1C0.0157
; #@! TA.AperFunction,Plated,PTH,ComponentDrill
T2C0.0866
%
G90
G05
T1
X-2.1516Y-0.1181
X-2.1325Y-0.0722
X-2.1325Y-0.164
X-2.0866Y-0.0531
X-2.0866Y-0.1831
X-2.0407Y-0.0722
X-2.0407Y-0.164
X-2.0335Y3.4744
X-2.0217Y-0.1181
X-2.0144Y3.5203
X-2.0144Y3.4285
X-1.9685Y3.5394
X-1.9685Y3.4094
X-1.9226Y3.5203
X-1.9226Y3.4285
X-1.9035Y3.4744
X-1.4823Y-1.1811
X-1.4633Y-1.1352
X-1.4633Y-1.227
X-1.4173Y-1.1161
X-1.4173Y-1.2461
X-1.3714Y-1.1352
X-1.3714Y-1.227
X-1.3524Y-1.1811
X1.3524Y-1.1811
X1.3714Y-1.1352
X1.3714Y-1.227
X1.4173Y-1.1161
X1.4173Y-1.2461
X1.4633Y-1.1352
X1.4633Y-1.227
X1.4823Y-1.1811
X1.9035Y3.4744
X1.9226Y3.5203
X1.9226Y3.4285
X1.9685Y3.5394
X1.9685Y3.4094
X2.0144Y3.5203
X2.0144Y3.4285
X2.0217Y-0.1181
X2.0335Y3.4744
X2.0407Y-0.0722
X2.0407Y-0.164
X2.0866Y-0.0531
X2.0866Y-0.1831
X2.1325Y-0.0722
X2.1325Y-0.164
X2.1516Y-0.1181
T2
X-2.0866Y-0.1181
X-1.9685Y3.4744
X-1.4173Y-1.1811
X1.4173Y-1.1811
X1.9685Y3.4744
X2.0866Y-0.1181
M30
