%TF.GenerationSoftware,KiCad,Pcbnew,8.0.1*%
%TF.CreationDate,2024-04-02T00:15:23+02:00*%
%TF.ProjectId,frontpanel,66726f6e-7470-4616-9e65-6c2e6b696361,rev?*%
%TF.SameCoordinates,Original*%
%TF.FileFunction,Copper,L1,Top*%
%TF.FilePolarity,Positive*%
%FSLAX46Y46*%
G04 Gerber Fmt 4.6, Leading zero omitted, Abs format (unit mm)*
G04 Created by KiCad (PCBNEW 8.0.1) date 2024-04-02 00:15:23*
%MOMM*%
%LPD*%
G01*
G04 APERTURE LIST*
%ADD10C,0.300000*%
%TA.AperFunction,NonConductor*%
%ADD11C,0.300000*%
%TD*%
%TA.AperFunction,Conductor*%
%ADD12C,0.200000*%
%TD*%
%TA.AperFunction,NonConductor*%
%ADD13C,0.200000*%
%TD*%
%TA.AperFunction,EtchedComponent*%
%ADD14C,0.010000*%
%TD*%
%TA.AperFunction,ComponentPad*%
%ADD15C,0.700000*%
%TD*%
%TA.AperFunction,ComponentPad*%
%ADD16C,4.400000*%
%TD*%
G04 APERTURE END LIST*
D10*
D11*
G36*
X-13370829Y29487243D02*
G01*
X-13274058Y29445770D01*
X-13246754Y29485289D01*
X-13101185Y29449141D01*
X-12993718Y29371960D01*
X-12909699Y29300642D01*
X-12819817Y29271332D01*
X-12695742Y29150188D01*
X-12562874Y29042721D01*
X-12452476Y28913761D01*
X-12407536Y28748653D01*
X-12387019Y28737906D01*
X-12346963Y28686127D01*
X-12360397Y28485115D01*
X-12412420Y28315854D01*
X-12509511Y28143354D01*
X-12590229Y28036441D01*
X-12727921Y27885010D01*
X-12814933Y27800013D01*
X-12953659Y27658502D01*
X-13014235Y27586057D01*
X-12882344Y27458073D01*
X-12726849Y27336693D01*
X-12710397Y27324228D01*
X-12555676Y27195959D01*
X-12540404Y27181591D01*
X-12415489Y27031030D01*
X-12400697Y27006713D01*
X-12330355Y26974473D01*
X-12281506Y26824996D01*
X-12222888Y26692128D01*
X-12187717Y26567076D01*
X-12195533Y26493803D01*
X-12172085Y26427369D01*
X-12173062Y26330648D01*
X-12298542Y26174333D01*
X-12343055Y26115715D01*
X-12409490Y26027787D01*
X-12455407Y25976008D01*
X-12557012Y25884173D01*
X-12744221Y25776572D01*
X-12935818Y25676032D01*
X-13131803Y25582552D01*
X-13171527Y25564703D01*
X-13371921Y25485324D01*
X-13574986Y25424263D01*
X-13780722Y25381521D01*
X-13822190Y25375170D01*
X-13904256Y25314598D01*
X-14029308Y25270635D01*
X-14172923Y25241325D01*
X-14315561Y25217878D01*
X-14372225Y25263796D01*
X-14353663Y25290174D01*
X-14418143Y25222763D01*
X-14569573Y25248164D01*
X-14735658Y25327299D01*
X-14851918Y25402526D01*
X-14907605Y25323391D01*
X-15010187Y25234487D01*
X-15126447Y25251095D01*
X-15191904Y25217878D01*
X-15285693Y25279427D01*
X-15329657Y25330230D01*
X-15374598Y25370286D01*
X-15480111Y25411318D01*
X-15484018Y25502177D01*
X-15582693Y25563726D01*
X-15587577Y25690732D01*
X-15663781Y25852909D01*
X-15654988Y25937906D01*
X-15643265Y26019972D01*
X-15612979Y26093244D01*
X-15566084Y26136231D01*
X-15572298Y26150886D01*
X-14568596Y26150886D01*
X-14371246Y26192119D01*
X-14261827Y26225136D01*
X-14071526Y26294926D01*
X-13945289Y26348234D01*
X-13764867Y26429445D01*
X-13643404Y26485010D01*
X-13458925Y26565992D01*
X-13349336Y26609085D01*
X-13275086Y26712644D01*
X-13161757Y26788848D01*
X-13075784Y26861144D01*
X-13049406Y26945163D01*
X-13234298Y27028939D01*
X-13407954Y27071193D01*
X-13612279Y27080123D01*
X-13729378Y27068262D01*
X-13926067Y27028652D01*
X-14025400Y27000851D01*
X-14214601Y26951483D01*
X-14296021Y26936371D01*
X-14368116Y26741075D01*
X-14432871Y26556641D01*
X-14437682Y26542651D01*
X-14500246Y26357069D01*
X-14565156Y26161383D01*
X-14568596Y26150886D01*
X-15572298Y26150886D01*
X-15617864Y26258353D01*
X-15539706Y26359958D01*
X-15510397Y26473286D01*
X-15473272Y26596385D01*
X-15401953Y26684312D01*
X-15423446Y26690174D01*
X-15437124Y26753677D01*
X-15345189Y26926716D01*
X-15319887Y26990104D01*
X-15269085Y27172798D01*
X-15228052Y27368192D01*
X-15170716Y27555038D01*
X-15141102Y27630020D01*
X-15117654Y27807829D01*
X-15060013Y27961214D01*
X-15014095Y28112644D01*
X-15013118Y28266029D01*
X-15100069Y28213272D01*
X-15145986Y28070635D01*
X-15293509Y28012993D01*
X-15440055Y27992477D01*
X-15626521Y28086491D01*
X-15782674Y28205014D01*
X-15844521Y28267983D01*
X-15952054Y28411598D01*
X-14578366Y28411598D01*
X-14419427Y28297481D01*
X-14382972Y28274822D01*
X-14236021Y28142444D01*
X-14210048Y28098967D01*
X-14026782Y28184708D01*
X-13856415Y28292701D01*
X-13782134Y28350048D01*
X-13626605Y28486958D01*
X-13484578Y28637473D01*
X-13469503Y28655840D01*
X-13682544Y28651307D01*
X-13890383Y28627599D01*
X-14069364Y28594291D01*
X-14258862Y28546225D01*
X-14449738Y28477715D01*
X-14578366Y28411598D01*
X-15952054Y28411598D01*
X-15969596Y28435026D01*
X-16066314Y28615253D01*
X-16098533Y28691011D01*
X-16003056Y28866883D01*
X-15911932Y28962609D01*
X-15752284Y29077011D01*
X-15631541Y29141395D01*
X-15442037Y29218074D01*
X-15305233Y29258632D01*
X-15112239Y29306099D01*
X-14964270Y29338743D01*
X-14957431Y29349490D01*
X-14898813Y29329951D01*
X-14710364Y29382587D01*
X-14519259Y29428900D01*
X-14455268Y29443279D01*
X-14256057Y29476802D01*
X-14049702Y29489441D01*
X-13908164Y29486266D01*
X-13812420Y29510690D01*
X-13692253Y29513621D01*
X-13579901Y29515575D01*
X-13474388Y29541953D01*
X-13370829Y29487243D01*
G37*
G36*
X-10174179Y28722274D02*
G01*
X-10103837Y28694919D01*
X-10001255Y28665610D01*
X-9810746Y28614808D01*
X-9652476Y28521018D01*
X-9610466Y28378381D01*
X-9594835Y28290453D01*
X-9563572Y28100921D01*
X-9544406Y27899891D01*
X-9544032Y27892826D01*
X-9499092Y27711109D01*
X-9462944Y27525484D01*
X-9421911Y27334059D01*
X-9408233Y27272449D01*
X-9351265Y27079187D01*
X-9344730Y27062400D01*
X-9309559Y27055561D01*
X-9260711Y27072170D01*
X-9189392Y27083893D01*
X-9104395Y27091709D01*
X-9072155Y27012575D01*
X-9038938Y26978381D01*
X-8927563Y26945163D01*
X-8860152Y26888499D01*
X-8825958Y26861144D01*
X-8712630Y26817180D01*
X-8773202Y26702875D01*
X-8892485Y26546430D01*
X-8936356Y26504549D01*
X-9095908Y26387496D01*
X-9150313Y26358981D01*
X-9145428Y26318925D01*
X-9132727Y26258353D01*
X-9104395Y26060027D01*
X-9103995Y25860187D01*
X-9105372Y25846071D01*
X-9117096Y25820669D01*
X-9204749Y25644894D01*
X-9216747Y25626252D01*
X-9343898Y25474088D01*
X-9371108Y25449420D01*
X-9534787Y25337261D01*
X-9568457Y25320460D01*
X-9757230Y25266631D01*
X-9803907Y25262819D01*
X-9912351Y25301898D01*
X-9967061Y25339023D01*
X-9995393Y25358562D01*
X-10016887Y25370286D01*
X-10107745Y25408387D01*
X-10078436Y25505108D01*
X-10082344Y25552979D01*
X-10140962Y25612575D01*
X-10176133Y25646769D01*
X-10205442Y25682916D01*
X-10330494Y25822623D01*
X-10133146Y25874403D01*
X-9966084Y25961353D01*
X-9934821Y26119623D01*
X-10085275Y26120600D01*
X-10231820Y26082498D01*
X-10423074Y26038076D01*
X-10436007Y26035603D01*
X-10632943Y26016369D01*
X-10663642Y26016064D01*
X-10748638Y26018995D01*
X-10833635Y26026810D01*
X-10910815Y26042442D01*
X-10930355Y26116692D01*
X-10949894Y26135254D01*
X-11014374Y26218297D01*
X-11031960Y26344326D01*
X-11040753Y26398060D01*
X-11050522Y26301339D01*
X-11080808Y26229043D01*
X-11148219Y26214389D01*
X-11148219Y26208527D01*
X-11149196Y26185080D01*
X-11179483Y26081521D01*
X-11208792Y26053189D01*
X-11223446Y26041465D01*
X-11249824Y25949630D01*
X-11283041Y25854863D01*
X-11328959Y25719064D01*
X-11339706Y25587173D01*
X-11367061Y25514877D01*
X-11437403Y25452351D01*
X-11502860Y25417180D01*
X-11536077Y25395687D01*
X-11555617Y25388848D01*
X-11573202Y25321437D01*
X-11659175Y25306782D01*
X-11744172Y25291151D01*
X-11807675Y25285289D01*
X-11874109Y25291151D01*
X-11974737Y25377124D01*
X-12052895Y25435743D01*
X-12116398Y25549071D01*
X-12128122Y25610621D01*
X-12140822Y25662400D01*
X-12146684Y25683893D01*
X-12244381Y25774752D01*
X-12166224Y25837278D01*
X-12162316Y25922274D01*
X-12083248Y26115841D01*
X-12001871Y26302942D01*
X-11925889Y26467424D01*
X-11839663Y26646571D01*
X-11767761Y26794710D01*
X-10824842Y26794710D01*
X-10795533Y26809364D01*
X-10738868Y26815226D01*
X-10535187Y26830594D01*
X-10439915Y26839651D01*
X-10240247Y26867311D01*
X-10174179Y26879706D01*
X-10219820Y27074312D01*
X-10248429Y27191360D01*
X-10297659Y27388815D01*
X-10320299Y27477954D01*
X-10453929Y27324183D01*
X-10530774Y27221646D01*
X-10639937Y27058935D01*
X-10702720Y26953956D01*
X-10769155Y26854305D01*
X-10824842Y26794710D01*
X-11767761Y26794710D01*
X-11751591Y26828026D01*
X-11669922Y26994989D01*
X-11584926Y27170844D01*
X-11504814Y27335952D01*
X-11507745Y27372100D01*
X-11494067Y27435603D01*
X-11394416Y27603642D01*
X-11318212Y27753119D01*
X-11229365Y27930251D01*
X-11226377Y27935812D01*
X-11119414Y28102829D01*
X-11100348Y28128276D01*
X-11004605Y28170286D01*
X-10962595Y28184940D01*
X-10903000Y28194710D01*
X-10827773Y28183963D01*
X-10655327Y28295100D01*
X-10574737Y28374473D01*
X-10445869Y28533738D01*
X-10342218Y28680265D01*
X-10270899Y28781870D01*
X-10174179Y28722274D01*
G37*
G36*
X-8218630Y28727133D02*
G01*
X-8032337Y28654757D01*
X-7838655Y28568311D01*
X-7821632Y28560097D01*
X-7635601Y28477965D01*
X-7450955Y28412918D01*
X-7284298Y28368611D01*
X-7118222Y28249877D01*
X-6950212Y28133401D01*
X-6872016Y28080404D01*
X-6707478Y27961100D01*
X-6555195Y27831799D01*
X-6489043Y27768750D01*
X-6356939Y27622569D01*
X-6243216Y27460264D01*
X-6196928Y27379916D01*
X-6117649Y27187434D01*
X-6074235Y26983713D01*
X-6062106Y26853328D01*
X-6073830Y26799595D01*
X-6084577Y26765401D01*
X-6089462Y26729253D01*
X-6089462Y26660865D01*
X-6204943Y26480469D01*
X-6336452Y26320299D01*
X-6483990Y26180355D01*
X-6515421Y26154794D01*
X-6678854Y26034294D01*
X-6851637Y25923145D01*
X-7033769Y25821345D01*
X-7071318Y25802107D01*
X-7261675Y25710134D01*
X-7456611Y25623504D01*
X-7656127Y25542217D01*
X-7696580Y25526601D01*
X-7878411Y25455031D01*
X-8059005Y25379906D01*
X-8238364Y25301227D01*
X-8337473Y25255980D01*
X-8521204Y25337496D01*
X-8563153Y25376147D01*
X-8667241Y25545919D01*
X-8674528Y25565680D01*
X-8721179Y25758596D01*
X-8726307Y25797222D01*
X-8745725Y25992861D01*
X-8751709Y26061004D01*
X-8703837Y26171402D01*
X-8674528Y26282777D01*
X-8616385Y26471351D01*
X-8586600Y26566099D01*
X-8541851Y26756516D01*
X-8531890Y26845512D01*
X-8469364Y26921716D01*
X-8456949Y27122297D01*
X-8460979Y27331907D01*
X-8468387Y27431695D01*
X-8492613Y27629669D01*
X-8532191Y27834529D01*
X-8538582Y27859609D01*
X-7915421Y27859609D01*
X-7868823Y27658571D01*
X-7838240Y27483475D01*
X-7815306Y27285973D01*
X-7806977Y27111249D01*
X-7811032Y26911054D01*
X-7826517Y26731207D01*
X-7852386Y26527882D01*
X-7880250Y26352142D01*
X-7826517Y26370704D01*
X-7734681Y26411737D01*
X-7633076Y26453747D01*
X-7519748Y26478171D01*
X-7475784Y26525066D01*
X-7413258Y26578799D01*
X-7229933Y26653265D01*
X-7180739Y26674542D01*
X-7006009Y26766016D01*
X-6976552Y26784940D01*
X-6823408Y26910941D01*
X-6809490Y26925624D01*
X-6698607Y27089458D01*
X-6693230Y27101479D01*
X-6770411Y27199176D01*
X-6877877Y27295896D01*
X-6987298Y27394570D01*
X-7071318Y27507899D01*
X-7189531Y27548932D01*
X-7297975Y27610481D01*
X-7404465Y27666168D01*
X-7536356Y27697431D01*
X-7721210Y27775818D01*
X-7759106Y27787313D01*
X-7901744Y27856678D01*
X-7915421Y27859609D01*
X-8538582Y27859609D01*
X-8559245Y27940697D01*
X-8544591Y28022763D01*
X-8545568Y28045233D01*
X-8504535Y28134138D01*
X-8443963Y28134138D01*
X-8473272Y28259190D01*
X-8531892Y28450223D01*
X-8533844Y28457515D01*
X-8481088Y28625554D01*
X-8414653Y28793593D01*
X-8218630Y28727133D01*
G37*
G36*
X-2093649Y26351165D02*
G01*
X-2209099Y26180668D01*
X-2359907Y26032862D01*
X-2452197Y25969169D01*
X-2637410Y25869586D01*
X-2820112Y25791115D01*
X-2931890Y25751304D01*
X-3130093Y25689572D01*
X-3334891Y25633335D01*
X-3475086Y25598897D01*
X-3667467Y25549162D01*
X-3856384Y25489961D01*
X-4025121Y25427927D01*
X-4162874Y25422065D01*
X-4271318Y25408387D01*
X-4372923Y25391779D01*
X-4490159Y25378101D01*
X-4494067Y25377124D01*
X-4516538Y25347815D01*
X-4697277Y25329253D01*
X-4822330Y25329253D01*
X-4953244Y25309713D01*
X-5083181Y25296036D01*
X-5283765Y25323391D01*
X-5482126Y25392703D01*
X-5651584Y25502818D01*
X-5748499Y25598897D01*
X-5867390Y25774322D01*
X-5944784Y25959062D01*
X-5995556Y26170912D01*
X-6018143Y26378520D01*
X-6022051Y26387313D01*
X-6051360Y26413691D01*
X-6038659Y26524089D01*
X-6035728Y26622763D01*
X-5940092Y26813902D01*
X-5837586Y26995310D01*
X-5728211Y27166986D01*
X-5705512Y27200153D01*
X-5583562Y27359331D01*
X-5447301Y27505915D01*
X-5296729Y27639905D01*
X-5264898Y27665191D01*
X-5202372Y27727718D01*
X-5150592Y27793175D01*
X-5088066Y27856678D01*
X-5003069Y27894780D01*
X-4862008Y28032716D01*
X-4730494Y28133161D01*
X-4565630Y28242093D01*
X-4393439Y28346140D01*
X-4218073Y28448234D01*
X-4045637Y28549351D01*
X-3877598Y28659260D01*
X-3717375Y28787732D01*
X-3624563Y28768192D01*
X-3541520Y28760376D01*
X-3437961Y28645094D01*
X-3304116Y28577683D01*
X-3168317Y28487801D01*
X-3056748Y28318472D01*
X-3050104Y28302177D01*
X-3095044Y28297292D01*
X-3082344Y28265052D01*
X-3075505Y28196664D01*
X-3117515Y28162470D01*
X-3082344Y28182986D01*
X-3049127Y28124368D01*
X-3060850Y28071612D01*
X-3058896Y28012016D01*
X-3233686Y27908453D01*
X-3326587Y27860586D01*
X-3509030Y27770025D01*
X-3607954Y27719902D01*
X-3783446Y27628757D01*
X-3907884Y27561632D01*
X-4079858Y27459073D01*
X-4209769Y27368192D01*
X-4368166Y27245802D01*
X-4510676Y27125903D01*
X-4660641Y26988639D01*
X-4805721Y26844535D01*
X-4943230Y26695059D01*
X-5072434Y26541674D01*
X-5191857Y26381801D01*
X-5276621Y26247606D01*
X-5260013Y26227090D01*
X-5240473Y26198757D01*
X-5038716Y26195171D01*
X-4933704Y26201688D01*
X-4736615Y26201147D01*
X-4635728Y26185080D01*
X-4634751Y26204619D01*
X-4588834Y26247606D01*
X-4377426Y26275155D01*
X-4177101Y26310785D01*
X-4004605Y26350188D01*
X-3807226Y26398594D01*
X-3602701Y26444522D01*
X-3496580Y26466448D01*
X-3538589Y26465471D01*
X-3613816Y26492826D01*
X-3628471Y26581730D01*
X-3581576Y26602247D01*
X-3690997Y26699944D01*
X-3754481Y26890453D01*
X-3756454Y26907062D01*
X-3721283Y26957864D01*
X-3735938Y26991081D01*
X-3732030Y26995966D01*
X-3730076Y26988150D01*
X-3746684Y26956887D01*
X-3828750Y26968611D01*
X-3799441Y27079986D01*
X-3767201Y27165959D01*
X-3358827Y27437557D01*
X-3195672Y27330090D01*
X-3024912Y27232145D01*
X-3012979Y27225554D01*
X-2834630Y27130902D01*
X-2815630Y27121018D01*
X-2638001Y27026508D01*
X-2627075Y27020390D01*
X-2484437Y26928555D01*
X-2366224Y26814249D01*
X-2254849Y26702875D01*
X-2106349Y26603224D01*
X-2102441Y26473286D01*
X-2093649Y26351165D01*
G37*
G36*
X724913Y28486824D02*
G01*
X729798Y28404759D01*
X724913Y28367634D01*
X721982Y28336371D01*
X735660Y28273845D01*
X609235Y28109510D01*
X450384Y27995408D01*
X266938Y27927848D01*
X115283Y27892826D01*
X-85198Y27858136D01*
X-243265Y27830300D01*
X-438545Y27772883D01*
X-614514Y27683754D01*
X-743474Y27684731D01*
X-901744Y27669099D01*
X-983809Y27625136D01*
X-1052197Y27605596D01*
X-1044381Y27529392D01*
X-1041450Y27466866D01*
X-841662Y27461498D01*
X-636984Y27473705D01*
X-429790Y27490375D01*
X-230698Y27500495D01*
X-152406Y27503014D01*
X-147522Y27421926D01*
X-160222Y27422903D01*
X-89880Y27358422D01*
X-13677Y27279288D01*
X57641Y27220669D01*
X160223Y27206992D01*
X202233Y27079986D01*
X183671Y26950048D01*
X21356Y26836994D01*
X-976Y26821088D01*
X-169170Y26715617D01*
X-187577Y26705806D01*
X-369981Y26631861D01*
X-397626Y26623740D01*
X-595379Y26597743D01*
X-645777Y26598339D01*
X-691695Y26598339D01*
X-722958Y26608108D01*
X-838240Y26597362D01*
X-967201Y26577822D01*
X-1120585Y26606154D01*
X-1253453Y26619832D01*
X-1366749Y26450293D01*
X-1398045Y26395129D01*
X-1483516Y26218438D01*
X-1508443Y26154794D01*
X-1311805Y26137524D01*
X-1241730Y26138185D01*
X-1044691Y26153641D01*
X-1010187Y26157725D01*
X-813465Y26182622D01*
X-784507Y26186057D01*
X-589230Y26195624D01*
X-498254Y26193872D01*
X-311775Y26260184D01*
X-238380Y26272030D01*
X-45898Y26309457D01*
X47872Y26338464D01*
X146546Y26270076D01*
X211026Y26191919D01*
X266713Y26135254D01*
X345848Y26117669D01*
X392743Y26045373D01*
X407397Y25985778D01*
X418144Y25952561D01*
X496302Y25956468D01*
X399997Y25772248D01*
X274529Y25614528D01*
X107074Y25499715D01*
X21493Y25463098D01*
X-166267Y25408372D01*
X-289182Y25383963D01*
X-489355Y25349788D01*
X-660432Y25318506D01*
X-753244Y25320460D01*
X-822609Y25334138D01*
X-1019491Y25299295D01*
X-1125470Y25285289D01*
X-1326879Y25268974D01*
X-1486949Y25268681D01*
X-1689560Y25286232D01*
X-1841590Y25316552D01*
X-2022447Y25391364D01*
X-2121981Y25469937D01*
X-2185484Y25562749D01*
X-2261688Y25641884D01*
X-2286112Y25816762D01*
X-2319329Y26000432D01*
X-2343753Y26193872D01*
X-2333984Y26371681D01*
X-2267550Y26525066D01*
X-2237263Y26681381D01*
X-2192323Y26718506D01*
X-2144451Y26741953D01*
X-2079971Y26906085D01*
X-1999859Y27077055D01*
X-1917794Y27244117D01*
X-1845498Y27412156D01*
X-1951011Y27563586D01*
X-2005721Y27741395D01*
X-2033076Y27918227D01*
X-2074109Y28112644D01*
X-1939255Y28257321D01*
X-1923656Y28267983D01*
X-1743893Y28356887D01*
X-1550521Y28409838D01*
X-1536775Y28412575D01*
X-1343523Y28453971D01*
X-1306210Y28462400D01*
X-1110219Y28521963D01*
X-912490Y28571821D01*
X-718706Y28611457D01*
X-570550Y28636301D01*
X-376698Y28663641D01*
X-220794Y28683196D01*
X-22958Y28711772D01*
X176595Y28746794D01*
X207118Y28752561D01*
X269644Y28699804D01*
X320447Y28744745D01*
X318493Y28871751D01*
X427472Y28704168D01*
X526588Y28596245D01*
X703249Y28496252D01*
X724913Y28486824D01*
G37*
G36*
X1380461Y26035603D02*
G01*
X1398046Y25948653D01*
X1416609Y25858771D01*
X1375576Y25742512D01*
X1342359Y25640907D01*
X1320865Y25592058D01*
X1316958Y25584242D01*
X1318911Y25576427D01*
X1321842Y25520739D01*
X1297418Y25444535D01*
X1220237Y25373217D01*
X1144034Y25334138D01*
X1109840Y25314598D01*
X1088346Y25305806D01*
X1068807Y25228625D01*
X977948Y25214947D01*
X812840Y25191500D01*
X735660Y25191500D01*
X622331Y25292128D01*
X538311Y25353677D01*
X469923Y25479706D01*
X452338Y25550048D01*
X431821Y25631137D01*
X331193Y25732742D01*
X403489Y25786475D01*
X342917Y25891011D01*
X464061Y25977962D01*
X515841Y26021926D01*
X562736Y26081521D01*
X649686Y26207550D01*
X715143Y26302316D01*
X812840Y26249560D01*
X901745Y26222205D01*
X1029728Y26198757D01*
X1207537Y26156748D01*
X1355059Y26088360D01*
X1380461Y26035603D01*
G37*
G36*
X1916818Y28469239D02*
G01*
X1898255Y28541535D01*
X1868946Y28618715D01*
X1818144Y28765261D01*
X1795673Y28957725D01*
X1826937Y29049560D01*
X1859177Y29090593D01*
X1883601Y29205875D01*
X1993999Y29205875D01*
X2082903Y29200013D01*
X2172784Y29200013D01*
X2370235Y29203663D01*
X2572408Y29214611D01*
X2599721Y29216622D01*
X2807246Y29233266D01*
X3005197Y29250737D01*
X3048151Y29254724D01*
X3257761Y29278810D01*
X3456971Y29295892D01*
X3575715Y29303572D01*
X3604048Y29364145D01*
X3628472Y29411039D01*
X3702722Y29453049D01*
X3895807Y29422710D01*
X3903001Y29417878D01*
X3978228Y29354375D01*
X4179362Y29374891D01*
X4251780Y29383684D01*
X4451314Y29410592D01*
X4559526Y29425694D01*
X4767108Y29451339D01*
X4963563Y29475275D01*
X5006001Y29480404D01*
X5202270Y29499104D01*
X5407992Y29507519D01*
X5448570Y29507759D01*
X5626378Y29501898D01*
X5796371Y29483335D01*
X5874529Y29426671D01*
X5927285Y29354375D01*
X6001535Y29291849D01*
X6144271Y29150967D01*
X6170551Y29118925D01*
X6236165Y28923973D01*
X6232101Y28802386D01*
X6198884Y28737906D01*
X6140265Y28689057D01*
X6079693Y28609923D01*
X6003489Y28609923D01*
X5929239Y28602107D01*
X5867690Y28579637D01*
X5815911Y28559120D01*
X5749477Y28538604D01*
X5650803Y28543489D01*
X5574599Y28543489D01*
X5371681Y28535567D01*
X5220935Y28521018D01*
X5020238Y28496527D01*
X4847732Y28472170D01*
X4648211Y28448008D01*
X4594697Y28441884D01*
X4398547Y28419968D01*
X4393440Y28419413D01*
X4320430Y28232963D01*
X4300628Y28183963D01*
X4222962Y27997925D01*
X4207816Y27963168D01*
X4127908Y27777387D01*
X4114027Y27742372D01*
X4049245Y27550460D01*
X4031961Y27490314D01*
X3929838Y27317388D01*
X3921563Y27300781D01*
X3855685Y27115737D01*
X3850244Y27093663D01*
X3744190Y26924703D01*
X3732031Y26891430D01*
X3670482Y26708736D01*
X3647034Y26619832D01*
X3599163Y26557306D01*
X3569854Y26510411D01*
X3526867Y26376566D01*
X3506350Y26324787D01*
X3502443Y26286685D01*
X3468249Y26180195D01*
X3462387Y26119623D01*
X3450663Y26051235D01*
X3435031Y25987732D01*
X3436985Y25947676D01*
X3469225Y25903712D01*
X3497558Y25849979D01*
X3514166Y25843140D01*
X3546406Y25822623D01*
X3624564Y25785498D01*
X3691975Y25703433D01*
X3691991Y25497724D01*
X3626518Y25362470D01*
X3461104Y25251084D01*
X3270900Y25224717D01*
X3181996Y25230579D01*
X3128262Y25287243D01*
X3053036Y25320460D01*
X2984648Y25378101D01*
X2966085Y25382986D01*
X2936776Y25398618D01*
X2848849Y25438674D01*
X2771668Y25479706D01*
X2779484Y25564703D01*
X2712073Y25694640D01*
X2670063Y25848025D01*
X2640754Y25953538D01*
X2597767Y26043419D01*
X2599141Y26256574D01*
X2618070Y26468760D01*
X2660049Y26672192D01*
X2670063Y26705806D01*
X2735138Y26902039D01*
X2804335Y27093602D01*
X2852757Y27218715D01*
X2925213Y27401913D01*
X2956316Y27486406D01*
X3020208Y27680476D01*
X3046197Y27772658D01*
X3113608Y27839092D01*
X3162456Y27868401D01*
X3181996Y28004200D01*
X3243545Y28148792D01*
X3283601Y28233789D01*
X3304117Y28271891D01*
X3271877Y28266029D01*
X3212282Y28259190D01*
X3068667Y28241605D01*
X3001256Y28245512D01*
X2919191Y28222065D01*
X2838102Y28220111D01*
X2772645Y28220111D01*
X2706211Y28220111D01*
X2608514Y28203503D01*
X2502024Y28203503D01*
X2453175Y28203503D01*
X2387718Y28203503D01*
X2321284Y28203503D01*
X2216748Y28212295D01*
X2087788Y28259190D01*
X2043824Y28309993D01*
X2000837Y28363726D01*
X1916818Y28387173D01*
X1916818Y28469239D01*
G37*
G36*
X8321842Y28486824D02*
G01*
X8326727Y28404759D01*
X8321842Y28367634D01*
X8318911Y28336371D01*
X8332589Y28273845D01*
X8206165Y28109510D01*
X8047313Y27995408D01*
X7863868Y27927848D01*
X7712212Y27892826D01*
X7511731Y27858136D01*
X7353664Y27830300D01*
X7158384Y27772883D01*
X6982415Y27683754D01*
X6853454Y27684731D01*
X6695185Y27669099D01*
X6613119Y27625136D01*
X6544731Y27605596D01*
X6552547Y27529392D01*
X6555478Y27466866D01*
X6755267Y27461498D01*
X6959944Y27473705D01*
X7167139Y27490375D01*
X7366231Y27500495D01*
X7444522Y27503014D01*
X7449407Y27421926D01*
X7436706Y27422903D01*
X7507048Y27358422D01*
X7583252Y27279288D01*
X7654571Y27220669D01*
X7757153Y27206992D01*
X7799163Y27079986D01*
X7780600Y26950048D01*
X7618286Y26836994D01*
X7595953Y26821088D01*
X7427758Y26715617D01*
X7409351Y26705806D01*
X7226947Y26631861D01*
X7199302Y26623740D01*
X7001549Y26597743D01*
X6951152Y26598339D01*
X6905234Y26598339D01*
X6873971Y26608108D01*
X6758688Y26597362D01*
X6629728Y26577822D01*
X6476343Y26606154D01*
X6343475Y26619832D01*
X6230179Y26450293D01*
X6198884Y26395129D01*
X6113413Y26218438D01*
X6088486Y26154794D01*
X6285123Y26137524D01*
X6355199Y26138185D01*
X6552237Y26153641D01*
X6586741Y26157725D01*
X6783464Y26182622D01*
X6812422Y26186057D01*
X7007698Y26195624D01*
X7098674Y26193872D01*
X7285154Y26260184D01*
X7358549Y26272030D01*
X7551030Y26309457D01*
X7644801Y26338464D01*
X7743475Y26270076D01*
X7807955Y26191919D01*
X7863643Y26135254D01*
X7942777Y26117669D01*
X7989672Y26045373D01*
X8004327Y25985778D01*
X8015073Y25952561D01*
X8093231Y25956468D01*
X7996927Y25772248D01*
X7871459Y25614528D01*
X7704003Y25499715D01*
X7618423Y25463098D01*
X7430661Y25408372D01*
X7307746Y25383963D01*
X7107574Y25349788D01*
X6936497Y25318506D01*
X6843685Y25320460D01*
X6774320Y25334138D01*
X6577437Y25299295D01*
X6471459Y25285289D01*
X6270050Y25268974D01*
X6109979Y25268681D01*
X5907368Y25286232D01*
X5755339Y25316552D01*
X5574481Y25391364D01*
X5474948Y25469937D01*
X5411445Y25562749D01*
X5335241Y25641884D01*
X5310817Y25816762D01*
X5277600Y26000432D01*
X5253175Y26193872D01*
X5262945Y26371681D01*
X5329379Y26525066D01*
X5359665Y26681381D01*
X5404606Y26718506D01*
X5452477Y26741953D01*
X5516958Y26906085D01*
X5597069Y27077055D01*
X5679135Y27244117D01*
X5751431Y27412156D01*
X5645918Y27563586D01*
X5591207Y27741395D01*
X5563852Y27918227D01*
X5522819Y28112644D01*
X5657674Y28257321D01*
X5673273Y28267983D01*
X5853036Y28356887D01*
X6046407Y28409838D01*
X6060154Y28412575D01*
X6253405Y28453971D01*
X6290719Y28462400D01*
X6486709Y28521963D01*
X6684438Y28571821D01*
X6878222Y28611457D01*
X7026378Y28636301D01*
X7220231Y28663641D01*
X7376134Y28683196D01*
X7573971Y28711772D01*
X7773525Y28746794D01*
X7804048Y28752561D01*
X7866574Y28699804D01*
X7917376Y28744745D01*
X7915422Y28871751D01*
X8024401Y28704168D01*
X8123517Y28596245D01*
X8300178Y28496252D01*
X8321842Y28486824D01*
G37*
G36*
X10025680Y28722274D02*
G01*
X10096022Y28694919D01*
X10198604Y28665610D01*
X10389114Y28614808D01*
X10547383Y28521018D01*
X10589393Y28378381D01*
X10605025Y28290453D01*
X10636288Y28100921D01*
X10655453Y27899891D01*
X10655827Y27892826D01*
X10700768Y27711109D01*
X10736916Y27525484D01*
X10777948Y27334059D01*
X10791626Y27272449D01*
X10848595Y27079187D01*
X10855129Y27062400D01*
X10890300Y27055561D01*
X10939149Y27072170D01*
X11010468Y27083893D01*
X11095464Y27091709D01*
X11127704Y27012575D01*
X11160921Y26978381D01*
X11272296Y26945163D01*
X11339707Y26888499D01*
X11373901Y26861144D01*
X11487230Y26817180D01*
X11426657Y26702875D01*
X11307374Y26546430D01*
X11263503Y26504549D01*
X11103952Y26387496D01*
X11049546Y26358981D01*
X11054431Y26318925D01*
X11067132Y26258353D01*
X11095464Y26060027D01*
X11095865Y25860187D01*
X11094487Y25846071D01*
X11082764Y25820669D01*
X10995111Y25644894D01*
X10983112Y25626252D01*
X10855961Y25474088D01*
X10828751Y25449420D01*
X10665072Y25337261D01*
X10631403Y25320460D01*
X10442630Y25266631D01*
X10395953Y25262819D01*
X10287509Y25301898D01*
X10232798Y25339023D01*
X10204466Y25358562D01*
X10182973Y25370286D01*
X10092115Y25408387D01*
X10121424Y25505108D01*
X10117516Y25552979D01*
X10058897Y25612575D01*
X10023727Y25646769D01*
X9994417Y25682916D01*
X9869365Y25822623D01*
X10066713Y25874403D01*
X10233775Y25961353D01*
X10265038Y26119623D01*
X10114585Y26120600D01*
X9968039Y26082498D01*
X9776786Y26038076D01*
X9763852Y26035603D01*
X9566916Y26016369D01*
X9536218Y26016064D01*
X9451221Y26018995D01*
X9366225Y26026810D01*
X9289044Y26042442D01*
X9269505Y26116692D01*
X9249965Y26135254D01*
X9185485Y26218297D01*
X9167900Y26344326D01*
X9159107Y26398060D01*
X9149337Y26301339D01*
X9119051Y26229043D01*
X9051640Y26214389D01*
X9051640Y26208527D01*
X9050663Y26185080D01*
X9020377Y26081521D01*
X8991068Y26053189D01*
X8976413Y26041465D01*
X8950035Y25949630D01*
X8916818Y25854863D01*
X8870900Y25719064D01*
X8860154Y25587173D01*
X8832798Y25514877D01*
X8762456Y25452351D01*
X8696999Y25417180D01*
X8663782Y25395687D01*
X8644243Y25388848D01*
X8626657Y25321437D01*
X8540684Y25306782D01*
X8455687Y25291151D01*
X8392184Y25285289D01*
X8325750Y25291151D01*
X8225122Y25377124D01*
X8146964Y25435743D01*
X8083461Y25549071D01*
X8071738Y25610621D01*
X8059037Y25662400D01*
X8053175Y25683893D01*
X7955478Y25774752D01*
X8033636Y25837278D01*
X8037544Y25922274D01*
X8116612Y26115841D01*
X8197988Y26302942D01*
X8273971Y26467424D01*
X8360196Y26646571D01*
X8432098Y26794710D01*
X9375018Y26794710D01*
X9404327Y26809364D01*
X9460991Y26815226D01*
X9664672Y26830594D01*
X9759944Y26839651D01*
X9959613Y26867311D01*
X10025680Y26879706D01*
X9980039Y27074312D01*
X9951431Y27191360D01*
X9902200Y27388815D01*
X9879560Y27477954D01*
X9745931Y27324183D01*
X9669086Y27221646D01*
X9559923Y27058935D01*
X9497139Y26953956D01*
X9430705Y26854305D01*
X9375018Y26794710D01*
X8432098Y26794710D01*
X8448269Y26828026D01*
X8529937Y26994989D01*
X8614934Y27170844D01*
X8695045Y27335952D01*
X8692115Y27372100D01*
X8705792Y27435603D01*
X8805443Y27603642D01*
X8881647Y27753119D01*
X8970494Y27930251D01*
X8973482Y27935812D01*
X9080445Y28102829D01*
X9099512Y28128276D01*
X9195255Y28170286D01*
X9237265Y28184940D01*
X9296860Y28194710D01*
X9372087Y28183963D01*
X9544533Y28295100D01*
X9625122Y28374473D01*
X9753991Y28533738D01*
X9857641Y28680265D01*
X9928960Y28781870D01*
X10025680Y28722274D01*
G37*
G36*
X15214376Y25441605D02*
G01*
X15108863Y25390802D01*
X14980879Y25367355D01*
X14845906Y25514828D01*
X14769885Y25696178D01*
X14739480Y25897896D01*
X14737613Y25947676D01*
X14745490Y26164258D01*
X14771717Y26376508D01*
X14808559Y26575329D01*
X14858660Y26789744D01*
X14910537Y26980334D01*
X14933008Y27013551D01*
X14900768Y27048722D01*
X14887090Y27045792D01*
X14869505Y27016482D01*
X14702819Y26898844D01*
X14546127Y26792756D01*
X14371249Y26683335D01*
X14200203Y26587851D01*
X14188556Y26581730D01*
X14000977Y26493803D01*
X13809491Y26423461D01*
X13618493Y26377299D01*
X13430426Y26361912D01*
X13231727Y26385053D01*
X13033035Y26468172D01*
X12864630Y26611741D01*
X12742119Y26786951D01*
X12711375Y26845512D01*
X12692812Y26880683D01*
X12677181Y26854305D01*
X12628332Y26766378D01*
X12563852Y26612993D01*
X12507188Y26439092D01*
X12490579Y26276915D01*
X12379205Y26154794D01*
X12301047Y26016064D01*
X12315701Y25947676D01*
X12254152Y25843140D01*
X12210188Y25793314D01*
X12173064Y25747397D01*
X12161340Y25699525D01*
X12154501Y25648722D01*
X12140824Y25568611D01*
X12048747Y25395665D01*
X11983531Y25305806D01*
X11815492Y25241325D01*
X11656246Y25259888D01*
X11541733Y25428282D01*
X11514585Y25486545D01*
X11448568Y25677063D01*
X11423727Y25782568D01*
X11398844Y25980710D01*
X11396371Y26101060D01*
X11425337Y26300965D01*
X11454990Y26376566D01*
X11493091Y26489895D01*
X11570311Y26674156D01*
X11607397Y26762470D01*
X11686336Y26948586D01*
X11764690Y27128834D01*
X11847122Y27314234D01*
X11929553Y27494912D01*
X11940544Y27518646D01*
X12026518Y27701584D01*
X12108583Y27869378D01*
X12203211Y28047715D01*
X12244382Y28114598D01*
X12324494Y28237697D01*
X12391905Y28349071D01*
X12497655Y28516324D01*
X12587299Y28638255D01*
X12743844Y28767246D01*
X12875506Y28827787D01*
X13048813Y28726465D01*
X13080670Y28692965D01*
X13092394Y28627508D01*
X13132449Y28595268D01*
X13237962Y28564005D01*
X13337613Y28537627D01*
X13418702Y28421367D01*
X13504676Y28291430D01*
X13573064Y28159539D01*
X13602373Y28020809D01*
X13577948Y27879148D01*
X13581856Y27837138D01*
X13593580Y27685708D01*
X13588695Y27610481D01*
X13596511Y27537208D01*
X13744034Y27474682D01*
X13893510Y27512784D01*
X14027355Y27594849D01*
X14120168Y27655422D01*
X14208095Y27686685D01*
X14354721Y27823238D01*
X14380042Y27845931D01*
X14532466Y27975999D01*
X14549058Y27989546D01*
X14699224Y28116571D01*
X14843810Y28252183D01*
X14862666Y28270914D01*
X14992181Y28431126D01*
X15090596Y28613584D01*
X15108863Y28656817D01*
X15249546Y28699804D01*
X15385346Y28670495D01*
X15518214Y28613831D01*
X15545569Y28597222D01*
X15588556Y28579637D01*
X15620796Y28489755D01*
X15648151Y28467285D01*
X15659874Y28459469D01*
X15779065Y28355910D01*
X15890580Y28189810D01*
X15922680Y28166378D01*
X15920726Y28055980D01*
X15954920Y27966099D01*
X15965667Y27931905D01*
X16006699Y27845931D01*
X15885555Y27858632D01*
X15896302Y27794152D01*
X15881647Y27611458D01*
X15824983Y27462958D01*
X15832398Y27262890D01*
X15832798Y27247048D01*
X15824006Y27094640D01*
X15792743Y26960795D01*
X15742917Y26832812D01*
X15744234Y26619328D01*
X15721317Y26417294D01*
X15674166Y26226708D01*
X15661828Y26189965D01*
X15590380Y25993869D01*
X15517084Y25807240D01*
X15448849Y25645792D01*
X15423447Y25589127D01*
X15394138Y25521716D01*
X15295464Y25482637D01*
X15214376Y25441605D01*
G37*
D12*
%TO.N,GND*%
X40000000Y86300000D02*
X31000000Y86300000D01*
D13*
X-20000000Y86300000D02*
X-40000000Y86300000D01*
X40000000Y85300000D02*
X31000000Y85300000D01*
X40000000Y84300000D02*
X31000000Y84300000D01*
X-20000000Y85300000D02*
X-40000000Y85300000D01*
X-20000000Y84300000D02*
X-40000000Y84300000D01*
D10*
D11*
G36*
X-18297419Y86596545D02*
G01*
X-18161021Y86576287D01*
X-18038454Y86514272D01*
X-17955518Y86410960D01*
X-17916176Y86289567D01*
X-17905907Y86165268D01*
X-17905907Y84566088D01*
X-17920691Y84419510D01*
X-17964929Y84303304D01*
X-18053543Y84206086D01*
X-18181750Y84150138D01*
X-18322951Y84135000D01*
X-19600341Y84135000D01*
X-19600341Y86278230D01*
X-19239473Y86278230D01*
X-19239473Y84449462D01*
X-18406605Y84449462D01*
X-18305674Y84482442D01*
X-18266775Y84601503D01*
X-18266775Y86122526D01*
X-18306160Y86238846D01*
X-18424312Y86278230D01*
X-19239473Y86278230D01*
X-19600341Y86278230D01*
X-19600341Y86596967D01*
X-18322951Y86596967D01*
X-18297419Y86596545D01*
G37*
G36*
X-16117831Y86596545D02*
G01*
X-15979923Y86576319D01*
X-15856434Y86514527D01*
X-15773190Y86411823D01*
X-15733841Y86291401D01*
X-15723597Y86168321D01*
X-15723597Y84562424D01*
X-15738348Y84417545D01*
X-15782619Y84302410D01*
X-15871610Y84205840D01*
X-16000851Y84150113D01*
X-16143695Y84135000D01*
X-16997323Y84135000D01*
X-17138806Y84150689D01*
X-17267833Y84207815D01*
X-17357432Y84305361D01*
X-17402355Y84420039D01*
X-17417421Y84562424D01*
X-17417421Y84605167D01*
X-17057163Y84605167D01*
X-17016405Y84494113D01*
X-16899626Y84449462D01*
X-16241392Y84449462D01*
X-16123239Y84488846D01*
X-16083855Y84605167D01*
X-16083855Y86126189D01*
X-16123239Y86242510D01*
X-16241392Y86281894D01*
X-16899626Y86281894D01*
X-17011248Y86242336D01*
X-17057163Y86126189D01*
X-17057163Y84605167D01*
X-17417421Y84605167D01*
X-17417421Y86168321D01*
X-17402355Y86311046D01*
X-17347071Y86442442D01*
X-17251800Y86534596D01*
X-17138806Y86581218D01*
X-16997323Y86596967D01*
X-16143695Y86596967D01*
X-16117831Y86596545D01*
G37*
G36*
X-14369270Y84135000D02*
G01*
X-14369270Y86284947D01*
X-13756831Y86284947D01*
X-13756831Y86596967D01*
X-15338914Y86596967D01*
X-15338914Y86284947D01*
X-14730139Y86284947D01*
X-14730139Y84135000D01*
X-14369270Y84135000D01*
G37*
G36*
X-12278551Y84135000D02*
G01*
X-12278551Y85740896D01*
X-11879825Y84804225D01*
X-11578796Y84804225D01*
X-11190450Y85772648D01*
X-11190450Y84135000D01*
X-10826528Y84135000D01*
X-10826528Y86596967D01*
X-11190450Y86596967D01*
X-11729005Y85328736D01*
X-12296259Y86596967D01*
X-12639420Y86596967D01*
X-12639420Y84135000D01*
X-12278551Y84135000D01*
G37*
G36*
X-8594759Y84135000D02*
G01*
X-8990432Y84135000D01*
X-9193154Y84799340D01*
X-9882529Y84799340D01*
X-10085861Y84135000D01*
X-10477871Y84135000D01*
X-10175189Y85124794D01*
X-9798876Y85124794D01*
X-9280471Y85124794D01*
X-9539979Y86006510D01*
X-9798876Y85124794D01*
X-10175189Y85124794D01*
X-9724993Y86596967D01*
X-9361071Y86596967D01*
X-8594759Y84135000D01*
G37*
G36*
X-7659919Y84135000D02*
G01*
X-7659919Y86284947D01*
X-7047480Y86284947D01*
X-7047480Y86596967D01*
X-8629563Y86596967D01*
X-8629563Y86284947D01*
X-8020788Y86284947D01*
X-8020788Y84135000D01*
X-7659919Y84135000D01*
G37*
G36*
X-5398039Y86586693D02*
G01*
X-5263044Y86537880D01*
X-5168306Y86449075D01*
X-5113785Y86320469D01*
X-5099033Y86178702D01*
X-5099033Y85536953D01*
X-5101995Y85488845D01*
X-5138875Y85365144D01*
X-5218101Y85268897D01*
X-5256570Y85247526D01*
X-5221154Y85226765D01*
X-5212468Y85219726D01*
X-5145306Y85114882D01*
X-5109413Y84995345D01*
X-4994009Y84135000D01*
X-5368311Y84135000D01*
X-5480662Y84918408D01*
X-5535235Y85033890D01*
X-5655296Y85072892D01*
X-6267735Y85072892D01*
X-6267735Y84135000D01*
X-6628604Y84135000D01*
X-6628604Y86270903D01*
X-6267735Y86270903D01*
X-6267735Y85398346D01*
X-5630872Y85398346D01*
X-5515467Y85448568D01*
X-5473335Y85565652D01*
X-5473335Y86107260D01*
X-5512719Y86230527D01*
X-5630872Y86270903D01*
X-6267735Y86270903D01*
X-6628604Y86270903D01*
X-6628604Y86596967D01*
X-5519131Y86596967D01*
X-5398039Y86586693D01*
G37*
G36*
X-3744706Y84135000D02*
G01*
X-3744706Y84446409D01*
X-4049399Y84446409D01*
X-4049399Y86284947D01*
X-3744706Y86284947D01*
X-3744706Y86596967D01*
X-4714351Y86596967D01*
X-4714351Y86284947D01*
X-4409658Y86284947D01*
X-4409658Y84446409D01*
X-4714351Y84446409D01*
X-4714351Y84135000D01*
X-3744706Y84135000D01*
G37*
G36*
X-3060216Y84135000D02*
G01*
X-2678586Y84934284D01*
X-2304284Y84135000D01*
X-1887850Y84135000D01*
X-2468538Y85370868D01*
X-1894567Y86596967D01*
X-2290240Y86596967D01*
X-2668206Y85797072D01*
X-3039455Y86596967D01*
X-3459553Y86596967D01*
X-2878255Y85356824D01*
X-3455889Y84135000D01*
X-3060216Y84135000D01*
G37*
G36*
X1288527Y84135000D02*
G01*
X1872878Y86596967D01*
X1501629Y86596967D01*
X1105956Y84821322D01*
X658381Y86596967D01*
X283468Y86596967D01*
X-118921Y84821322D01*
X-559780Y86596967D01*
X-934692Y86596967D01*
X-325307Y84135000D01*
X63039Y84135000D01*
X462376Y85870956D01*
X899570Y84135000D01*
X1288527Y84135000D01*
G37*
G36*
X3086765Y84135000D02*
G01*
X3086765Y84446409D01*
X2782072Y84446409D01*
X2782072Y86284947D01*
X3086765Y86284947D01*
X3086765Y86596967D01*
X2117121Y86596967D01*
X2117121Y86284947D01*
X2421814Y86284947D01*
X2421814Y84446409D01*
X2117121Y84446409D01*
X2117121Y84135000D01*
X3086765Y84135000D01*
G37*
G36*
X4334846Y84135000D02*
G01*
X4334846Y86284947D01*
X4947285Y86284947D01*
X4947285Y86596967D01*
X3365202Y86596967D01*
X3365202Y86284947D01*
X3973977Y86284947D01*
X3973977Y84135000D01*
X4334846Y84135000D01*
G37*
G36*
X5727030Y84135000D02*
G01*
X5727030Y85215774D01*
X6664923Y85215774D01*
X6664923Y84135000D01*
X7028845Y84135000D01*
X7028845Y86596967D01*
X6664923Y86596967D01*
X6664923Y85541838D01*
X5727030Y85541838D01*
X5727030Y86596967D01*
X5366161Y86596967D01*
X5366161Y84135000D01*
X5727030Y84135000D01*
G37*
G36*
X9341214Y84135000D02*
G01*
X9471776Y84164061D01*
X9561819Y84248713D01*
X9600453Y84369287D01*
X9603164Y84418321D01*
X9603164Y85194403D01*
X9582443Y85314861D01*
X9510816Y85416244D01*
X9402608Y85477205D01*
X9341214Y85494822D01*
X8703740Y85643199D01*
X8604564Y85717438D01*
X8588335Y85787913D01*
X8588335Y86140844D01*
X8649069Y86249122D01*
X8717784Y86260523D01*
X9540272Y86260523D01*
X9519511Y86596967D01*
X8486974Y86596967D01*
X8356271Y86567764D01*
X8265951Y86482836D01*
X8227139Y86362084D01*
X8224413Y86313035D01*
X8224413Y85582749D01*
X8245148Y85462304D01*
X8316889Y85361036D01*
X8425378Y85300356D01*
X8486974Y85282941D01*
X9127501Y85138227D01*
X9223207Y85061770D01*
X9239242Y84986186D01*
X9239242Y84590512D01*
X9178779Y84482234D01*
X9109794Y84470833D01*
X8234794Y84470833D01*
X8256165Y84135000D01*
X9341214Y84135000D01*
G37*
G36*
X10929403Y84135000D02*
G01*
X10929403Y86284947D01*
X11541842Y86284947D01*
X11541842Y86596967D01*
X9959759Y86596967D01*
X9959759Y86284947D01*
X10568534Y86284947D01*
X10568534Y84135000D01*
X10929403Y84135000D01*
G37*
G36*
X13221011Y84135000D02*
G01*
X13221011Y84463506D01*
X12321587Y84463506D01*
X12321587Y85212721D01*
X13063475Y85212721D01*
X13063475Y85541838D01*
X12321587Y85541838D01*
X12321587Y86274567D01*
X13213684Y86274567D01*
X13213684Y86596967D01*
X11960718Y86596967D01*
X11960718Y84135000D01*
X13221011Y84135000D01*
G37*
G36*
X14940062Y86586693D02*
G01*
X15075057Y86537880D01*
X15169795Y86449075D01*
X15224316Y86320469D01*
X15239068Y86178702D01*
X15239068Y85536953D01*
X15236105Y85488845D01*
X15199226Y85365144D01*
X15119999Y85268897D01*
X15081531Y85247526D01*
X15116946Y85226765D01*
X15125632Y85219726D01*
X15192795Y85114882D01*
X15228688Y84995345D01*
X15344092Y84135000D01*
X14969790Y84135000D01*
X14857438Y84918408D01*
X14802865Y85033890D01*
X14682805Y85072892D01*
X14070366Y85072892D01*
X14070366Y84135000D01*
X13709497Y84135000D01*
X13709497Y86270903D01*
X14070366Y86270903D01*
X14070366Y85398346D01*
X14707229Y85398346D01*
X14822634Y85448568D01*
X14864766Y85565652D01*
X14864766Y86107260D01*
X14825382Y86230527D01*
X14707229Y86270903D01*
X14070366Y86270903D01*
X13709497Y86270903D01*
X13709497Y86596967D01*
X14818970Y86596967D01*
X14940062Y86586693D01*
G37*
G36*
X17023872Y84135000D02*
G01*
X17023872Y84463506D01*
X16124448Y84463506D01*
X16124448Y85212721D01*
X16866336Y85212721D01*
X16866336Y85541838D01*
X16124448Y85541838D01*
X16124448Y86274567D01*
X17016545Y86274567D01*
X17016545Y86596967D01*
X15763579Y86596967D01*
X15763579Y84135000D01*
X17023872Y84135000D01*
G37*
G36*
X18777144Y86596545D02*
G01*
X18915052Y86576319D01*
X19038541Y86514527D01*
X19121785Y86411823D01*
X19161134Y86291401D01*
X19171378Y86168321D01*
X19171378Y84562424D01*
X19156626Y84417545D01*
X19112355Y84302410D01*
X19023364Y84205840D01*
X18894123Y84150113D01*
X18751280Y84135000D01*
X17897651Y84135000D01*
X17756169Y84150689D01*
X17627141Y84207815D01*
X17537542Y84305361D01*
X17492619Y84420039D01*
X17477554Y84562424D01*
X17477554Y84605167D01*
X17837812Y84605167D01*
X17878570Y84494113D01*
X17995348Y84449462D01*
X18653583Y84449462D01*
X18771735Y84488846D01*
X18811120Y84605167D01*
X18811120Y86126189D01*
X18771735Y86242510D01*
X18653583Y86281894D01*
X17995348Y86281894D01*
X17883727Y86242336D01*
X17837812Y86126189D01*
X17837812Y84605167D01*
X17477554Y84605167D01*
X17477554Y86168321D01*
X17492619Y86311046D01*
X17547903Y86442442D01*
X17643175Y86534596D01*
X17756169Y86581218D01*
X17897651Y86596967D01*
X18751280Y86596967D01*
X18777144Y86596545D01*
G37*
G36*
X21448332Y84135000D02*
G01*
X21578894Y84164061D01*
X21668937Y84248713D01*
X21707571Y84369287D01*
X21710282Y84418321D01*
X21710282Y85194403D01*
X21689561Y85314861D01*
X21617934Y85416244D01*
X21509726Y85477205D01*
X21448332Y85494822D01*
X20810858Y85643199D01*
X20711682Y85717438D01*
X20695453Y85787913D01*
X20695453Y86140844D01*
X20756187Y86249122D01*
X20824902Y86260523D01*
X21647390Y86260523D01*
X21626629Y86596967D01*
X20594092Y86596967D01*
X20463389Y86567764D01*
X20373069Y86482836D01*
X20334257Y86362084D01*
X20331531Y86313035D01*
X20331531Y85582749D01*
X20352266Y85462304D01*
X20424007Y85361036D01*
X20532496Y85300356D01*
X20594092Y85282941D01*
X21234619Y85138227D01*
X21330325Y85061770D01*
X21346360Y84986186D01*
X21346360Y84590512D01*
X21285897Y84482234D01*
X21216912Y84470833D01*
X20341912Y84470833D01*
X20363283Y84135000D01*
X21448332Y84135000D01*
G37*
G36*
X23471491Y86596545D02*
G01*
X23609399Y86576319D01*
X23732888Y86514527D01*
X23816132Y86411823D01*
X23855482Y86291401D01*
X23865725Y86168321D01*
X23865725Y84562424D01*
X23850974Y84417545D01*
X23806703Y84302410D01*
X23717712Y84205840D01*
X23588471Y84150113D01*
X23445628Y84135000D01*
X22591999Y84135000D01*
X22450516Y84150689D01*
X22321489Y84207815D01*
X22231890Y84305361D01*
X22186967Y84420039D01*
X22171901Y84562424D01*
X22171901Y84605167D01*
X22532159Y84605167D01*
X22572917Y84494113D01*
X22689696Y84449462D01*
X23347930Y84449462D01*
X23466083Y84488846D01*
X23505467Y84605167D01*
X23505467Y86126189D01*
X23466083Y86242510D01*
X23347930Y86281894D01*
X22689696Y86281894D01*
X22578074Y86242336D01*
X22532159Y86126189D01*
X22532159Y84605167D01*
X22171901Y84605167D01*
X22171901Y86168321D01*
X22186967Y86311046D01*
X22242251Y86442442D01*
X22337522Y86534596D01*
X22450516Y86581218D01*
X22591999Y86596967D01*
X23445628Y86596967D01*
X23471491Y86596545D01*
G37*
G36*
X24390237Y84566088D02*
G01*
X24401430Y84428579D01*
X24447303Y84297382D01*
X24536001Y84202008D01*
X24652073Y84152231D01*
X24780818Y84135489D01*
X24810334Y84135000D01*
X25629159Y84135000D01*
X25751714Y84145512D01*
X25871054Y84185891D01*
X25972270Y84271314D01*
X26032802Y84398034D01*
X26052510Y84539548D01*
X26052920Y84566088D01*
X26052920Y86596967D01*
X25685334Y86596967D01*
X25685334Y84618600D01*
X25650911Y84499914D01*
X25545505Y84460453D01*
X24890935Y84460453D01*
X24777410Y84510407D01*
X24751106Y84618600D01*
X24751106Y86596967D01*
X24390237Y86596967D01*
X24390237Y84566088D01*
G37*
G36*
X26973715Y84135000D02*
G01*
X26973715Y85814780D01*
X27956793Y84135000D01*
X28275530Y84135000D01*
X28275530Y86596967D01*
X27911608Y86596967D01*
X27911608Y85018548D01*
X26966388Y86596967D01*
X26612847Y86596967D01*
X26612847Y84135000D01*
X26973715Y84135000D01*
G37*
G36*
X30138379Y86596545D02*
G01*
X30274777Y86576287D01*
X30397344Y86514272D01*
X30480280Y86410960D01*
X30519622Y86289567D01*
X30529891Y86165268D01*
X30529891Y84566088D01*
X30515108Y84419510D01*
X30470869Y84303304D01*
X30382255Y84206086D01*
X30254048Y84150138D01*
X30112847Y84135000D01*
X28835457Y84135000D01*
X28835457Y86278230D01*
X29196325Y86278230D01*
X29196325Y84449462D01*
X30029193Y84449462D01*
X30130125Y84482442D01*
X30169023Y84601503D01*
X30169023Y86122526D01*
X30129638Y86238846D01*
X30011486Y86278230D01*
X29196325Y86278230D01*
X28835457Y86278230D01*
X28835457Y86596967D01*
X30112847Y86596967D01*
X30138379Y86596545D01*
G37*
D14*
%TD*%
%TO.C,N1*%
X52130197Y91165333D02*
X52286233Y91046023D01*
X52538616Y90820849D01*
X52871404Y90506305D01*
X53268654Y90118885D01*
X53714425Y89675081D01*
X54192775Y89191386D01*
X54687761Y88684293D01*
X55183442Y88170296D01*
X55663876Y87665886D01*
X56113120Y87187558D01*
X56515233Y86751804D01*
X56854273Y86375118D01*
X57114297Y86073992D01*
X57279364Y85864919D01*
X57326913Y85789000D01*
X57341380Y85754396D01*
X57354937Y85710990D01*
X57367615Y85653394D01*
X57379443Y85576220D01*
X57390450Y85474080D01*
X57400667Y85341587D01*
X57410124Y85173352D01*
X57418850Y84963988D01*
X57426874Y84708107D01*
X57434228Y84400321D01*
X57440940Y84035243D01*
X57447040Y83607484D01*
X57452559Y83111656D01*
X57457525Y82542373D01*
X57461969Y81894245D01*
X57465921Y81161886D01*
X57469410Y80339906D01*
X57472466Y79422920D01*
X57475119Y78405538D01*
X57477399Y77282373D01*
X57479336Y76048036D01*
X57480958Y74697141D01*
X57482297Y73224299D01*
X57483381Y71624123D01*
X57484242Y69891225D01*
X57484908Y68020216D01*
X57485409Y66005709D01*
X57485775Y63842317D01*
X57486036Y61524650D01*
X57486221Y59047323D01*
X57486335Y56960000D01*
X57486249Y53990604D01*
X57485693Y51189346D01*
X57484662Y48555033D01*
X57483153Y46086469D01*
X57481162Y43782459D01*
X57478686Y41641811D01*
X57475721Y39663329D01*
X57472264Y37845820D01*
X57468310Y36188087D01*
X57463857Y34688939D01*
X57458901Y33347179D01*
X57453437Y32161613D01*
X57447464Y31131048D01*
X57440976Y30254288D01*
X57433971Y29530140D01*
X57426445Y28957409D01*
X57418394Y28534901D01*
X57409814Y28261420D01*
X57400703Y28135774D01*
X57399687Y28131000D01*
X57358027Y28018366D01*
X57280269Y27884666D01*
X57154059Y27716193D01*
X56967044Y27499238D01*
X56706870Y27220092D01*
X56361184Y26865048D01*
X55917632Y26420396D01*
X55368272Y25876777D01*
X54759979Y25271223D01*
X54248388Y24749399D01*
X53839573Y24317814D01*
X53539605Y23982979D01*
X53354556Y23751404D01*
X53297779Y23656996D01*
X53278159Y23593642D01*
X53260632Y23496664D01*
X53245089Y23357032D01*
X53231416Y23165713D01*
X53219504Y22913679D01*
X53209242Y22591897D01*
X53200517Y22191337D01*
X53193220Y21702967D01*
X53187238Y21117758D01*
X53182461Y20426679D01*
X53178778Y19620697D01*
X53176077Y18690783D01*
X53174248Y17627906D01*
X53173179Y16423035D01*
X53172759Y15067139D01*
X53172877Y13551187D01*
X53172887Y13507553D01*
X53173354Y12002406D01*
X53174130Y10657290D01*
X53175350Y9462904D01*
X53177150Y8409947D01*
X53179665Y7489117D01*
X53183032Y6691112D01*
X53187385Y6006630D01*
X53192861Y5426371D01*
X53199594Y4941031D01*
X53207722Y4541311D01*
X53217378Y4217907D01*
X53228699Y3961520D01*
X53241821Y3762846D01*
X53256879Y3612584D01*
X53274008Y3501433D01*
X53293345Y3420091D01*
X53315025Y3359257D01*
X53321053Y3345670D01*
X53416708Y3205022D01*
X53616952Y2960790D01*
X53906966Y2629449D01*
X54271931Y2227480D01*
X54697026Y1771359D01*
X55167432Y1277566D01*
X55362602Y1075623D01*
X55982282Y431419D01*
X56482779Y-101513D01*
X56868273Y-527894D01*
X57142949Y-852445D01*
X57310988Y-1079889D01*
X57369719Y-1190047D01*
X57384349Y-1257795D01*
X57397717Y-1380035D01*
X57409877Y-1563610D01*
X57420881Y-1815364D01*
X57430782Y-2142140D01*
X57439633Y-2550781D01*
X57447487Y-3048131D01*
X57454396Y-3641033D01*
X57460413Y-4336331D01*
X57465591Y-5140868D01*
X57469982Y-6061487D01*
X57473640Y-7105033D01*
X57476618Y-8278347D01*
X57478967Y-9588274D01*
X57480740Y-11041657D01*
X57481992Y-12645339D01*
X57482773Y-14406164D01*
X57483091Y-15895667D01*
X57483278Y-17726391D01*
X57483293Y-19395451D01*
X57483053Y-20910515D01*
X57482477Y-22279254D01*
X57481483Y-23509337D01*
X57479990Y-24608431D01*
X57477915Y-25584208D01*
X57475178Y-26444335D01*
X57471696Y-27196481D01*
X57467389Y-27848317D01*
X57462174Y-28407511D01*
X57455970Y-28881731D01*
X57448696Y-29278649D01*
X57440269Y-29605932D01*
X57430608Y-29871249D01*
X57419631Y-30082270D01*
X57407257Y-30246665D01*
X57393405Y-30372101D01*
X57377992Y-30466248D01*
X57360937Y-30536776D01*
X57342158Y-30591353D01*
X57326317Y-30627667D01*
X57218725Y-30787375D01*
X57010036Y-31038430D01*
X56720766Y-31360289D01*
X56371428Y-31732410D01*
X55982537Y-32134253D01*
X55574605Y-32545276D01*
X55168149Y-32944937D01*
X54783680Y-33312696D01*
X54441715Y-33628009D01*
X54162765Y-33870337D01*
X53967346Y-34019137D01*
X53905988Y-34052570D01*
X53796785Y-34065433D01*
X53539934Y-34077250D01*
X53133712Y-34088031D01*
X52576395Y-34097787D01*
X51866262Y-34106529D01*
X51001588Y-34114266D01*
X49980651Y-34121009D01*
X48801727Y-34126768D01*
X47463094Y-34131554D01*
X45963028Y-34135378D01*
X44299806Y-34138249D01*
X42471706Y-34140179D01*
X40477003Y-34141177D01*
X39234769Y-34141333D01*
X37384469Y-34141209D01*
X35696045Y-34140794D01*
X34162040Y-34140022D01*
X32774998Y-34138827D01*
X31527460Y-34137143D01*
X30411971Y-34134904D01*
X29421073Y-34132045D01*
X28547308Y-34128500D01*
X27783221Y-34124202D01*
X27121354Y-34119087D01*
X26554250Y-34113089D01*
X26074452Y-34106141D01*
X25674503Y-34098178D01*
X25346947Y-34089134D01*
X25084325Y-34078943D01*
X24879181Y-34067539D01*
X24724058Y-34054858D01*
X24611499Y-34040832D01*
X24534046Y-34025396D01*
X24490522Y-34011234D01*
X24318019Y-33899037D01*
X24037261Y-33662498D01*
X23651531Y-33304684D01*
X23164114Y-32828661D01*
X22578292Y-32237495D01*
X22443409Y-32099352D01*
X21982870Y-31632314D01*
X21541330Y-31195209D01*
X21137691Y-30805937D01*
X20790852Y-30482398D01*
X20519714Y-30242490D01*
X20343179Y-30104112D01*
X20323333Y-30091618D01*
X19939000Y-29865667D01*
X13250333Y-29865667D01*
X12869333Y-30092084D01*
X12709133Y-30213359D01*
X12452753Y-30439189D01*
X12119958Y-30750712D01*
X11730507Y-31129068D01*
X11304164Y-31555395D01*
X10879667Y-31991088D01*
X10436557Y-32446251D01*
X10011741Y-32872299D01*
X9624952Y-33250232D01*
X9295923Y-33561046D01*
X9044387Y-33785742D01*
X8894590Y-33902504D01*
X8518181Y-34141333D01*
X-8518181Y-34141333D01*
X-8894591Y-33901764D01*
X-9053610Y-33776860D01*
X-9308891Y-33547617D01*
X-9640704Y-33233062D01*
X-10029320Y-32852225D01*
X-10455009Y-32424135D01*
X-10877563Y-31989161D01*
X-11320347Y-31534381D01*
X-11745339Y-31109626D01*
X-12132760Y-30733767D01*
X-12462832Y-30425672D01*
X-12715776Y-30204212D01*
X-12867230Y-30090897D01*
X-13250333Y-29865667D01*
X-16594667Y-29865667D01*
X-17441703Y-29866157D01*
X-18136342Y-29868113D01*
X-18695518Y-29872256D01*
X-19136166Y-29879310D01*
X-19475220Y-29889998D01*
X-19729615Y-29905045D01*
X-19916285Y-29925173D01*
X-20052164Y-29951106D01*
X-20154188Y-29983567D01*
X-20235333Y-30021193D01*
X-20368270Y-30119797D01*
X-20601414Y-30323751D01*
X-20917381Y-30616564D01*
X-21298787Y-30981742D01*
X-21728245Y-31402794D01*
X-22188371Y-31863227D01*
X-22352000Y-32029161D01*
X-22989818Y-32671225D01*
X-23520054Y-33189860D01*
X-23941735Y-33584161D01*
X-24253887Y-33853225D01*
X-24455536Y-33996147D01*
X-24487114Y-34011468D01*
X-24541236Y-34028098D01*
X-24624287Y-34043261D01*
X-24743717Y-34057019D01*
X-24906976Y-34069438D01*
X-25121512Y-34080580D01*
X-25394776Y-34090510D01*
X-25734216Y-34099291D01*
X-26147282Y-34106987D01*
X-26641424Y-34113662D01*
X-27224090Y-34119380D01*
X-27902731Y-34124204D01*
X-28684796Y-34128199D01*
X-29577734Y-34131428D01*
X-30588995Y-34133955D01*
X-31726027Y-34135844D01*
X-32996282Y-34137158D01*
X-34407207Y-34137962D01*
X-35966253Y-34138319D01*
X-37680868Y-34138293D01*
X-39261447Y-34138019D01*
X-41140079Y-34137406D01*
X-42856386Y-34136427D01*
X-44417377Y-34135027D01*
X-45830060Y-34133148D01*
X-47101443Y-34130735D01*
X-48238535Y-34127731D01*
X-49248344Y-34124080D01*
X-50137879Y-34119724D01*
X-50914148Y-34114609D01*
X-51584160Y-34108676D01*
X-52154922Y-34101871D01*
X-52633443Y-34094135D01*
X-53026732Y-34085414D01*
X-53341796Y-34075650D01*
X-53585645Y-34064788D01*
X-53765287Y-34052770D01*
X-53887730Y-34039540D01*
X-53959982Y-34025041D01*
X-53975000Y-34019526D01*
X-54128401Y-33914919D01*
X-54374100Y-33706178D01*
X-54691432Y-33414390D01*
X-55059732Y-33060642D01*
X-55458337Y-32666020D01*
X-55866581Y-32251612D01*
X-56263801Y-31838503D01*
X-56629331Y-31447781D01*
X-56942508Y-31100532D01*
X-57182667Y-30817843D01*
X-57329144Y-30620800D01*
X-57358501Y-30566886D01*
X-57375213Y-30512795D01*
X-57390445Y-30430052D01*
X-57404260Y-30311180D01*
X-57416725Y-30148701D01*
X-57427902Y-29935138D01*
X-57437856Y-29663015D01*
X-57446651Y-29324855D01*
X-57454353Y-28913179D01*
X-57461024Y-28420512D01*
X-57466731Y-27839376D01*
X-57471536Y-27162294D01*
X-57475504Y-26381790D01*
X-57478700Y-25490385D01*
X-57481188Y-24480603D01*
X-57483033Y-23344967D01*
X-57484298Y-22075999D01*
X-57485048Y-20666224D01*
X-57485348Y-19108163D01*
X-57485262Y-17394339D01*
X-57484951Y-15877219D01*
X-57484254Y-13989640D01*
X-57483148Y-12264555D01*
X-57481578Y-10695123D01*
X-57479492Y-9274505D01*
X-57476835Y-7995861D01*
X-57473553Y-6852352D01*
X-57469594Y-5837138D01*
X-57464903Y-4943379D01*
X-57459428Y-4164236D01*
X-57453113Y-3492870D01*
X-57445906Y-2922439D01*
X-57437754Y-2446105D01*
X-57428601Y-2057028D01*
X-57418396Y-1748369D01*
X-57407083Y-1513288D01*
X-57394610Y-1344944D01*
X-57380923Y-1236499D01*
X-57369792Y-1190258D01*
X-57279411Y-1033003D01*
X-57085518Y-782233D01*
X-56783929Y-433226D01*
X-56370459Y18737D01*
X-55840925Y578378D01*
X-55362675Y1074099D01*
X-54869831Y1586886D01*
X-54420225Y2064810D01*
X-54028183Y2491942D01*
X-53708032Y2852352D01*
X-53474097Y3130108D01*
X-53340705Y3309280D01*
X-53321054Y3344357D01*
X-53298743Y3401595D01*
X-53278811Y3476917D01*
X-53261121Y3579624D01*
X-53245538Y3719021D01*
X-53231927Y3904410D01*
X-53220151Y4145093D01*
X-53210075Y4450373D01*
X-53201564Y4829554D01*
X-53194482Y5291939D01*
X-53188693Y5846829D01*
X-53184061Y6503528D01*
X-53180451Y7271339D01*
X-53177728Y8159564D01*
X-53175756Y9177507D01*
X-53174398Y10334470D01*
X-53173520Y11639756D01*
X-53172986Y13102668D01*
X-53172887Y13507553D01*
X-53172756Y15027993D01*
X-53173160Y16388131D01*
X-53174210Y17596998D01*
X-53176017Y18663624D01*
X-53178692Y19597041D01*
X-53182347Y20406280D01*
X-53187093Y21100371D01*
X-53193040Y21688345D01*
X-53200300Y22179234D01*
X-53208984Y22582067D01*
X-53219204Y22905876D01*
X-53231069Y23159691D01*
X-53244692Y23352544D01*
X-53260183Y23493466D01*
X-53277655Y23591486D01*
X-53297216Y23655637D01*
X-53297780Y23656996D01*
X-53402123Y23815462D01*
X-53625470Y24081566D01*
X-53961748Y24448798D01*
X-54404885Y24910648D01*
X-54948809Y25460606D01*
X-55368273Y25876777D01*
X-55921205Y26423951D01*
X-56364008Y26867908D01*
X-56709034Y27222357D01*
X-56968637Y27501006D01*
X-57155170Y27717563D01*
X-57280987Y27885737D01*
X-57358442Y28019236D01*
X-57399688Y28131000D01*
X-57408857Y28240756D01*
X-57417493Y28498217D01*
X-57425601Y28904577D01*
X-57431212Y29316333D01*
X-54297930Y29316333D01*
X-53000474Y28088667D01*
X-52287047Y27397374D01*
X-51697372Y26786951D01*
X-51217987Y26239044D01*
X-50835429Y25735296D01*
X-50536236Y25257352D01*
X-50306946Y24786858D01*
X-50134094Y24305457D01*
X-50076910Y24102563D01*
X-50054910Y24008038D01*
X-50035325Y23895391D01*
X-50018033Y23755040D01*
X-50002917Y23577404D01*
X-49989857Y23352901D01*
X-49978734Y23071952D01*
X-49969428Y22724973D01*
X-49961821Y22302385D01*
X-49955794Y21794605D01*
X-49951226Y21192053D01*
X-49948000Y20485147D01*
X-49945996Y19664307D01*
X-49945094Y18719950D01*
X-49945176Y17642496D01*
X-49946123Y16422363D01*
X-49947814Y15049971D01*
X-49949579Y13864667D01*
X-49952149Y12580762D01*
X-49955728Y11333151D01*
X-49960226Y10133585D01*
X-49965554Y8993814D01*
X-49971621Y7925588D01*
X-49978337Y6940659D01*
X-49985611Y6050777D01*
X-49993353Y5267692D01*
X-50001473Y4603154D01*
X-50009881Y4068914D01*
X-50018486Y3676723D01*
X-50027198Y3438331D01*
X-50030011Y3396237D01*
X-50107096Y2845826D01*
X-50250116Y2324825D01*
X-50471302Y1813017D01*
X-50782889Y1290182D01*
X-51197108Y736102D01*
X-51726194Y130556D01*
X-52382379Y-546673D01*
X-52465252Y-628790D01*
X-52833558Y-993294D01*
X-53189708Y-1347268D01*
X-53503031Y-1660125D01*
X-53742859Y-1901279D01*
X-53830862Y-1990766D01*
X-54194723Y-2363618D01*
X-54188742Y-15851436D01*
X-54182761Y-29339253D01*
X-53710042Y-29856460D01*
X-53433783Y-30144473D01*
X-53146499Y-30421257D01*
X-52906122Y-30631221D01*
X-52886495Y-30646713D01*
X-52535667Y-30919759D01*
X-39165477Y-30921880D01*
X-25795287Y-30924000D01*
X-24491210Y-29573072D01*
X-23828802Y-28902056D01*
X-23248222Y-28350443D01*
X-22728600Y-27903001D01*
X-22249066Y-27544498D01*
X-21788752Y-27259700D01*
X-21326787Y-27033376D01*
X-20842303Y-26850293D01*
X-20697384Y-26803967D01*
X-20559033Y-26765233D01*
X-20407465Y-26733482D01*
X-20225226Y-26708049D01*
X-19994857Y-26688271D01*
X-19698901Y-26673484D01*
X-19319903Y-26663023D01*
X-18840406Y-26656224D01*
X-18242952Y-26652423D01*
X-17510084Y-26650957D01*
X-16679333Y-26651116D01*
X-15735237Y-26652719D01*
X-14941800Y-26657321D01*
X-14280352Y-26667050D01*
X-13732220Y-26684036D01*
X-13278733Y-26710405D01*
X-12901221Y-26748286D01*
X-12581011Y-26799807D01*
X-12299432Y-26867097D01*
X-12037813Y-26952283D01*
X-11777482Y-27057493D01*
X-11499768Y-27184855D01*
X-11345333Y-27259071D01*
X-11144542Y-27361627D01*
X-10956805Y-27473208D01*
X-10763539Y-27609911D01*
X-10546166Y-27787829D01*
X-10286103Y-28023059D01*
X-9964769Y-28331697D01*
X-9563585Y-28729836D01*
X-9063968Y-29233574D01*
X-9052378Y-29245308D01*
X-7394423Y-30924000D01*
X7388989Y-30924000D01*
X8964995Y-29334998D01*
X9520995Y-28779880D01*
X9984381Y-28332533D01*
X10377091Y-27976024D01*
X10721066Y-27693421D01*
X11038245Y-27467792D01*
X11350567Y-27282204D01*
X11679974Y-27119724D01*
X12026356Y-26972302D01*
X12282261Y-26880727D01*
X12566481Y-26805190D01*
X12896910Y-26744306D01*
X13291442Y-26696691D01*
X13767971Y-26660962D01*
X14344389Y-26635735D01*
X15038590Y-26619626D01*
X15868467Y-26611252D01*
X16721667Y-26609181D01*
X17613395Y-26611537D01*
X18357080Y-26619669D01*
X18973965Y-26635358D01*
X19485291Y-26660383D01*
X19912302Y-26696527D01*
X20276239Y-26745570D01*
X20598347Y-26809292D01*
X20899867Y-26889476D01*
X21190271Y-26983798D01*
X21529674Y-27113864D01*
X21847183Y-27266015D01*
X22162625Y-27455590D01*
X22495822Y-27697931D01*
X22866600Y-28008376D01*
X23294784Y-28402268D01*
X23800199Y-28894945D01*
X24269472Y-29366481D01*
X25805945Y-30924000D01*
X52589770Y-30924000D01*
X53134664Y-30437167D01*
X53430170Y-30156399D01*
X53712856Y-29859562D01*
X53928552Y-29604012D01*
X53954278Y-29569333D01*
X54229000Y-29188333D01*
X54216493Y-15782331D01*
X54203986Y-2376328D01*
X52724698Y-880997D01*
X52048574Y-182716D01*
X51492362Y429466D01*
X51044172Y975758D01*
X50692114Y1476372D01*
X50424300Y1951518D01*
X50228838Y2421409D01*
X50093839Y2906254D01*
X50007414Y3426265D01*
X49971117Y3799731D01*
X49963588Y3988539D01*
X49957112Y4334927D01*
X49951706Y4827147D01*
X49947388Y5453447D01*
X49944175Y6202079D01*
X49942082Y7061293D01*
X49941127Y8019339D01*
X49941327Y9064468D01*
X49942699Y10184929D01*
X49945259Y11368974D01*
X49949024Y12604852D01*
X49954012Y13880814D01*
X49956029Y14330333D01*
X50001184Y24067000D01*
X50200962Y24575000D01*
X50370146Y24966960D01*
X50566600Y25338179D01*
X50806466Y25709307D01*
X51105885Y26100997D01*
X51480997Y26533898D01*
X51947943Y27028661D01*
X52522865Y27605937D01*
X52725329Y27804670D01*
X54297011Y29341006D01*
X54242575Y29794336D01*
X54238280Y29913951D01*
X54234057Y30196425D01*
X54229918Y30635286D01*
X54225878Y31224060D01*
X54221950Y31956273D01*
X54218147Y32825453D01*
X54214483Y33825125D01*
X54210970Y34948816D01*
X54207624Y36190054D01*
X54204456Y37542363D01*
X54201481Y38999271D01*
X54198711Y40554305D01*
X54196161Y42200991D01*
X54193844Y43932855D01*
X54191773Y45743425D01*
X54189961Y47626226D01*
X54188423Y49574785D01*
X54187171Y51582629D01*
X54186218Y53643284D01*
X54185580Y55750278D01*
X54185311Y57383333D01*
X54182485Y84519000D01*
X52427742Y86321978D01*
X50673000Y88124955D01*
X-50725228Y88117333D01*
X-51080114Y87717890D01*
X-51260226Y87523162D01*
X-51532227Y87239134D01*
X-51867383Y86895346D01*
X-52236959Y86521342D01*
X-52500743Y86257390D01*
X-52873882Y85881204D01*
X-53228615Y85515055D01*
X-53537285Y85188119D01*
X-53772234Y84929570D01*
X-53879443Y84803116D01*
X-54192399Y84409898D01*
X-54245164Y56863116D01*
X-54297930Y29316333D01*
X-57431212Y29316333D01*
X-57433184Y29461030D01*
X-57440245Y30168772D01*
X-57446789Y31028996D01*
X-57452817Y32042897D01*
X-57458336Y33211669D01*
X-57463346Y34536507D01*
X-57467854Y36018605D01*
X-57471861Y37659157D01*
X-57475372Y39459357D01*
X-57478390Y41420401D01*
X-57480918Y43543482D01*
X-57482961Y45829795D01*
X-57484522Y48280535D01*
X-57485605Y50896894D01*
X-57486212Y53680069D01*
X-57486349Y56631253D01*
X-57486335Y56960000D01*
X-57486189Y59568053D01*
X-57485991Y62012160D01*
X-57485712Y64297711D01*
X-57485323Y66430092D01*
X-57484793Y68414693D01*
X-57484093Y70256901D01*
X-57483192Y71962104D01*
X-57482061Y73535692D01*
X-57480670Y74983051D01*
X-57478989Y76309569D01*
X-57476989Y77520636D01*
X-57474639Y78621639D01*
X-57471910Y79617967D01*
X-57468771Y80515006D01*
X-57465193Y81318147D01*
X-57461146Y82032776D01*
X-57456601Y82664282D01*
X-57451526Y83218053D01*
X-57445894Y83699477D01*
X-57439673Y84113943D01*
X-57432833Y84466837D01*
X-57425346Y84763550D01*
X-57417180Y85009468D01*
X-57408307Y85209980D01*
X-57398696Y85370473D01*
X-57388318Y85496337D01*
X-57377143Y85592960D01*
X-57365140Y85665728D01*
X-57352280Y85720031D01*
X-57338533Y85761257D01*
X-57326617Y85789000D01*
X-57228973Y85931120D01*
X-57026512Y86175643D01*
X-56735088Y86506177D01*
X-56370556Y86906333D01*
X-55948768Y87359717D01*
X-55485580Y87849938D01*
X-54996844Y88360606D01*
X-54498416Y88875327D01*
X-54006150Y89377711D01*
X-53535899Y89851365D01*
X-53103517Y90279900D01*
X-52724858Y90646922D01*
X-52415777Y90936040D01*
X-52192128Y91130863D01*
X-52085644Y91207667D01*
X-52063376Y91219253D01*
X-52037622Y91230298D01*
X-52004406Y91240815D01*
X-51959750Y91250817D01*
X-51899676Y91260317D01*
X-51820209Y91269328D01*
X-51717369Y91277862D01*
X-51587180Y91285933D01*
X-51425664Y91293554D01*
X-51228844Y91300737D01*
X-50992742Y91307496D01*
X-50713381Y91313843D01*
X-50386784Y91319792D01*
X-50008973Y91325354D01*
X-49575971Y91330544D01*
X-49083801Y91335374D01*
X-48528485Y91339857D01*
X-47906045Y91344006D01*
X-47212504Y91347834D01*
X-46443886Y91351354D01*
X-45596212Y91354579D01*
X-44665505Y91357521D01*
X-43647788Y91360194D01*
X-42539083Y91362611D01*
X-41335413Y91364784D01*
X-40032800Y91366726D01*
X-38627268Y91368451D01*
X-37114838Y91369971D01*
X-35491533Y91371299D01*
X-33753377Y91372449D01*
X-31896391Y91373432D01*
X-29916598Y91374263D01*
X-27810022Y91374953D01*
X-25572683Y91375517D01*
X-23200605Y91375966D01*
X-20689811Y91376314D01*
X-18036323Y91376573D01*
X-15236164Y91376758D01*
X-12285357Y91376879D01*
X-9179923Y91376952D01*
X-5915886Y91376987D01*
X-2489268Y91376999D01*
X0Y91377000D01*
X51773667Y91377000D01*
X52130197Y91165333D01*
%TA.AperFunction,EtchedComponent*%
%TO.C,N1*%
G36*
X52130197Y91165333D02*
G01*
X52286233Y91046023D01*
X52538616Y90820849D01*
X52871404Y90506305D01*
X53268654Y90118885D01*
X53714425Y89675081D01*
X54192775Y89191386D01*
X54687761Y88684293D01*
X55183442Y88170296D01*
X55663876Y87665886D01*
X56113120Y87187558D01*
X56515233Y86751804D01*
X56854273Y86375118D01*
X57114297Y86073992D01*
X57279364Y85864919D01*
X57326913Y85789000D01*
X57341380Y85754396D01*
X57354937Y85710990D01*
X57367615Y85653394D01*
X57379443Y85576220D01*
X57390450Y85474080D01*
X57400667Y85341587D01*
X57410124Y85173352D01*
X57418850Y84963988D01*
X57426874Y84708107D01*
X57434228Y84400321D01*
X57440940Y84035243D01*
X57447040Y83607484D01*
X57452559Y83111656D01*
X57457525Y82542373D01*
X57461969Y81894245D01*
X57465921Y81161886D01*
X57469410Y80339906D01*
X57472466Y79422920D01*
X57475119Y78405538D01*
X57477399Y77282373D01*
X57479336Y76048036D01*
X57480958Y74697141D01*
X57482297Y73224299D01*
X57483381Y71624123D01*
X57484242Y69891225D01*
X57484908Y68020216D01*
X57485409Y66005709D01*
X57485775Y63842317D01*
X57486036Y61524650D01*
X57486221Y59047323D01*
X57486335Y56960000D01*
X57486249Y53990604D01*
X57485693Y51189346D01*
X57484662Y48555033D01*
X57483153Y46086469D01*
X57481162Y43782459D01*
X57478686Y41641811D01*
X57475721Y39663329D01*
X57472264Y37845820D01*
X57468310Y36188087D01*
X57463857Y34688939D01*
X57458901Y33347179D01*
X57453437Y32161613D01*
X57447464Y31131048D01*
X57440976Y30254288D01*
X57433971Y29530140D01*
X57426445Y28957409D01*
X57418394Y28534901D01*
X57409814Y28261420D01*
X57400703Y28135774D01*
X57399687Y28131000D01*
X57358027Y28018366D01*
X57280269Y27884666D01*
X57154059Y27716193D01*
X56967044Y27499238D01*
X56706870Y27220092D01*
X56361184Y26865048D01*
X55917632Y26420396D01*
X55368272Y25876777D01*
X54759979Y25271223D01*
X54248388Y24749399D01*
X53839573Y24317814D01*
X53539605Y23982979D01*
X53354556Y23751404D01*
X53297779Y23656996D01*
X53278159Y23593642D01*
X53260632Y23496664D01*
X53245089Y23357032D01*
X53231416Y23165713D01*
X53219504Y22913679D01*
X53209242Y22591897D01*
X53200517Y22191337D01*
X53193220Y21702967D01*
X53187238Y21117758D01*
X53182461Y20426679D01*
X53178778Y19620697D01*
X53176077Y18690783D01*
X53174248Y17627906D01*
X53173179Y16423035D01*
X53172759Y15067139D01*
X53172877Y13551187D01*
X53172887Y13507553D01*
X53173354Y12002406D01*
X53174130Y10657290D01*
X53175350Y9462904D01*
X53177150Y8409947D01*
X53179665Y7489117D01*
X53183032Y6691112D01*
X53187385Y6006630D01*
X53192861Y5426371D01*
X53199594Y4941031D01*
X53207722Y4541311D01*
X53217378Y4217907D01*
X53228699Y3961520D01*
X53241821Y3762846D01*
X53256879Y3612584D01*
X53274008Y3501433D01*
X53293345Y3420091D01*
X53315025Y3359257D01*
X53321053Y3345670D01*
X53416708Y3205022D01*
X53616952Y2960790D01*
X53906966Y2629449D01*
X54271931Y2227480D01*
X54697026Y1771359D01*
X55167432Y1277566D01*
X55362602Y1075623D01*
X55982282Y431419D01*
X56482779Y-101513D01*
X56868273Y-527894D01*
X57142949Y-852445D01*
X57310988Y-1079889D01*
X57369719Y-1190047D01*
X57384349Y-1257795D01*
X57397717Y-1380035D01*
X57409877Y-1563610D01*
X57420881Y-1815364D01*
X57430782Y-2142140D01*
X57439633Y-2550781D01*
X57447487Y-3048131D01*
X57454396Y-3641033D01*
X57460413Y-4336331D01*
X57465591Y-5140868D01*
X57469982Y-6061487D01*
X57473640Y-7105033D01*
X57476618Y-8278347D01*
X57478967Y-9588274D01*
X57480740Y-11041657D01*
X57481992Y-12645339D01*
X57482773Y-14406164D01*
X57483091Y-15895667D01*
X57483278Y-17726391D01*
X57483293Y-19395451D01*
X57483053Y-20910515D01*
X57482477Y-22279254D01*
X57481483Y-23509337D01*
X57479990Y-24608431D01*
X57477915Y-25584208D01*
X57475178Y-26444335D01*
X57471696Y-27196481D01*
X57467389Y-27848317D01*
X57462174Y-28407511D01*
X57455970Y-28881731D01*
X57448696Y-29278649D01*
X57440269Y-29605932D01*
X57430608Y-29871249D01*
X57419631Y-30082270D01*
X57407257Y-30246665D01*
X57393405Y-30372101D01*
X57377992Y-30466248D01*
X57360937Y-30536776D01*
X57342158Y-30591353D01*
X57326317Y-30627667D01*
X57218725Y-30787375D01*
X57010036Y-31038430D01*
X56720766Y-31360289D01*
X56371428Y-31732410D01*
X55982537Y-32134253D01*
X55574605Y-32545276D01*
X55168149Y-32944937D01*
X54783680Y-33312696D01*
X54441715Y-33628009D01*
X54162765Y-33870337D01*
X53967346Y-34019137D01*
X53905988Y-34052570D01*
X53796785Y-34065433D01*
X53539934Y-34077250D01*
X53133712Y-34088031D01*
X52576395Y-34097787D01*
X51866262Y-34106529D01*
X51001588Y-34114266D01*
X49980651Y-34121009D01*
X48801727Y-34126768D01*
X47463094Y-34131554D01*
X45963028Y-34135378D01*
X44299806Y-34138249D01*
X42471706Y-34140179D01*
X40477003Y-34141177D01*
X39234769Y-34141333D01*
X37384469Y-34141209D01*
X35696045Y-34140794D01*
X34162040Y-34140022D01*
X32774998Y-34138827D01*
X31527460Y-34137143D01*
X30411971Y-34134904D01*
X29421073Y-34132045D01*
X28547308Y-34128500D01*
X27783221Y-34124202D01*
X27121354Y-34119087D01*
X26554250Y-34113089D01*
X26074452Y-34106141D01*
X25674503Y-34098178D01*
X25346947Y-34089134D01*
X25084325Y-34078943D01*
X24879181Y-34067539D01*
X24724058Y-34054858D01*
X24611499Y-34040832D01*
X24534046Y-34025396D01*
X24490522Y-34011234D01*
X24318019Y-33899037D01*
X24037261Y-33662498D01*
X23651531Y-33304684D01*
X23164114Y-32828661D01*
X22578292Y-32237495D01*
X22443409Y-32099352D01*
X21982870Y-31632314D01*
X21541330Y-31195209D01*
X21137691Y-30805937D01*
X20790852Y-30482398D01*
X20519714Y-30242490D01*
X20343179Y-30104112D01*
X20323333Y-30091618D01*
X19939000Y-29865667D01*
X13250333Y-29865667D01*
X12869333Y-30092084D01*
X12709133Y-30213359D01*
X12452753Y-30439189D01*
X12119958Y-30750712D01*
X11730507Y-31129068D01*
X11304164Y-31555395D01*
X10879667Y-31991088D01*
X10436557Y-32446251D01*
X10011741Y-32872299D01*
X9624952Y-33250232D01*
X9295923Y-33561046D01*
X9044387Y-33785742D01*
X8894590Y-33902504D01*
X8518181Y-34141333D01*
X-8518181Y-34141333D01*
X-8894591Y-33901764D01*
X-9053610Y-33776860D01*
X-9308891Y-33547617D01*
X-9640704Y-33233062D01*
X-10029320Y-32852225D01*
X-10455009Y-32424135D01*
X-10877563Y-31989161D01*
X-11320347Y-31534381D01*
X-11745339Y-31109626D01*
X-12132760Y-30733767D01*
X-12462832Y-30425672D01*
X-12715776Y-30204212D01*
X-12867230Y-30090897D01*
X-13250333Y-29865667D01*
X-16594667Y-29865667D01*
X-17441703Y-29866157D01*
X-18136342Y-29868113D01*
X-18695518Y-29872256D01*
X-19136166Y-29879310D01*
X-19475220Y-29889998D01*
X-19729615Y-29905045D01*
X-19916285Y-29925173D01*
X-20052164Y-29951106D01*
X-20154188Y-29983567D01*
X-20235333Y-30021193D01*
X-20368270Y-30119797D01*
X-20601414Y-30323751D01*
X-20917381Y-30616564D01*
X-21298787Y-30981742D01*
X-21728245Y-31402794D01*
X-22188371Y-31863227D01*
X-22352000Y-32029161D01*
X-22989818Y-32671225D01*
X-23520054Y-33189860D01*
X-23941735Y-33584161D01*
X-24253887Y-33853225D01*
X-24455536Y-33996147D01*
X-24487114Y-34011468D01*
X-24541236Y-34028098D01*
X-24624287Y-34043261D01*
X-24743717Y-34057019D01*
X-24906976Y-34069438D01*
X-25121512Y-34080580D01*
X-25394776Y-34090510D01*
X-25734216Y-34099291D01*
X-26147282Y-34106987D01*
X-26641424Y-34113662D01*
X-27224090Y-34119380D01*
X-27902731Y-34124204D01*
X-28684796Y-34128199D01*
X-29577734Y-34131428D01*
X-30588995Y-34133955D01*
X-31726027Y-34135844D01*
X-32996282Y-34137158D01*
X-34407207Y-34137962D01*
X-35966253Y-34138319D01*
X-37680868Y-34138293D01*
X-39261447Y-34138019D01*
X-41140079Y-34137406D01*
X-42856386Y-34136427D01*
X-44417377Y-34135027D01*
X-45830060Y-34133148D01*
X-47101443Y-34130735D01*
X-48238535Y-34127731D01*
X-49248344Y-34124080D01*
X-50137879Y-34119724D01*
X-50914148Y-34114609D01*
X-51584160Y-34108676D01*
X-52154922Y-34101871D01*
X-52633443Y-34094135D01*
X-53026732Y-34085414D01*
X-53341796Y-34075650D01*
X-53585645Y-34064788D01*
X-53765287Y-34052770D01*
X-53887730Y-34039540D01*
X-53959982Y-34025041D01*
X-53975000Y-34019526D01*
X-54128401Y-33914919D01*
X-54374100Y-33706178D01*
X-54691432Y-33414390D01*
X-55059732Y-33060642D01*
X-55458337Y-32666020D01*
X-55866581Y-32251612D01*
X-56263801Y-31838503D01*
X-56629331Y-31447781D01*
X-56942508Y-31100532D01*
X-57182667Y-30817843D01*
X-57329144Y-30620800D01*
X-57358501Y-30566886D01*
X-57375213Y-30512795D01*
X-57390445Y-30430052D01*
X-57404260Y-30311180D01*
X-57416725Y-30148701D01*
X-57427902Y-29935138D01*
X-57437856Y-29663015D01*
X-57446651Y-29324855D01*
X-57454353Y-28913179D01*
X-57461024Y-28420512D01*
X-57466731Y-27839376D01*
X-57471536Y-27162294D01*
X-57475504Y-26381790D01*
X-57478700Y-25490385D01*
X-57481188Y-24480603D01*
X-57483033Y-23344967D01*
X-57484298Y-22075999D01*
X-57485048Y-20666224D01*
X-57485348Y-19108163D01*
X-57485262Y-17394339D01*
X-57484951Y-15877219D01*
X-57484254Y-13989640D01*
X-57483148Y-12264555D01*
X-57481578Y-10695123D01*
X-57479492Y-9274505D01*
X-57476835Y-7995861D01*
X-57473553Y-6852352D01*
X-57469594Y-5837138D01*
X-57464903Y-4943379D01*
X-57459428Y-4164236D01*
X-57453113Y-3492870D01*
X-57445906Y-2922439D01*
X-57437754Y-2446105D01*
X-57428601Y-2057028D01*
X-57418396Y-1748369D01*
X-57407083Y-1513288D01*
X-57394610Y-1344944D01*
X-57380923Y-1236499D01*
X-57369792Y-1190258D01*
X-57279411Y-1033003D01*
X-57085518Y-782233D01*
X-56783929Y-433226D01*
X-56370459Y18737D01*
X-55840925Y578378D01*
X-55362675Y1074099D01*
X-54869831Y1586886D01*
X-54420225Y2064810D01*
X-54028183Y2491942D01*
X-53708032Y2852352D01*
X-53474097Y3130108D01*
X-53340705Y3309280D01*
X-53321054Y3344357D01*
X-53298743Y3401595D01*
X-53278811Y3476917D01*
X-53261121Y3579624D01*
X-53245538Y3719021D01*
X-53231927Y3904410D01*
X-53220151Y4145093D01*
X-53210075Y4450373D01*
X-53201564Y4829554D01*
X-53194482Y5291939D01*
X-53188693Y5846829D01*
X-53184061Y6503528D01*
X-53180451Y7271339D01*
X-53177728Y8159564D01*
X-53175756Y9177507D01*
X-53174398Y10334470D01*
X-53173520Y11639756D01*
X-53172986Y13102668D01*
X-53172887Y13507553D01*
X-53172756Y15027993D01*
X-53173160Y16388131D01*
X-53174210Y17596998D01*
X-53176017Y18663624D01*
X-53178692Y19597041D01*
X-53182347Y20406280D01*
X-53187093Y21100371D01*
X-53193040Y21688345D01*
X-53200300Y22179234D01*
X-53208984Y22582067D01*
X-53219204Y22905876D01*
X-53231069Y23159691D01*
X-53244692Y23352544D01*
X-53260183Y23493466D01*
X-53277655Y23591486D01*
X-53297216Y23655637D01*
X-53297780Y23656996D01*
X-53402123Y23815462D01*
X-53625470Y24081566D01*
X-53961748Y24448798D01*
X-54404885Y24910648D01*
X-54948809Y25460606D01*
X-55368273Y25876777D01*
X-55921205Y26423951D01*
X-56364008Y26867908D01*
X-56709034Y27222357D01*
X-56968637Y27501006D01*
X-57155170Y27717563D01*
X-57280987Y27885737D01*
X-57358442Y28019236D01*
X-57399688Y28131000D01*
X-57408857Y28240756D01*
X-57417493Y28498217D01*
X-57425601Y28904577D01*
X-57431212Y29316333D01*
X-54297930Y29316333D01*
X-53000474Y28088667D01*
X-52287047Y27397374D01*
X-51697372Y26786951D01*
X-51217987Y26239044D01*
X-50835429Y25735296D01*
X-50536236Y25257352D01*
X-50306946Y24786858D01*
X-50134094Y24305457D01*
X-50076910Y24102563D01*
X-50054910Y24008038D01*
X-50035325Y23895391D01*
X-50018033Y23755040D01*
X-50002917Y23577404D01*
X-49989857Y23352901D01*
X-49978734Y23071952D01*
X-49969428Y22724973D01*
X-49961821Y22302385D01*
X-49955794Y21794605D01*
X-49951226Y21192053D01*
X-49948000Y20485147D01*
X-49945996Y19664307D01*
X-49945094Y18719950D01*
X-49945176Y17642496D01*
X-49946123Y16422363D01*
X-49947814Y15049971D01*
X-49949579Y13864667D01*
X-49952149Y12580762D01*
X-49955728Y11333151D01*
X-49960226Y10133585D01*
X-49965554Y8993814D01*
X-49971621Y7925588D01*
X-49978337Y6940659D01*
X-49985611Y6050777D01*
X-49993353Y5267692D01*
X-50001473Y4603154D01*
X-50009881Y4068914D01*
X-50018486Y3676723D01*
X-50027198Y3438331D01*
X-50030011Y3396237D01*
X-50107096Y2845826D01*
X-50250116Y2324825D01*
X-50471302Y1813017D01*
X-50782889Y1290182D01*
X-51197108Y736102D01*
X-51726194Y130556D01*
X-52382379Y-546673D01*
X-52465252Y-628790D01*
X-52833558Y-993294D01*
X-53189708Y-1347268D01*
X-53503031Y-1660125D01*
X-53742859Y-1901279D01*
X-53830862Y-1990766D01*
X-54194723Y-2363618D01*
X-54188742Y-15851436D01*
X-54182761Y-29339253D01*
X-53710042Y-29856460D01*
X-53433783Y-30144473D01*
X-53146499Y-30421257D01*
X-52906122Y-30631221D01*
X-52886495Y-30646713D01*
X-52535667Y-30919759D01*
X-39165477Y-30921880D01*
X-25795287Y-30924000D01*
X-24491210Y-29573072D01*
X-23828802Y-28902056D01*
X-23248222Y-28350443D01*
X-22728600Y-27903001D01*
X-22249066Y-27544498D01*
X-21788752Y-27259700D01*
X-21326787Y-27033376D01*
X-20842303Y-26850293D01*
X-20697384Y-26803967D01*
X-20559033Y-26765233D01*
X-20407465Y-26733482D01*
X-20225226Y-26708049D01*
X-19994857Y-26688271D01*
X-19698901Y-26673484D01*
X-19319903Y-26663023D01*
X-18840406Y-26656224D01*
X-18242952Y-26652423D01*
X-17510084Y-26650957D01*
X-16679333Y-26651116D01*
X-15735237Y-26652719D01*
X-14941800Y-26657321D01*
X-14280352Y-26667050D01*
X-13732220Y-26684036D01*
X-13278733Y-26710405D01*
X-12901221Y-26748286D01*
X-12581011Y-26799807D01*
X-12299432Y-26867097D01*
X-12037813Y-26952283D01*
X-11777482Y-27057493D01*
X-11499768Y-27184855D01*
X-11345333Y-27259071D01*
X-11144542Y-27361627D01*
X-10956805Y-27473208D01*
X-10763539Y-27609911D01*
X-10546166Y-27787829D01*
X-10286103Y-28023059D01*
X-9964769Y-28331697D01*
X-9563585Y-28729836D01*
X-9063968Y-29233574D01*
X-9052378Y-29245308D01*
X-7394423Y-30924000D01*
X7388989Y-30924000D01*
X8964995Y-29334998D01*
X9520995Y-28779880D01*
X9984381Y-28332533D01*
X10377091Y-27976024D01*
X10721066Y-27693421D01*
X11038245Y-27467792D01*
X11350567Y-27282204D01*
X11679974Y-27119724D01*
X12026356Y-26972302D01*
X12282261Y-26880727D01*
X12566481Y-26805190D01*
X12896910Y-26744306D01*
X13291442Y-26696691D01*
X13767971Y-26660962D01*
X14344389Y-26635735D01*
X15038590Y-26619626D01*
X15868467Y-26611252D01*
X16721667Y-26609181D01*
X17613395Y-26611537D01*
X18357080Y-26619669D01*
X18973965Y-26635358D01*
X19485291Y-26660383D01*
X19912302Y-26696527D01*
X20276239Y-26745570D01*
X20598347Y-26809292D01*
X20899867Y-26889476D01*
X21190271Y-26983798D01*
X21529674Y-27113864D01*
X21847183Y-27266015D01*
X22162625Y-27455590D01*
X22495822Y-27697931D01*
X22866600Y-28008376D01*
X23294784Y-28402268D01*
X23800199Y-28894945D01*
X24269472Y-29366481D01*
X25805945Y-30924000D01*
X52589770Y-30924000D01*
X53134664Y-30437167D01*
X53430170Y-30156399D01*
X53712856Y-29859562D01*
X53928552Y-29604012D01*
X53954278Y-29569333D01*
X54229000Y-29188333D01*
X54216493Y-15782331D01*
X54203986Y-2376328D01*
X52724698Y-880997D01*
X52048574Y-182716D01*
X51492362Y429466D01*
X51044172Y975758D01*
X50692114Y1476372D01*
X50424300Y1951518D01*
X50228838Y2421409D01*
X50093839Y2906254D01*
X50007414Y3426265D01*
X49971117Y3799731D01*
X49963588Y3988539D01*
X49957112Y4334927D01*
X49951706Y4827147D01*
X49947388Y5453447D01*
X49944175Y6202079D01*
X49942082Y7061293D01*
X49941127Y8019339D01*
X49941327Y9064468D01*
X49942699Y10184929D01*
X49945259Y11368974D01*
X49949024Y12604852D01*
X49954012Y13880814D01*
X49956029Y14330333D01*
X50001184Y24067000D01*
X50200962Y24575000D01*
X50370146Y24966960D01*
X50566600Y25338179D01*
X50806466Y25709307D01*
X51105885Y26100997D01*
X51480997Y26533898D01*
X51947943Y27028661D01*
X52522865Y27605937D01*
X52725329Y27804670D01*
X54297011Y29341006D01*
X54242575Y29794336D01*
X54238280Y29913951D01*
X54234057Y30196425D01*
X54229918Y30635286D01*
X54225878Y31224060D01*
X54221950Y31956273D01*
X54218147Y32825453D01*
X54214483Y33825125D01*
X54210970Y34948816D01*
X54207624Y36190054D01*
X54204456Y37542363D01*
X54201481Y38999271D01*
X54198711Y40554305D01*
X54196161Y42200991D01*
X54193844Y43932855D01*
X54191773Y45743425D01*
X54189961Y47626226D01*
X54188423Y49574785D01*
X54187171Y51582629D01*
X54186218Y53643284D01*
X54185580Y55750278D01*
X54185311Y57383333D01*
X54182485Y84519000D01*
X52427742Y86321978D01*
X50673000Y88124955D01*
X-50725228Y88117333D01*
X-51080114Y87717890D01*
X-51260226Y87523162D01*
X-51532227Y87239134D01*
X-51867383Y86895346D01*
X-52236959Y86521342D01*
X-52500743Y86257390D01*
X-52873882Y85881204D01*
X-53228615Y85515055D01*
X-53537285Y85188119D01*
X-53772234Y84929570D01*
X-53879443Y84803116D01*
X-54192399Y84409898D01*
X-54245164Y56863116D01*
X-54297930Y29316333D01*
X-57431212Y29316333D01*
X-57433184Y29461030D01*
X-57440245Y30168772D01*
X-57446789Y31028996D01*
X-57452817Y32042897D01*
X-57458336Y33211669D01*
X-57463346Y34536507D01*
X-57467854Y36018605D01*
X-57471861Y37659157D01*
X-57475372Y39459357D01*
X-57478390Y41420401D01*
X-57480918Y43543482D01*
X-57482961Y45829795D01*
X-57484522Y48280535D01*
X-57485605Y50896894D01*
X-57486212Y53680069D01*
X-57486349Y56631253D01*
X-57486335Y56960000D01*
X-57486189Y59568053D01*
X-57485991Y62012160D01*
X-57485712Y64297711D01*
X-57485323Y66430092D01*
X-57484793Y68414693D01*
X-57484093Y70256901D01*
X-57483192Y71962104D01*
X-57482061Y73535692D01*
X-57480670Y74983051D01*
X-57478989Y76309569D01*
X-57476989Y77520636D01*
X-57474639Y78621639D01*
X-57471910Y79617967D01*
X-57468771Y80515006D01*
X-57465193Y81318147D01*
X-57461146Y82032776D01*
X-57456601Y82664282D01*
X-57451526Y83218053D01*
X-57445894Y83699477D01*
X-57439673Y84113943D01*
X-57432833Y84466837D01*
X-57425346Y84763550D01*
X-57417180Y85009468D01*
X-57408307Y85209980D01*
X-57398696Y85370473D01*
X-57388318Y85496337D01*
X-57377143Y85592960D01*
X-57365140Y85665728D01*
X-57352280Y85720031D01*
X-57338533Y85761257D01*
X-57326617Y85789000D01*
X-57228973Y85931120D01*
X-57026512Y86175643D01*
X-56735088Y86506177D01*
X-56370556Y86906333D01*
X-55948768Y87359717D01*
X-55485580Y87849938D01*
X-54996844Y88360606D01*
X-54498416Y88875327D01*
X-54006150Y89377711D01*
X-53535899Y89851365D01*
X-53103517Y90279900D01*
X-52724858Y90646922D01*
X-52415777Y90936040D01*
X-52192128Y91130863D01*
X-52085644Y91207667D01*
X-52063376Y91219253D01*
X-52037622Y91230298D01*
X-52004406Y91240815D01*
X-51959750Y91250817D01*
X-51899676Y91260317D01*
X-51820209Y91269328D01*
X-51717369Y91277862D01*
X-51587180Y91285933D01*
X-51425664Y91293554D01*
X-51228844Y91300737D01*
X-50992742Y91307496D01*
X-50713381Y91313843D01*
X-50386784Y91319792D01*
X-50008973Y91325354D01*
X-49575971Y91330544D01*
X-49083801Y91335374D01*
X-48528485Y91339857D01*
X-47906045Y91344006D01*
X-47212504Y91347834D01*
X-46443886Y91351354D01*
X-45596212Y91354579D01*
X-44665505Y91357521D01*
X-43647788Y91360194D01*
X-42539083Y91362611D01*
X-41335413Y91364784D01*
X-40032800Y91366726D01*
X-38627268Y91368451D01*
X-37114838Y91369971D01*
X-35491533Y91371299D01*
X-33753377Y91372449D01*
X-31896391Y91373432D01*
X-29916598Y91374263D01*
X-27810022Y91374953D01*
X-25572683Y91375517D01*
X-23200605Y91375966D01*
X-20689811Y91376314D01*
X-18036323Y91376573D01*
X-15236164Y91376758D01*
X-12285357Y91376879D01*
X-9179923Y91376952D01*
X-5915886Y91376987D01*
X-2489268Y91376999D01*
X0Y91377000D01*
X51773667Y91377000D01*
X52130197Y91165333D01*
G37*
%TD.AperFunction*%
%TD*%
D15*
%TO.P,H1,1,1*%
%TO.N,GND*%
X-51650000Y88250000D03*
X-51166726Y89416726D03*
X-51166726Y87083274D03*
X-50000000Y89900000D03*
D16*
X-50000000Y88250000D03*
D15*
X-50000000Y86600000D03*
X-48833274Y89416726D03*
X-48833274Y87083274D03*
X-48350000Y88250000D03*
%TD*%
%TO.P,H2,1,1*%
%TO.N,GND*%
X50000000Y86600000D03*
X48833274Y87083274D03*
X51166726Y87083274D03*
X48350000Y88250000D03*
D16*
X50000000Y88250000D03*
D15*
X51650000Y88250000D03*
X48833274Y89416726D03*
X51166726Y89416726D03*
X50000000Y89900000D03*
%TD*%
%TO.P,H5,1,1*%
%TO.N,GND*%
X-54650000Y-3000000D03*
X-54166726Y-1833274D03*
X-54166726Y-4166726D03*
X-53000000Y-1350000D03*
D16*
X-53000000Y-3000000D03*
D15*
X-53000000Y-4650000D03*
X-51833274Y-1833274D03*
X-51833274Y-4166726D03*
X-51350000Y-3000000D03*
%TD*%
%TO.P,H4,1,1*%
%TO.N,GND*%
X34350000Y-30000000D03*
X34833274Y-28833274D03*
X34833274Y-31166726D03*
X36000000Y-28350000D03*
D16*
X36000000Y-30000000D03*
D15*
X36000000Y-31650000D03*
X37166726Y-28833274D03*
X37166726Y-31166726D03*
X37650000Y-30000000D03*
%TD*%
%TO.P,H6,1,1*%
%TO.N,GND*%
X51350000Y-3000000D03*
X51833274Y-1833274D03*
X51833274Y-4166726D03*
X53000000Y-1350000D03*
D16*
X53000000Y-3000000D03*
D15*
X53000000Y-4650000D03*
X54166726Y-1833274D03*
X54166726Y-4166726D03*
X54650000Y-3000000D03*
%TD*%
%TO.P,H3,1,1*%
%TO.N,GND*%
X-37650000Y-30000000D03*
X-37166726Y-28833274D03*
X-37166726Y-31166726D03*
X-36000000Y-28350000D03*
D16*
X-36000000Y-30000000D03*
D15*
X-36000000Y-31650000D03*
X-34833274Y-28833274D03*
X-34833274Y-31166726D03*
X-34350000Y-30000000D03*
%TD*%
M02*
