%TF.GenerationSoftware,KiCad,Pcbnew,8.0.1*%
%TF.CreationDate,2024-04-02T00:15:24+02:00*%
%TF.ProjectId,frontpanel,66726f6e-7470-4616-9e65-6c2e6b696361,rev?*%
%TF.SameCoordinates,Original*%
%TF.FileFunction,Soldermask,Bot*%
%TF.FilePolarity,Negative*%
%FSLAX46Y46*%
G04 Gerber Fmt 4.6, Leading zero omitted, Abs format (unit mm)*
G04 Created by KiCad (PCBNEW 8.0.1) date 2024-04-02 00:15:24*
%MOMM*%
%LPD*%
G01*
G04 APERTURE LIST*
%ADD10C,0.700000*%
%ADD11C,4.400000*%
G04 APERTURE END LIST*
D10*
%TO.C,H1*%
X-51650000Y88250000D03*
X-51166726Y89416726D03*
X-51166726Y87083274D03*
X-50000000Y89900000D03*
D11*
X-50000000Y88250000D03*
D10*
X-50000000Y86600000D03*
X-48833274Y89416726D03*
X-48833274Y87083274D03*
X-48350000Y88250000D03*
%TD*%
%TO.C,H2*%
X50000000Y86600000D03*
X48833274Y87083274D03*
X51166726Y87083274D03*
X48350000Y88250000D03*
D11*
X50000000Y88250000D03*
D10*
X51650000Y88250000D03*
X48833274Y89416726D03*
X51166726Y89416726D03*
X50000000Y89900000D03*
%TD*%
%TO.C,H5*%
X-54650000Y-3000000D03*
X-54166726Y-1833274D03*
X-54166726Y-4166726D03*
X-53000000Y-1350000D03*
D11*
X-53000000Y-3000000D03*
D10*
X-53000000Y-4650000D03*
X-51833274Y-1833274D03*
X-51833274Y-4166726D03*
X-51350000Y-3000000D03*
%TD*%
%TO.C,H4*%
X34350000Y-30000000D03*
X34833274Y-28833274D03*
X34833274Y-31166726D03*
X36000000Y-28350000D03*
D11*
X36000000Y-30000000D03*
D10*
X36000000Y-31650000D03*
X37166726Y-28833274D03*
X37166726Y-31166726D03*
X37650000Y-30000000D03*
%TD*%
%TO.C,H6*%
X51350000Y-3000000D03*
X51833274Y-1833274D03*
X51833274Y-4166726D03*
X53000000Y-1350000D03*
D11*
X53000000Y-3000000D03*
D10*
X53000000Y-4650000D03*
X54166726Y-1833274D03*
X54166726Y-4166726D03*
X54650000Y-3000000D03*
%TD*%
%TO.C,H3*%
X-37650000Y-30000000D03*
X-37166726Y-28833274D03*
X-37166726Y-31166726D03*
X-36000000Y-28350000D03*
D11*
X-36000000Y-30000000D03*
D10*
X-36000000Y-31650000D03*
X-34833274Y-28833274D03*
X-34833274Y-31166726D03*
X-34350000Y-30000000D03*
%TD*%
M02*
