<?xml version="1.0" encoding="UTF-8" standalone="no"?>
<svg
   id="图层_1"
   data-name="图层 1"
   viewBox="0 0 50.0 50.0"
   width="50.0mm"
   height="50.0mm"
   version="1.1"
   sodipodi:docname="bosch_logo.svg"
   inkscape:version="1.3.2 (091e20ef0f, 2023-11-25, custom)"
   xmlns:inkscape="http://www.inkscape.org/namespaces/inkscape"
   xmlns:sodipodi="http://sodipodi.sourceforge.net/DTD/sodipodi-0.dtd"
   xmlns="http://www.w3.org/2000/svg"
   xmlns:svg="http://www.w3.org/2000/svg">
  <sodipodi:namedview
     id="namedview13"
     pagecolor="#ffffff"
     bordercolor="#000000"
     borderopacity="0.25"
     inkscape:showpageshadow="2"
     inkscape:pageopacity="0.0"
     inkscape:pagecheckerboard="0"
     inkscape:deskcolor="#d1d1d1"
     inkscape:zoom="2.8574182"
     inkscape:cx="118.63857"
     inkscape:cy="63.693862"
     inkscape:window-width="1920"
     inkscape:window-height="1008"
     inkscape:window-x="0"
     inkscape:window-y="0"
     inkscape:window-maximized="1"
     inkscape:current-layer="g14"
     inkscape:document-units="mm" />
  <defs
     id="defs1">
    <style
       id="style1">.cls-1{fill:#e7352c;}.cls-2{fill:#333;}</style>
  </defs>
  <title
     id="title1">导航栏-菜单-logo</title>
  <g
     inkscape:label="[fixed] BG"
     inkscape:groupmode="layer"
     sodipodi:insensitive="true"
     id="g13">
    <rect
       x="0"
       y="0"
       width="50.0"
       height="50.0"
       style="fill:#FFFFFF;fill-opacity:1;stroke:none"
       id="rect13" />
  </g>
  <g
     inkscape:label="F.SilkS"
     inkscape:groupmode="layer"
     id="g14">
    <g
       id="g7"
       style="fill:#000000"
       transform="matrix(0.06928406,0,0,0.06928406,10.000001,21.648037)">
      <g
         id="g4"
         style="fill:#000000">
        <path
           d="m 185.2,46.88 a 13.77,13.77 0 0 0 8.8,-13 c 0,-11.7 -8.3,-17.5 -19.7,-17.5 H 144.4 V 80 h 32.5 c 10,0 19.8,-7 19.8,-17.7 0,-12.72 -11.5,-15.3 -11.5,-15.42 z M 160,29.58 h 11.6 a 5.66,5.66 0 0 1 6,5.31 q 0,0.34 0,0.69 a 5.93,5.93 0 0 1 -6,5.81 h -11.7 z m 11.7,37.1 h -11.6 v -12.5 h 11.3 c 5.7,0 8.4,2.5 8.4,6.2 0,4.62 -3.4,6.3 -8.1,6.3 z"
           style="fill:#000000;fill-rule:evenodd"
           id="path1-6" />
        <path
           d="m 231.1,14.78 c -18.4,0 -29.2,14.7 -29.2,33.3 0,18.6 10.8,33.3 29.2,33.3 18.4,0 29.2,-14.6 29.2,-33.3 0,-18.7 -10.7,-33.3 -29.2,-33.3 z m 0,51.4 c -9,0 -13.5,-8.1 -13.5,-18.1 0,-10 4.5,-18 13.5,-18 9,0 13.6,8.1 13.6,18 0,10.1 -4.6,18.1 -13.6,18.1 z"
           style="fill:#000000;fill-rule:evenodd"
           id="path2-7" />
        <path
           d="m 294.2,41.38 -2.2,-0.5 c -5.4,-1.1 -9.7,-2.5 -9.7,-6.4 0,-4.2 4.1,-5.9 7.7,-5.9 a 17.86,17.86 0 0 1 13,5.9 l 9.9,-9.8 c -4.5,-5.1 -11.8,-10 -23.2,-10 -13.4,0 -23.6,7.5 -23.6,20 0,11.4 8.2,17 18.2,19.1 l 2.2,0.5 c 8.3,1.7 11.4,3 11.4,7 0,3.8 -3.4,6.3 -8.6,6.3 -6.2,0 -11.8,-2.7 -16.1,-8.2 l -10.1,10 c 5.6,6.7 12.7,11.9 26.4,11.9 11.9,0 24.6,-6.8 24.6,-20.7 0.2,-14.5 -10.8,-17.3 -19.9,-19.2 z"
           style="fill:#000000;fill-rule:evenodd"
           id="path3-5" />
        <path
           d="m 349.7,66.18 c -7,0 -14.3,-5.8 -14.3,-18.5 0,-11.3 6.8,-17.6 13.9,-17.6 5.6,0 8.9,2.6 11.5,7.1 l 12.8,-8.5 c -6.4,-9.7 -14,-13.8 -24.5,-13.8 -19.2,0 -29.6,14.9 -29.6,32.9 0,18.9 11.5,33.7 29.4,33.7 12.6,0 18.6,-4.4 25.1,-13.8 L 361.1,59 c -2.6,4.18 -5.4,7.18 -11.4,7.18 z"
           style="fill:#000000;fill-rule:evenodd"
           id="path4-3" />
        <polygon
           points="416.3,39.78 397,39.78 397,16.38 380.3,16.38 380.3,79.98 397,79.98 397,54.88 416.3,54.88 416.3,79.98 433,79.98 433,16.38 416.3,16.38 "
           style="fill:#000000;fill-rule:evenodd"
           id="polygon4" />
      </g>
      <g
         id="g6"
         style="fill:#000000">
        <path
           d="M 48.2,0.18 A 48.2,48.2 0 1 0 96.4,48.38 48.2,48.2 0 0 0 48.2,0.18 Z m 0,91.9 a 43.7,43.7 0 1 1 43.7,-43.7 43.71,43.71 0 0 1 -43.7,43.7 z"
           id="path5-5"
           style="fill:#000000" />
        <path
           d="m 68.1,18.28 h -3.3 v 16.5 H 31.7 v -16.5 h -3.4 a 36.06,36.06 0 0 0 0,60.2 h 3.4 V 62 h 33.1 v 16.5 h 3.3 a 36.05,36.05 0 0 0 0,-60.2 z M 27.1,72 A 31.59,31.59 0 0 1 24.47,27.4 32.51,32.51 0 0 1 27.1,24.78 Z M 64.8,57.4 H 31.7 V 39.28 h 33.1 z m 4.5,14.5 v -10 0 -27.12 0 -10 a 31.65,31.65 0 0 1 2.39,44.71 33.68,33.68 0 0 1 -2.39,2.39 z"
           id="path6-6"
           style="fill:#000000" />
      </g>
    </g>
  </g>
</svg>
