<?xml version="1.0" encoding="UTF-8" standalone="no"?>
<svg
   id="图层_1"
   data-name="图层 1"
   viewBox="0 0 50.0 50.0"
   width="50.0mm"
   height="50.0mm"
   version="1.1"
   sodipodi:docname="Espressif_Logo.svg"
   inkscape:version="1.3.2 (091e20ef0f, 2023-11-25, custom)"
   xmlns:inkscape="http://www.inkscape.org/namespaces/inkscape"
   xmlns:sodipodi="http://sodipodi.sourceforge.net/DTD/sodipodi-0.dtd"
   xmlns="http://www.w3.org/2000/svg"
   xmlns:svg="http://www.w3.org/2000/svg">
  <sodipodi:namedview
     id="namedview13"
     pagecolor="#ffffff"
     bordercolor="#000000"
     borderopacity="0.25"
     inkscape:showpageshadow="2"
     inkscape:pageopacity="0.0"
     inkscape:pagecheckerboard="0"
     inkscape:deskcolor="#d1d1d1"
     inkscape:zoom="1.0130686"
     inkscape:cx="143.1295"
     inkscape:cy="48.367899"
     inkscape:window-width="1920"
     inkscape:window-height="1008"
     inkscape:window-x="0"
     inkscape:window-y="0"
     inkscape:window-maximized="1"
     inkscape:current-layer="g14"
     inkscape:document-units="mm" />
  <defs
     id="defs1">
    <style
       id="style1">.cls-1{fill:#e7352c;}.cls-2{fill:#333;}</style>
  </defs>
  <title
     id="title1">导航栏-菜单-logo</title>
  <g
     inkscape:label="[fixed] BG"
     inkscape:groupmode="layer"
     sodipodi:insensitive="true"
     id="g13">
    <rect
       x="0"
       y="0"
       width="50.0"
       height="50.0"
       style="fill:#FFFFFF;fill-opacity:1;stroke:none"
       id="rect13" />
  </g>
  <g
     inkscape:label="F.SilkS"
     inkscape:groupmode="layer"
     id="g14">
    <g
       id="g15"
       style="fill:#000000"
       transform="matrix(0.0310646,0,0,0.0310646,9.9999978,26.479088)">
      <path
         class="cls-1"
         d="M 57.279647,-5.0537703 A 12.23279,12.23279 0 1 1 45.046857,-17.28656 12.23279,12.23279 0 0 1 57.279647,-5.0537703"
         id="path1"
         style="fill:#000000;stroke-width:8.2654" />
      <path
         class="cls-1"
         d="M 163.98594,-17.782484 A 126.79122,126.79122 0 0 0 56.535761,-125.23267 80.422329,80.422329 0 0 0 38.765154,-112.4213 v 11.81952 A 100.67256,100.67256 0 0 1 139.35506,-0.09453113 h 11.81952 A 84.720337,84.720337 0 0 0 163.98594,-17.782484"
         id="path2"
         style="fill:#000000;stroke-width:8.2654" />
      <path
         class="cls-1"
         d="M 173.57381,-54.894125 A 79.513135,79.513135 0 0 0 93.647401,-134.40726 c -2.810235,0 -5.537817,0 -8.265398,0.41327 l -1.818388,5.28986 a 136.79235,136.79235 0 0 1 83.811145,83.728484 l 5.28985,-1.901042 c 0,-2.644927 0.49593,-5.289855 0.49593,-8.265398"
         id="path3"
         style="fill:#000000;stroke-width:8.2654" />
      <path
         class="cls-1"
         d="M 94.556595,39.166113 A 94.556161,94.556161 0 0 1 4.3415744e-4,-54.976778 93.894929,93.894929 0 0 1 27.68952,-121.84385 l 5.372509,5.04189 a 87.28261,87.28261 0 0 0 0,123.9809797 87.28261,87.28261 0 0 0 123.980981,0 l 5.04189,5.0418933 a 93.812275,93.812275 0 0 1 -67.528305,26.9452"
         id="path4"
         style="fill:#000000;stroke-width:8.2654" />
      <path
         class="cls-1"
         d="m 93.482093,5.360632 a 54.964901,54.964901 0 0 0 -21.57269,-48.848506 53.807746,53.807746 0 0 0 -27.689086,-11.240943 5.0418932,5.0418932 0 0 1 -4.380661,-5.289855 4.8765852,4.8765852 0 0 1 5.372509,-4.463315 64.88338,64.88338 0 0 1 57.857795,70.9171208 56.617981,56.617981 0 0 1 -2.14901,11.1582882 l 14.3818,4.050045 A 79.843751,79.843751 0 0 0 127.70084,16.93219 87.943842,87.943842 0 0 0 129.27127,-0.01187714 90.919386,90.919386 0 0 0 52.1551,-89.774107 a 40.00453,40.00453 0 0 0 -14.464448,0 31.491169,31.491169 0 0 0 -15.621603,9.670516 30.912591,30.912591 0 0 0 13.803216,49.592393 71.578353,71.578353 0 0 0 7.769474,1.405117 v 0 A 29.011549,29.011549 0 0 1 67.776703,-0.50780106 28.680933,28.680933 0 0 1 63.14808,15.113802 l 9.918479,6.364357 a 73.644702,73.644702 0 0 0 14.877717,2.47962 54.386323,54.386323 0 0 0 5.455163,-19.0104169"
         id="path5"
         style="fill:#000000;stroke-width:8.2654" />
      <path
         id="rect5"
         class="cls-2"
         style="fill:#000000;stroke-width:8.2654"
         d="M 861.08967,-108.20595 H 879.3562 V 13.295415 h -18.26653 z" />
      <path
         class="cls-2"
         d="m 565.27105,-37.454133 a 20.746151,20.746151 0 0 0 12.06748,-19.919611 v -29.01155 a 21.820653,21.820653 0 0 0 -6.44701,-16.117526 21.490037,21.490037 0 0 0 -14.71241,-5.78578 H 503.44587 V 13.460723 h 18.34918 v -48.683199 h 18.76246 a 16.530797,16.530797 0 0 1 16.5308,14.381794 l 7.19089,34.466713 h 20.00227 l -7.76948,-32.317709 a 24.796196,24.796196 0 0 0 -11.24094,-18.349185 m -43.476,-54.055708 v 0 h 31.40852 a 6.199049,6.199049 0 0 1 5.86843,6.942935 v 24.796196 a 6.199049,6.199049 0 0 1 -5.86843,6.942935 h -31.40852 z"
         id="path6"
         style="fill:#000000;stroke-width:8.2654" />
      <path
         class="cls-2"
         d="m 240.44088,-102.42017 a 22.068615,22.068615 0 0 0 -6.44701,16.5308 v 77.6947481 a 21.820653,21.820653 0 0 0 6.44701,16.1175275 21.655345,21.655345 0 0 0 14.71241,5.7857794 h 49.59239 V -3.6486526 h -46.28623 a 6.281703,6.281703 0 0 1 -5.95109,-6.9429344 v -31.243208 h 45.04643 V -58.861516 H 252.2604 v -25.29212 a 6.281703,6.281703 0 0 1 5.95109,-6.942935 h 46.28623 v -17.109379 h -49.59239 a 21.985961,21.985961 0 0 0 -14.71241,5.78578"
         id="path7"
         style="fill:#000000;stroke-width:8.2654" />
      <path
         class="cls-2"
         d="m 919.44339,-91.096571 h 46.28623 v -17.109379 h -49.59239 a 21.985961,21.985961 0 0 0 -14.71241,5.78578 22.39923,22.39923 0 0 0 -6.44701,16.5308 v 99.184785 h 18.26653 v -55.13021 h 45.54234 v -17.026721 h -45.625 v -25.29212 a 6.281703,6.281703 0 0 1 5.95109,-6.942935"
         id="path8"
         style="fill:#000000;stroke-width:8.2654" />
      <path
         class="cls-2"
         d="m 373.59646,-58.861516 h -28.35032 a 6.529665,6.529665 0 0 1 -6.36436,-6.529665 v -18.762455 a 6.199049,6.199049 0 0 1 5.86843,-6.942935 h 45.37704 v -17.109379 h -48.51789 a 21.985961,21.985961 0 0 0 -14.71241,5.78578 22.068615,22.068615 0 0 0 -6.44701,16.5308 v 24.87885 a 21.407383,21.407383 0 0 0 21.32473,21.407383 h 28.43297 a 6.529665,6.529665 0 0 1 6.52967,6.529665 v 22.647192 a 6.281703,6.281703 0 0 1 -5.95109,6.9429354 H 320.44994 V 13.626031 h 53.39448 A 21.076767,21.076767 0 0 0 395.00384,-8.3599298 V -37.288825 a 21.324729,21.324729 0 0 0 -21.40738,-21.572691"
         id="path9"
         style="fill:#000000;stroke-width:8.2654" />
      <path
         class="cls-2"
         d="m 600.48165,-102.42017 a 22.068615,22.068615 0 0 0 -6.44701,16.5308 v 77.6947481 a 21.820653,21.820653 0 0 0 6.44701,16.1175275 21.655345,21.655345 0 0 0 14.71241,5.7857794 h 49.59239 V -3.6486526 h -46.28623 a 6.199049,6.199049 0 0 1 -5.86843,-6.9429344 v -31.243208 h 45.54234 v -17.026721 h -45.87296 v -25.29212 a 6.199049,6.199049 0 0 1 5.86843,-6.942935 h 46.28624 v -17.109379 h -49.5924 a 21.985961,21.985961 0 0 0 -14.71241,5.78578"
         id="path10"
         style="fill:#000000;stroke-width:8.2654" />
      <path
         class="cls-2"
         d="m 733.63722,-58.861516 h -28.35031 a 6.529665,6.529665 0 0 1 -6.52967,-6.529665 v -18.762455 a 6.199049,6.199049 0 0 1 5.86843,-6.942935 h 45.54235 v -17.109379 h -48.60054 a 21.820653,21.820653 0 0 0 -14.62976,5.78578 22.068615,22.068615 0 0 0 -6.44701,16.5308 v 24.87885 a 21.324729,21.324729 0 0 0 21.32473,21.407383 h 28.35032 a 6.529665,6.529665 0 0 1 6.52966,6.529665 v 22.647192 a 6.199049,6.199049 0 0 1 -5.86843,6.9429354 H 680.49071 V 13.626031 h 53.39447 a 21.490037,21.490037 0 0 0 14.62976,-5.8684334 21.737999,21.737999 0 0 0 6.52967,-16.5307974 V -37.702095 a 21.324729,21.324729 0 0 0 -21.40739,-21.324729"
         id="path11"
         style="fill:#000000;stroke-width:8.2654" />
      <path
         class="cls-2"
         d="m 823.23414,-58.861516 h -28.35031 a 6.529665,6.529665 0 0 1 -6.52967,-6.529665 v -18.762455 a 6.199049,6.199049 0 0 1 5.86844,-6.942935 h 45.54234 v -17.109379 h -48.51789 a 21.985961,21.985961 0 0 0 -14.71241,5.78578 22.068615,22.068615 0 0 0 -6.44701,16.5308 v 24.87885 a 21.407383,21.407383 0 0 0 21.32473,21.407383 h 28.43297 a 6.529665,6.529665 0 0 1 6.52967,6.529665 v 22.647192 a 6.281703,6.281703 0 0 1 -5.95109,6.9429354 H 770.08763 V 13.626031 h 53.39448 A 21.076767,21.076767 0 0 0 844.64153,-8.3599298 V -37.288825 a 21.324729,21.324729 0 0 0 -21.40739,-21.572691"
         id="path12"
         style="fill:#000000;stroke-width:8.2654" />
      <path
         class="cls-2"
         d="M 466.83015,-108.2886 H 411.53464 V 13.460723 h 18.26653 v -47.278081 h 37.02898 a 21.242075,21.242075 0 0 0 14.62976,-5.785779 21.737999,21.737999 0 0 0 6.52966,-16.530797 v -30.25136 a 21.903307,21.903307 0 0 0 -6.52966,-16.117526 21.242075,21.242075 0 0 0 -14.62976,-5.78578 m 2.81024,50.501586 a 6.199049,6.199049 0 0 1 -5.86843,6.942935 h -33.97079 v -40.4178 h 33.97079 a 6.199049,6.199049 0 0 1 5.86843,6.942935 z"
         id="path13"
         style="fill:#000000;stroke-width:8.2654" />
    </g>
  </g>
</svg>
