<?xml version="1.0" encoding="UTF-8" standalone="no"?>
<!-- Created with Inkscape (http://www.inkscape.org/) -->

<svg
   width="200.0mm"
   height="200.0mm"
   viewBox="0 0 200.0 200.0"
   version="1.1"
   id="svg1"
   inkscape:version="1.3.2 (091e20ef0f, 2023-11-25, custom)"
   sodipodi:docname="proto1_kicad.svg"
   xmlns:inkscape="http://www.inkscape.org/namespaces/inkscape"
   xmlns:sodipodi="http://sodipodi.sourceforge.net/DTD/sodipodi-0.dtd"
   xmlns="http://www.w3.org/2000/svg"
   xmlns:svg="http://www.w3.org/2000/svg">
  <sodipodi:namedview
     id="namedview1"
     pagecolor="#ffffff"
     bordercolor="#000000"
     borderopacity="0.25"
     inkscape:showpageshadow="2"
     inkscape:pageopacity="0.0"
     inkscape:pagecheckerboard="0"
     inkscape:deskcolor="#d1d1d1"
     inkscape:document-units="mm"
     inkscape:zoom="2.9329456"
     inkscape:cx="348.45515"
     inkscape:cy="210.02776"
     inkscape:window-width="2560"
     inkscape:window-height="1368"
     inkscape:window-x="1920"
     inkscape:window-y="0"
     inkscape:window-maximized="1"
     inkscape:current-layer="g9"
     showgrid="false" />
  <defs
     id="defs1" />
  <g
     inkscape:label="[fixed] BG"
     inkscape:groupmode="layer"
     sodipodi:insensitive="true"
     id="g1">
    <rect
       x="0"
       y="0"
       width="200.0"
       height="200.0"
       style="fill:#FFFFFF;fill-opacity:1;stroke:none"
       id="rect1" />
  </g>
  <g
     inkscape:groupmode="layer"
     id="layer2"
     inkscape:label="PCB"
     style="display:none"
     sodipodi:insensitive="true">
    <rect
       style="display:inline;fill:#43ff00;fill-opacity:1;stroke:none;stroke-width:0.228357;stroke-opacity:1"
       id="rect12"
       width="115"
       height="125.6"
       x="42.5"
       y="29.994961"
       inkscape:label="Circuit board size" />
  </g>
  <g
     inkscape:groupmode="layer"
     id="layer1"
     inkscape:label="Screen"
     style="display:inline">
    <rect
       style="display:inline;fill:#ff0000;fill-opacity:0.5;stroke:none;stroke-width:0.1;stroke-dasharray:none"
       id="rect13"
       width="97.800003"
       height="57.16"
       x="54.299999"
       y="36.036098"
       inkscape:label="screen_size" />
    <rect
       style="display:inline;fill:#00ffff;fill-opacity:0.5;stroke:none;stroke-width:0.1;stroke-dasharray:none"
       id="rect13-1"
       width="2.5"
       height="57.16"
       x="54.299999"
       y="36.036098"
       inkscape:label="screen_hidden_part_left" />
    <rect
       style="display:inline;fill:#00ffff;fill-opacity:0.5;stroke:none;stroke-width:0.1;stroke-dasharray:none"
       id="rect13-1-3"
       width="8.8999996"
       height="57.16"
       x="143.2"
       y="36.036098"
       inkscape:label="screen_hidden_part_right" />
    <rect
       style="display:inline;fill:#ffff00;fill-opacity:0.5;stroke:none;stroke-width:0.1;stroke-dasharray:none"
       id="rect13-3"
       width="86.400002"
       height="51.84"
       x="56.799999"
       y="38.696098"
       inkscape:label="screen_aa" />
  </g>
  <g
     inkscape:label="Edge.Cuts"
     inkscape:groupmode="layer"
     id="g2"
     style="display:inline">
    <path
       style="display:inline;fill:none;fill-opacity:1;fill-rule:nonzero;stroke:#ff0000;stroke-width:0.1;stroke-dasharray:none"
       d="m 153.93634,146.152 -0.68007,0.73845 -0.68007,0.73846 -0.68006,0.73845 -0.68007,0.73845 -0.68007,0.73845 -0.68007,0.73846 -0.68006,0.73845 -0.68007,0.73845 c -0.0369,0.04 -0.0657,0.0831 -0.0868,0.1279 -0.0212,0.0448 -0.0348,0.0913 -0.0416,0.13811 -0.007,0.0468 -0.006,0.0939 7e-5,0.13992 0.007,0.046 0.0194,0.0909 0.038,0.13333 0.0186,0.0424 0.0429,0.0823 0.0723,0.11833 0.0294,0.036 0.0639,0.0681 0.10286,0.0949 0.039,0.0268 0.0824,0.0483 0.12978,0.0631 0.0473,0.0148 0.0985,0.0229 0.153,0.0229 l 0.39705,1.2e-4 0.39705,1.3e-4 0.39705,1.2e-4 0.39705,1.3e-4 0.39705,1.3e-4 0.39705,1.2e-4 0.39706,1.3e-4 0.39705,1.2e-4 c 0.0281,0 0.0561,-0.001 0.0839,-0.004 0.0278,-0.003 0.0554,-0.006 0.0827,-0.0116 0.0273,-0.005 0.0543,-0.0115 0.0809,-0.0191 0.0266,-0.008 0.0529,-0.0164 0.0787,-0.0264 0.0258,-0.01 0.0511,-0.0212 0.0759,-0.0335 0.0248,-0.0123 0.049,-0.0258 0.0726,-0.0405 0.0236,-0.0146 0.0466,-0.0304 0.0689,-0.0472 0.0223,-0.0168 0.0438,-0.0348 0.0646,-0.0538 l 0.23292,-0.21317 0.23292,-0.21316 0.23292,-0.21317 0.23293,-0.21316 0.23292,-0.21317 0.23292,-0.21317 0.23292,-0.21316 0.23292,-0.21317 c 0.0233,-0.0213 0.0453,-0.0437 0.066,-0.0671 0.0207,-0.0234 0.0402,-0.0478 0.0582,-0.073 0.0181,-0.0252 0.0348,-0.0514 0.0501,-0.0782 0.0153,-0.0269 0.0292,-0.0545 0.0417,-0.0828 0.0125,-0.0283 0.0235,-0.0572 0.0329,-0.0866 0.01,-0.0294 0.0175,-0.0594 0.0239,-0.0898 0.006,-0.0304 0.0113,-0.0612 0.0146,-0.0923 0.003,-0.0311 0.005,-0.0625 0.005,-0.0941 l 5e-5,-0.47546 4e-5,-0.47545 4e-5,-0.47546 5e-5,-0.47545 5e-5,-0.47546 4e-5,-0.47546 4e-5,-0.47545 5e-5,-0.47546 c 0,-0.0569 -0.009,-0.11016 -0.0246,-0.15906 -0.0159,-0.0489 -0.0389,-0.0935 -0.0676,-0.13312 -0.0286,-0.0397 -0.0628,-0.0744 -0.10101,-0.10349 -0.0382,-0.0291 -0.0804,-0.0527 -0.12497,-0.0701 -0.0446,-0.0174 -0.0916,-0.0286 -0.13943,-0.0331 -0.0478,-0.004 -0.0965,-0.002 -0.14442,0.008 -0.0479,0.01 -0.0951,0.027 -0.13991,0.0522 -0.0448,0.0252 -0.0873,0.0585 -0.12591,0.10035"
       id="path13-5" />
    <path
       style="display:inline;fill:none;fill-opacity:1;fill-rule:nonzero;stroke:#ff0000;stroke-width:0.1;stroke-dasharray:none"
       d="m 45.195842,146.49008 4.5e-5,0.47546 4.5e-5,0.47545 4.5e-5,0.47546 4.5e-5,0.47546 4.5e-5,0.47545 4.5e-5,0.47546 4.5e-5,0.47545 4.5e-5,0.47546 c 0,0.0316 0.0017,0.063 0.0049,0.0941 0.0033,0.0311 0.0081,0.0619 0.01458,0.0923 0.0064,0.0304 0.01442,0.0604 0.02392,0.0898 0.0095,0.0294 0.0205,0.0584 0.03296,0.0866 0.01246,0.0283 0.02637,0.0559 0.04169,0.0828 0.01532,0.0269 0.03204,0.053 0.05011,0.0783 0.01807,0.0252 0.0375,0.0496 0.05823,0.073 0.02073,0.0234 0.04276,0.0458 0.06605,0.0671 l 0.232921,0.21316 0.232921,0.21317 0.232922,0.21317 0.232921,0.21316 0.232921,0.21316 0.232921,0.21317 0.232922,0.21317 0.232921,0.21316 c 0.02077,0.019 0.04233,0.037 0.06461,0.0538 0.02227,0.0168 0.04526,0.0326 0.06887,0.0472 0.02361,0.0146 0.04784,0.0281 0.07262,0.0405 0.02478,0.0123 0.05009,0.0235 0.07587,0.0335 0.02578,0.01 0.05201,0.0188 0.07861,0.0264 0.02661,0.008 0.05358,0.014 0.08085,0.0191 0.02727,0.005 0.05483,0.009 0.08259,0.0116 0.02776,0.003 0.05573,0.004 0.08382,0.004 l 0.397095,-1.3e-4 0.397095,-1.2e-4 0.397095,-1.2e-4 0.397095,-1.3e-4 0.397095,-1.3e-4 0.397095,-1.2e-4 0.397095,-1.3e-4 0.397095,-1.2e-4 c 0.05446,0 0.105657,-0.008 0.152979,-0.0229 0.04732,-0.0148 0.09077,-0.0363 0.129734,-0.0631 0.03896,-0.0268 0.07344,-0.0589 0.102821,-0.0949 0.02938,-0.036 0.05366,-0.0759 0.07224,-0.11833 0.01858,-0.0424 0.03145,-0.0873 0.03799,-0.13333 0.0066,-0.046 0.0068,-0.0931 7.9e-5,-0.13992 -0.0067,-0.0468 -0.02033,-0.0933 -0.0415,-0.13811 -0.02117,-0.0448 -0.04989,-0.0879 -0.08675,-0.1279 l -0.680068,-0.73867 -0.680067,-0.73846 -0.680066,-0.73845 -0.680066,-0.73845 -0.680066,-0.73845 -0.680066,-0.73845 -0.680067,-0.73846 -0.680066,-0.73845 c -0.03858,-0.0419 -0.08108,-0.0751 -0.125915,-0.10035 -0.04483,-0.0252 -0.09199,-0.0424 -0.139909,-0.0522 -0.04792,-0.01 -0.09658,-0.0121 -0.144416,-0.008 -0.04783,0.004 -0.09484,0.0157 -0.139435,0.0331 -0.04459,0.0174 -0.08678,0.041 -0.124965,0.0701 -0.03819,0.0291 -0.07239,0.0638 -0.101008,0.10349 -0.02862,0.0396 -0.05167,0.0842 -0.06756,0.13312 -0.01589,0.0489 -0.02463,0.10213 -0.02463,0.15906"
       id="path12" />
    <path
       style="display:inline;fill:none;fill-opacity:1;fill-rule:nonzero;stroke:#ff0000;stroke-width:0.1;stroke-dasharray:none"
       d="m 42.55007,131.74499 v -4.29902 -4.29905 c 0,-0.0524 0.003,-0.10459 0.008,-0.15631 0.005,-0.0517 0.0126,-0.10301 0.0226,-0.15369 0.01,-0.0507 0.0224,-0.10075 0.0372,-0.15005 0.0148,-0.0493 0.032,-0.0978 0.0514,-0.14544 0.0195,-0.0476 0.0412,-0.0942 0.0652,-0.13979 0.024,-0.0455 0.0502,-0.09 0.0786,-0.13315 0.0284,-0.0432 0.0589,-0.0851 0.0915,-0.12549 0.0326,-0.0405 0.0673,-0.0795 0.10406,-0.11685 l 0.42444,-0.4325 0.42443,-0.43251 0.42444,-0.4325 0.42443,-0.43251 0.42444,-0.4325 0.42443,-0.43251 0.42444,-0.4325 0.42443,-0.43251 c 0.0367,-0.0374 0.0714,-0.0764 0.10407,-0.11686 0.0326,-0.0405 0.0632,-0.0824 0.0915,-0.12553 0.0284,-0.0432 0.0546,-0.0876 0.0786,-0.13317 0.024,-0.0456 0.0457,-0.0922 0.0652,-0.13984 0.0195,-0.0476 0.0366,-0.0961 0.0514,-0.14544 0.0148,-0.0493 0.0272,-0.0994 0.0372,-0.15006 0.01,-0.0507 0.0176,-0.10194 0.0226,-0.15364 0.005,-0.0517 0.008,-0.10383 0.008,-0.15622 v -2.72794 -2.72795 -2.72795 l -3.7e-4,-2.72794 -3.7e-4,-2.72795 v -2.72794 -2.727945 c 0,-0.05362 -0.003,-0.106962 -0.008,-0.159841 -0.005,-0.05288 -0.0132,-0.105298 -0.0237,-0.157076 -0.0105,-0.05178 -0.0235,-0.102916 -0.0389,-0.153233 -0.0155,-0.05032 -0.0334,-0.09981 -0.0537,-0.148309 -0.0203,-0.0485 -0.0431,-0.09599 -0.0681,-0.142307 -0.025,-0.04631 -0.0524,-0.09145 -0.082,-0.135225 -0.0296,-0.04378 -0.0614,-0.08619 -0.0955,-0.127064 -0.034,-0.04087 -0.0702,-0.08021 -0.10847,-0.117825 L 45.96423,96.79659 45.54482,96.384325 45.12541,95.97206 44.706,95.559795 44.2866,95.14753 43.86719,94.735265 43.44778,94.323 43.02837,93.910735 c -0.0383,-0.03757 -0.0745,-0.07687 -0.10847,-0.117724 -0.034,-0.04085 -0.0659,-0.08325 -0.0955,-0.127016 -0.0296,-0.04377 -0.057,-0.0889 -0.082,-0.135218 -0.025,-0.04632 -0.0478,-0.09382 -0.0681,-0.142328 -0.0203,-0.04851 -0.0383,-0.09802 -0.0537,-0.148348 -0.0155,-0.05033 -0.0285,-0.101483 -0.0389,-0.153275 -0.0105,-0.05179 -0.0184,-0.104224 -0.0237,-0.157113 -0.005,-0.05289 -0.008,-0.106235 -0.008,-0.159858 V 88.752641 84.735428 80.718214 52.325141 48.307927 44.290714 40.2735 36.256286 c 0,-0.05203 0.002,-0.103814 0.007,-0.155175 0.005,-0.05136 0.0125,-0.102302 0.0223,-0.152658 0.01,-0.05036 0.0222,-0.100126 0.0368,-0.149145 0.0146,-0.04902 0.0316,-0.09728 0.0507,-0.144635 0.0192,-0.04735 0.0407,-0.09378 0.0643,-0.139129 0.0237,-0.04535 0.0495,-0.08961 0.0775,-0.132626 0.028,-0.04302 0.0581,-0.08478 0.0903,-0.125129 0.0322,-0.04035 0.0664,-0.07928 0.10269,-0.116633 l 0.56017,-0.576394 0.56016,-0.576394 0.56017,-0.576393 0.56017,-0.576394 0.56016,-0.576394 0.56017,-0.576394 0.56017,-0.576393 0.56017,-0.576394 c 0.0377,-0.03876 0.0771,-0.07541 0.11807,-0.109875 0.041,-0.03446 0.0836,-0.06674 0.12751,-0.09674 0.044,-0.03001 0.0893,-0.05774 0.13586,-0.08314 0.0465,-0.02539 0.0943,-0.04844 0.14309,-0.06907 0.0488,-0.02063 0.0986,-0.03883 0.14923,-0.05453 0.0506,-0.0157 0.10213,-0.0289 0.15427,-0.03953 0.0521,-0.01062 0.10492,-0.01867 0.15818,-0.02406 0.0533,-0.0054 0.107,-0.0081 0.16102,-0.0081 h 11.60475 11.60476 11.60476 5.802375 2.901189 15.703006 2.90119 5.80238 11.60476 11.60475 11.60476 c 0.0541,0 0.10783,0.0027 0.16113,0.0081 0.0533,0.0054 0.10612,0.01344 0.15828,0.02406 0.0522,0.01063 0.10366,0.02383 0.15433,0.03953 0.0507,0.0157 0.10048,0.03391 0.14927,0.05453 0.0488,0.02063 0.0966,0.04368 0.14312,0.06907 0.0466,0.02539 0.0919,0.05313 0.13587,0.08314 0.044,0.03001 0.0865,0.06228 0.12752,0.09674 0.041,0.03446 0.0804,0.07111 0.11807,0.109875 l 0.56012,0.576394 0.56012,0.576393 0.56013,0.576394 0.56012,0.576394 0.56012,0.576394 0.56013,0.576393 0.56012,0.576394 0.56012,0.576394 c 0.0362,0.03735 0.0705,0.07628 0.10269,0.116633 0.0322,0.04035 0.0623,0.08211 0.0903,0.125129 0.028,0.04301 0.0539,0.08728 0.0775,0.132626 0.0237,0.04535 0.0451,0.09178 0.0643,0.139129 0.0192,0.04735 0.0361,0.09562 0.0507,0.144635 0.0146,0.04902 0.0269,0.09879 0.0367,0.149145 0.01,0.05036 0.0174,0.101297 0.0224,0.152658 0.005,0.05136 0.008,0.103141 0.008,0.155175 v 4.017214 4.017214 4.017213 4.017214 28.393074 4.017214 4.017213 4.017214 c 0,0.05362 -0.003,0.106969 -0.008,0.159858 -0.005,0.05289 -0.0132,0.105321 -0.0237,0.157113 -0.0105,0.05179 -0.0235,0.102944 -0.0389,0.153275 -0.0155,0.05033 -0.0334,0.09984 -0.0537,0.148348 -0.0203,0.04851 -0.043,0.09601 -0.0681,0.142328 -0.025,0.04632 -0.0524,0.09145 -0.082,0.135218 -0.0296,0.04377 -0.0614,0.08617 -0.0955,0.127016 -0.034,0.04085 -0.0702,0.08015 -0.10847,0.117724 l -0.41941,0.412265 -0.41941,0.412265 -0.41941,0.412265 -0.4194,0.412265 -0.41941,0.412265 -0.41941,0.412265 -0.41941,0.412265 -0.41941,0.412265 c -0.0382,0.03761 -0.0744,0.07695 -0.10836,0.117825 -0.034,0.04087 -0.0658,0.08329 -0.0954,0.127064 -0.0296,0.04377 -0.0569,0.08891 -0.0819,0.135225 -0.025,0.04632 -0.0477,0.09381 -0.068,0.142307 -0.0203,0.0485 -0.0382,0.09799 -0.0537,0.148309 -0.0155,0.05032 -0.0285,0.101455 -0.0389,0.153233 -0.0105,0.05178 -0.0184,0.104196 -0.0237,0.157076 -0.005,0.05288 -0.008,0.10622 -0.008,0.159841 v 2.727944 2.72794 l -4e-4,2.72794 -4.1e-4,2.72795 v 2.72794 2.72795 2.72794 c 0,0.0524 0.003,0.10452 0.008,0.15622 0.005,0.0517 0.0126,0.10297 0.0226,0.15364 0.01,0.0507 0.0224,0.10075 0.0372,0.15006 0.0148,0.0493 0.0319,0.0978 0.0514,0.14545 0.0195,0.0476 0.0412,0.0943 0.0652,0.13983 0.024,0.0456 0.0502,0.09 0.0785,0.13318 0.0283,0.0432 0.0588,0.0851 0.0914,0.12553 0.0326,0.0405 0.0673,0.0795 0.10395,0.11686 l 0.42448,0.4325 0.42448,0.43251 0.42448,0.4325 0.42448,0.43251 0.42448,0.4325 0.42448,0.43251 0.42448,0.4325 0.42448,0.43251 c 0.0367,0.0374 0.0714,0.0764 0.10405,0.11685 0.0326,0.0404 0.0631,0.0823 0.0915,0.12548 0.0284,0.0432 0.0545,0.0876 0.0785,0.13316 0.024,0.0455 0.0457,0.0922 0.0651,0.13979 0.0194,0.0476 0.0366,0.0961 0.0513,0.14542 0.0148,0.0493 0.0272,0.0994 0.0372,0.15007 0.01,0.0507 0.0175,0.10197 0.0226,0.15369 0.005,0.0517 0.008,0.10389 0.008,0.15631 v 4.29905 4.29902 l 2e-5,4.29904 5e-5,11.04788 v 4.29904 c 0,0.053 -0.003,0.10566 -0.008,0.15791 -0.005,0.0523 -0.0129,0.10408 -0.0231,0.15528 -0.0102,0.0512 -0.0229,0.10178 -0.038,0.15157 -0.0151,0.0498 -0.0326,0.0988 -0.0525,0.14683 -0.0199,0.048 -0.0421,0.0951 -0.0665,0.14102 -0.0245,0.0459 -0.0512,0.0907 -0.0801,0.13416 -0.0289,0.0435 -0.0601,0.0856 -0.0933,0.12625 -0.0333,0.0406 -0.0686,0.0798 -0.10608,0.11728 l -0.3186,0.31918 -0.31861,0.31917 -0.3186,0.31918 -0.3186,0.31918 -0.3186,0.31917 -0.31861,0.31918 -0.3186,0.31917 -0.3186,0.31918 c -0.0375,0.0376 -0.0767,0.0732 -0.11742,0.1066 -0.0407,0.0334 -0.0829,0.0647 -0.12639,0.0938 -0.0435,0.0291 -0.0883,0.056 -0.13434,0.0806 -0.046,0.0246 -0.0931,0.0469 -0.14123,0.0669 -0.0481,0.02 -0.0972,0.0376 -0.14708,0.0528 -0.0499,0.0152 -0.10058,0.028 -0.15189,0.0383 -0.0513,0.0103 -0.10327,0.0181 -0.15567,0.0233 -0.0524,0.005 -0.10525,0.008 -0.15839,0.008 h -3.51574 -3.51574 -3.51573 -3.51574 -3.51574 -3.51574 -3.51574 -3.51574 c -0.0532,0 -0.10609,-0.003 -0.15855,-0.008 -0.0525,-0.005 -0.10448,-0.0131 -0.15588,-0.0234 -0.0514,-0.0103 -0.10216,-0.0232 -0.15213,-0.0384 -0.05,-0.0153 -0.0991,-0.0329 -0.14732,-0.053 -0.0482,-0.02 -0.0954,-0.0424 -0.14145,-0.0671 -0.0461,-0.0247 -0.091,-0.0516 -0.13451,-0.0808 -0.0436,-0.0292 -0.0858,-0.0605 -0.12652,-0.094 -0.0407,-0.0335 -0.0799,-0.0691 -0.11747,-0.10675 l -0.41945,-0.42126 -0.41945,-0.42126 -0.41945,-0.42126 -0.41946,-0.42126 -0.41945,-0.42127 -0.41945,-0.42126 -0.41945,-0.42126 -0.41946,-0.42126 c -0.0375,-0.0377 -0.0767,-0.0733 -0.11735,-0.10683 -0.0407,-0.0335 -0.0829,-0.0649 -0.12643,-0.094 -0.0435,-0.0292 -0.0884,-0.0561 -0.13446,-0.0807 -0.046,-0.0247 -0.0932,-0.047 -0.1414,-0.067 -0.0482,-0.02 -0.0973,-0.0377 -0.1473,-0.0529 -0.05,-0.0152 -0.10072,-0.028 -0.15211,-0.0383 -0.0514,-0.0103 -0.10341,-0.0181 -0.15587,-0.0233 -0.0525,-0.005 -0.10538,-0.008 -0.15856,-0.008 h -0.73973 -0.73973 -0.73973 -0.73973 -0.73973 -0.73973 -0.73974 -0.73973 c -0.0534,0 -0.10661,0.003 -0.15933,0.008 -0.0527,0.005 -0.10497,0.0131 -0.15659,0.0235 -0.0516,0.0104 -0.10261,0.0233 -0.15279,0.0387 -0.0502,0.0154 -0.0995,0.0332 -0.14789,0.0534 -0.0484,0.0202 -0.0957,0.0428 -0.14193,0.0676 -0.0462,0.0249 -0.0912,0.0521 -0.13488,0.0815 -0.0437,0.0294 -0.086,0.061 -0.12674,0.0948 -0.0408,0.0338 -0.08,0.0697 -0.11755,0.10774 l -0.41548,0.42025 -0.41549,0.42024 -0.41548,0.42025 -0.41549,0.42025 -0.41548,0.42024 -0.41549,0.42025 -0.41548,0.42024 -0.41549,0.42025 c -0.0376,0.038 -0.0769,0.0739 -0.11776,0.10762 -0.0408,0.0338 -0.0832,0.0654 -0.12688,0.0948 -0.0437,0.0294 -0.0887,0.0566 -0.13495,0.0814 -0.0462,0.0249 -0.0936,0.0475 -0.14194,0.0677 -0.0484,0.0202 -0.0977,0.038 -0.14788,0.0534 -0.0502,0.0154 -0.10115,0.0283 -0.15276,0.0387 -0.0516,0.0104 -0.10386,0.0183 -0.15657,0.0236 -0.0527,0.005 -0.10587,0.008 -0.15932,0.008 h -0.77121 -0.77122 -0.77122 l -10.67029,0 H 94.2797 93.50849 92.73726 91.96604 c -0.0534,0 -0.10661,-0.003 -0.15931,-0.008 -0.0527,-0.005 -0.10495,-0.0132 -0.15656,-0.0236 -0.0516,-0.0104 -0.10259,-0.0234 -0.15275,-0.0387 -0.0502,-0.0154 -0.0995,-0.0332 -0.14785,-0.0534 -0.0484,-0.0202 -0.0957,-0.0428 -0.14191,-0.0677 -0.0462,-0.0249 -0.0912,-0.0521 -0.13488,-0.0814 -0.0437,-0.0294 -0.086,-0.061 -0.1268,-0.0948 -0.0408,-0.0337 -0.0801,-0.0696 -0.11764,-0.10762 l -0.41549,-0.42025 -0.41548,-0.42024 -0.41548,-0.42025 -0.41549,-0.42024 -0.41548,-0.42025 -0.41549,-0.42025 -0.41548,-0.42024 -0.41548,-0.42025 c -0.0376,-0.038 -0.0768,-0.0739 -0.11766,-0.10774 -0.0408,-0.0338 -0.0831,-0.0654 -0.12684,-0.0948 -0.0437,-0.0294 -0.0887,-0.0566 -0.13494,-0.0815 -0.0462,-0.0249 -0.0936,-0.0474 -0.14196,-0.0676 -0.0484,-0.0202 -0.0977,-0.038 -0.14793,-0.0534 -0.0502,-0.0154 -0.10117,-0.0283 -0.1528,-0.0387 -0.0516,-0.0104 -0.10388,-0.0183 -0.1566,-0.0235 -0.0527,-0.005 -0.10589,-0.008 -0.15933,-0.008 H 85.62576 84.88602 84.14629 83.40656 82.66683 81.9271 81.18737 80.44764 c -0.0532,0 -0.10609,0.003 -0.15854,0.008 -0.0525,0.005 -0.10446,0.013 -0.15584,0.0233 -0.0514,0.0103 -0.10212,0.0231 -0.15207,0.0383 -0.0499,0.0152 -0.0991,0.0329 -0.14725,0.0529 -0.0482,0.02 -0.0953,0.0424 -0.14139,0.067 -0.046,0.0246 -0.0909,0.0516 -0.13446,0.0807 -0.0435,0.0291 -0.0858,0.0605 -0.12648,0.094 -0.0407,0.0335 -0.0799,0.0691 -0.11744,0.10683 l -0.41946,0.42126 -0.41945,0.42126 -0.41945,0.42126 -0.41945,0.42127 -0.41946,0.42126 -0.41945,0.42126 -0.41945,0.42126 -0.41945,0.42126 c -0.0375,0.0377 -0.0767,0.0733 -0.11745,0.10675 -0.0407,0.0335 -0.0829,0.0648 -0.12649,0.094 -0.0435,0.0292 -0.0884,0.0561 -0.13448,0.0808 -0.046,0.0247 -0.0932,0.0471 -0.14141,0.0671 -0.0482,0.02 -0.0973,0.0377 -0.14729,0.053 -0.05,0.0153 -0.10074,0.0281 -0.15214,0.0384 -0.0514,0.0103 -0.10343,0.0182 -0.15592,0.0234 -0.0525,0.005 -0.10543,0.008 -0.15865,0.008 h -3.51573 -3.51574 -3.51574 -3.51574 -3.51574 -3.51574 -3.51573 -3.51574 c -0.0531,0 -0.10592,-0.003 -0.1583,-0.008 -0.0524,-0.005 -0.10431,-0.013 -0.15562,-0.0233 -0.0513,-0.0103 -0.102,-0.0231 -0.15189,-0.0383 -0.0499,-0.0152 -0.099,-0.0328 -0.14711,-0.0528 -0.0481,-0.02 -0.0953,-0.0423 -0.14127,-0.0669 -0.046,-0.0246 -0.0909,-0.0515 -0.13437,-0.0806 -0.0435,-0.0291 -0.0857,-0.0604 -0.12643,-0.0938 -0.0407,-0.0334 -0.0799,-0.069 -0.11743,-0.1066 l -0.31861,-0.31918 -0.3186,-0.31917 -0.3186,-0.31918 -0.3186,-0.31917 -0.31861,-0.31918 -0.3186,-0.31918 -0.3186,-0.31917 -0.3186,-0.31918 c -0.0374,-0.0375 -0.0727,-0.0766 -0.10598,-0.11728 -0.0332,-0.0406 -0.0643,-0.0828 -0.0933,-0.12625 -0.0289,-0.0435 -0.0556,-0.0882 -0.0801,-0.13416 -0.0245,-0.0459 -0.0467,-0.093 -0.0665,-0.14102 -0.0199,-0.048 -0.0374,-0.097 -0.0525,-0.14683 -0.0151,-0.0498 -0.0278,-0.10037 -0.038,-0.15157 -0.0102,-0.0512 -0.018,-0.10302 -0.0232,-0.15528 -0.005,-0.0522 -0.008,-0.10495 -0.008,-0.15791 v -4.29904 l 5e-5,-11.04788 z"
       id="path20"
       sodipodi:nodetypes="ccssssccccccccccccsccssssssccccccssscssscccccccccccssscccscccccccsscsccssccccccccccccsssssccccccccccssssscsscccccccccsscsscsscccccccssscscsccccccccccsssssccsccccccsssssssccccccccccsssscscsccccssssscsccccccccccsssssscscccccccsssccscsccccccccccccssscscccccccssssscscccccccccccscssscscccccccssscsscccccccccccsssssscscccccccssssscssccccccccccccssscscccccccsssssssssccccccccscscsscsccc" />
  </g>
  <g
     inkscape:label="B.Cu"
     inkscape:groupmode="layer"
     id="g3" />
  <g
     inkscape:label="B.Mask"
     inkscape:groupmode="layer"
     id="g4" />
  <g
     inkscape:label="B.SilkS"
     inkscape:groupmode="layer"
     id="g5" />
  <g
     inkscape:label="F.Cu"
     inkscape:groupmode="layer"
     id="g6" />
  <g
     inkscape:label="F.Mask"
     inkscape:groupmode="layer"
     id="g7" />
  <g
     inkscape:label="F.SilkS"
     inkscape:groupmode="layer"
     id="g8" />
  <g
     inkscape:label="Dwgs.User"
     inkscape:groupmode="layer"
     id="g9"
     style="display:inline">
    <g
       id="g11"
       transform="translate(-4.88e-4,2.449809)" />
    <g
       inkscape:label="keyboard_cutout"
       id="g9490"
       transform="matrix(0.26458463,0,0,0.26458333,100.00466,-175.00331)"
       style="display:inline;stroke:#0000ff;stroke-width:0.377952;stroke-dasharray:none;stroke-opacity:1">
      <path
         d="m -21.751181,1120.5354 a 8.125984,8.125984 0 0 0 8.125984,-8.1259 v -11.7166 a 8.125984,8.125984 0 0 0 -8.125984,-8.126 h -6.425197 a 8.125984,8.125984 0 0 0 -8.125984,8.126 v 11.7166 a 8.125984,8.125984 0 0 0 8.125984,8.1259 z"
         style="fill:none;stroke:#0000ff;stroke-width:0.377952;stroke-dasharray:none;stroke-opacity:1"
         id="path9350" />
      <path
         d="m 28.138583,1180.252 a 8.125984,8.125984 0 0 0 8.125984,-8.126 v -11.7165 a 8.125984,8.125984 0 0 0 -8.125984,-8.126 h -6.425197 a 8.125984,8.125984 0 0 0 -8.125984,8.126 v 11.7165 a 8.125984,8.125984 0 0 0 8.125984,8.126 z"
         style="fill:none;stroke:#0000ff;stroke-width:0.377952;stroke-dasharray:none;stroke-opacity:1"
         id="path9352" />
      <path
         d="m -3.231496,1122.4252 a 8.125984,8.125984 0 0 0 -8.125984,8.126 v 11.7165 a 8.125984,8.125984 0 0 0 8.125984,8.126 h 6.425197 a 8.125984,8.125984 0 0 0 8.125984,-8.126 v -11.7165 a 8.125984,8.125984 0 0 0 -8.125984,-8.126 z"
         style="fill:none;stroke:#0000ff;stroke-width:0.377952;stroke-dasharray:none;stroke-opacity:1"
         id="path9354" />
      <path
         d="m -28.176378,1122.4252 a 8.125984,8.125984 0 0 0 -8.125984,8.126 v 11.7165 a 8.125984,8.125984 0 0 0 8.125984,8.126 h 6.425197 a 8.125984,8.125984 0 0 0 8.125984,-8.126 v -11.7165 a 8.125984,8.125984 0 0 0 -8.125984,-8.126 z"
         style="fill:none;stroke:#0000ff;stroke-width:0.377952;stroke-dasharray:none;stroke-opacity:1"
         id="path9356" />
      <path
         d="m -61.247244,1142.2677 v -11.7165 a 8.125984,8.125984 0 0 1 8.125984,-8.126 h 6.425197 a 8.125984,8.125984 0 0 1 8.125984,8.126 v 11.7165 a 8.125984,8.125984 0 0 1 -8.125984,8.126 h -6.425197 a 8.125984,8.125984 0 0 1 -8.125984,-8.126 z"
         style="fill:none;stroke:#0000ff;stroke-width:0.377952;stroke-dasharray:none;stroke-opacity:1"
         id="path9358" />
      <path
         d="m -63.514961,1160.4095 a 8.125984,8.125984 0 0 0 -8.125984,-8.126 h -6.425197 a 8.125984,8.125984 0 0 0 -8.125984,8.126 v 11.7165 a 8.125984,8.125984 0 0 0 8.125984,8.126 h 6.425197 a 8.125984,8.125984 0 0 0 8.125984,-8.126 z"
         style="fill:none;stroke:#0000ff;stroke-width:0.377952;stroke-dasharray:none;stroke-opacity:1"
         id="path9360" />
      <path
         d="m -161.02677,1172.126 a 8.125984,8.125984 0 0 0 8.12598,8.126 h 6.4252 a 8.125984,8.125984 0 0 0 8.12598,-8.126 v -11.7165 a 8.125984,8.125984 0 0 0 -8.12598,-8.126 h -6.4252 a 8.125984,8.125984 0 0 0 -8.12598,8.126 z"
         style="fill:none;stroke:#0000ff;stroke-width:0.377952;stroke-dasharray:none;stroke-opacity:1"
         id="path9362" />
      <path
         d="m -121.53071,1210.1102 a 8.125984,8.125984 0 0 0 8.12599,-8.1259 v -11.7166 a 8.125984,8.125984 0 0 0 -8.12599,-8.126 h -6.4252 a 8.125984,8.125984 0 0 0 -8.12598,8.126 v 11.7166 a 8.125984,8.125984 0 0 0 8.12598,8.1259 z"
         style="fill:none;stroke:#0000ff;stroke-width:0.377952;stroke-dasharray:none;stroke-opacity:1"
         id="path9364" />
      <path
         d="m -63.514961,1190.2677 a 8.125984,8.125984 0 0 0 -8.125984,-8.126 h -6.425197 a 8.125984,8.125984 0 0 0 -8.125984,8.126 v 11.7166 a 8.125984,8.125984 0 0 0 8.125984,8.1259 h 6.425197 a 8.125984,8.125984 0 0 0 8.125984,-8.1259 z"
         style="fill:none;stroke:#0000ff;stroke-width:0.377952;stroke-dasharray:none;stroke-opacity:1"
         id="path9366" />
      <path
         d="m 136.04409,1190.2677 a 8.125984,8.125984 0 0 0 -8.12598,-8.126 h -6.4252 a 8.125984,8.125984 0 0 0 -8.12598,8.126 v 11.7166 a 8.125984,8.125984 0 0 0 8.12598,8.1259 h 6.4252 a 8.125984,8.125984 0 0 0 8.12598,-8.1259 z"
         style="fill:none;stroke:#0000ff;stroke-width:0.377952;stroke-dasharray:none;stroke-opacity:1"
         id="path9368" />
      <path
         d="m 86.154331,1190.2677 a 8.125984,8.125984 0 0 0 -8.125985,-8.126 H 71.60315 a 8.125984,8.125984 0 0 0 -8.125985,8.126 v 11.7166 a 8.125984,8.125984 0 0 0 8.125985,8.1259 h 6.425196 a 8.125984,8.125984 0 0 0 8.125985,-8.1259 z"
         style="fill:none;stroke:#0000ff;stroke-width:0.377952;stroke-dasharray:none;stroke-opacity:1"
         id="path9370" />
      <path
         d="m 53.083465,1180.252 h -6.425197 a 8.125984,8.125984 0 0 1 -8.125985,-8.126 v -11.7165 a 8.125984,8.125984 0 0 1 8.125985,-8.126 h 6.425197 a 8.125984,8.125984 0 0 1 8.125984,8.126 v 11.7165 a 8.125984,8.125984 0 0 1 -8.125984,8.126 z"
         style="fill:none;stroke:#0000ff;stroke-width:0.377952;stroke-dasharray:none;stroke-opacity:1"
         id="path9372" />
      <path
         d="m 102.97323,1180.252 h -6.425199 a 8.125984,8.125984 0 0 1 -8.125984,-8.126 v -11.7165 a 8.125984,8.125984 0 0 1 8.125984,-8.126 h 6.425199 a 8.125984,8.125984 0 0 1 8.12598,8.126 v 11.7165 a 8.125984,8.125984 0 0 1 -8.12598,8.126 z"
         style="fill:none;stroke:#0000ff;stroke-width:0.377952;stroke-dasharray:none;stroke-opacity:1"
         id="path9374" />
      <path
         d="m 160.98898,1160.4095 a 8.125984,8.125984 0 0 0 -8.12599,-8.126 h -6.4252 a 8.125984,8.125984 0 0 0 -8.12598,8.126 v 11.7165 a 8.125984,8.125984 0 0 0 8.12598,8.126 h 6.4252 a 8.125984,8.125984 0 0 0 8.12599,-8.126 z"
         style="fill:none;stroke:#0000ff;stroke-width:0.377952;stroke-dasharray:none;stroke-opacity:1"
         id="path9376" />
      <path
         d="m 136.04409,1130.5512 a 8.125984,8.125984 0 0 0 -8.12598,-8.126 h -6.4252 a 8.125984,8.125984 0 0 0 -8.12598,8.126 v 11.7165 a 8.125984,8.125984 0 0 0 8.12598,8.126 h 6.4252 a 8.125984,8.125984 0 0 0 8.12598,-8.126 z"
         style="fill:none;stroke:#0000ff;stroke-width:0.377952;stroke-dasharray:none;stroke-opacity:1"
         id="path9378" />
      <path
         d="m 86.154331,1130.5512 a 8.125984,8.125984 0 0 0 -8.125985,-8.126 H 71.60315 a 8.125984,8.125984 0 0 0 -8.125985,8.126 v 11.7165 a 8.125984,8.125984 0 0 0 8.125985,8.126 h 6.425196 a 8.125984,8.125984 0 0 0 8.125985,-8.126 z"
         style="fill:none;stroke:#0000ff;stroke-width:0.377952;stroke-dasharray:none;stroke-opacity:1"
         id="path9380" />
      <path
         d="m 28.138583,1150.3937 a 8.125984,8.125984 0 0 0 8.125984,-8.126 v -11.7165 a 8.125984,8.125984 0 0 0 -8.125984,-8.126 h -6.425197 a 8.125984,8.125984 0 0 0 -8.125984,8.126 v 11.7165 a 8.125984,8.125984 0 0 0 8.125984,8.126 z"
         style="fill:none;stroke:#0000ff;stroke-width:0.377952;stroke-dasharray:none;stroke-opacity:1"
         id="path9382" />
      <path
         d="m 53.083465,1120.5354 a 8.125984,8.125984 0 0 0 8.125984,-8.1259 v -11.7166 a 8.125984,8.125984 0 0 0 -8.125984,-8.126 h -6.425197 a 8.125984,8.125984 0 0 0 -8.125985,8.126 v 11.7166 a 8.125984,8.125984 0 0 0 8.125985,8.1259 z"
         style="fill:none;stroke:#0000ff;stroke-width:0.377952;stroke-dasharray:none;stroke-opacity:1"
         id="path9384" />
      <path
         d="m 102.97323,1120.5354 a 8.125984,8.125984 0 0 0 8.12598,-8.1259 v -11.7166 a 8.125984,8.125984 0 0 0 -8.12598,-8.126 h -6.425199 a 8.125984,8.125984 0 0 0 -8.125984,8.126 v 11.7166 a 8.125984,8.125984 0 0 0 8.125984,8.1259 z"
         style="fill:none;stroke:#0000ff;stroke-width:0.377952;stroke-dasharray:none;stroke-opacity:1"
         id="path9386" />
      <path
         d="m 160.98898,1100.6929 a 8.125984,8.125984 0 0 0 -8.12599,-8.126 h -6.4252 a 8.125984,8.125984 0 0 0 -8.12598,8.126 v 11.7166 a 8.125984,8.125984 0 0 0 8.12598,8.1259 h 6.4252 a 8.125984,8.125984 0 0 0 8.12599,-8.1259 z"
         style="fill:none;stroke:#0000ff;stroke-width:0.377952;stroke-dasharray:none;stroke-opacity:1"
         id="path9388" />
      <path
         d="m 136.04409,1070.8346 a 8.125984,8.125984 0 0 0 -8.12598,-8.1259 h -6.4252 a 8.125984,8.125984 0 0 0 -8.12598,8.1259 v 11.7166 a 8.125984,8.125984 0 0 0 8.12598,8.126 h 6.4252 a 8.125984,8.125984 0 0 0 8.12598,-8.126 z"
         style="fill:none;stroke:#0000ff;stroke-width:0.377952;stroke-dasharray:none;stroke-opacity:1"
         id="path9390" />
      <path
         d="m 116.29606,1058.5512 a 8.125984,8.125984 0 0 0 8.12599,-8.126 v -11.7165 a 8.125984,8.125984 0 0 0 -8.12599,-8.126 H 98.248819 a 8.125984,8.125984 0 0 0 -8.125984,8.126 v 11.7165 a 8.125984,8.125984 0 0 0 8.125984,8.126 z"
         style="fill:none;stroke:#0000ff;stroke-width:0.377952;stroke-dasharray:none;stroke-opacity:1"
         id="path9392" />
      <path
         d="m 86.154331,1070.8346 a 8.125984,8.125984 0 0 0 -8.125985,-8.1259 H 71.60315 a 8.125984,8.125984 0 0 0 -8.125985,8.1259 v 11.7166 a 8.125984,8.125984 0 0 0 8.125985,8.126 h 6.425196 a 8.125984,8.125984 0 0 0 8.125985,-8.126 z"
         style="fill:none;stroke:#0000ff;stroke-width:0.377952;stroke-dasharray:none;stroke-opacity:1"
         id="path9394" />
      <path
         d="m 87.855118,1038.7087 a 8.125984,8.125984 0 0 0 -8.125984,-8.126 H 61.68189 a 8.125984,8.125984 0 0 0 -8.125984,8.126 v 11.7165 a 8.125984,8.125984 0 0 0 8.125984,8.126 h 18.047244 a 8.125984,8.125984 0 0 0 8.125984,-8.126 z"
         style="fill:none;stroke:#0000ff;stroke-width:0.377952;stroke-dasharray:none;stroke-opacity:1"
         id="path9396" />
      <path
         d="M 43.176997,1058.5512 H 25.115511 a 8.125984,8.125984 0 0 1 -8.126535,-8.126 v -11.7165 a 8.125984,8.125984 0 0 1 8.141341,-8.126 h 18.031888 a 8.125984,8.125984 0 0 1 8.125984,8.126 v 11.7165 a 8.125984,8.125984 0 0 1 -8.111192,8.126 z"
         style="fill:none;stroke:#0000ff;stroke-width:0.377952;stroke-dasharray:none;stroke-opacity:1"
         id="path9398" />
      <path
         d="m -13.625197,1070.8346 a 8.125984,8.125984 0 0 0 -8.125984,-8.1259 h -6.425197 a 8.125984,8.125984 0 0 0 -8.125984,8.1259 v 11.7166 a 8.125984,8.125984 0 0 0 8.125984,8.126 h 6.425197 a 8.125984,8.125984 0 0 0 8.125984,-8.126 z"
         style="fill:none;stroke:#0000ff;stroke-width:0.377952;stroke-dasharray:none;stroke-opacity:1"
         id="path9400" />
      <path
         d="m -43.214793,1030.5827 h 18.061486 a 8.125984,8.125984 0 0 1 8.126535,8.126 v 11.7165 a 8.125984,8.125984 0 0 1 -8.14134,8.126 H -43.2 a 8.125984,8.125984 0 0 1 -8.125984,-8.126 v -11.7165 a 8.125984,8.125984 0 0 1 8.111191,-8.126 z"
         style="fill:none;stroke:#0000ff;stroke-width:0.377952;stroke-dasharray:none;stroke-opacity:1"
         id="path9402" />
      <path
         d="m -78.066142,1062.7087 a 8.125984,8.125984 0 0 0 -8.125984,8.1259 v 11.7166 a 8.125984,8.125984 0 0 0 8.125984,8.126 h 6.425197 a 8.125984,8.125984 0 0 0 8.125984,-8.126 v -11.7166 a 8.125984,8.125984 0 0 0 -8.125984,-8.1259 z"
         style="fill:none;stroke:#0000ff;stroke-width:0.377952;stroke-dasharray:none;stroke-opacity:1"
         id="path9404" />
      <path
         d="m -103.01102,1092.5669 a 8.125984,8.125984 0 0 0 -8.12599,8.126 v 11.7166 a 8.125984,8.125984 0 0 0 8.12599,8.1259 h 6.425193 a 8.125984,8.125984 0 0 0 8.125984,-8.1259 v -11.7166 a 8.125984,8.125984 0 0 0 -8.125984,-8.126 z"
         style="fill:none;stroke:#0000ff;stroke-width:0.377952;stroke-dasharray:none;stroke-opacity:1"
         id="path9406" />
      <path
         d="m -127.95591,1122.4252 h 6.4252 a 8.125984,8.125984 0 0 1 8.12599,8.126 v 11.7165 a 8.125984,8.125984 0 0 1 -8.12599,8.126 h -6.4252 a 8.125984,8.125984 0 0 1 -8.12598,-8.126 v -11.7165 a 8.125984,8.125984 0 0 1 8.12598,-8.126 z"
         style="fill:none;stroke:#0000ff;stroke-width:0.377952;stroke-dasharray:none;stroke-opacity:1"
         id="path9408" />
      <path
         d="m -146.47559,1120.5354 a 8.125984,8.125984 0 0 0 8.12598,-8.1259 v -11.7166 a 8.125984,8.125984 0 0 0 -8.12598,-8.126 h -6.4252 a 8.125984,8.125984 0 0 0 -8.12598,8.126 v 11.7166 a 8.125984,8.125984 0 0 0 8.12598,8.1259 z"
         style="fill:none;stroke:#0000ff;stroke-width:0.377952;stroke-dasharray:none;stroke-opacity:1"
         id="path9410" />
      <path
         d="m -103.01102,1062.7087 h 6.425193 a 8.125984,8.125984 0 0 1 8.125984,8.1259 v 11.7166 a 8.125984,8.125984 0 0 1 -8.125984,8.126 h -6.425193 a 8.125984,8.125984 0 0 1 -8.12599,-8.126 v -11.7166 a 8.125984,8.125984 0 0 1 8.12599,-8.1259 z"
         style="fill:none;stroke:#0000ff;stroke-width:0.377952;stroke-dasharray:none;stroke-opacity:1"
         id="path9412" />
      <path
         d="m -121.53071,1090.6772 a 8.125984,8.125984 0 0 0 8.12599,-8.126 v -11.7166 a 8.125984,8.125984 0 0 0 -8.12599,-8.1259 h -6.4252 a 8.125984,8.125984 0 0 0 -8.12598,8.1259 v 11.7166 a 8.125984,8.125984 0 0 0 8.12598,8.126 z"
         style="fill:none;stroke:#0000ff;stroke-width:0.377952;stroke-dasharray:none;stroke-opacity:1"
         id="path9414" />
      <path
         d="m -126.72756,1038.7087 v 11.7165 a 8.125984,8.125984 0 0 1 -8.12598,8.126 h -18.04725 a 8.125984,8.125984 0 0 1 -8.12598,-8.126 v -11.7165 a 8.125984,8.125984 0 0 1 8.12598,-8.126 h 18.04725 a 8.125984,8.125984 0 0 1 8.12598,8.126 z"
         style="fill:none;stroke:#0000ff;stroke-width:0.377952;stroke-dasharray:none;stroke-opacity:1"
         id="path9416" />
      <path
         d="m -103.01102,1152.6614 a 7.748031,7.748031 0 0 0 -7.74804,7.7481 v 11.7165 a 7.748031,7.748031 0 0 0 7.74804,7.748 h 6.425193 a 7.748031,7.748031 0 0 0 7.748032,-7.748 v -11.7165 a 7.748031,7.748031 0 0 0 -7.748032,-7.7481 z"
         style="fill:none;stroke:#0000ff;stroke-width:0.377952;stroke-dasharray:none;stroke-opacity:1"
         id="path9418" />
      <path
         d="m -138.34961,1070.8346 v 11.7166 a 8.125984,8.125984 0 0 1 -8.12598,8.126 h -6.4252 a 8.125984,8.125984 0 0 1 -8.12598,-8.126 v -11.7166 a 8.125984,8.125984 0 0 1 8.12598,-8.1259 h 6.4252 a 8.125984,8.125984 0 0 1 8.12598,8.1259 z"
         style="fill:none;stroke:#0000ff;stroke-width:0.377952;stroke-dasharray:none;stroke-opacity:1"
         id="path9420" />
      <path
         d="m -116.33386,1030.5827 h 18.047246 a 8.125984,8.125984 0 0 1 8.125984,8.126 v 11.7165 a 8.125984,8.125984 0 0 1 -8.125984,8.126 h -18.047246 a 8.125984,8.125984 0 0 1 -8.12598,-8.126 v -11.7165 a 8.125984,8.125984 0 0 1 8.12598,-8.126 z"
         style="fill:none;stroke:#0000ff;stroke-width:0.377952;stroke-dasharray:none;stroke-opacity:1"
         id="path9422" />
      <path
         d="m -113.40472,1100.6929 v 11.7166 a 8.125984,8.125984 0 0 1 -8.12599,8.1259 h -6.4252 a 8.125984,8.125984 0 0 1 -8.12598,-8.1259 v -11.7166 a 8.125984,8.125984 0 0 1 8.12598,-8.126 h 6.4252 a 8.125984,8.125984 0 0 1 8.12599,8.126 z"
         style="fill:none;stroke:#0000ff;stroke-width:0.377952;stroke-dasharray:none;stroke-opacity:1"
         id="path9424" />
      <path
         d="m -146.47559,1150.3937 a 8.125984,8.125984 0 0 0 8.12598,-8.126 v -11.7165 a 8.125984,8.125984 0 0 0 -8.12598,-8.126 h -6.4252 a 8.125984,8.125984 0 0 0 -8.12598,8.126 v 11.7165 a 8.125984,8.125984 0 0 0 8.12598,8.126 z"
         style="display:inline;fill:none;stroke:#0000ff;stroke-width:0.377952;stroke-dasharray:none;stroke-opacity:1"
         id="path9426" />
      <path
         d="m -88.459843,1130.5512 a 8.125984,8.125984 0 0 0 -8.125984,-8.126 h -6.425193 a 8.125984,8.125984 0 0 0 -8.12599,8.126 v 11.7165 a 8.125984,8.125984 0 0 0 8.12599,8.126 h 6.425193 a 8.125984,8.125984 0 0 0 8.125984,-8.126 z"
         style="fill:none;stroke:#0000ff;stroke-width:0.377952;stroke-dasharray:none;stroke-opacity:1"
         id="path9428" />
      <path
         d="m -63.514961,1100.6929 a 8.125984,8.125984 0 0 0 -8.125984,-8.126 h -6.425197 a 8.125984,8.125984 0 0 0 -8.125984,8.126 v 11.7166 a 8.125984,8.125984 0 0 0 8.125984,8.1259 h 6.425197 a 8.125984,8.125984 0 0 0 8.125984,-8.1259 z"
         style="fill:none;stroke:#0000ff;stroke-width:0.377952;stroke-dasharray:none;stroke-opacity:1"
         id="path9430" />
      <path
         d="m -79.766929,1030.5827 h 18.047244 a 8.125984,8.125984 0 0 1 8.125984,8.126 v 11.7165 a 8.125984,8.125984 0 0 1 -8.125984,8.126 h -18.047244 a 8.125984,8.125984 0 0 1 -8.125984,-8.126 v -11.7165 a 8.125984,8.125984 0 0 1 8.125984,-8.126 z"
         style="fill:none;stroke:#0000ff;stroke-width:0.377952;stroke-dasharray:none;stroke-opacity:1"
         id="path9432" />
      <path
         d="m -38.570079,1070.8346 v 11.7166 a 8.125984,8.125984 0 0 1 -8.125984,8.126 h -6.425197 a 8.125984,8.125984 0 0 1 -8.125984,-8.126 v -11.7166 a 8.125984,8.125984 0 0 1 8.125984,-8.1259 h 6.425197 a 8.125984,8.125984 0 0 1 8.125984,8.1259 z"
         style="fill:none;stroke:#0000ff;stroke-width:0.377952;stroke-dasharray:none;stroke-opacity:1"
         id="path9434" />
      <path
         d="m 11.319685,1070.8346 v 11.7166 a 8.125984,8.125984 0 0 1 -8.125984,8.126 h -6.425197 a 8.125984,8.125984 0 0 1 -8.125984,-8.126 v -11.7166 a 8.125984,8.125984 0 0 1 8.125984,-8.1259 h 6.425197 a 8.125984,8.125984 0 0 1 8.125984,8.1259 z"
         style="fill:none;stroke:#0000ff;stroke-width:0.377952;stroke-dasharray:none;stroke-opacity:1"
         id="path9436" />
      <path
         d="m 36.264567,1070.8346 a 8.125984,8.125984 0 0 0 -8.125984,-8.1259 h -6.425197 a 8.125984,8.125984 0 0 0 -8.125984,8.1259 v 11.7166 a 8.125984,8.125984 0 0 0 8.125984,8.126 h 6.425197 a 8.125984,8.125984 0 0 0 8.125984,-8.126 z"
         style="fill:none;stroke:#0000ff;stroke-width:0.377952;stroke-dasharray:none;stroke-opacity:1"
         id="path9438" />
      <path
         d="m 61.209449,1070.8346 v 11.7166 a 8.125984,8.125984 0 0 1 -8.125984,8.126 h -6.425197 a 8.125984,8.125984 0 0 1 -8.125985,-8.126 v -11.7166 a 8.125984,8.125984 0 0 1 8.125985,-8.1259 h 6.425197 a 8.125984,8.125984 0 0 1 8.125984,8.1259 z"
         style="fill:none;stroke:#0000ff;stroke-width:0.377952;stroke-dasharray:none;stroke-opacity:1"
         id="path9440" />
      <path
         d="m 160.98898,1038.7087 a 8.125984,8.125984 0 0 0 -8.12599,-8.126 h -18.04724 a 8.125984,8.125984 0 0 0 -8.12599,8.126 v 11.7165 a 8.125984,8.125984 0 0 0 8.12599,8.126 h 18.04724 a 8.125984,8.125984 0 0 0 8.12599,-8.126 z"
         style="fill:none;stroke:#0000ff;stroke-width:0.377952;stroke-dasharray:none;stroke-opacity:1"
         id="path9442" />
      <path
         d="m 102.97323,1090.6772 a 8.125984,8.125984 0 0 0 8.12598,-8.126 v -11.7166 a 8.125984,8.125984 0 0 0 -8.12598,-8.1259 h -6.425199 a 8.125984,8.125984 0 0 0 -8.125984,8.1259 v 11.7166 a 8.125984,8.125984 0 0 0 8.125984,8.126 z"
         style="fill:none;stroke:#0000ff;stroke-width:0.377952;stroke-dasharray:none;stroke-opacity:1"
         id="path9444" />
      <path
         d="m 160.98898,1070.8346 a 8.125984,8.125984 0 0 0 -8.12599,-8.1259 h -6.4252 a 8.125984,8.125984 0 0 0 -8.12598,8.1259 v 11.7166 a 8.125984,8.125984 0 0 0 8.12598,8.126 h 6.4252 a 8.125984,8.125984 0 0 0 8.12599,-8.126 z"
         style="fill:none;stroke:#0000ff;stroke-width:0.377952;stroke-dasharray:none;stroke-opacity:1"
         id="path9446" />
      <path
         d="m 127.91811,1120.5354 a 8.125984,8.125984 0 0 0 8.12598,-8.1259 v -11.7166 a 8.125984,8.125984 0 0 0 -8.12598,-8.126 h -6.4252 a 8.125984,8.125984 0 0 0 -8.12598,8.126 v 11.7166 a 8.125984,8.125984 0 0 0 8.12598,8.1259 z"
         style="fill:none;stroke:#0000ff;stroke-width:0.377952;stroke-dasharray:none;stroke-opacity:1"
         id="path9448" />
      <path
         d="m 78.028346,1120.5354 a 8.125984,8.125984 0 0 0 8.125985,-8.1259 v -11.7166 a 8.125984,8.125984 0 0 0 -8.125985,-8.126 H 71.60315 a 8.125984,8.125984 0 0 0 -8.125985,8.126 v 11.7166 a 8.125984,8.125984 0 0 0 8.125985,8.1259 z"
         style="fill:none;stroke:#0000ff;stroke-width:0.377952;stroke-dasharray:none;stroke-opacity:1"
         id="path9450" />
      <path
         d="m 28.138583,1120.5354 a 8.125984,8.125984 0 0 0 8.125984,-8.1259 v -11.7166 a 8.125984,8.125984 0 0 0 -8.125984,-8.126 h -6.425197 a 8.125984,8.125984 0 0 0 -8.125984,8.126 v 11.7166 a 8.125984,8.125984 0 0 0 8.125984,8.1259 z"
         style="fill:none;stroke:#0000ff;stroke-width:0.377952;stroke-dasharray:none;stroke-opacity:1"
         id="path9452" />
      <path
         d="m 61.209449,1130.5512 v 11.7165 a 8.125984,8.125984 0 0 1 -8.125984,8.126 h -6.425197 a 8.125984,8.125984 0 0 1 -8.125985,-8.126 v -11.7165 a 8.125984,8.125984 0 0 1 8.125985,-8.126 h 6.425197 a 8.125984,8.125984 0 0 1 8.125984,8.126 z"
         style="fill:none;stroke:#0000ff;stroke-width:0.377952;stroke-dasharray:none;stroke-opacity:1"
         id="path9454" />
      <path
         d="m 111.09921,1130.5512 a 8.125984,8.125984 0 0 0 -8.12598,-8.126 h -6.425199 a 8.125984,8.125984 0 0 0 -8.125984,8.126 v 11.7165 a 8.125984,8.125984 0 0 0 8.125984,8.126 h 6.425199 a 8.125984,8.125984 0 0 0 8.12598,-8.126 z"
         style="fill:none;stroke:#0000ff;stroke-width:0.377952;stroke-dasharray:none;stroke-opacity:1"
         id="path9456" />
      <path
         d="m 160.98898,1130.5512 a 8.125984,8.125984 0 0 0 -8.12599,-8.126 h -6.4252 a 8.125984,8.125984 0 0 0 -8.12598,8.126 v 11.7165 a 8.125984,8.125984 0 0 0 8.12598,8.126 h 6.4252 a 8.125984,8.125984 0 0 0 8.12599,-8.126 z"
         style="fill:none;stroke:#0000ff;stroke-width:0.377952;stroke-dasharray:none;stroke-opacity:1"
         id="path9458" />
      <path
         d="m 127.91811,1180.252 a 8.125984,8.125984 0 0 0 8.12598,-8.126 v -11.7165 a 8.125984,8.125984 0 0 0 -8.12598,-8.126 h -6.4252 a 8.125984,8.125984 0 0 0 -8.12598,8.126 v 11.7165 a 8.125984,8.125984 0 0 0 8.12598,8.126 z"
         style="fill:none;stroke:#0000ff;stroke-width:0.377952;stroke-dasharray:none;stroke-opacity:1"
         id="path9460" />
      <path
         d="M 78.028346,1180.252 H 71.60315 a 8.125984,8.125984 0 0 1 -8.125985,-8.126 v -11.7165 a 8.125984,8.125984 0 0 1 8.125985,-8.126 h 6.425196 a 8.125984,8.125984 0 0 1 8.125985,8.126 v 11.7165 a 8.125984,8.125984 0 0 1 -8.125985,8.126 z"
         style="fill:none;stroke:#0000ff;stroke-width:0.377952;stroke-dasharray:none;stroke-opacity:1"
         id="path9462" />
      <path
         d="m 53.083465,1210.1102 a 8.125984,8.125984 0 0 0 8.125984,-8.1259 v -11.7166 a 8.125984,8.125984 0 0 0 -8.125984,-8.126 H -53.12126 a 8.125984,8.125984 0 0 0 -8.125984,8.126 v 11.7166 a 8.125984,8.125984 0 0 0 8.125984,8.1259 z"
         style="fill:none;stroke:#0000ff;stroke-width:0.377952;stroke-dasharray:none;stroke-opacity:1"
         id="path9464" />
      <path
         d="m 111.09921,1190.2677 a 8.125984,8.125984 0 0 0 -8.12598,-8.126 h -6.425199 a 8.125984,8.125984 0 0 0 -8.125984,8.126 v 11.7166 a 8.125984,8.125984 0 0 0 8.125984,8.1259 h 6.425199 a 8.125984,8.125984 0 0 0 8.12598,-8.1259 z"
         style="fill:none;stroke:#0000ff;stroke-width:0.377952;stroke-dasharray:none;stroke-opacity:1"
         id="path9466" />
      <path
         d="m 160.98898,1190.2677 a 8.125984,8.125984 0 0 0 -8.12599,-8.126 h -6.4252 a 8.125984,8.125984 0 0 0 -8.12598,8.126 v 11.7166 a 8.125984,8.125984 0 0 0 8.12598,8.1259 h 6.4252 a 8.125984,8.125984 0 0 0 8.12599,-8.1259 z"
         style="fill:none;stroke:#0000ff;stroke-width:0.377952;stroke-dasharray:none;stroke-opacity:1"
         id="path9468" />
      <path
         d="m -96.585827,1210.1102 a 8.125984,8.125984 0 0 0 8.125984,-8.1259 v -11.7166 a 8.125984,8.125984 0 0 0 -8.125984,-8.126 h -6.425193 a 8.125984,8.125984 0 0 0 -8.12599,8.126 v 11.7166 a 8.125984,8.125984 0 0 0 8.12599,8.1259 z"
         style="fill:none;stroke:#0000ff;stroke-width:0.377952;stroke-dasharray:none;stroke-opacity:1"
         id="path9470" />
      <path
         d="m -146.47559,1210.1102 a 8.125984,8.125984 0 0 0 8.12598,-8.1259 v -11.7166 a 8.125984,8.125984 0 0 0 -8.12598,-8.126 h -6.4252 a 8.125984,8.125984 0 0 0 -8.12598,8.126 v 11.7166 a 8.125984,8.125984 0 0 0 8.12598,8.1259 z"
         style="fill:none;stroke:#0000ff;stroke-width:0.377952;stroke-dasharray:none;stroke-opacity:1"
         id="path9472" />
      <path
         d="m -127.95591,1152.2835 a 8.125984,8.125984 0 0 0 -8.12598,8.126 v 11.7165 a 8.125984,8.125984 0 0 0 8.12598,8.126 h 6.4252 a 8.125984,8.125984 0 0 0 8.12599,-8.126 v -11.7165 a 8.125984,8.125984 0 0 0 -8.12599,-8.126 z"
         style="fill:none;stroke:#0000ff;stroke-width:0.377952;stroke-dasharray:none;stroke-opacity:1"
         id="path9474" />
      <path
         d="m -78.066142,1122.4252 a 8.125984,8.125984 0 0 0 -8.125984,8.126 v 11.7165 a 8.125984,8.125984 0 0 0 8.125984,8.126 h 6.425197 a 8.125984,8.125984 0 0 0 8.125984,-8.126 v -11.7165 a 8.125984,8.125984 0 0 0 -8.125984,-8.126 z"
         style="fill:none;stroke:#0000ff;stroke-width:0.377952;stroke-dasharray:none;stroke-opacity:1"
         id="path9476" />
      <path
         d="m -38.570079,1160.4095 v 11.7165 a 8.125984,8.125984 0 0 1 -8.125984,8.126 h -6.425197 a 8.125984,8.125984 0 0 1 -8.125984,-8.126 v -11.7165 a 8.125984,8.125984 0 0 1 8.125984,-8.126 h 6.425197 a 8.125984,8.125984 0 0 1 8.125984,8.126 z"
         style="fill:none;stroke:#0000ff;stroke-width:0.377952;stroke-dasharray:none;stroke-opacity:1"
         id="path9478" />
      <path
         d="m -13.625197,1160.4095 a 8.125984,8.125984 0 0 0 -8.125984,-8.126 h -6.425197 a 8.125984,8.125984 0 0 0 -8.125984,8.126 v 11.7165 a 8.125984,8.125984 0 0 0 8.125984,8.126 h 6.425197 a 8.125984,8.125984 0 0 0 8.125984,-8.126 z"
         style="fill:none;stroke:#0000ff;stroke-width:0.377952;stroke-dasharray:none;stroke-opacity:1"
         id="path9480" />
      <path
         d="m 11.319685,1160.4095 a 8.125984,8.125984 0 0 0 -8.125984,-8.126 h -6.425197 a 8.125984,8.125984 0 0 0 -8.125984,8.126 v 11.7165 a 8.125984,8.125984 0 0 0 8.125984,8.126 h 6.425197 a 8.125984,8.125984 0 0 0 8.125984,-8.126 z"
         style="fill:none;stroke:#0000ff;stroke-width:0.377952;stroke-dasharray:none;stroke-opacity:1"
         id="path9482" />
      <path
         d="m 3.193701,1120.5354 a 8.125984,8.125984 0 0 0 8.125984,-8.1259 v -11.7166 a 8.125984,8.125984 0 0 0 -8.125984,-8.126 h -6.425197 a 8.125984,8.125984 0 0 0 -8.125984,8.126 v 11.7166 a 8.125984,8.125984 0 0 0 8.125984,8.1259 z"
         style="fill:none;stroke:#0000ff;stroke-width:0.377952;stroke-dasharray:none;stroke-opacity:1"
         id="path9484" />
      <path
         d="m -46.696063,1120.5354 a 8.125984,8.125984 0 0 0 8.125984,-8.1259 v -11.7166 a 8.125984,8.125984 0 0 0 -8.125984,-8.126 h -6.425197 a 8.125984,8.125984 0 0 0 -8.125984,8.126 v 11.7166 a 8.125984,8.125984 0 0 0 8.125984,8.1259 z"
         style="fill:none;stroke:#0000ff;stroke-width:0.377952;stroke-dasharray:none;stroke-opacity:1"
         id="path9486" />
    </g>
    <g
       id="g23">
      <path
         d="m 154.80415,124.55117 v 0 c 0,-0.66005 -0.5401,-1.1998 -1.19979,-1.1998 -0.66006,0 -1.20052,0.53975 -1.20052,1.1998 0,0.66005 0.54046,1.1998 1.20052,1.1998 0.65969,0 1.19979,-0.53975 1.19979,-1.1998"
         style="display:inline;fill:none;fill-opacity:1;fill-rule:nonzero;stroke:#0000ff;stroke-width:0.1;stroke-dasharray:none;stroke-opacity:1"
         id="path1886"
         inkscape:label="M2_BR" />
      <path
         d="m 47.595775,124.55117 v 0 c 0,-0.66005 -0.5401,-1.1998 -1.20015,-1.1998 -0.65969,0 -1.19979,0.53975 -1.19979,1.1998 0,0.66005 0.5401,1.1998 1.19979,1.1998 0.66005,0 1.20015,-0.53975 1.20015,-1.1998"
         style="display:inline;fill:none;fill-opacity:1;fill-rule:nonzero;stroke:#0000ff;stroke-width:0.1;stroke-dasharray:none;stroke-opacity:1"
         id="path1890"
         inkscape:label="M2_BL" />
    </g>
    <g
       id="g24"
       transform="translate(1.6e-5)">
      <path
         d="m 151.62913,33.345595 v 0 c 0,-0.66005 -0.5401,-1.1998 -1.19979,-1.1998 -0.66006,0 -1.20052,0.53975 -1.20052,1.1998 0,0.66005 0.54046,1.1998 1.20052,1.1998 0.65969,0 1.19979,-0.53975 1.19979,-1.1998"
         style="display:inline;fill:none;fill-opacity:1;fill-rule:nonzero;stroke:#0000ff;stroke-width:0.1;stroke-dasharray:none;stroke-opacity:1"
         id="path1886-9"
         inkscape:label="M2_BR" />
      <path
         d="m 50.770778,33.345595 v 0 c 0,-0.66005 -0.5401,-1.1998 -1.20015,-1.1998 -0.65969,0 -1.19979,0.53975 -1.19979,1.1998 0,0.66005 0.5401,1.1998 1.19979,1.1998 0.66005,0 1.20015,-0.53975 1.20015,-1.1998"
         style="display:inline;fill:none;fill-opacity:1;fill-rule:nonzero;stroke:#0000ff;stroke-width:0.1;stroke-dasharray:none;stroke-opacity:1"
         id="path1890-7"
         inkscape:label="M2_BL" />
    </g>
    <g
       id="g25"
       transform="translate(1.6e-5)">
      <path
         d="m 145.27911,151.72816 v 0 c 0,-0.66006 -0.5401,-1.19981 -1.19979,-1.19981 -0.66006,0 -1.20052,0.53975 -1.20052,1.19981 0,0.66004 0.54046,1.19979 1.20052,1.19979 0.65969,0 1.19979,-0.53975 1.19979,-1.19979"
         style="display:inline;fill:none;fill-opacity:1;fill-rule:nonzero;stroke:#0000ff;stroke-width:0.1;stroke-dasharray:none;stroke-opacity:1"
         id="path1886-9-3"
         inkscape:label="M2_BR" />
      <path
         d="m 57.120798,151.72816 v 0 c 0,-0.66006 -0.5401,-1.19981 -1.20015,-1.19981 -0.65969,0 -1.19979,0.53975 -1.19979,1.19981 0,0.66004 0.5401,1.19979 1.19979,1.19979 0.66005,0 1.20015,-0.53975 1.20015,-1.19979"
         style="display:inline;fill:none;fill-opacity:1;fill-rule:nonzero;stroke:#0000ff;stroke-width:0.1;stroke-dasharray:none;stroke-opacity:1"
         id="path1890-7-1"
         inkscape:label="M2_BL" />
    </g>
    <path
       id="path20252"
       style="display:inline;fill:none;fill-opacity:1;stroke:#5a005a;stroke-width:0.1;stroke-opacity:1"
       inkscape:label="keyboard_footprint_ref"
       d="m 100.74966,121.42204 c 0,0.0259 -0.001,0.0515 -0.004,0.0767 -0.003,0.0252 -0.006,0.0501 -0.0114,0.0745 -0.005,0.0244 -0.0112,0.0484 -0.0185,0.0719 -0.007,0.0235 -0.0157,0.0465 -0.0252,0.0689 -0.009,0.0224 -0.02,0.0443 -0.0316,0.0656 -0.0115,0.0213 -0.0241,0.0419 -0.0376,0.0618 -0.0135,0.02 -0.0279,0.0392 -0.0432,0.0577 -0.0153,0.0185 -0.0315,0.0363 -0.0484,0.0533 -0.017,0.017 -0.0347,0.0331 -0.0533,0.0484 -0.0185,0.0153 -0.0378,0.0297 -0.0577,0.0432 -0.0199,0.0135 -0.0406,0.026 -0.0618,0.0376 -0.0213,0.0115 -0.0431,0.0221 -0.0656,0.0316 -0.0224,0.009 -0.0454,0.0179 -0.0689,0.0252 -0.0235,0.007 -0.0475,0.0135 -0.0719,0.0185 -0.0244,0.005 -0.0493,0.009 -0.0745,0.0114 -0.0252,0.003 -0.0508,0.004 -0.07668,0.004 -0.02589,0 -0.05147,-0.001 -0.07668,-0.004 -0.02521,-0.003 -0.05006,-0.006 -0.07447,-0.0114 -0.02441,-0.005 -0.04839,-0.0112 -0.07188,-0.0185 -0.02348,-0.007 -0.04648,-0.0157 -0.06891,-0.0252 -0.02243,-0.009 -0.04431,-0.02 -0.06556,-0.0316 -0.02125,-0.0115 -0.04189,-0.0241 -0.06184,-0.0376 -0.01995,-0.0135 -0.03922,-0.0279 -0.05774,-0.0432 -0.01852,-0.0153 -0.03629,-0.0315 -0.05326,-0.0484 -0.01697,-0.017 -0.03312,-0.0347 -0.04841,-0.0533 -0.01528,-0.0185 -0.0297,-0.0378 -0.04317,-0.0577 -0.01348,-0.0199 -0.02602,-0.0406 -0.03757,-0.0618 -0.01155,-0.0212 -0.02209,-0.0431 -0.03158,-0.0656 -0.0095,-0.0224 -0.01792,-0.0454 -0.02522,-0.0689 -0.0073,-0.0235 -0.01349,-0.0475 -0.01848,-0.0719 -0.005,-0.0244 -0.0088,-0.0493 -0.01136,-0.0745 -0.0026,-0.0252 -0.0039,-0.0508 -0.0039,-0.0767 0,-0.0259 0.0013,-0.0515 0.0039,-0.0767 0.0026,-0.0252 0.0064,-0.0501 0.01136,-0.0745 0.005,-0.0244 0.01118,-0.0484 0.01848,-0.0719 0.0073,-0.0235 0.01573,-0.0465 0.02522,-0.0689 0.0095,-0.0224 0.02004,-0.0443 0.03158,-0.0656 0.01155,-0.0213 0.02409,-0.0419 0.03757,-0.0618 0.01348,-0.0199 0.02789,-0.0392 0.04318,-0.0577 0.01528,-0.0185 0.03144,-0.0363 0.04841,-0.0533 0.01696,-0.017 0.03474,-0.0331 0.05326,-0.0484 0.01852,-0.0153 0.03779,-0.0297 0.05774,-0.0432 0.01995,-0.0135 0.04058,-0.026 0.06184,-0.0376 0.02125,-0.0115 0.04313,-0.0221 0.06556,-0.0316 0.02243,-0.009 0.04542,-0.0179 0.06891,-0.0252 0.02349,-0.007 0.04746,-0.0135 0.07188,-0.0185 0.02441,-0.005 0.04926,-0.009 0.07447,-0.0114 0.02521,-0.003 0.0508,-0.004 0.07668,-0.004 0.02589,0 0.05147,0.001 0.07668,0.004 0.0252,0.003 0.0501,0.006 0.0745,0.0114 0.0244,0.005 0.0484,0.0112 0.0719,0.0185 0.0235,0.007 0.0465,0.0157 0.0689,0.0252 0.0224,0.009 0.0443,0.02 0.0656,0.0316 0.0213,0.0115 0.0419,0.0241 0.0618,0.0376 0.02,0.0135 0.0392,0.0279 0.0577,0.0432 0.0185,0.0153 0.0363,0.0314 0.0533,0.0484 0.017,0.017 0.0331,0.0347 0.0484,0.0533 0.0153,0.0185 0.0297,0.0378 0.0432,0.0577 0.0135,0.02 0.026,0.0406 0.0376,0.0618 0.0115,0.0213 0.0221,0.0431 0.0316,0.0656 0.009,0.0224 0.0179,0.0454 0.0252,0.0689 0.007,0.0235 0.0135,0.0475 0.0185,0.0719 0.005,0.0244 0.009,0.0493 0.0114,0.0745 0.003,0.0252 0.004,0.0508 0.004,0.0767 z"
       sodipodi:nodetypes="sssssssssssssssssssssssssssssssssssssssssssssssssssssssssssssssss" />
    <rect
       style="display:inline;fill:none;fill-opacity:0.5;stroke:#0000ff;stroke-width:0.1;stroke-dasharray:none;stroke-opacity:1"
       id="rect13-3-2"
       width="86.400002"
       height="51.84"
       x="56.799999"
       y="38.696098"
       inkscape:label="screen_aa_drawing" />
    <rect
       style="display:inline;fill:none;fill-opacity:0.5;stroke:#0000ff;stroke-width:0.1;stroke-dasharray:none;stroke-opacity:1"
       id="rect13-0"
       width="97.800003"
       height="57.16"
       x="54.299999"
       y="36.036098"
       inkscape:label="screen_size" />
  </g>
  <g
     inkscape:label="Drill"
     inkscape:groupmode="layer"
     id="g10"
     style="display:inline" />
</svg>
