<?xml version="1.0" encoding="UTF-8" standalone="no"?>
<!-- Created with Inkscape (http://www.inkscape.org/) -->

<svg
   width="50.0mm"
   height="50.0mm"
   viewBox="0 0 50.0 50.0"
   version="1.1"
   id="svg1"
   inkscape:version="1.3.2 (091e20ef0f, 2023-11-25, custom)"
   sodipodi:docname="speaker.svg"
   xmlns:inkscape="http://www.inkscape.org/namespaces/inkscape"
   xmlns:sodipodi="http://sodipodi.sourceforge.net/DTD/sodipodi-0.dtd"
   xmlns="http://www.w3.org/2000/svg"
   xmlns:svg="http://www.w3.org/2000/svg">
  <sodipodi:namedview
     id="namedview1"
     pagecolor="#ffffff"
     bordercolor="#000000"
     borderopacity="0.25"
     inkscape:showpageshadow="2"
     inkscape:pageopacity="0.0"
     inkscape:pagecheckerboard="0"
     inkscape:deskcolor="#d1d1d1"
     inkscape:document-units="mm"
     inkscape:zoom="4.1064362"
     inkscape:cx="31.65762"
     inkscape:cy="68.916204"
     inkscape:window-width="1920"
     inkscape:window-height="1008"
     inkscape:window-x="0"
     inkscape:window-y="0"
     inkscape:window-maximized="1"
     inkscape:current-layer="g5" />
  <defs
     id="defs1" />
  <g
     inkscape:label="[fixed] BG"
     inkscape:groupmode="layer"
     sodipodi:insensitive="true"
     id="g1">
    <rect
       x="0"
       y="0"
       width="50.0"
       height="50.0"
       style="fill:#FFFFFF;fill-opacity:1;stroke:none"
       id="rect1" />
  </g>
  <g
     inkscape:label="Edge.Cuts"
     inkscape:groupmode="layer"
     id="g2">
    <path
       id="rect1962"
       style="display:inline;stroke-width:0.100001;stroke-linecap:round"
       d="m 22.103997,27.86915 7.48989,-2.07133 c 0.06486,-0.0179 0.129851,-0.0287 0.194091,-0.0332 0.06425,-0.004 0.127935,-0.002 0.190137,0.006 0.06216,0.008 0.122964,0.0225 0.181525,0.0425 0.05857,0.0199 0.11491,0.0455 0.16821,0.0763 0.05334,0.0308 0.103694,0.0668 0.150245,0.10748 0.04653,0.0408 0.08931,0.0862 0.127636,0.13591 0.03821,0.0497 0.07188,0.10379 0.100234,0.16167 0.02834,0.0578 0.0514,0.11959 0.0683,0.1847 l 0.0018,0.007 0.0018,0.007 0.0018,0.007 0.0018,0.007 0.0018,0.007 0.0018,0.007 0.0018,0.007 0.0018,0.007 c 0.01691,0.0652 0.02665,0.13051 0.03033,0.19521 0.0035,0.0647 5.16e-4,0.12892 -0.0085,0.19173 -0.009,0.0628 -0.02404,0.12426 -0.0447,0.18357 -0.02055,0.0593 -0.04673,0.11645 -0.07805,0.17061 -0.03128,0.0542 -0.06766,0.10544 -0.108695,0.15291 -0.04106,0.0476 -0.08671,0.0913 -0.136595,0.13052 -0.04984,0.0392 -0.103976,0.0739 -0.161792,0.10326 -0.05777,0.0294 -0.119354,0.0534 -0.18419,0.0714 l -7.48989,2.07133 c -0.06487,0.0179 -0.129851,0.0286 -0.194101,0.0332 -0.06425,0.004 -0.127925,0.002 -0.190127,-0.006 -0.06216,-0.008 -0.122964,-0.0225 -0.181525,-0.0425 -0.05857,-0.0199 -0.11491,-0.0455 -0.16822,-0.0763 -0.05334,-0.0308 -0.103694,-0.0668 -0.150235,-0.10749 -0.04663,-0.0407 -0.08941,-0.0862 -0.127636,-0.1359 -0.03821,-0.0497 -0.07188,-0.10379 -0.100234,-0.16167 -0.02834,-0.0578 -0.0514,-0.11959 -0.0683,-0.1847 l -0.0018,-0.007 -0.0018,-0.007 -0.0018,-0.007 -0.0018,-0.007 -0.0018,-0.007 -0.0018,-0.007 -0.0018,-0.007 -0.0018,-0.007 c -0.01691,-0.0651 -0.02665,-0.1305 -0.03033,-0.1952 -0.0035,-0.0647 -5.16e-4,-0.12892 0.0085,-0.19173 0.009,-0.0628 0.02404,-0.12426 0.0447,-0.18357 0.02055,-0.0593 0.04673,-0.11645 0.07804,-0.17061 0.03128,-0.0542 0.06766,-0.10544 0.108705,-0.15291 0.04106,-0.0476 0.08673,-0.0912 0.136595,-0.13052 0.04984,-0.0392 0.103966,-0.0739 0.161783,-0.10325 0.05777,-0.0294 0.119363,-0.0534 0.184199,-0.0714 z"
       sodipodi:nodetypes="sssssssssscccccccsssssssssssssssssscccccccsssssssss" />
    <path
       id="rect1962-5"
       style="display:inline;stroke-width:0.100001;stroke-linecap:round"
       d="m 21.004405,25.06959 7.489897,-2.07133 c 0.06486,-0.0179 0.129851,-0.0286 0.194091,-0.0332 0.06425,-0.004 0.127935,-0.002 0.190138,0.006 0.06215,0.008 0.122964,0.0225 0.181524,0.0425 0.05858,0.0199 0.114911,0.0455 0.168213,0.0763 0.05334,0.0308 0.103694,0.0668 0.150243,0.10748 0.04663,0.0407 0.08941,0.0862 0.127636,0.1359 0.03821,0.0497 0.07188,0.1038 0.100237,0.16168 0.02834,0.0578 0.05139,0.11958 0.0683,0.18469 l 0.0018,0.007 0.0018,0.007 0.0018,0.007 0.0018,0.007 0.0018,0.007 0.0018,0.007 0.0018,0.007 0.0018,0.007 c 0.01691,0.0651 0.02665,0.1305 0.03033,0.1952 0.0035,0.0647 5.16e-4,0.12892 -0.0085,0.19174 -0.009,0.0628 -0.02404,0.12425 -0.0447,0.18356 -0.02055,0.0593 -0.04673,0.11645 -0.07805,0.17062 -0.03128,0.0542 -0.06766,0.10544 -0.108696,0.15291 -0.04106,0.0476 -0.08671,0.0913 -0.136594,0.13052 -0.04984,0.0392 -0.103976,0.0739 -0.161793,0.10325 -0.05777,0.0294 -0.119354,0.0534 -0.18419,0.0714 l -7.489898,2.07133 c -0.06486,0.0179 -0.129851,0.0286 -0.1941,0.0332 -0.06425,0.004 -0.127926,0.002 -0.190128,-0.006 -0.06215,-0.008 -0.122964,-0.0225 -0.181525,-0.0425 -0.05858,-0.0199 -0.11491,-0.0455 -0.16822,-0.0763 -0.05334,-0.0308 -0.103694,-0.0668 -0.150236,-0.10748 -0.04653,-0.0408 -0.08931,-0.0862 -0.127635,-0.13591 -0.03821,-0.0497 -0.07188,-0.10379 -0.100235,-0.16167 -0.02834,-0.0578 -0.0514,-0.11959 -0.0683,-0.1847 l -0.0018,-0.007 -0.0018,-0.007 -0.0018,-0.007 -0.0018,-0.007 -0.0018,-0.007 -0.0018,-0.007 -0.0018,-0.007 -0.0018,-0.007 c -0.01691,-0.0651 -0.02665,-0.1305 -0.03033,-0.1952 -0.0035,-0.0647 -5.19e-4,-0.12893 0.0085,-0.19174 0.009,-0.0628 0.02404,-0.12426 0.0447,-0.18357 0.02055,-0.0593 0.04673,-0.11645 0.07804,-0.1706 0.03128,-0.0542 0.06766,-0.10544 0.108703,-0.15292 0.04108,-0.0475 0.08673,-0.0912 0.136595,-0.13052 0.04984,-0.0392 0.103966,-0.0739 0.161783,-0.10325 0.05777,-0.0294 0.119363,-0.0534 0.1842,-0.0714 z"
       sodipodi:nodetypes="sssssssssscccccccsssssssssssssssssscccccccsssssssss" />
    <path
       id="rect1962-5-2"
       style="display:inline;stroke-width:0.100001;stroke-linecap:round"
       d="m 19.904333,22.26962 7.48989,-2.07133 c 0.06486,-0.0179 0.129801,-0.0288 0.194093,-0.0333 0.06425,-0.004 0.12793,-0.002 0.190135,0.006 0.06225,0.008 0.122967,0.0225 0.181515,0.0425 0.05858,0.0199 0.114918,0.0455 0.168222,0.0763 0.05334,0.0308 0.103691,0.0667 0.150234,0.10748 0.04662,0.0407 0.08941,0.0862 0.127636,0.13591 0.03823,0.0497 0.07188,0.10379 0.100235,0.16167 0.02835,0.0579 0.0514,0.11958 0.0683,0.18469 l 0.0017,0.006 0.0017,0.006 0.0017,0.006 0.0017,0.006 0.0017,0.006 0.0017,0.006 0.0017,0.006 0.0017,0.006 c 0.0169,0.0651 0.02665,0.1305 0.03033,0.1952 0.0035,0.0648 5.18e-4,0.12893 -0.0085,0.19174 -0.009,0.0628 -0.02404,0.12426 -0.0447,0.18357 -0.02056,0.0593 -0.04674,0.11641 -0.07804,0.1706 -0.03128,0.0542 -0.06767,0.10542 -0.108704,0.15292 -0.04107,0.0475 -0.08672,0.0913 -0.136607,0.13047 -0.04984,0.0392 -0.103956,0.0739 -0.161773,0.10329 -0.05777,0.0294 -0.119363,0.0534 -0.1842,0.0714 l -7.489889,2.07133 c -0.06486,0.018 -0.129851,0.0286 -0.194091,0.0332 -0.06425,0.004 -0.127935,0.002 -0.190148,-0.006 -0.06216,-0.008 -0.122966,-0.0225 -0.181512,-0.0425 -0.05858,-0.0199 -0.114917,-0.0455 -0.168212,-0.0763 -0.05334,-0.0308 -0.103691,-0.0668 -0.150243,-0.10748 -0.04652,-0.0407 -0.08931,-0.0862 -0.127636,-0.1359 -0.03823,-0.0498 -0.07188,-0.1038 -0.100235,-0.16168 -0.02835,-0.0579 -0.0514,-0.11958 -0.0683,-0.18469 l -0.0017,-0.006 -0.0017,-0.006 -0.0017,-0.006 -0.0017,-0.006 -0.0017,-0.006 -0.0017,-0.006 -0.0017,-0.006 -0.0017,-0.006 c -0.0169,-0.0651 -0.02665,-0.1305 -0.03033,-0.1952 -0.0035,-0.0648 -5.18e-4,-0.12893 0.0085,-0.19174 0.009,-0.0628 0.02404,-0.12426 0.0447,-0.18356 0.02056,-0.0593 0.04674,-0.11642 0.07805,-0.17062 0.03128,-0.0542 0.06767,-0.10542 0.108693,-0.15291 0.04107,-0.0475 0.08673,-0.0913 0.136605,-0.13048 0.04984,-0.0392 0.103966,-0.0739 0.161785,-0.10329 0.05777,-0.0294 0.119361,-0.0534 0.184197,-0.0713 z"
       sodipodi:nodetypes="sssssssssscccccccsssssssssssssssssscccccccsssssssss" />
  </g>
  <g
     inkscape:label="B.Cu"
     inkscape:groupmode="layer"
     id="g3" />
  <g
     inkscape:label="B.Mask"
     inkscape:groupmode="layer"
     id="g4" />
  <g
     inkscape:label="B.SilkS"
     inkscape:groupmode="layer"
     id="g5">
    <circle
       style="display:inline;fill:none;stroke:#000000;stroke-width:0.264583;stroke-linecap:round"
       id="path1017"
       cx="25"
       cy="25.000006"
       r="8" />
    <circle
       style="display:inline;fill:none;stroke:#000000;stroke-width:0.264583;stroke-linecap:round"
       id="path1017-3"
       cx="25"
       cy="25.000006"
       r="6.5" />
  </g>
  <g
     inkscape:label="F.Cu"
     inkscape:groupmode="layer"
     id="g6" />
  <g
     inkscape:label="F.Mask"
     inkscape:groupmode="layer"
     id="g7" />
  <g
     inkscape:label="F.SilkS"
     inkscape:groupmode="layer"
     id="g8" />
  <g
     inkscape:label="Dwgs.User"
     inkscape:groupmode="layer"
     id="g9" />
  <g
     inkscape:label="Drill"
     inkscape:groupmode="layer"
     id="g10" />
</svg>
