<?xml version="1.0" encoding="UTF-8" standalone="no"?>
<!-- Created with Inkscape (http://www.inkscape.org/) -->

<svg
   width="150mm"
   height="150mm"
   viewBox="0 0 150.0006 150.0006"
   version="1.1"
   id="svg1"
   xmlns="http://www.w3.org/2000/svg"
   xmlns:svg="http://www.w3.org/2000/svg">
  <defs
     id="defs1" />
  <g
     id="layer1"
     transform="translate(-46.297439,-29.260493)">
    <path
       id="path13-5-0"
       style="display:inline;fill:#000000;fill-opacity:1;fill-rule:nonzero;stroke:none;stroke-width:0.1;stroke-dasharray:none"
       d="m 69.926881,39.310682 c -0.05402,0 -0.107415,0.003 -0.160715,0.008 -0.05326,0.005 -0.106548,0.0132 -0.158648,0.0238 -0.05213,0.0106 -0.103395,0.0241 -0.153995,0.0398 -0.05063,0.0157 -0.100546,0.0337 -0.149346,0.0543 -0.04879,0.0207 -0.09664,0.0439 -0.143145,0.0693 -0.04656,0.0254 -0.09191,0.0532 -0.135909,0.0832 -0.04391,0.03 -0.08612,0.0622 -0.127125,0.0966 -0.04097,0.0345 -0.08064,0.0708 -0.118339,0.10956 l -0.560174,0.57671 -0.560176,0.57619 -0.560175,0.5762 -0.560174,0.57671 -0.560175,0.57619 -0.560175,0.57672 -0.560175,0.57619 -0.560174,0.57619 c -0.03629,0.0373 -0.07064,0.0765 -0.102836,0.11679 -0.0322,0.0403 -0.06192,0.0821 -0.08992,0.12506 -0.028,0.043 -0.05382,0.0874 -0.07751,0.13281 -0.0236,0.0453 -0.04539,0.0917 -0.0646,0.13901 -0.0191,0.0473 -0.03604,0.0957 -0.05064,0.14469 -0.0146,0.049 -0.02669,0.099 -0.03669,0.14935 -0.0098,0.0504 -0.01722,0.10105 -0.02222,0.15245 -0.005,0.0514 -0.0067,0.10303 -0.0067,0.15503 v 4.01734 4.01734 4.01734 4.40027 4.01682 28.39322 4.01734 4.017338 4.01734 c 0,0.0536 0.0033,0.10679 0.0083,0.15968 0.0053,0.0529 0.01327,0.10531 0.02377,0.1571 0.0104,0.0518 0.02326,0.10315 0.03876,0.15348 0.0154,0.0503 0.03344,0.0998 0.05374,0.14831 0.0203,0.0485 0.04321,0.0958 0.06821,0.14211 0.025,0.0463 0.05205,0.0916 0.08165,0.13539 0.0296,0.0438 0.0616,0.0863 0.0956,0.12713 0.03397,0.0408 0.07022,0.0797 0.10852,0.1173 l 0.419615,0.41238 0.419097,0.41238 0.419614,0.41238 0.419098,0.41187 0.419615,0.41238 0.419614,0.41238 0.419097,0.41238 0.419615,0.41237 c 0.03827,0.0376 0.07452,0.077 0.108521,0.11783 0.0341,0.0409 0.06548,0.0833 0.09508,0.12712 0.0296,0.0438 0.05717,0.0886 0.08217,0.13488 0.025,0.0463 0.04791,0.0941 0.06821,0.14262 0.0203,0.0485 0.03824,0.098 0.05374,0.14832 0.0154,0.0503 0.02826,0.10118 0.03876,0.15296 0.0105,0.0518 0.01877,0.10422 0.02377,0.1571 0.005,0.0529 0.0078,0.10606 0.0078,0.15968 v 2.72801 2.72801 l 5.17e-4,2.72801 5.17e-4,2.72801 v 2.72801 2.728 2.72801 c 0,0.0524 -0.0033,0.10437 -0.0083,0.15607 -0.005,0.0517 -0.01222,0.10278 -0.02222,0.15349 -0.01,0.0507 -0.02241,0.10107 -0.03721,0.15037 -0.01479,0.0493 -0.03218,0.0976 -0.05168,0.14521 -0.0195,0.0476 -0.04111,0.0944 -0.06511,0.14005 -0.024,0.0456 -0.05015,0.0896 -0.07855,0.13281 -0.0283,0.0431 -0.05887,0.0851 -0.09147,0.12557 -0.03267,0.0405 -0.06769,0.0794 -0.104386,0.11679 l -0.424266,0.43253 -0.424265,0.43253 -0.424781,0.43253 -0.424266,0.43255 -0.424265,0.43253 -0.424783,0.43253 -0.424264,0.43253 -0.424266,0.43253 c -0.03676,0.0374 -0.07179,0.0763 -0.104386,0.11679 -0.0326,0.0404 -0.06307,0.0824 -0.09147,0.12558 -0.0284,0.043 -0.05455,0.0878 -0.07855,0.13332 -0.024,0.0456 -0.04561,0.0919 -0.06511,0.13953 -0.0194,0.0476 -0.03636,0.0965 -0.05116,0.14572 -0.0148,0.0493 -0.02721,0.0992 -0.03721,0.14988 -0.01,0.0507 -0.01774,0.10177 -0.02274,0.15347 -0.005,0.0517 -0.0083,0.10418 -0.0083,0.15658 v 4.29898 4.29898 4.29898 11.04795 4.29898 c 0,0.053 0.0033,0.10593 0.0083,0.15813 0.0052,0.0523 0.01305,0.10383 0.02325,0.15503 0.0102,0.0512 0.02262,0.10213 0.03772,0.15193 0.0151,0.0498 0.03281,0.0988 0.05271,0.14676 0.0198,0.048 0.04165,0.0952 0.06615,0.14107 0.0245,0.046 0.0512,0.0904 0.0801,0.13385 0.029,0.0434 0.06033,0.086 0.09353,0.1266 0.03328,0.0407 0.06854,0.0798 0.105936,0.11731 l 0.318845,0.31885 0.318329,0.31936 0.318844,0.31936 0.318328,0.31885 0.318845,0.31936 0.318329,0.31936 0.318844,0.31884 0.318328,0.31936 c 0.03753,0.0376 0.07712,0.0731 0.117823,0.10645 0.04073,0.0334 0.08259,0.065 0.126091,0.0941 0.04347,0.0291 0.08836,0.056 0.134359,0.0806 0.04597,0.0246 0.09349,0.0467 0.141594,0.0667 0.04811,0.02 0.09686,0.0375 0.146762,0.0527 0.04989,0.0152 0.100629,0.0279 0.15193,0.0382 0.05131,0.0103 0.103146,0.0183 0.155546,0.0233 0.05238,0.005 0.105547,0.008 0.158647,0.008 h 3.515562 3.515562 3.516078 3.515562 3.516078 3.515562 3.515562 3.516078 c 0.05322,0 0.106148,-0.003 0.158648,-0.008 0.05249,-0.005 0.104146,-0.013 0.155547,-0.0233 0.0514,-0.0103 0.102445,-0.0229 0.152445,-0.0382 0.04999,-0.0153 0.09908,-0.0332 0.147279,-0.0532 0.04821,-0.02 0.09508,-0.0425 0.141077,-0.0672 0.04608,-0.0247 0.09137,-0.0514 0.134876,-0.0806 0.04359,-0.0292 0.08539,-0.0606 0.126091,-0.0941 0.04075,-0.0335 0.08032,-0.0688 0.117823,-0.10645 l 0.419098,-0.42168 0.419614,-0.42116 0.419614,-0.42117 0.419615,-0.42116 0.419097,-0.42116 0.419614,-0.42169 0.419611,-0.42117 0.4191,-0.42116 c 0.0375,-0.0377 0.0771,-0.0735 0.11782,-0.10697 0.0407,-0.0335 0.0826,-0.065 0.12609,-0.0941 0.0436,-0.0291 0.0884,-0.056 0.13436,-0.0806 0.0461,-0.0246 0.0934,-0.0467 0.1416,-0.0667 0.0482,-0.02 0.0974,-0.038 0.14728,-0.0532 0.0499,-0.0151 0.10052,-0.0279 0.15193,-0.0382 0.0514,-0.0103 0.10356,-0.0182 0.15606,-0.0232 0.0525,-0.005 0.10545,-0.008 0.15865,-0.008 h 0.73949 0.74001 0.73949 0.74001 0.73949 0.7395 0.74001 0.74052 c 0.0534,0 0.10698,0.003 0.15968,0.008 0.0527,0.005 0.10498,0.0128 0.15658,0.0232 0.0516,0.0104 0.10225,0.0234 0.15245,0.0388 0.0502,0.0154 0.0999,0.0335 0.14831,0.0538 0.0484,0.0202 0.0954,0.0428 0.1416,0.0677 0.0462,0.0249 0.0912,0.0517 0.13487,0.0811 0.0437,0.0294 0.0863,0.0613 0.12713,0.0951 0.0409,0.0338 0.0797,0.0696 0.1173,0.10748 l 0.41548,0.42013 0.41548,0.42065 0.416,0.42014 0.41548,0.42013 0.41548,0.42013 0.41548,0.42064 0.41548,0.42013 0.41548,0.42013 c 0.0375,0.038 0.0765,0.0738 0.11731,0.10749 0.0408,0.0338 0.0834,0.0657 0.12712,0.0951 0.0437,0.0293 0.0887,0.0562 0.13488,0.0811 0.0462,0.0249 0.0932,0.0475 0.14159,0.0677 0.0483,0.0202 0.0976,0.0383 0.14779,0.0537 0.0502,0.0153 0.10137,0.0278 0.15297,0.0382 0.0516,0.0104 0.10388,0.0188 0.15658,0.0238 0.0527,0.005 0.10576,0.008 0.15916,0.008 h 0.77153 0.77102 0.77102 0.77153 10.67019 0.77102 0.77153 0.77102 c 0.0534,0 0.10698,-0.003 0.15968,-0.008 0.0527,-0.005 0.10446,-0.0134 0.15606,-0.0238 0.0516,-0.0104 0.10276,-0.0228 0.15296,-0.0382 0.0502,-0.0154 0.0994,-0.0334 0.1478,-0.0537 0.0483,-0.0202 0.0959,-0.0428 0.14211,-0.0677 0.0462,-0.0248 0.0912,-0.0517 0.13487,-0.0811 0.0437,-0.0294 0.0863,-0.0613 0.12713,-0.0951 0.0409,-0.0337 0.0797,-0.0695 0.1173,-0.10749 l 0.41601,-0.42013 0.41548,-0.42013 0.41547,-0.42064 0.41548,-0.42013 0.41548,-0.42013 0.41548,-0.42014 0.41549,-0.42065 0.41548,-0.42013 c 0.0375,-0.0379 0.0765,-0.0737 0.1173,-0.10748 0.0407,-0.0338 0.0829,-0.0657 0.12661,-0.0951 0.0437,-0.0294 0.0887,-0.0562 0.13488,-0.0811 0.0462,-0.0248 0.0937,-0.0475 0.14211,-0.0677 0.0484,-0.0202 0.0976,-0.0384 0.14779,-0.0538 0.0502,-0.0154 0.10136,-0.0284 0.15296,-0.0388 0.0516,-0.0104 0.10388,-0.0182 0.15658,-0.0232 0.0527,-0.005 0.10577,-0.008 0.15917,-0.008 h 0.74 0.7395 0.74001 0.73949 0.74001 0.73949 0.73949 0.74002 c 0.0532,0 0.10615,0.003 0.15865,0.008 0.0525,0.005 0.10414,0.0129 0.15554,0.0232 0.0514,0.0103 0.10245,0.0232 0.15245,0.0382 0.05,0.0152 0.0991,0.0332 0.14728,0.0532 0.0482,0.02 0.0951,0.042 0.14107,0.0667 0.0461,0.0246 0.0914,0.0514 0.13488,0.0806 0.0435,0.0291 0.0854,0.0606 0.12609,0.0941 0.0406,0.0335 0.0798,0.0693 0.1173,0.10697 l 0.41962,0.42116 0.41961,0.42117 0.41911,0.42169 0.41961,0.42116 0.41961,0.42116 0.4191,0.42117 0.41961,0.42116 0.41961,0.42168 c 0.0376,0.0377 0.0766,0.073 0.11731,0.10645 0.0407,0.0335 0.083,0.0649 0.12661,0.0941 0.0434,0.0292 0.0883,0.0559 0.13436,0.0806 0.0461,0.0247 0.0934,0.0472 0.1416,0.0672 0.0482,0.0201 0.0974,0.0379 0.14727,0.0532 0.05,0.0152 0.10053,0.0279 0.15193,0.0382 0.0514,0.0103 0.10357,0.0183 0.15607,0.0233 0.0525,0.005 0.10544,0.008 0.15864,0.008 h 3.51556 3.51609 3.51555 3.51556 3.51609 3.51555 3.51609 3.51555 c 0.0531,0 0.10573,-0.003 0.15813,-0.008 0.0524,-0.005 0.10477,-0.013 0.15607,-0.0233 0.0513,-0.0103 0.10203,-0.0229 0.15193,-0.0382 0.0499,-0.0152 0.0987,-0.0327 0.14676,-0.0527 0.0481,-0.02 0.0951,-0.0421 0.14107,-0.0667 0.046,-0.0246 0.0908,-0.0515 0.13436,-0.0806 0.0435,-0.0291 0.0859,-0.0607 0.12662,-0.0941 0.0407,-0.0334 0.0798,-0.0689 0.11731,-0.10645 l 0.31884,-0.31936 0.31833,-0.31884 0.31884,-0.31936 0.31833,-0.31936 0.31884,-0.31885 0.31833,-0.31936 0.31884,-0.31936 0.31885,-0.31885 c 0.0375,-0.0375 0.0726,-0.0767 0.10594,-0.11731 0.0332,-0.0406 0.0641,-0.0831 0.093,-0.1266 0.0289,-0.0435 0.0556,-0.088 0.0801,-0.13385 0.0244,-0.0459 0.0468,-0.0931 0.0667,-0.14107 0.0199,-0.048 0.0376,-0.097 0.0527,-0.14676 0.0151,-0.0498 0.0275,-0.10073 0.0377,-0.15193 0.0102,-0.0512 0.0177,-0.10273 0.0227,-0.15503 0.005,-0.0522 0.008,-0.10513 0.008,-0.15813 v -4.29898 -11.04795 -4.29898 -4.29898 -4.29898 c 0,-0.0524 -0.003,-0.10488 -0.008,-0.15658 -0.005,-0.0517 -0.0122,-0.10277 -0.0222,-0.15347 -0.01,-0.0507 -0.0224,-0.10058 -0.0372,-0.14988 -0.0147,-0.0493 -0.0318,-0.0981 -0.0512,-0.14572 -0.0194,-0.0476 -0.0411,-0.094 -0.0651,-0.13953 -0.024,-0.0456 -0.0502,-0.0902 -0.0786,-0.13332 -0.0284,-0.0432 -0.0589,-0.0852 -0.0915,-0.12558 -0.0327,-0.0405 -0.0682,-0.0794 -0.10491,-0.11679 l -0.42375,-0.43253 -0.42478,-0.43253 -0.42479,-0.43253 -0.42374,-0.43253 -0.42478,-0.43255 -0.42427,-0.43253 -0.42479,-0.43253 -0.42478,-0.43253 c -0.0366,-0.0374 -0.0713,-0.0763 -0.10387,-0.11679 -0.0326,-0.0404 -0.0632,-0.0824 -0.0915,-0.12557 -0.0283,-0.0432 -0.0545,-0.0872 -0.0785,-0.13281 -0.024,-0.0455 -0.0456,-0.0924 -0.0651,-0.14005 -0.0195,-0.0477 -0.0364,-0.0959 -0.0512,-0.14521 -0.0148,-0.0493 -0.0272,-0.0997 -0.0372,-0.15037 -0.01,-0.0507 -0.0177,-0.10179 -0.0227,-0.15349 -0.005,-0.0517 -0.008,-0.10367 -0.008,-0.15607 v -2.72801 -2.728 -2.72801 l 5.2e-4,-2.72801 5.2e-4,-2.72801 v -2.72801 -2.72801 c 0,-0.0536 0.003,-0.1068 0.008,-0.15968 0.005,-0.0529 0.0133,-0.10532 0.0238,-0.1571 0.0104,-0.0518 0.0238,-0.10264 0.0393,-0.15296 0.0155,-0.0503 0.0329,-0.0998 0.0532,-0.14832 0.0203,-0.0485 0.0432,-0.0963 0.0682,-0.14262 0.025,-0.0463 0.0526,-0.0911 0.0822,-0.13488 0.0296,-0.0438 0.0616,-0.0863 0.0956,-0.12712 0.034,-0.0409 0.0703,-0.0802 0.10852,-0.11783 l 0.41909,-0.41237 0.41963,-0.41238 0.41909,-0.41238 0.41961,-0.41238 0.41962,-0.41187 0.41909,-0.41238 0.41962,-0.41238 0.4191,-0.41238 c 0.0383,-0.0376 0.0745,-0.0765 0.10852,-0.1173 0.0341,-0.0409 0.066,-0.0834 0.0956,-0.12713 0.0296,-0.0438 0.0572,-0.0891 0.0822,-0.13539 0.0251,-0.0463 0.0479,-0.0936 0.0682,-0.14211 0.0203,-0.0485 0.0377,-0.098 0.0532,-0.14831 0.0154,-0.0503 0.0288,-0.10169 0.0393,-0.15348 0.0105,-0.0518 0.0188,-0.10421 0.0238,-0.1571 0.005,-0.0529 0.008,-0.10606 0.008,-0.15968 v -4.01737 -4.017338 -4.01734 -28.39322 -4.01682 -4.40027 -4.01734 -4.01734 -4.01734 c 0,-0.052 -0.003,-0.10363 -0.008,-0.15503 -0.005,-0.0514 -0.0122,-0.10205 -0.0222,-0.15245 -0.01,-0.0503 -0.0221,-0.10034 -0.0367,-0.14934 -0.0146,-0.049 -0.032,-0.0974 -0.0512,-0.1447 -0.0192,-0.0473 -0.0404,-0.0937 -0.0641,-0.13901 -0.0236,-0.0453 -0.0495,-0.0898 -0.0775,-0.13281 -0.028,-0.043 -0.0582,-0.0847 -0.0904,-0.12506 -0.0322,-0.0403 -0.0661,-0.0794 -0.10232,-0.11679 l -0.56019,-0.57619 -0.56017,-0.57619 -0.56017,-0.57671 -0.56017,-0.5762 -0.56019,-0.57671 -0.56017,-0.57619 -0.56017,-0.5762 -0.56017,-0.57671 c -0.0377,-0.0388 -0.0768,-0.075 -0.11783,-0.10956 -0.041,-0.0344 -0.0836,-0.0666 -0.12764,-0.0966 -0.044,-0.03 -0.0893,-0.0578 -0.13591,-0.0832 -0.0465,-0.0254 -0.0943,-0.0486 -0.14314,-0.0692 -0.0488,-0.0206 -0.0986,-0.0386 -0.14934,-0.0543 -0.0507,-0.0157 -0.10181,-0.0292 -0.15401,-0.0398 -0.0522,-0.0107 -0.10535,-0.0188 -0.15865,-0.0238 -0.0533,-0.005 -0.10661,-0.008 -0.16071,-0.008 h -11.60504 -11.60502 -11.60451 -5.80225 -2.90164 -15.70298 -2.90113 -5.80225 -11.605028 -11.604505 z m 98.936479,2.10531 h 5.1e-4 0.015 c -0.001,0.0277 -0.004,0.0548 -0.004,0.0827 v 5.52371 c 0,1.19765 0.98853,2.16164 2.21641,2.16164 h 5.41416 c 0.0392,0 0.0775,-0.004 0.11627,-0.006 0.001,18.78716 0.0196,37.57504 -0.007,56.362158 0.18575,0.68574 -0.38542,1.14988 -0.86196,1.53428 -1.18319,1.36083 -3.00863,2.3823 -3.36881,4.28864 -0.1067,5.66853 -0.0529,11.34494 -0.0651,17.0166 0.11139,1.4683 -0.32557,3.06411 0.44597,4.41318 0.96725,1.67769 2.65435,2.76307 3.84578,4.26178 0.001,0.45709 0.003,0.91388 0.004,1.37098 l 0.003,1.3715 c 9.8e-4,0.4571 0.002,0.91439 0.003,1.37149 8.2e-4,0.45711 0.002,0.91388 0.002,1.37099 6.7e-4,0.4571 0.001,0.91439 0.002,1.37149 5.5e-4,0.45712 10e-4,0.91439 10e-4,1.3715 4.4e-4,0.4571 9.2e-4,0.91387 0.001,1.37099 3.7e-4,0.45711 7.7e-4,0.91438 0.001,1.37149 3.2e-4,0.45711 7.9e-4,0.91439 0.001,1.3715 3e-4,0.4571 2.2e-4,0.91388 5.1e-4,1.37098 2.8e-4,0.45711 7.6e-4,0.9144 0.001,1.3715 3e-4,0.45711 1.9e-4,0.91439 5.1e-4,1.37149 3.5e-4,0.45711 8e-4,0.91389 0.001,1.37099 4.1e-4,0.45709 9.2e-4,0.9144 0.001,1.37149 5e-4,0.4571 -0.0279,0.66068 -0.0269,1.11777 -0.0445,0.0376 -0.089,0.0755 -0.13333,0.11317 -0.0443,0.0378 -0.0886,0.0752 -0.13281,0.11318 -0.0442,0.0379 -0.0877,0.0761 -0.13177,0.1142 -0.044,0.0381 -0.088,0.0764 -0.13178,0.11472 -0.0438,0.0383 -0.0875,0.0763 -0.13125,0.11472 -0.0436,0.0384 -0.0873,0.0772 -0.13075,0.11576 -0.0435,0.0386 -0.0869,0.0775 -0.13022,0.11627 -0.0433,0.0388 -0.0866,0.0773 -0.12971,0.11627 -0.0432,0.0389 -0.0862,0.0782 -0.1292,0.11731 -0.043,0.0391 -0.0858,0.078 -0.12867,0.1173 -0.0428,0.0392 -0.086,0.0784 -0.12868,0.11783 -0.0427,0.0394 -0.0851,0.0788 -0.12764,0.11834 -0.0425,0.0395 -0.0852,0.0792 -0.12764,0.11885 -0.0424,0.0397 -0.0848,0.0796 -0.12712,0.11938 -0.0423,0.0398 -0.0839,0.0795 -0.12609,0.11938 -0.0421,0.04 -0.0847,0.0798 -0.12661,0.11989 -0.042,0.0401 -0.0837,0.0807 -0.12557,0.12092 -0.0418,0.0402 -0.0833,0.0801 -0.12506,0.1204 -0.0417,0.0403 -0.0835,0.0809 -0.12506,0.12144 -0.0416,0.0405 -0.0831,0.0808 -0.12454,0.12144 -0.0415,0.0406 -0.0831,0.0813 -0.12454,0.12196 -0.0413,0.0407 -0.0823,0.0816 -0.12351,0.12247 -0.0412,0.0408 -0.0824,0.0815 -0.1235,0.12248 -0.0411,0.0409 -0.082,0.082 -0.12299,0.12299 -0.041,0.0411 -0.0821,0.0824 -0.12299,0.1235 -0.0409,0.0412 -0.0817,0.0822 -0.12248,0.12351 -0.0408,0.0413 -0.0813,0.0826 -0.12195,0.12402 -0.0407,0.0414 -0.0814,0.083 -0.12196,0.12454 -0.0405,0.0415 -0.081,0.0829 -0.12145,0.12454 -0.0405,0.0416 -0.0811,0.0834 -0.12144,0.12506 -0.0404,0.0417 -0.0807,0.0833 -0.12092,0.12506 -0.0403,0.0418 -0.0803,0.0837 -0.12041,0.12557 -0.0402,0.0419 -0.0803,0.0837 -0.1204,0.12557 -0.0401,0.0419 -0.0804,0.084 -0.12041,0.12611 -0.04,0.042 -0.0799,0.084 -0.11989,0.12609 -0.0399,0.0421 -0.0795,0.0844 -0.11937,0.1266 -0.0398,0.0422 -0.0796,0.0843 -0.11937,0.12661 -0.0398,0.0423 -0.0797,0.0848 -0.11938,0.12712 -0.0397,0.0423 -0.0792,0.0847 -0.11885,0.12713 -0.0396,0.0424 -0.0793,0.0847 -0.11886,0.12712 -0.0395,0.0425 -0.0789,0.0851 -0.11834,0.12764 -0.0395,0.0426 -0.0789,0.085 -0.11833,0.12764 -0.0394,0.0426 -0.079,0.0854 -0.11834,0.12816 -0.0394,0.0427 -0.0785,0.085 -0.11783,0.12764 -0.0393,0.0427 -0.0786,0.0859 -0.11782,0.12868 -0.0393,0.0428 -0.0787,0.0853 -0.11782,0.12815 -0.0392,0.0428 -0.0782,0.0858 -0.11731,0.12868 -0.0392,0.0429 -0.22624,0.14469 -0.28423,0.14469 h -3.70004 -0.99994 c -1.10801,0 -1.99989,0.89189 -1.99989,1.99989 v 1.69655 c 0,0.041 0.002,0.0811 0.004,0.12144 l -0.21343,5.1e-4 -1.35238,0.003 c -0.45084,9.4e-4 -0.90204,0.002 -1.35289,0.003 -0.45085,7.7e-4 -0.90154,5.5e-4 -1.35238,0.002 -0.45085,5.8e-4 -0.90153,0.001 -1.35237,0.001 -0.45086,3.5e-4 -0.90206,4.4e-4 -1.3529,5.2e-4 -0.45085,9e-5 -0.90153,2.1e-4 -1.35238,0 -0.45085,-2e-4 -0.90162,-6.4e-4 -1.35237,-0.001 -0.45085,-5.3e-4 -0.90205,-5.5e-4 -1.3529,-0.002 -0.45083,-8.8e-4 -0.90155,-0.002 -1.35238,-0.003 -0.45084,-0.001 -0.90156,-0.003 -1.35238,-0.004 l -1.35237,-0.006 c -0.45082,-0.002 -0.90157,-0.004 -1.35238,-0.007 -0.71259,0.18783 -1.19211,-0.4128 -1.59474,-0.9028 -1.27172,-1.13529 -2.26673,-2.75832 -3.98995,-3.24891 -1.96486,-0.26735 -3.97083,-0.0691 -5.95212,-0.1297 -1.3043,-0.17538 -2.63452,0.26046 -3.59566,1.15859 -1.08486,0.98714 -1.99027,2.1389 -3.13987,3.1316 -4.96323,0.0369 -9.92687,0.0189 -14.89011,0.0119 -0.55028,0.14124 -1.00978,-0.17212 -1.32706,-0.60358 -1.31739,-1.16391 -2.29388,-2.8125 -3.99202,-3.47268 -1.3823,-0.4088 -2.8591,-0.16709 -4.28192,-0.22789 -1.44441,0.12179 -2.98222,-0.31006 -4.33929,0.35088 -1.780209,0.89617 -2.838029,2.69341 -4.357375,3.92588 -0.464318,0.003 -0.92888,0.006 -1.393201,0.008 -0.464331,0.003 -0.92888,0.005 -1.393203,0.007 l -1.392685,0.006 c -0.464324,0.002 -0.928868,0.003 -1.393203,0.005 -0.464326,0.001 -0.928358,0.003 -1.392684,0.004 l -1.393203,0.003 c -0.464337,8e-4 -0.928865,0.001 -1.393203,0.002 -0.464327,5.4e-4 -0.928355,0.001 -1.392684,0.001 -0.464338,3.2e-4 -0.928873,4.2e-4 -1.393203,5.2e-4 -0.464338,1.2e-4 -0.928863,3e-5 -1.393202,0 -0.46433,-2e-5 -0.928347,-3.6e-4 -1.392686,-5.2e-4 -0.46433,-1.5e-4 -0.928872,-2.6e-4 -1.393201,-5.1e-4 -0.129567,-7e-5 -0.259079,-4.2e-4 -0.388609,-5.2e-4 0.0022,-0.0383 0.0036,-0.0769 0.0036,-0.11576 v -1.71773 c 0,-1.108 -0.891887,-1.99989 -1.999885,-1.99989 h -0.999426 -3.708316 l -0.243914,-0.1142 -0.244431,-0.25942 -0.243913,-0.25941 -0.244431,-0.2589 -0.243914,-0.25942 -0.243913,-0.25941 -0.244431,-0.25942 -0.243914,-0.25891 -0.24443,-0.25941 -0.243914,-0.25942 -0.243914,-0.2589 -0.24443,-0.25941 -0.243914,-0.25942 -0.24443,-0.25942 -0.243913,-0.2589 -0.243914,-0.25941 -0.244431,-0.25942 -0.243913,-0.25942 -0.244431,-0.2589 -0.243914,-0.25942 -0.243913,-0.25941 -0.244431,-0.2589 -0.243914,-0.25942 -0.24443,-0.25941 -0.243914,-0.25942 c -7.38e-4,-0.44238 -0.0065,-0.16223 -0.0072,-0.60462 -7.06e-4,-0.44238 -0.0014,-0.88466 -0.0021,-1.32705 -6.63e-4,-0.44238 -0.0015,-0.88467 -0.0021,-1.32706 -6.11e-4,-0.44239 -0.001,-0.88518 -0.0015,-1.32757 -5.49e-4,-0.44238 -0.0012,-0.88466 -0.0016,-1.32706 -4.76e-4,-0.44238 -6.81e-4,-0.88467 -0.001,-1.32705 -3.93e-4,-0.44239 -8.09e-4,-0.88467 -10e-4,-1.32706 -3.01e-4,-0.44239 -8.7e-4,-0.88475 -0.001,-1.32705 -1.99e-4,-0.44238 -4.32e-4,-0.8852 -5.17e-4,-1.32758 -8.6e-5,-0.44239 -3.8e-5,-0.88467 0,-1.32705 3.7e-5,-0.44239 3.47e-4,-0.88467 5.17e-4,-1.32706 1.7e-4,-0.44238 2.04e-4,-0.88476 5.17e-4,-1.32705 3.13e-4,-0.4424 5.66e-4,-0.88469 0.001,-1.32707 4.66e-4,-0.44238 0.0015,-0.88518 0.0021,-1.32756 6.29e-4,-0.44239 0.0013,-0.88468 0.0021,-1.32706 -0.203874,-0.77087 0.485839,-1.25607 0.981856,-1.71102 1.159601,-1.38515 2.971634,-2.44891 3.276299,-4.37184 0.07937,-6.10336 0.03762,-12.21312 0.04702,-18.31885 0.06354,-1.18199 0.04622,-2.45045 -0.713138,-3.43495 -1.017452,-1.39866 -2.460115,-2.40852 -3.587908,-3.70935 -0.0018,-4.05374 -0.0034,-8.107308 -0.0052,-12.161058 0.005,-14.95066 -0.02354,-29.90223 0.01447,-44.85274 0.0341,0.002 0.06782,0.005 0.10232,0.005 h 5.414162 c 1.227857,0 2.216411,-0.96399 2.216411,-2.16163 v -5.5232 c 0,-0.0223 -0.0024,-0.044 -0.0031,-0.0662 31.715031,-0.008 63.430981,0.0145 95.146001,-0.017 z m -97.925167,3.98582 c 0.552237,3e-5 0.999909,0.4477 0.999943,0.99994 -3.4e-5,0.55224 -0.447706,0.99991 -0.999943,0.99994 -0.55224,-3e-5 -0.999909,-0.4477 -0.999943,-0.99994 3.4e-5,-0.55224 0.447703,-0.99991 0.999943,-0.99994 z m 100.718287,0 c 0.55224,3e-5 0.99991,0.4477 0.99994,0.99994 -3e-5,0.55224 -0.4477,0.99991 -0.99994,0.99994 -0.55224,-3e-5 -0.99991,-0.4477 -0.99994,-0.99994 3e-5,-0.55224 0.4477,-0.99991 0.99994,-0.99994 z M 67.022653,159.65627 c 0.02414,0.001 0.04788,0.004 0.07183,0.009 0.04791,0.01 0.09524,0.027 0.140044,0.0522 0.04481,0.0252 0.08749,0.0585 0.12609,0.10025 l 0.680065,0.73846 0.680065,0.73846 0.680064,0.73846 0.680065,0.73846 0.680064,0.73846 0.680065,0.73846 0.680064,0.73846 0.680065,0.73845 c 0.0368,0.04 0.06562,0.0834 0.08682,0.12816 0.0212,0.0448 0.03434,0.0912 0.04134,0.13798 0.0069,0.0468 0.007,0.094 0,0.14004 -0.0066,0.046 -0.01964,0.0909 -0.03824,0.13333 -0.0185,0.0424 -0.04295,0.0823 -0.07235,0.11834 -0.02942,0.036 -0.06384,0.0683 -0.102836,0.0951 -0.03893,0.0268 -0.08241,0.0482 -0.129709,0.063 -0.04732,0.0149 -0.09846,0.0227 -0.152962,0.0227 h -0.396876 -0.396877 l -0.397393,5.2e-4 h -0.396877 -0.397393 -0.396877 l -0.397393,5.2e-4 h -0.396876 c -0.0281,0 -0.05592,-6.2e-4 -0.08372,-0.004 -0.0278,-0.003 -0.05538,-0.006 -0.08268,-0.0114 -0.0273,-0.005 -0.05453,-0.0111 -0.08113,-0.0191 -0.0266,-0.008 -0.05275,-0.0158 -0.07855,-0.0258 -0.0258,-0.01 -0.05116,-0.0213 -0.07596,-0.0336 -0.0248,-0.0124 -0.04875,-0.0262 -0.07235,-0.0408 -0.0236,-0.0146 -0.04643,-0.0302 -0.06873,-0.047 -0.0223,-0.0168 -0.0438,-0.0347 -0.0646,-0.0537 l -0.233062,-0.21291 -0.233061,-0.21342 -0.233061,-0.21291 -0.232545,-0.21342 -0.233062,-0.21291 -0.233062,-0.21342 -0.232545,-0.21291 -0.233061,-0.21342 c -0.0233,-0.0213 -0.04545,-0.0443 -0.06615,-0.0677 -0.0207,-0.0234 -0.0403,-0.0477 -0.05839,-0.0729 -0.0181,-0.0253 -0.03483,-0.0516 -0.05013,-0.0786 -0.0153,-0.0269 -0.02884,-0.0544 -0.04134,-0.0827 -0.0125,-0.0282 -0.02307,-0.0569 -0.03307,-0.0863 -0.0095,-0.0294 -0.01777,-0.0595 -0.02377,-0.0899 -0.0066,-0.0304 -0.01199,-0.0614 -0.01499,-0.0925 -0.003,-0.0311 -0.0047,-0.0624 -0.0047,-0.094 v -0.47544 l -5.17e-4,-0.47542 v -0.47542 -0.47542 -0.47543 -0.47543 -0.47542 -0.47543 c 0,-0.0569 0.0089,-0.11026 0.0248,-0.15916 0.0159,-0.0489 0.0391,-0.0937 0.0677,-0.13333 0.02861,-0.0397 0.06257,-0.0743 0.10077,-0.10335 0.03817,-0.0291 0.08046,-0.0529 0.125057,-0.0703 0.04463,-0.0174 0.09173,-0.0291 0.139527,-0.0331 0.02391,-0.002 0.04821,-0.002 0.07235,-10e-4 z m 108.548857,0 h 5.1e-4 c 0.0239,-9.7e-4 0.0486,-8.8e-4 0.0724,0.001 0.0478,0.004 0.0949,0.0157 0.13953,0.0331 0.0446,0.0174 0.0863,0.0412 0.12454,0.0703 0.0382,0.0291 0.0727,0.0636 0.10128,0.10335 0.0287,0.0396 0.0518,0.0844 0.0677,0.13333 0.0156,0.0489 0.0243,0.10226 0.0243,0.15916 v 0.47543 0.47542 0.47543 0.47543 0.47542 0.47542 0.47542 0.47544 c 0,0.0316 -0.002,0.0631 -0.005,0.094 -0.003,0.0311 -0.008,0.0621 -0.0145,0.0925 -0.006,0.0304 -0.0143,0.0605 -0.0243,0.0899 -0.009,0.0294 -0.02,0.058 -0.0326,0.0863 -0.0125,0.0283 -0.0265,0.0563 -0.0418,0.0832 -0.0153,0.0268 -0.032,0.0528 -0.0501,0.078 -0.018,0.0252 -0.0372,0.0495 -0.0579,0.0729 -0.0207,0.0234 -0.0428,0.0459 -0.0661,0.0672 l -0.23306,0.21291 -0.23307,0.21342 -0.23255,0.21291 -0.23306,0.21342 -0.23306,0.21291 -0.23306,0.21342 -0.23254,0.21291 -0.23307,0.21342 c -0.0208,0.019 -0.0423,0.0369 -0.0646,0.0537 -0.0223,0.0168 -0.0446,0.0324 -0.0682,0.047 -0.0236,0.0147 -0.0486,0.0285 -0.0734,0.0408 -0.0248,0.0123 -0.0502,0.0236 -0.076,0.0336 -0.0258,0.01 -0.052,0.0182 -0.0786,0.0264 -0.0266,0.008 -0.0538,0.0141 -0.0811,0.0191 -0.0273,0.006 -0.0549,0.008 -0.0827,0.0114 -0.0278,0.003 -0.0556,0.004 -0.0837,0.004 h -0.39688 l -0.39739,-5.1e-4 h -0.39688 -0.39687 -0.3974 l -0.39687,-5.2e-4 h -0.39688 -0.3974 c -0.0545,0 -0.10566,-0.008 -0.15296,-0.0227 -0.0474,-0.0148 -0.0907,-0.0368 -0.12971,-0.0636 -0.039,-0.0268 -0.0734,-0.0586 -0.10283,-0.0946 -0.0294,-0.036 -0.0537,-0.0759 -0.0724,-0.11834 -0.0186,-0.0424 -0.0307,-0.0873 -0.0377,-0.13332 -0.006,-0.046 -0.008,-0.0932 -5.2e-4,-0.14004 0.007,-0.0468 0.0207,-0.0932 0.0419,-0.13798 0.0211,-0.0448 0.0499,-0.0882 0.0868,-0.12816 l 0.68007,-0.73845 0.68007,-0.73846 0.68006,-0.73847 0.68006,-0.73845 0.68007,-0.73846 0.68006,-0.73847 0.68007,-0.73845 0.68006,-0.73846 c 0.0386,-0.0419 0.0813,-0.0751 0.12609,-0.10025 0.0448,-0.0252 0.0916,-0.0422 0.13953,-0.0522 0.0238,-0.005 0.0479,-0.008 0.0718,-0.009 z m -98.633143,4.46383 a 1.000004,1.000004 0 0 1 0.999943,0.99994 1.000004,1.000004 0 0 1 -0.999943,0.99994 1.000004,1.000004 0 0 1 -0.999943,-0.99994 1.000004,1.000004 0 0 1 0.999943,-0.99994 z m 88.717943,0 a 1.000004,1.000004 0 0 1 0.99994,0.99994 1.000004,1.000004 0 0 1 -0.99994,1.00046 1.000004,1.000004 0 0 1 -0.99995,-1.00046 1.000004,1.000004 0 0 1 0.99995,-0.99994 z" />
  </g>
</svg>
