%TF.GenerationSoftware,KiCad,Pcbnew,8.0.2*%
%TF.CreationDate,2024-05-22T21:58:48+02:00*%
%TF.ProjectId,why2025,77687932-3032-4352-9e6b-696361645f70,rev?*%
%TF.SameCoordinates,Original*%
%TF.FileFunction,Paste,Top*%
%TF.FilePolarity,Positive*%
%FSLAX46Y46*%
G04 Gerber Fmt 4.6, Leading zero omitted, Abs format (unit mm)*
G04 Created by KiCad (PCBNEW 8.0.2) date 2024-05-22 21:58:48*
%MOMM*%
%LPD*%
G01*
G04 APERTURE LIST*
G04 Aperture macros list*
%AMOutline5P*
0 Free polygon, 5 corners , with rotation*
0 The origin of the aperture is its center*
0 number of corners: always 5*
0 $1 to $10 corner X, Y*
0 $11 Rotation angle, in degrees counterclockwise*
0 create outline with 5 corners*
4,1,5,$1,$2,$3,$4,$5,$6,$7,$8,$9,$10,$1,$2,$11*%
%AMOutline6P*
0 Free polygon, 6 corners , with rotation*
0 The origin of the aperture is its center*
0 number of corners: always 6*
0 $1 to $12 corner X, Y*
0 $13 Rotation angle, in degrees counterclockwise*
0 create outline with 6 corners*
4,1,6,$1,$2,$3,$4,$5,$6,$7,$8,$9,$10,$11,$12,$1,$2,$13*%
%AMOutline7P*
0 Free polygon, 7 corners , with rotation*
0 The origin of the aperture is its center*
0 number of corners: always 7*
0 $1 to $14 corner X, Y*
0 $15 Rotation angle, in degrees counterclockwise*
0 create outline with 7 corners*
4,1,7,$1,$2,$3,$4,$5,$6,$7,$8,$9,$10,$11,$12,$13,$14,$1,$2,$15*%
%AMOutline8P*
0 Free polygon, 8 corners , with rotation*
0 The origin of the aperture is its center*
0 number of corners: always 8*
0 $1 to $16 corner X, Y*
0 $17 Rotation angle, in degrees counterclockwise*
0 create outline with 8 corners*
4,1,8,$1,$2,$3,$4,$5,$6,$7,$8,$9,$10,$11,$12,$13,$14,$15,$16,$1,$2,$17*%
G04 Aperture macros list end*
%ADD10C,0.010000*%
%ADD11Outline5P,-0.400000X0.210000X-0.260000X0.350000X0.400000X0.350000X0.400000X-0.350000X-0.400000X-0.350000X0.000000*%
%ADD12R,0.800000X0.700000*%
%ADD13R,0.670000X0.830000*%
G04 APERTURE END LIST*
D10*
%TO.C,J14*%
X38439500Y61227000D02*
X38260500Y61227000D01*
X38260500Y61853000D01*
X38439500Y61853000D01*
X38439500Y61227000D01*
G36*
X38439500Y61227000D02*
G01*
X38260500Y61227000D01*
X38260500Y61853000D01*
X38439500Y61853000D01*
X38439500Y61227000D01*
G37*
X38439500Y58147000D02*
X38260500Y58147000D01*
X38260500Y58773000D01*
X38439500Y58773000D01*
X38439500Y58147000D01*
G36*
X38439500Y58147000D02*
G01*
X38260500Y58147000D01*
X38260500Y58773000D01*
X38439500Y58773000D01*
X38439500Y58147000D01*
G37*
X38839500Y61227000D02*
X38660500Y61227000D01*
X38660500Y61853000D01*
X38839500Y61853000D01*
X38839500Y61227000D01*
G36*
X38839500Y61227000D02*
G01*
X38660500Y61227000D01*
X38660500Y61853000D01*
X38839500Y61853000D01*
X38839500Y61227000D01*
G37*
X38839500Y58147000D02*
X38660500Y58147000D01*
X38660500Y58773000D01*
X38839500Y58773000D01*
X38839500Y58147000D01*
G36*
X38839500Y58147000D02*
G01*
X38660500Y58147000D01*
X38660500Y58773000D01*
X38839500Y58773000D01*
X38839500Y58147000D01*
G37*
X39239500Y61227000D02*
X39060500Y61227000D01*
X39060500Y61853000D01*
X39239500Y61853000D01*
X39239500Y61227000D01*
G36*
X39239500Y61227000D02*
G01*
X39060500Y61227000D01*
X39060500Y61853000D01*
X39239500Y61853000D01*
X39239500Y61227000D01*
G37*
X39239500Y58147000D02*
X39060500Y58147000D01*
X39060500Y58773000D01*
X39239500Y58773000D01*
X39239500Y58147000D01*
G36*
X39239500Y58147000D02*
G01*
X39060500Y58147000D01*
X39060500Y58773000D01*
X39239500Y58773000D01*
X39239500Y58147000D01*
G37*
X39639500Y61227000D02*
X39460500Y61227000D01*
X39460500Y61853000D01*
X39639500Y61853000D01*
X39639500Y61227000D01*
G36*
X39639500Y61227000D02*
G01*
X39460500Y61227000D01*
X39460500Y61853000D01*
X39639500Y61853000D01*
X39639500Y61227000D01*
G37*
X39639500Y58147000D02*
X39460500Y58147000D01*
X39460500Y58773000D01*
X39639500Y58773000D01*
X39639500Y58147000D01*
G36*
X39639500Y58147000D02*
G01*
X39460500Y58147000D01*
X39460500Y58773000D01*
X39639500Y58773000D01*
X39639500Y58147000D01*
G37*
X40039500Y61227000D02*
X39860500Y61227000D01*
X39860500Y61853000D01*
X40039500Y61853000D01*
X40039500Y61227000D01*
G36*
X40039500Y61227000D02*
G01*
X39860500Y61227000D01*
X39860500Y61853000D01*
X40039500Y61853000D01*
X40039500Y61227000D01*
G37*
X40039500Y58147000D02*
X39860500Y58147000D01*
X39860500Y58773000D01*
X40039500Y58773000D01*
X40039500Y58147000D01*
G36*
X40039500Y58147000D02*
G01*
X39860500Y58147000D01*
X39860500Y58773000D01*
X40039500Y58773000D01*
X40039500Y58147000D01*
G37*
X40439500Y61227000D02*
X40260500Y61227000D01*
X40260500Y61853000D01*
X40439500Y61853000D01*
X40439500Y61227000D01*
G36*
X40439500Y61227000D02*
G01*
X40260500Y61227000D01*
X40260500Y61853000D01*
X40439500Y61853000D01*
X40439500Y61227000D01*
G37*
X40439500Y58147000D02*
X40260500Y58147000D01*
X40260500Y58773000D01*
X40439500Y58773000D01*
X40439500Y58147000D01*
G36*
X40439500Y58147000D02*
G01*
X40260500Y58147000D01*
X40260500Y58773000D01*
X40439500Y58773000D01*
X40439500Y58147000D01*
G37*
X40839500Y61227000D02*
X40660500Y61227000D01*
X40660500Y61853000D01*
X40839500Y61853000D01*
X40839500Y61227000D01*
G36*
X40839500Y61227000D02*
G01*
X40660500Y61227000D01*
X40660500Y61853000D01*
X40839500Y61853000D01*
X40839500Y61227000D01*
G37*
X40839500Y58147000D02*
X40660500Y58147000D01*
X40660500Y58773000D01*
X40839500Y58773000D01*
X40839500Y58147000D01*
G36*
X40839500Y58147000D02*
G01*
X40660500Y58147000D01*
X40660500Y58773000D01*
X40839500Y58773000D01*
X40839500Y58147000D01*
G37*
X41239500Y61227000D02*
X41060500Y61227000D01*
X41060500Y61853000D01*
X41239500Y61853000D01*
X41239500Y61227000D01*
G36*
X41239500Y61227000D02*
G01*
X41060500Y61227000D01*
X41060500Y61853000D01*
X41239500Y61853000D01*
X41239500Y61227000D01*
G37*
X41239500Y58147000D02*
X41060500Y58147000D01*
X41060500Y58773000D01*
X41239500Y58773000D01*
X41239500Y58147000D01*
G36*
X41239500Y58147000D02*
G01*
X41060500Y58147000D01*
X41060500Y58773000D01*
X41239500Y58773000D01*
X41239500Y58147000D01*
G37*
X41639500Y61227000D02*
X41460500Y61227000D01*
X41460500Y61853000D01*
X41639500Y61853000D01*
X41639500Y61227000D01*
G36*
X41639500Y61227000D02*
G01*
X41460500Y61227000D01*
X41460500Y61853000D01*
X41639500Y61853000D01*
X41639500Y61227000D01*
G37*
X41639500Y58147000D02*
X41460500Y58147000D01*
X41460500Y58773000D01*
X41639500Y58773000D01*
X41639500Y58147000D01*
G36*
X41639500Y58147000D02*
G01*
X41460500Y58147000D01*
X41460500Y58773000D01*
X41639500Y58773000D01*
X41639500Y58147000D01*
G37*
X42039500Y61227000D02*
X41860500Y61227000D01*
X41860500Y61853000D01*
X42039500Y61853000D01*
X42039500Y61227000D01*
G36*
X42039500Y61227000D02*
G01*
X41860500Y61227000D01*
X41860500Y61853000D01*
X42039500Y61853000D01*
X42039500Y61227000D01*
G37*
X42039500Y58147000D02*
X41860500Y58147000D01*
X41860500Y58773000D01*
X42039500Y58773000D01*
X42039500Y58147000D01*
G36*
X42039500Y58147000D02*
G01*
X41860500Y58147000D01*
X41860500Y58773000D01*
X42039500Y58773000D01*
X42039500Y58147000D01*
G37*
X42439500Y61227000D02*
X42260500Y61227000D01*
X42260500Y61853000D01*
X42439500Y61853000D01*
X42439500Y61227000D01*
G36*
X42439500Y61227000D02*
G01*
X42260500Y61227000D01*
X42260500Y61853000D01*
X42439500Y61853000D01*
X42439500Y61227000D01*
G37*
X42439500Y58147000D02*
X42260500Y58147000D01*
X42260500Y58773000D01*
X42439500Y58773000D01*
X42439500Y58147000D01*
G36*
X42439500Y58147000D02*
G01*
X42260500Y58147000D01*
X42260500Y58773000D01*
X42439500Y58773000D01*
X42439500Y58147000D01*
G37*
X42839500Y61227000D02*
X42660500Y61227000D01*
X42660500Y61853000D01*
X42839500Y61853000D01*
X42839500Y61227000D01*
G36*
X42839500Y61227000D02*
G01*
X42660500Y61227000D01*
X42660500Y61853000D01*
X42839500Y61853000D01*
X42839500Y61227000D01*
G37*
X42839500Y58147000D02*
X42660500Y58147000D01*
X42660500Y58773000D01*
X42839500Y58773000D01*
X42839500Y58147000D01*
G36*
X42839500Y58147000D02*
G01*
X42660500Y58147000D01*
X42660500Y58773000D01*
X42839500Y58773000D01*
X42839500Y58147000D01*
G37*
%TD*%
D11*
%TO.C,U19*%
X-50650000Y28600000D03*
D12*
X-50650000Y27400000D03*
X-49350000Y27400000D03*
X-49350000Y28600000D03*
%TD*%
D13*
%TO.C,D74*%
X-16185000Y-3815000D03*
X-13015000Y-3815000D03*
%TD*%
%TO.C,D76*%
X27615000Y-3815000D03*
X30785000Y-3815000D03*
%TD*%
D11*
%TO.C,U17*%
X-50650000Y50600000D03*
D12*
X-50650000Y49400000D03*
X-49350000Y49400000D03*
X-49350000Y50600000D03*
%TD*%
D13*
%TO.C,D81*%
X29635000Y-57735000D03*
X26465000Y-57735000D03*
%TD*%
D11*
%TO.C,U9*%
X-50650000Y17600000D03*
D12*
X-50650000Y16400000D03*
X-49350000Y16400000D03*
X-49350000Y17600000D03*
%TD*%
D13*
%TO.C,D78*%
X-12365000Y-57735000D03*
X-15535000Y-57735000D03*
%TD*%
%TO.C,D80*%
X15635000Y-57735000D03*
X12465000Y-57735000D03*
%TD*%
D11*
%TO.C,U22*%
X-50650000Y6600000D03*
D12*
X-50650000Y5400000D03*
X-49350000Y5400000D03*
X-49350000Y6600000D03*
%TD*%
D13*
%TO.C,D77*%
X-26365000Y-57735000D03*
X-29535000Y-57735000D03*
%TD*%
%TO.C,D73*%
X-30785000Y-3815000D03*
X-27615000Y-3815000D03*
%TD*%
D11*
%TO.C,U18*%
X-50650000Y39600000D03*
D12*
X-50650000Y38400000D03*
X-49350000Y38400000D03*
X-49350000Y39600000D03*
%TD*%
D13*
%TO.C,D75*%
X13015000Y-3815000D03*
X16185000Y-3815000D03*
%TD*%
M02*
