%TF.GenerationSoftware,KiCad,Pcbnew,8.0.2*%
%TF.CreationDate,2024-05-22T21:58:49+02:00*%
%TF.ProjectId,why2025,77687932-3032-4352-9e6b-696361645f70,rev?*%
%TF.SameCoordinates,Original*%
%TF.FileFunction,Profile,NP*%
%FSLAX46Y46*%
G04 Gerber Fmt 4.6, Leading zero omitted, Abs format (unit mm)*
G04 Created by KiCad (PCBNEW 8.0.2) date 2024-05-22 21:58:49*
%MOMM*%
%LPD*%
G01*
G04 APERTURE LIST*
%TA.AperFunction,Profile*%
%ADD10C,0.100000*%
%TD*%
G04 APERTURE END LIST*
D10*
%TO.C,N1*%
X53936062Y-55557060D02*
X53255992Y-56295510D01*
X53255992Y-56295510D02*
X52575922Y-57033970D01*
X52575922Y-57033970D02*
X51895862Y-57772420D01*
X51895862Y-57772420D02*
X51215792Y-58510870D01*
X51215792Y-58510870D02*
X50535722Y-59249320D01*
X50535722Y-59249320D02*
X49855652Y-59987780D01*
X49855652Y-59987780D02*
X49175592Y-60726230D01*
X49175592Y-60726230D02*
X48495522Y-61464680D01*
X48495522Y-61464680D02*
X48458622Y-61504680D01*
X48458622Y-61504680D02*
X48387522Y-61637380D01*
X48387522Y-61637380D02*
X48360122Y-61777490D01*
X48360122Y-61777490D02*
X48374192Y-61916610D01*
X48374192Y-61916610D02*
X48423792Y-62046340D01*
X48423792Y-62046340D02*
X48506892Y-62158270D01*
X48506892Y-62158270D02*
X48619352Y-62243970D01*
X48619352Y-62243970D02*
X48757432Y-62295070D01*
X48757432Y-62295070D02*
X49260182Y-62303290D01*
X49260182Y-62303290D02*
X49657232Y-62303420D01*
X49657232Y-62303420D02*
X50054282Y-62303540D01*
X50054282Y-62303540D02*
X50451332Y-62303670D01*
X50451332Y-62303670D02*
X50848382Y-62303800D01*
X50848382Y-62303800D02*
X51245432Y-62303920D01*
X51245432Y-62303920D02*
X51642492Y-62304050D01*
X51642492Y-62304050D02*
X52039542Y-62304170D01*
X52039542Y-62304170D02*
X52067642Y-62304170D01*
X52067642Y-62304170D02*
X52151242Y-62297170D01*
X52151242Y-62297170D02*
X52233442Y-62283570D01*
X52233442Y-62283570D02*
X52313642Y-62261470D01*
X52313642Y-62261470D02*
X52391542Y-62233070D01*
X52391542Y-62233070D02*
X52466442Y-62197270D01*
X52466442Y-62197270D02*
X52537842Y-62154470D01*
X52537842Y-62154470D02*
X52605442Y-62105070D01*
X52605442Y-62105070D02*
X52880662Y-61854900D01*
X52880662Y-61854900D02*
X53113582Y-61641740D01*
X53113582Y-61641740D02*
X53346502Y-61428570D01*
X53346502Y-61428570D02*
X53579432Y-61215410D01*
X53579432Y-61215410D02*
X53812352Y-61002240D01*
X53812352Y-61002240D02*
X54045272Y-60789070D01*
X54045272Y-60789070D02*
X54278192Y-60575910D01*
X54278192Y-60575910D02*
X54511112Y-60362740D01*
X54511112Y-60362740D02*
X54534412Y-60341440D01*
X54534412Y-60341440D02*
X54597812Y-60272240D01*
X54597812Y-60272240D02*
X54653412Y-60197440D01*
X54653412Y-60197440D02*
X54700712Y-60117540D01*
X54700712Y-60117540D02*
X54739612Y-60033340D01*
X54739612Y-60033340D02*
X54770012Y-59945640D01*
X54770012Y-59945640D02*
X54789912Y-59854840D01*
X54789912Y-59854840D02*
X54801512Y-59761840D01*
X54801512Y-59761840D02*
X54803562Y-59223380D01*
X54803562Y-59223380D02*
X54803602Y-58747930D01*
X54803602Y-58747930D02*
X54803642Y-58272470D01*
X54803642Y-58272470D02*
X54803692Y-57797020D01*
X54803692Y-57797020D02*
X54803742Y-57321560D01*
X54803742Y-57321560D02*
X54803782Y-56846100D01*
X54803782Y-56846100D02*
X54803822Y-56370650D01*
X54803822Y-56370650D02*
X54803872Y-55895190D01*
X54803872Y-55895190D02*
X54803872Y-55838290D01*
X54803872Y-55838290D02*
X54763372Y-55687230D01*
X54763372Y-55687230D02*
X54683072Y-55563310D01*
X54683072Y-55563310D02*
X54572462Y-55470420D01*
X54572462Y-55470420D02*
X54441092Y-55412020D01*
X54441092Y-55412020D02*
X54298462Y-55392320D01*
X54298462Y-55392320D02*
X54153942Y-55414320D01*
X54153942Y-55414320D02*
X54017132Y-55481720D01*
X54017132Y-55481720D02*
X53936062Y-55557060D01*
X-54804436Y-55895140D02*
X-54804391Y-56370600D01*
X-54804391Y-56370600D02*
X-54804346Y-56846050D01*
X-54804346Y-56846050D02*
X-54804301Y-57321510D01*
X-54804301Y-57321510D02*
X-54804256Y-57796970D01*
X-54804256Y-57796970D02*
X-54804211Y-58272420D01*
X-54804211Y-58272420D02*
X-54804166Y-58747880D01*
X-54804166Y-58747880D02*
X-54804121Y-59223330D01*
X-54804121Y-59223330D02*
X-54804076Y-59698790D01*
X-54804076Y-59698790D02*
X-54804076Y-59730390D01*
X-54804076Y-59730390D02*
X-54795876Y-59823990D01*
X-54795876Y-59823990D02*
X-54778196Y-59915590D01*
X-54778196Y-59915590D02*
X-54751176Y-60004390D01*
X-54751176Y-60004390D02*
X-54715256Y-60089890D01*
X-54715256Y-60089890D02*
X-54670706Y-60171290D01*
X-54670706Y-60171290D02*
X-54617846Y-60247890D01*
X-54617846Y-60247890D02*
X-54556956Y-60319090D01*
X-54556956Y-60319090D02*
X-54278715Y-60575950D01*
X-54278715Y-60575950D02*
X-54045794Y-60789120D01*
X-54045794Y-60789120D02*
X-53812872Y-61002290D01*
X-53812872Y-61002290D02*
X-53579951Y-61215450D01*
X-53579951Y-61215450D02*
X-53347030Y-61428610D01*
X-53347030Y-61428610D02*
X-53114109Y-61641780D01*
X-53114109Y-61641780D02*
X-52881187Y-61854950D01*
X-52881187Y-61854950D02*
X-52648266Y-62068110D01*
X-52648266Y-62068110D02*
X-52627496Y-62087110D01*
X-52627496Y-62087110D02*
X-52561386Y-62138710D01*
X-52561386Y-62138710D02*
X-52491176Y-62183710D01*
X-52491176Y-62183710D02*
X-52417386Y-62221910D01*
X-52417386Y-62221910D02*
X-52340516Y-62253110D01*
X-52340516Y-62253110D02*
X-52261076Y-62277510D01*
X-52261076Y-62277510D02*
X-52179566Y-62293610D01*
X-52179566Y-62293610D02*
X-52096486Y-62303210D01*
X-52096486Y-62303210D02*
X-51643331Y-62304080D01*
X-51643331Y-62304080D02*
X-51246236Y-62303960D01*
X-51246236Y-62303960D02*
X-50849141Y-62303840D01*
X-50849141Y-62303840D02*
X-50452046Y-62303710D01*
X-50452046Y-62303710D02*
X-50054951Y-62303580D01*
X-50054951Y-62303580D02*
X-49657856Y-62303460D01*
X-49657856Y-62303460D02*
X-49260761Y-62303330D01*
X-49260761Y-62303330D02*
X-48863666Y-62303210D01*
X-48863666Y-62303210D02*
X-48809206Y-62303210D01*
X-48809206Y-62303210D02*
X-48663367Y-62265510D01*
X-48663367Y-62265510D02*
X-48541993Y-62190410D01*
X-48541993Y-62190410D02*
X-48448752Y-62086310D01*
X-48448752Y-62086310D02*
X-48387312Y-61961580D01*
X-48387312Y-61961580D02*
X-48361302Y-61824650D01*
X-48361302Y-61824650D02*
X-48374523Y-61683930D01*
X-48374523Y-61683930D02*
X-48430493Y-61547820D01*
X-48430493Y-61547820D02*
X-49176141Y-60726050D01*
X-49176141Y-60726050D02*
X-49856208Y-59987590D01*
X-49856208Y-59987590D02*
X-50536274Y-59249140D01*
X-50536274Y-59249140D02*
X-51216340Y-58510690D01*
X-51216340Y-58510690D02*
X-51896406Y-57772240D01*
X-51896406Y-57772240D02*
X-52576472Y-57033790D01*
X-52576472Y-57033790D02*
X-53256539Y-56295330D01*
X-53256539Y-56295330D02*
X-53936605Y-55556880D01*
X-53936605Y-55556880D02*
X-53975185Y-55514980D01*
X-53975185Y-55514980D02*
X-54107350Y-55431330D01*
X-54107350Y-55431330D02*
X-54250349Y-55394330D01*
X-54250349Y-55394330D02*
X-54394675Y-55400330D01*
X-54394675Y-55400330D02*
X-54530870Y-55446830D01*
X-54530870Y-55446830D02*
X-54649435Y-55528630D01*
X-54649435Y-55528630D02*
X-54740873Y-55642620D01*
X-54740873Y-55642620D02*
X-54795703Y-55785040D01*
X-54795703Y-55785040D02*
X-54804436Y-55895140D01*
X-57450278Y58738821D02*
X-57450278Y58790821D01*
X-57450278Y58790821D02*
X-57438278Y58945401D01*
X-57438278Y58945401D02*
X-57410978Y59097051D01*
X-57410978Y59097051D02*
X-57369578Y59244801D01*
X-57369578Y59244801D02*
X-57314278Y59387731D01*
X-57314278Y59387731D02*
X-57245478Y59524961D01*
X-57245478Y59524961D02*
X-57163678Y59655191D01*
X-57163678Y59655191D02*
X-57069178Y59777621D01*
X-57069178Y59777621D02*
X-56438518Y60430351D01*
X-56438518Y60430351D02*
X-55878358Y61006741D01*
X-55878358Y61006741D02*
X-55318188Y61583131D01*
X-55318188Y61583131D02*
X-54758018Y62159531D01*
X-54758018Y62159531D02*
X-54197858Y62735921D01*
X-54197858Y62735921D02*
X-53637688Y63312311D01*
X-53637688Y63312311D02*
X-53077518Y63888711D01*
X-53077518Y63888711D02*
X-52517348Y64465101D01*
X-52517348Y64465101D02*
X-52479648Y64503901D01*
X-52479648Y64503901D02*
X-52358278Y64609481D01*
X-52358278Y64609481D02*
X-52227768Y64701681D01*
X-52227768Y64701681D02*
X-52089408Y64780181D01*
X-52089408Y64780181D02*
X-51944018Y64844481D01*
X-51944018Y64844481D02*
X-51792988Y64894081D01*
X-51792988Y64894081D02*
X-51637218Y64928481D01*
X-51637218Y64928481D02*
X-51477838Y64946981D01*
X-51477838Y64946981D02*
X51368562Y64949981D01*
X51368562Y64949981D02*
X51422662Y64949981D01*
X51422662Y64949981D02*
X51582992Y64936981D01*
X51582992Y64936981D02*
X51740172Y64907281D01*
X51740172Y64907281D02*
X51893002Y64862681D01*
X51893002Y64862681D02*
X52040372Y64803281D01*
X52040372Y64803281D02*
X52181292Y64729381D01*
X52181292Y64729381D02*
X52314562Y64641681D01*
X52314562Y64641681D02*
X52439082Y64540481D01*
X52439082Y64540481D02*
X53076272Y63888711D01*
X53076272Y63888711D02*
X53636392Y63312311D01*
X53636392Y63312311D02*
X54196522Y62735921D01*
X54196522Y62735921D02*
X54756642Y62159531D01*
X54756642Y62159531D02*
X55316762Y61583131D01*
X55316762Y61583131D02*
X55876892Y61006741D01*
X55876892Y61006741D02*
X56437012Y60430351D01*
X56437012Y60430351D02*
X56997132Y59853951D01*
X56997132Y59853951D02*
X57033332Y59816551D01*
X57033332Y59816551D02*
X57132022Y59696921D01*
X57132022Y59696921D02*
X57218122Y59569191D01*
X57218122Y59569191D02*
X57291322Y59434261D01*
X57291322Y59434261D02*
X57351122Y59293131D01*
X57351122Y59293131D02*
X57397222Y59146801D01*
X57397222Y59146801D02*
X57429322Y58996251D01*
X57429322Y58996251D02*
X57446722Y58842601D01*
X57446722Y58842601D02*
X57449722Y-2174916D01*
X57449722Y-2174916D02*
X57449722Y-2228536D01*
X57449722Y-2228536D02*
X57436722Y-2387664D01*
X57436722Y-2387664D02*
X57407522Y-2543677D01*
X57407522Y-2543677D02*
X57363622Y-2695492D01*
X57363622Y-2695492D02*
X57305122Y-2842020D01*
X57305122Y-2842020D02*
X57232322Y-2982158D01*
X57232322Y-2982158D02*
X57145722Y-3114826D01*
X57145722Y-3114826D02*
X57045822Y-3238922D01*
X57045822Y-3238922D02*
X56551942Y-3728061D01*
X56551942Y-3728061D02*
X56132532Y-4140326D01*
X56132532Y-4140326D02*
X55713122Y-4552591D01*
X55713122Y-4552591D02*
X55293722Y-4964856D01*
X55293722Y-4964856D02*
X54874312Y-5377121D01*
X54874312Y-5377121D02*
X54454902Y-5789386D01*
X54454902Y-5789386D02*
X54035492Y-6201651D01*
X54035492Y-6201651D02*
X53616082Y-6613916D01*
X53616082Y-6613916D02*
X53577882Y-6651526D01*
X53577882Y-6651526D02*
X53473722Y-6772611D01*
X53473722Y-6772611D02*
X53382722Y-6902575D01*
X53382722Y-6902575D02*
X53305422Y-7040350D01*
X53305422Y-7040350D02*
X53242122Y-7184837D01*
X53242122Y-7184837D02*
X53193222Y-7334966D01*
X53193222Y-7334966D02*
X53159322Y-7489659D01*
X53159322Y-7489659D02*
X53141122Y-7647835D01*
X53141122Y-7647835D02*
X53138122Y-10482740D01*
X53138122Y-10482740D02*
X53138122Y-13210680D01*
X53138122Y-13210680D02*
X53137722Y-15938620D01*
X53137722Y-15938620D02*
X53137312Y-18666570D01*
X53137312Y-18666570D02*
X53137312Y-21394510D01*
X53137312Y-21394510D02*
X53137312Y-24122460D01*
X53137312Y-24122460D02*
X53137312Y-26850400D01*
X53137312Y-26850400D02*
X53137312Y-26902800D01*
X53137312Y-26902800D02*
X53150312Y-27058320D01*
X53150312Y-27058320D02*
X53177912Y-27210960D01*
X53177912Y-27210960D02*
X53219912Y-27359620D01*
X53219912Y-27359620D02*
X53276012Y-27503370D01*
X53276012Y-27503370D02*
X53345712Y-27641200D01*
X53345712Y-27641200D02*
X53428512Y-27771980D01*
X53428512Y-27771980D02*
X53524212Y-27894810D01*
X53524212Y-27894810D02*
X54020042Y-28403670D01*
X54020042Y-28403670D02*
X54444522Y-28836180D01*
X54444522Y-28836180D02*
X54869002Y-29268680D01*
X54869002Y-29268680D02*
X55293482Y-29701190D01*
X55293482Y-29701190D02*
X55717962Y-30133690D01*
X55717962Y-30133690D02*
X56142442Y-30566200D01*
X56142442Y-30566200D02*
X56566922Y-30998700D01*
X56566922Y-30998700D02*
X56991402Y-31431210D01*
X56991402Y-31431210D02*
X57028102Y-31468610D01*
X57028102Y-31468610D02*
X57128052Y-31588460D01*
X57128052Y-31588460D02*
X57215352Y-31716740D01*
X57215352Y-31716740D02*
X57289452Y-31852200D01*
X57289452Y-31852200D02*
X57349952Y-31994090D01*
X57349952Y-31994090D02*
X57396652Y-32141210D01*
X57396652Y-32141210D02*
X57429052Y-32292680D01*
X57429052Y-32292680D02*
X57446652Y-32447370D01*
X57446652Y-32447370D02*
X57449652Y-36851030D01*
X57449652Y-36851030D02*
X57449722Y-56496970D01*
X57449722Y-56496970D02*
X57449722Y-60796010D01*
X57449722Y-60796010D02*
X57449722Y-60849010D01*
X57449722Y-60849010D02*
X57436722Y-61006220D01*
X57436722Y-61006220D02*
X57408422Y-61160400D01*
X57408422Y-61160400D02*
X57365522Y-61310570D01*
X57365522Y-61310570D02*
X57308222Y-61455600D01*
X57308222Y-61455600D02*
X57237122Y-61594520D01*
X57237122Y-61594520D02*
X57152622Y-61726280D01*
X57152622Y-61726280D02*
X57054922Y-61849630D01*
X57054922Y-61849630D02*
X56663542Y-62245490D01*
X56663542Y-62245490D02*
X56344932Y-62564660D01*
X56344932Y-62564660D02*
X56026332Y-62883840D01*
X56026332Y-62883840D02*
X55707732Y-63203020D01*
X55707732Y-63203020D02*
X55389132Y-63522190D01*
X55389132Y-63522190D02*
X55070522Y-63841370D01*
X55070522Y-63841370D02*
X54751922Y-64160540D01*
X54751922Y-64160540D02*
X54433322Y-64479720D01*
X54433322Y-64479720D02*
X54395822Y-64517320D01*
X54395822Y-64517320D02*
X54275202Y-64619720D01*
X54275202Y-64619720D02*
X54146012Y-64709220D01*
X54146012Y-64709220D02*
X54009172Y-64785320D01*
X54009172Y-64785320D02*
X53865842Y-64847620D01*
X53865842Y-64847620D02*
X53716962Y-64895620D01*
X53716962Y-64895620D02*
X53563672Y-64929020D01*
X53563672Y-64929020D02*
X53406902Y-64947020D01*
X53406902Y-64947020D02*
X49785172Y-64950020D01*
X49785172Y-64950020D02*
X46269432Y-64950020D01*
X46269432Y-64950020D02*
X42753702Y-64950020D01*
X42753702Y-64950020D02*
X39237962Y-64950020D01*
X39237962Y-64950020D02*
X35722222Y-64950020D01*
X35722222Y-64950020D02*
X32206482Y-64950020D01*
X32206482Y-64950020D02*
X28690742Y-64950020D01*
X28690742Y-64950020D02*
X25175002Y-64950020D01*
X25175002Y-64950020D02*
X25121802Y-64950020D01*
X25121802Y-64950020D02*
X24963952Y-64937020D01*
X24963952Y-64937020D02*
X24809172Y-64908320D01*
X24809172Y-64908320D02*
X24658442Y-64864920D01*
X24658442Y-64864920D02*
X24512922Y-64807220D01*
X24512922Y-64807220D02*
X24373572Y-64735420D01*
X24373572Y-64735420D02*
X24241562Y-64650120D01*
X24241562Y-64650120D02*
X24117942Y-64551820D01*
X24117942Y-64551820D02*
X23621722Y-64057310D01*
X23621722Y-64057310D02*
X23202272Y-63636050D01*
X23202272Y-63636050D02*
X22782822Y-63214790D01*
X22782822Y-63214790D02*
X22363362Y-62793530D01*
X22363362Y-62793530D02*
X21943912Y-62372260D01*
X21943912Y-62372260D02*
X21524462Y-61951000D01*
X21524462Y-61951000D02*
X21105012Y-61529740D01*
X21105012Y-61529740D02*
X20685552Y-61108480D01*
X20685552Y-61108480D02*
X20648052Y-61070780D01*
X20648052Y-61070780D02*
X20527502Y-60968150D01*
X20527502Y-60968150D02*
X20398272Y-60878450D01*
X20398272Y-60878450D02*
X20261312Y-60802250D01*
X20261312Y-60802250D02*
X20117712Y-60739950D01*
X20117712Y-60739950D02*
X19968612Y-60691850D01*
X19968612Y-60691850D02*
X19815102Y-60658450D01*
X19815102Y-60658450D02*
X19658132Y-60640450D01*
X19658132Y-60640450D02*
X18812342Y-60637450D01*
X18812342Y-60637450D02*
X18072612Y-60637450D01*
X18072612Y-60637450D02*
X17332882Y-60637450D01*
X17332882Y-60637450D02*
X16593152Y-60637450D01*
X16593152Y-60637450D02*
X15853422Y-60637450D01*
X15853422Y-60637450D02*
X15113692Y-60637450D01*
X15113692Y-60637450D02*
X14373952Y-60637450D01*
X14373952Y-60637450D02*
X13634222Y-60637450D01*
X13634222Y-60637450D02*
X13580822Y-60637450D01*
X13580822Y-60637450D02*
X13422192Y-60650450D01*
X13422192Y-60650450D02*
X13266702Y-60679350D01*
X13266702Y-60679350D02*
X13115312Y-60723050D01*
X13115312Y-60723050D02*
X12969222Y-60781250D01*
X12969222Y-60781250D02*
X12829492Y-60853550D01*
X12829492Y-60853550D02*
X12697112Y-60939550D01*
X12697112Y-60939550D02*
X12573272Y-61038750D01*
X12573272Y-61038750D02*
X12081042Y-61532940D01*
X12081042Y-61532940D02*
X11665552Y-61953180D01*
X11665552Y-61953180D02*
X11250072Y-62373430D01*
X11250072Y-62373430D02*
X10834582Y-62793680D01*
X10834582Y-62793680D02*
X10419102Y-63213920D01*
X10419102Y-63213920D02*
X10003612Y-63634170D01*
X10003612Y-63634170D02*
X9588132Y-64054410D01*
X9588132Y-64054410D02*
X9172642Y-64474660D01*
X9172642Y-64474660D02*
X9135042Y-64512660D01*
X9135042Y-64512660D02*
X9014082Y-64616080D01*
X9014082Y-64616080D02*
X8884302Y-64706480D01*
X8884302Y-64706480D02*
X8746852Y-64783380D01*
X8746852Y-64783380D02*
X8602712Y-64846380D01*
X8602712Y-64846380D02*
X8453032Y-64894980D01*
X8453032Y-64894980D02*
X8298872Y-64928680D01*
X8298872Y-64928680D02*
X8141202Y-64946880D01*
X8141202Y-64946880D02*
X7263372Y-64949880D01*
X7263372Y-64949880D02*
X6492152Y-64949880D01*
X6492152Y-64949880D02*
X5720932Y-64949880D01*
X5720932Y-64949880D02*
X-4949358Y-64949880D01*
X-4949358Y-64949880D02*
X-5720578Y-64949880D01*
X-5720578Y-64949880D02*
X-6491788Y-64949880D01*
X-6491788Y-64949880D02*
X-7263018Y-64949880D01*
X-7263018Y-64949880D02*
X-8034238Y-64949880D01*
X-8034238Y-64949880D02*
X-8087638Y-64949880D01*
X-8087638Y-64949880D02*
X-8246248Y-64936880D01*
X-8246248Y-64936880D02*
X-8401708Y-64907880D01*
X-8401708Y-64907880D02*
X-8553058Y-64864180D01*
X-8553058Y-64864180D02*
X-8699108Y-64805980D01*
X-8699108Y-64805980D02*
X-8838818Y-64733580D01*
X-8838818Y-64733580D02*
X-8971198Y-64647680D01*
X-8971198Y-64647680D02*
X-9095098Y-64548580D01*
X-9095098Y-64548580D02*
X-9587428Y-64054410D01*
X-9587428Y-64054410D02*
X-10002908Y-63634170D01*
X-10002908Y-63634170D02*
X-10418388Y-63213920D01*
X-10418388Y-63213920D02*
X-10833878Y-62793680D01*
X-10833878Y-62793680D02*
X-11249358Y-62373430D01*
X-11249358Y-62373430D02*
X-11664848Y-61953180D01*
X-11664848Y-61953180D02*
X-12080328Y-61532940D01*
X-12080328Y-61532940D02*
X-12495808Y-61112690D01*
X-12495808Y-61112690D02*
X-12533408Y-61074690D01*
X-12533408Y-61074690D02*
X-12654268Y-60971150D01*
X-12654268Y-60971150D02*
X-12784008Y-60880750D01*
X-12784008Y-60880750D02*
X-12921448Y-60803750D01*
X-12921448Y-60803750D02*
X-13065608Y-60740850D01*
X-13065608Y-60740850D02*
X-13215338Y-60692250D01*
X-13215338Y-60692250D02*
X-13369538Y-60658550D01*
X-13369538Y-60658550D02*
X-13527238Y-60640450D01*
X-13527238Y-60640450D02*
X-14374518Y-60637450D01*
X-14374518Y-60637450D02*
X-15114258Y-60637450D01*
X-15114258Y-60637450D02*
X-15853988Y-60637450D01*
X-15853988Y-60637450D02*
X-16593718Y-60637450D01*
X-16593718Y-60637450D02*
X-17333448Y-60637450D01*
X-17333448Y-60637450D02*
X-18073178Y-60637450D01*
X-18073178Y-60637450D02*
X-18812908Y-60637450D01*
X-18812908Y-60637450D02*
X-19552638Y-60637450D01*
X-19552638Y-60637450D02*
X-19605838Y-60637450D01*
X-19605838Y-60637450D02*
X-19763678Y-60650450D01*
X-19763678Y-60650450D02*
X-19918418Y-60679050D01*
X-19918418Y-60679050D02*
X-20068988Y-60722250D01*
X-20068988Y-60722250D02*
X-20214538Y-60779950D01*
X-20214538Y-60779950D02*
X-20353728Y-60851550D01*
X-20353728Y-60851550D02*
X-20485688Y-60936750D01*
X-20485688Y-60936750D02*
X-20609368Y-61035150D01*
X-20609368Y-61035150D02*
X-21105568Y-61529740D01*
X-21105568Y-61529740D02*
X-21525018Y-61951000D01*
X-21525018Y-61951000D02*
X-21944468Y-62372260D01*
X-21944468Y-62372260D02*
X-22363918Y-62793530D01*
X-22363918Y-62793530D02*
X-22783378Y-63214790D01*
X-22783378Y-63214790D02*
X-23202828Y-63636050D01*
X-23202828Y-63636050D02*
X-23622278Y-64057310D01*
X-23622278Y-64057310D02*
X-24041728Y-64478570D01*
X-24041728Y-64478570D02*
X-24079228Y-64516270D01*
X-24079228Y-64516270D02*
X-24199878Y-64618820D01*
X-24199878Y-64618820D02*
X-24329168Y-64708520D01*
X-24329168Y-64708520D02*
X-24466148Y-64784820D01*
X-24466148Y-64784820D02*
X-24609758Y-64847220D01*
X-24609758Y-64847220D02*
X-24758848Y-64895520D01*
X-24758848Y-64895520D02*
X-24912388Y-64928920D01*
X-24912388Y-64928920D02*
X-25069408Y-64947020D01*
X-25069408Y-64947020D02*
X-28691288Y-64950020D01*
X-28691288Y-64950020D02*
X-32207028Y-64950020D01*
X-32207028Y-64950020D02*
X-35722768Y-64950020D01*
X-35722768Y-64950020D02*
X-39238508Y-64950020D01*
X-39238508Y-64950020D02*
X-42754248Y-64950020D01*
X-42754248Y-64950020D02*
X-46269988Y-64950020D01*
X-46269988Y-64950020D02*
X-49785718Y-64950020D01*
X-49785718Y-64950020D02*
X-53301458Y-64950020D01*
X-53301458Y-64950020D02*
X-53354558Y-64950020D01*
X-53354558Y-64950020D02*
X-53512158Y-64937020D01*
X-53512158Y-64937020D02*
X-53666678Y-64908420D01*
X-53666678Y-64908420D02*
X-53817168Y-64865220D01*
X-53817168Y-64865220D02*
X-53962478Y-64807620D01*
X-53962478Y-64807620D02*
X-54101648Y-64736120D01*
X-54101648Y-64736120D02*
X-54233518Y-64651020D01*
X-54233518Y-64651020D02*
X-54357148Y-64552920D01*
X-54357148Y-64552920D02*
X-54752488Y-64160540D01*
X-54752488Y-64160540D02*
X-55071088Y-63841370D01*
X-55071088Y-63841370D02*
X-55389688Y-63522190D01*
X-55389688Y-63522190D02*
X-55708288Y-63203020D01*
X-55708288Y-63203020D02*
X-56026898Y-62883840D01*
X-56026898Y-62883840D02*
X-56345498Y-62564660D01*
X-56345498Y-62564660D02*
X-56664098Y-62245490D01*
X-56664098Y-62245490D02*
X-56982698Y-61926310D01*
X-56982698Y-61926310D02*
X-57020098Y-61888810D01*
X-57020098Y-61888810D02*
X-57121878Y-61768430D01*
X-57121878Y-61768430D02*
X-57210878Y-61639280D01*
X-57210878Y-61639280D02*
X-57286578Y-61502720D01*
X-57286578Y-61502720D02*
X-57348478Y-61359600D01*
X-57348478Y-61359600D02*
X-57396178Y-61210970D01*
X-57396178Y-61210970D02*
X-57429278Y-61058000D01*
X-57429278Y-61058000D02*
X-57447278Y-60901720D01*
X-57447278Y-60901720D02*
X-57450278Y-56496970D01*
X-57450278Y-56496970D02*
X-57450208Y-36851030D01*
X-57450208Y-36851030D02*
X-57450208Y-32551980D01*
X-57450208Y-32551980D02*
X-57450208Y-32499580D01*
X-57450208Y-32499580D02*
X-57437208Y-32343970D01*
X-57437208Y-32343970D02*
X-57409608Y-32191280D01*
X-57409608Y-32191280D02*
X-57367608Y-32042630D01*
X-57367608Y-32042630D02*
X-57311508Y-31898890D01*
X-57311508Y-31898890D02*
X-57241808Y-31761200D01*
X-57241808Y-31761200D02*
X-57158808Y-31630350D01*
X-57158808Y-31630350D02*
X-57063108Y-31507560D01*
X-57063108Y-31507560D02*
X-56567208Y-30998710D01*
X-56567208Y-30998710D02*
X-56142778Y-30566200D01*
X-56142778Y-30566200D02*
X-55718338Y-30133700D01*
X-55718338Y-30133700D02*
X-55293908Y-29701190D01*
X-55293908Y-29701190D02*
X-54869468Y-29268690D01*
X-54869468Y-29268690D02*
X-54445038Y-28836180D01*
X-54445038Y-28836180D02*
X-54020598Y-28403680D01*
X-54020598Y-28403680D02*
X-53596168Y-27971170D01*
X-53596168Y-27971170D02*
X-53559468Y-27933770D01*
X-53559468Y-27933770D02*
X-53459498Y-27813810D01*
X-53459498Y-27813810D02*
X-53372198Y-27685580D01*
X-53372198Y-27685580D02*
X-53297998Y-27550010D01*
X-53297998Y-27550010D02*
X-53237298Y-27408170D01*
X-53237298Y-27408170D02*
X-53190598Y-27261030D01*
X-53190598Y-27261030D02*
X-53158198Y-27109570D01*
X-53158198Y-27109570D02*
X-53140598Y-26954930D01*
X-53140598Y-26954930D02*
X-53137598Y-24122470D01*
X-53137598Y-24122470D02*
X-53137598Y-21394520D01*
X-53137598Y-21394520D02*
X-53137598Y-18666570D01*
X-53137598Y-18666570D02*
X-53137968Y-15938630D01*
X-53137968Y-15938630D02*
X-53138338Y-13210680D01*
X-53138338Y-13210680D02*
X-53138338Y-10482740D01*
X-53138338Y-10482740D02*
X-53138338Y-7754795D01*
X-53138338Y-7754795D02*
X-53138338Y-7701175D01*
X-53138338Y-7701175D02*
X-53151338Y-7542074D01*
X-53151338Y-7542074D02*
X-53180538Y-7386098D01*
X-53180538Y-7386098D02*
X-53224438Y-7234325D01*
X-53224438Y-7234325D02*
X-53282938Y-7087836D01*
X-53282938Y-7087836D02*
X-53355738Y-6947719D01*
X-53355738Y-6947719D02*
X-53442338Y-6815024D01*
X-53442338Y-6815024D02*
X-53542238Y-6690870D01*
X-53542238Y-6690870D02*
X-54036048Y-6201650D01*
X-54036048Y-6201650D02*
X-54455458Y-5789385D01*
X-54455458Y-5789385D02*
X-54874868Y-5377120D01*
X-54874868Y-5377120D02*
X-55294278Y-4964855D01*
X-55294278Y-4964855D02*
X-55713678Y-4552590D01*
X-55713678Y-4552590D02*
X-56133088Y-4140325D01*
X-56133088Y-4140325D02*
X-56552498Y-3728060D01*
X-56552498Y-3728060D02*
X-56971908Y-3315795D01*
X-56971908Y-3315795D02*
X-57010208Y-3278225D01*
X-57010208Y-3278225D02*
X-57114378Y-3157221D01*
X-57114378Y-3157221D02*
X-57205478Y-3027285D01*
X-57205478Y-3027285D02*
X-57282878Y-2889517D01*
X-57282878Y-2889517D02*
X-57346278Y-2744999D01*
X-57346278Y-2744999D02*
X-57395178Y-2594831D01*
X-57395178Y-2594831D02*
X-57429078Y-2440096D01*
X-57429078Y-2440096D02*
X-57447278Y-2281883D01*
X-57447278Y-2281883D02*
X-57450278Y58738821D01*
%TO.C,U2*%
X42525000Y-55450000D02*
G75*
G02*
X41225000Y-55450000I-650000J0D01*
G01*
X41225000Y-55450000D02*
G75*
G02*
X42525000Y-55450000I650000J0D01*
G01*
%TD*%
M02*
