M48
; DRILL file {KiCad 8.0.2} date 2024-05-22T21:58:50+0200
; FORMAT={-:-/ absolute / inch / decimal}
; #@! TF.CreationDate,2024-05-22T21:58:50+02:00
; #@! TF.GenerationSoftware,Kicad,Pcbnew,8.0.2
; #@! TF.FileFunction,Plated,1,4,PTH
FMAT,2
INCH
; #@! TA.AperFunction,Plated,PTH,ViaDrill
T1C0.0079
; #@! TA.AperFunction,Plated,PTH,ComponentDrill
T2C0.0079
; #@! TA.AperFunction,Plated,PTH,ViaDrill
T3C0.0118
; #@! TA.AperFunction,Plated,PTH,ViaDrill
T4C0.0157
; #@! TA.AperFunction,Plated,PTH,ComponentDrill
T5C0.0157
; #@! TA.AperFunction,Plated,PTH,ComponentDrill
T6C0.0236
; #@! TA.AperFunction,Plated,PTH,ComponentDrill
T7C0.0362
; #@! TA.AperFunction,Plated,PTH,ComponentDrill
T8C0.0472
; #@! TA.AperFunction,Plated,PTH,ComponentDrill
T9C0.0591
; #@! TA.AperFunction,Plated,PTH,ComponentDrill
T10C0.0630
; #@! TA.AperFunction,Plated,PTH,ComponentDrill
T11C0.0866
%
G90
G05
T1
X-1.6732Y-1.2244
X-1.6555Y-0.5886
X-1.6209Y1.9421
X-1.6205Y1.9906
X-1.5575Y2.0327
X-1.5571Y1.9858
X-1.513Y1.9118
X-1.4803Y0.4602
X-1.4799Y0.4815
X-1.4465Y1.9122
X-1.4173Y2.0122
X-1.3984Y0.3925
X-1.3976Y0.4154
X-1.3925Y0.4866
X-1.3906Y0.452
X-1.3232Y1.8969
X-1.3094Y1.987
X-1.2803Y0.5874
X-1.2752Y2.0177
X-1.2555Y0.6189
X-1.2465Y2.4028
X-1.2343Y0.6189
X-1.2248Y2.0496
X-1.2165Y1.3402
X-1.2138Y0.4646
X-1.213Y0.6197
X-1.2102Y1.939
X-1.2094Y1.8854
X-1.1921Y0.6201
X-1.1713Y0.6201
X-1.1669Y1.3449
X-1.1193Y0.2461
X-1.1126Y1.3457
X-1.0984Y0.6772
X-1.0941Y0.3193
X-1.0724Y0.6764
X-1.0709Y0.4524
X-1.0551Y1.689
X-1.052Y1.3437
X-1.0492Y2.1211
X-1.0108Y2.1978
X-1.0059Y0.5
X-1.0055Y0.5307
X-0.9961Y0.6256
X-0.9815Y1.3504
X-0.9713Y0.3898
X-0.9516Y2.1089
X-0.9476Y2.1561
X-0.939Y0.5756
X-0.939Y0.5512
X-0.937Y1.5846
X-0.9193Y2.1713
X-0.9154Y1.3091
X-0.9154Y1.2717
X-0.9035Y1.8736
X-0.887Y0.4496
X-0.8866Y0.4783
X-0.874Y2.203
X-0.8528Y2.2026
X-0.848Y1.6177
X-0.8343Y0.6657
X-0.8331Y0.578
X-0.8071Y0.5787
X-0.8008Y1.9205
X-0.7756Y2.0256
X-0.7756Y0.9429
X-0.7701Y0.7461
X-0.7681Y1.44
X-0.7677Y2.0057
X-0.7661Y1.1453
X-0.765Y0.415
X-0.7646Y0.2827
X-0.7642Y0.5559
X-0.7606Y0.6169
X-0.7559Y1.824
X-0.7543Y1.0622
X-0.748Y0.1976
X-0.7443Y2.2352
X-0.7382Y2.1291
X-0.7311Y0.7469
X-0.7236Y1.6161
X-0.7098Y1.0622
X-0.7091Y1.2988
X-0.7075Y1.9205
X-0.7067Y0.7354
X-0.7012Y0.4209
X-0.6969Y2.1437
X-0.6768Y1.5937
X-0.6681Y1.1681
X-0.6299Y-0.9134
X-0.626Y1.2913
X-0.6228Y1.0236
X-0.622Y-0.5906
X-0.6217Y1.198
X-0.6217Y1.1685
X-0.618Y1.0441
X-0.6177Y1.5957
X-0.6079Y0.6709
X-0.6079Y0.6476
X-0.6071Y0.6925
X-0.6063Y0.7146
X-0.6059Y0.7398
X-0.6028Y0.7776
X-0.5965Y1.3228
X-0.5807Y1.0413
X-0.5807Y0.9803
X-0.5539Y0.8035
X-0.5512Y0.6417
X-0.5512Y0.6063
X-0.5425Y1.1854
X-0.5319Y0.8035
X-0.5228Y1.315
X-0.5094Y0.7646
X-0.5079Y0.8028
X-0.5043Y1.2272
X-0.4921Y0.6614
X-0.4758Y0.8089
X-0.4756Y1.9189
X-0.4756Y1.8732
X-0.4559Y1.6358
X-0.4512Y0.8071
X-0.4354Y0.7504
X-0.4291Y0.6614
X-0.3965Y1.0669
X-0.3959Y0.9502
X-0.3953Y1.0126
X-0.389Y0.9909
X-0.3878Y1.4689
X-0.372Y-0.5709
X-0.372Y-0.9134
X-0.363Y0.9917
X-0.3528Y1.4713
X-0.3425Y0.6811
X-0.3374Y1.0122
X-0.3225Y0.9465
X-0.3189Y0.2587
X-0.3173Y0.6169
X-0.3154Y0.5587
X-0.3004Y0.2319
X-0.2945Y1.3701
X-0.2898Y0.4811
X-0.2846Y0.9272
X-0.2835Y0.5236
X-0.2709Y0.7386
X-0.2657Y0.6094
X-0.2539Y0.5413
X-0.248Y-0.5669
X-0.2362Y0.9835
X-0.2311Y1.0693
X-0.226Y1.0028
X-0.2181Y0.5039
X-0.2102Y1.0669
X-0.2011Y1.1943
X-0.1906Y1.2122
X-0.178Y1.624
X-0.1752Y0.7571
X-0.1744Y1.2303
X-0.1669Y1.0665
X-0.1661Y1.0429
X-0.1642Y0.9488
X-0.1642Y0.922
X-0.1626Y1.0205
X-0.1626Y0.9996
X-0.1535Y0.7362
X-0.1496Y0.5827
X-0.1445Y1.2402
X-0.1374Y1.0142
X-0.1358Y1.0768
X-0.1346Y1.1102
X-0.1299Y-1.2264
X-0.1299Y-1.5335
X-0.126Y0.8465
X-0.124Y-0.9173
X-0.1217Y0.9724
X-0.1213Y1.2339
X-0.1098Y1.213
X-0.1079Y0.5768
X-0.1024Y1.1102
X-0.0965Y0.4268
X-0.0811Y0.6079
X-0.0709Y0.7201
X-0.0681Y1.3461
X-0.0681Y0.6913
X-0.0673Y1.2917
X-0.063Y1.1929
X-0.063Y0.748
X-0.0583Y1.4098
X-0.0551Y1.0969
X-0.0512Y-0.5335
X-0.0394Y0.748
X-0.0354Y1.4118
X-0.0268Y0.4358
X-0.0252Y0.5291
X-0.0236Y0.689
X-0.0232Y0.9732
X-0.0004Y0.2236
X0.0Y0.6492
X0.0016Y0.4193
X0.0035Y1.9197
X0.0035Y1.8732
X0.0039Y1.2402
X0.0055Y1.2681
X0.0059Y1.2945
X0.0079Y1.0024
X0.0181Y0.8453
X0.0551Y0.7638
X0.0579Y0.2276
X0.0646Y0.8898
X0.0728Y0.6496
X0.0748Y0.6063
X0.0752Y0.5823
X0.0754Y0.5161
X0.0898Y0.5311
X0.0902Y0.9157
X0.0968Y0.5116
X0.0984Y-0.5453
X0.1063Y0.8189
X0.1142Y0.5
X0.1339Y-1.2264
X0.1378Y1.0996
X0.1378Y0.9661
X0.1587Y0.8217
X0.1618Y1.602
X0.1709Y0.648
X0.1744Y1.2902
X0.1744Y1.2693
X0.1917Y1.602
X0.1983Y0.8164
X0.2102Y1.4378
X0.2193Y1.8154
X0.2254Y1.1274
X0.2362Y0.9636
X0.2484Y1.439
X0.2496Y0.8476
X0.3366Y1.7051
X0.3441Y1.8665
X0.3445Y1.9189
X0.3744Y-0.5961
X0.4098Y1.4496
X0.5362Y1.7327
X0.6028Y1.9047
X0.6039Y1.8535
X0.6724Y1.8185
X0.6732Y1.8575
X0.676Y1.5953
X0.6945Y0.5201
X0.7028Y1.5984
X0.7205Y0.5205
X0.7284Y1.6008
X0.7441Y0.5201
X0.8379Y0.897
X0.8543Y0.9134
X0.8622Y0.8189
X0.8833Y0.818
X0.9106Y1.8598
X0.9134Y1.8114
X0.9965Y0.4937
X1.0157Y-0.5925
X1.0394Y0.4701
X1.1004Y0.3465
X1.1772Y-1.2264
X1.1791Y-1.5256
X1.211Y0.1606
X1.215Y0.2512
X1.3071Y-0.5709
X1.3252Y0.3213
X1.3268Y2.2559
X1.328Y0.3496
X1.3303Y0.2543
X1.3339Y0.0984
X1.3543Y0.2043
X1.3819Y2.2559
X1.3835Y0.1787
X1.3839Y0.0984
X1.3917Y-1.5413
X1.4075Y-0.9114
X1.4173Y0.4252
X1.4197Y0.2469
X1.4197Y0.2197
X1.4197Y0.1079
X1.4201Y0.2748
X1.4204Y2.3658
X1.422Y0.489
X1.4236Y0.1827
X1.4264Y0.3508
X1.437Y2.3819
X1.4409Y0.4858
X1.4409Y0.4016
X1.4409Y0.2677
X1.4646Y0.4252
X1.4646Y-1.5374
X1.4646Y-1.8484
X1.4744Y0.4819
X1.4791Y0.2098
X1.4815Y0.3929
X1.4949Y0.2835
X1.4965Y0.3327
X1.5008Y0.4059
X1.5043Y0.1118
X1.5059Y0.2091
X1.5118Y2.4488
X1.5118Y2.3307
X1.5118Y2.2677
X1.5307Y0.2055
X1.5307Y0.1295
X1.5386Y0.4303
X1.5398Y2.3837
X1.5425Y-0.5925
X1.5465Y0.335
X1.5476Y0.7283
X1.5484Y0.2846
X1.5508Y0.5378
X1.5516Y2.3665
X1.5551Y-0.1339
X1.5591Y2.4488
X1.5591Y2.3307
X1.5591Y2.2677
X1.561Y-0.9114
X1.5728Y0.2059
X1.5752Y0.3858
X1.5791Y-0.1201
X1.5839Y0.4311
X1.6024Y2.4488
X1.6024Y2.3307
X1.6024Y2.2677
X1.6457Y2.376
X1.6457Y2.353
X1.6516Y2.4535
X1.6732Y2.3307
X1.6752Y0.3425
X1.6811Y0.3209
X1.6811Y0.2953
X1.6815Y0.2717
X1.7063Y2.4043
X1.7063Y2.3835
X1.9472Y0.2185
X1.948Y0.2646
X1.948Y0.2421
X1.952Y0.5236
X1.9937Y0.5224
X2.002Y0.2642
X2.0031Y0.2441
X2.0031Y0.2209
X2.1087Y0.5622
T2
X-0.8882Y2.1427
X-0.8882Y2.0994
X-0.8882Y2.0561
X-0.8449Y2.1427
X-0.8449Y2.0994
X-0.8449Y2.0561
X-0.8016Y2.1427
X-0.8016Y2.0994
X-0.8016Y2.0561
T3
X-2.1346Y0.6917
X-2.1346Y0.2638
X-2.1343Y1.5354
X-2.1343Y1.1276
X-2.0449Y0.648
X-2.0433Y0.7589
X-2.0394Y0.2941
X-2.0335Y1.9925
X-1.963Y1.6976
X-1.9433Y2.0276
X-1.8583Y-0.1407
X-1.8445Y-0.2992
X-1.8346Y-0.1407
X-1.812Y-0.1417
X-1.8091Y-0.2982
X-1.7894Y-0.2776
X-1.5945Y1.4173
X-1.5925Y1.2382
X-1.5925Y1.1732
X-1.5925Y1.0866
X-1.5915Y1.3465
X-1.5374Y2.1949
X-1.5118Y1.8425
X-1.4972Y0.9425
X-1.4886Y2.1728
X-1.4496Y1.0756
X-1.4449Y1.4331
X-1.4417Y0.9878
X-1.4331Y1.5472
X-1.4331Y1.4882
X-1.4319Y1.0972
X-1.4217Y1.9252
X-1.4209Y1.0575
X-1.4154Y1.5217
X-1.3967Y0.8293
X-1.3941Y1.1441
X-1.365Y1.1189
X-1.3614Y0.8398
X-1.3177Y0.8378
X-1.3035Y0.9465
X-1.2988Y1.7524
X-1.2862Y1.9953
X-1.272Y1.1071
X-1.2563Y1.8732
X-1.2496Y0.2815
X-1.2469Y2.0213
X-1.2469Y1.7335
X-1.2425Y0.3457
X-1.2343Y1.9272
X-1.2341Y1.8997
X-1.2181Y0.2862
X-1.189Y1.7898
X-1.1886Y1.7268
X-1.1709Y1.2886
X-1.1594Y1.7961
X-1.1517Y1.7161
X-1.1319Y1.7976
X-1.1201Y1.7161
X-1.1177Y2.3465
X-1.1051Y1.7929
X-1.085Y2.2224
X-1.0807Y2.0276
X-1.0788Y2.0
X-1.0669Y0.311
X-1.065Y1.9331
X-1.063Y1.9069
X-1.0492Y1.9878
X-1.0465Y1.7575
X-1.0335Y1.1217
X-0.9843Y1.8067
X-0.961Y1.8067
X-0.937Y1.8067
X-0.9031Y1.9201
X-0.8709Y0.6535
X-0.8646Y1.8118
X-0.8437Y1.824
X-0.8433Y1.9835
X-0.8433Y1.7976
X-0.8232Y1.811
X-0.8224Y1.3941
X-0.8106Y1.9835
X-0.8094Y1.7437
X-0.8071Y0.435
X-0.8031Y0.2563
X-0.7685Y1.3831
X-0.7201Y1.4984
X-0.7043Y1.9787
X-0.6913Y1.8083
X-0.6764Y1.9827
X-0.6756Y1.3354
X-0.6744Y1.4984
X-0.6685Y1.8075
X-0.6589Y1.7451
X-0.6516Y0.1673
X-0.6512Y0.1937
X-0.6217Y1.3441
X-0.6213Y1.4969
X-0.6201Y1.9868
X-0.5957Y2.0854
X-0.548Y0.1697
X-0.4961Y0.5276
X-0.4685Y0.5709
X-0.4685Y0.4843
X-0.448Y0.3201
X-0.4472Y0.3654
X-0.439Y2.0433
X-0.4354Y2.1146
X-0.4055Y1.7795
X-0.4055Y1.7323
X-0.4055Y1.6299
X-0.4055Y1.5787
X-0.4038Y1.5286
X-0.3976Y0.9043
X-0.2268Y2.035
X-0.226Y1.989
X-0.2138Y1.1232
X0.1161Y1.235
X0.1165Y1.3386
X0.1868Y0.7411
X0.2028Y0.7618
X0.2484Y1.7105
X0.2677Y0.8012
X0.2685Y0.8274
X0.3043Y0.7264
X0.3071Y0.7929
X0.3563Y1.3193
X0.3685Y1.2205
X0.3862Y1.2661
X0.398Y1.1776
X0.3988Y1.2126
X0.4043Y1.3748
X0.4236Y1.3012
X0.4677Y1.2157
X0.5031Y1.2406
X0.5346Y1.1583
X0.6004Y1.5406
X0.6004Y1.5138
X0.6744Y2.0039
X0.6756Y0.9724
X1.1024Y-0.0974
X1.2874Y-0.1004
X1.3543Y2.3307
X1.3638Y2.5059
X1.3898Y1.5921
X1.478Y-0.139
X1.5382Y-0.1071
X1.5843Y2.2004
X1.585Y2.1764
X1.6937Y2.2012
X1.6937Y2.1752
X1.7138Y0.8902
X1.7713Y0.8953
T4
X-1.9197Y0.1618
X-1.9059Y0.0303
X-1.8858Y0.1614
X-1.8622Y0.0311
X-1.8067Y0.0319
X-1.748Y0.563
X-1.7402Y0.1575
X-1.6772Y1.7283
X-1.6535Y-0.3661
X-1.6535Y-0.937
X-1.6535Y-1.5669
X-1.6417Y1.7638
X-1.6142Y-0.0217
X-1.6083Y1.7972
X-1.5984Y0.4921
X-1.5748Y-0.0906
X-1.5551Y2.1339
X-1.5157Y0.0571
X-1.4961Y-0.0906
X-1.437Y0.0571
X-1.4173Y-0.0906
X-1.4075Y0.2146
X-1.3937Y2.0886
X-1.3583Y0.0571
X-1.3531Y1.5823
X-1.3504Y1.4646
X-1.3386Y-0.0906
X-1.3327Y0.2106
X-1.3228Y1.2795
X-1.3228Y1.185
X-1.2992Y-0.0906
X-1.2953Y0.4508
X-1.2894Y0.2638
X-1.2874Y1.4291
X-1.2803Y0.0571
X-1.2421Y0.0098
X-1.2126Y1.5817
X-1.2126Y1.4636
X-1.2024Y0.0575
X-1.1988Y2.3031
X-1.1988Y2.1575
X-1.1969Y2.1102
X-1.1811Y-0.0906
X-1.1378Y1.4291
X-1.1024Y-0.0906
X-1.0728Y0.4154
X-1.0669Y1.4636
X-1.063Y1.5817
X-1.063Y-0.0906
X-1.0524Y0.6063
X-1.0512Y0.5626
X-1.0185Y0.2264
X-0.9921Y1.4291
X-0.9921Y1.2707
X-0.9921Y1.1279
X-0.9843Y-0.3268
X-0.9547Y-0.0906
X-0.9528Y0.0476
X-0.9449Y2.19
X-0.9315Y0.224
X-0.9268Y0.1843
X-0.9213Y1.4636
X-0.906Y1.6296
X-0.9055Y-0.0906
X-0.8831Y0.2335
X-0.8806Y1.6043
X-0.8764Y0.0484
X-0.8445Y0.272
X-0.8268Y-0.0906
X-0.7677Y-0.5827
X-0.7492Y-0.0295
X-0.7362Y0.4283
X-0.6693Y-0.2283
X-0.6679Y0.4273
X-0.6321Y0.4273
X-0.5906Y-0.2283
X-0.5354Y0.0807
X-0.5118Y-0.2283
X-0.5004Y0.422
X-0.4606Y0.124
X-0.4528Y-0.0709
X-0.3992Y0.422
X-0.378Y1.315
X-0.3543Y-0.2283
X-0.3484Y0.1606
X-0.2756Y-0.2283
X-0.1969Y-0.2283
X-0.1549Y0.1923
X-0.1378Y-0.0709
X-0.1161Y0.6969
X-0.0787Y-0.2283
X-0.0591Y-0.3268
X0.0394Y-0.2283
X0.1024Y-0.3563
X0.1024Y-0.4449
X0.1181Y-0.2283
X0.1378Y-1.5276
X0.1969Y-0.0906
X0.2756Y-0.2283
X0.3543Y-0.2283
X0.3937Y-1.2913
X0.3937Y-1.3307
X0.4331Y-0.2303
X0.4429Y2.1004
X0.4724Y-0.4055
X0.5138Y-0.2303
X0.5906Y-0.0906
X0.6693Y-0.0906
X0.7008Y0.2382
X0.9055Y-0.0906
X0.9252Y-0.5236
X0.9843Y-0.0906
X1.2648Y0.1614
X1.4996Y1.5933
X1.6016Y2.002
X1.6016Y1.8563
X1.6528Y2.002
X1.6634Y-1.5079
X1.6634Y-1.5669
X1.7167Y2.0053
X1.7167Y1.8957
X1.739Y0.928
X1.7909Y1.0228
X1.8402Y0.7862
X1.8535Y1.9331
X1.9242Y0.9571
X1.9933Y0.9193
X2.0118Y0.7673
X2.1264Y0.9354
X2.1264Y0.7705
T5
X-2.1516Y-0.0591
X-2.1516Y-1.9685
X-2.1325Y-0.0131
X-2.1325Y-0.105
X-2.1325Y-1.9226
X-2.1325Y-2.0144
X-2.0866Y0.0059
X-2.0866Y-0.124
X-2.0866Y-1.9035
X-2.0866Y-2.0335
X-2.0407Y-0.0131
X-2.0407Y-0.105
X-2.0407Y-1.9226
X-2.0407Y-2.0144
X-2.0217Y-0.0591
X-2.0217Y-1.9685
X-1.0492Y2.4016
X-1.0302Y2.4475
X-1.0302Y2.3556
X-0.9843Y2.4665
X-0.9843Y2.3366
X-0.9383Y2.4475
X-0.9383Y2.3556
X-0.9193Y2.4016
X0.9193Y2.4016
X0.9383Y2.4475
X0.9383Y2.3556
X0.9843Y2.4665
X0.9843Y2.3366
X1.0302Y2.4475
X1.0302Y2.3556
X1.0492Y2.4016
X2.0217Y-0.0591
X2.0217Y-1.9685
X2.0407Y-0.0131
X2.0407Y-0.105
X2.0407Y-1.9226
X2.0407Y-2.0144
X2.0866Y0.0059
X2.0866Y-0.124
X2.0866Y-1.9035
X2.0866Y-2.0335
X2.1325Y-0.0131
X2.1325Y-0.105
X2.1325Y-1.9226
X2.1325Y-2.0144
X2.1516Y-0.0591
X2.1516Y-1.9685
T6
X-1.5581Y-0.7319
X-1.5581Y-1.0429
X-1.5581Y-1.3539
X-1.5581Y-1.665
X-1.5581Y-1.976
X-1.4974Y-0.3976
X-1.2982Y-0.7319
X-1.2982Y-1.0429
X-1.2982Y-1.3539
X-1.2982Y-1.665
X-1.2982Y-1.976
X-1.1165Y-0.3976
X-1.0384Y-0.7319
X-1.0384Y-1.0429
X-1.0384Y-1.3539
X-1.0384Y-1.665
X-1.0384Y-1.976
X-0.7785Y-0.7319
X-0.7785Y-1.0429
X-0.7785Y-1.3539
X-0.7785Y-1.665
X-0.7785Y-1.976
X-0.7356Y-0.3976
X-0.5187Y-0.7319
X-0.5187Y-1.0429
X-0.5187Y-1.3539
X-0.5187Y-1.665
X-0.3888Y-1.976
X-0.3547Y-0.3976
X-0.2589Y-0.7319
X-0.2589Y-1.0429
X-0.2589Y-1.3539
X-0.2589Y-1.665
X0.001Y-0.7319
X0.001Y-1.0429
X0.001Y-1.3539
X0.001Y-1.665
X0.001Y-1.976
X0.2608Y-0.7319
X0.2608Y-1.0429
X0.2608Y-1.3539
X0.2608Y-1.665
X0.3569Y-0.3976
X0.3907Y-1.976
X0.5207Y-0.7319
X0.5207Y-1.0429
X0.5207Y-1.3539
X0.5207Y-1.665
X0.7378Y-0.3976
X0.7805Y-0.7319
X0.7805Y-1.0429
X0.7805Y-1.3539
X0.7805Y-1.665
X0.7805Y-1.976
X1.0404Y-0.7319
X1.0404Y-1.0429
X1.0404Y-1.3539
X1.0404Y-1.665
X1.0404Y-1.976
X1.1187Y-0.3976
X1.3002Y-0.7319
X1.3002Y-1.0429
X1.3002Y-1.3539
X1.3002Y-1.665
X1.3002Y-1.976
X1.4996Y-0.3976
X1.56Y-0.7319
X1.56Y-1.0429
X1.56Y-1.3539
X1.56Y-1.665
X1.56Y-1.976
T7
X-1.8701Y2.0354
X-1.8701Y1.937
X-1.8701Y1.8583
X-1.8701Y1.7598
T8
X2.1268Y2.037
X2.1268Y1.837
X2.1268Y1.6433
X2.1268Y1.4433
X2.1268Y1.2496
X2.1268Y1.0496
T9
X2.0268Y2.0748
X2.0268Y1.7992
X2.0268Y1.6811
X2.0268Y1.4055
X2.0268Y1.2874
X2.0268Y1.0118
T10
X-1.9823Y2.2776
X-1.7461Y-2.3957
X1.7461Y-2.3957
X1.9823Y2.2776
T11
X-2.0866Y-0.0591
X-2.0866Y-1.9685
X-0.9843Y2.4016
X0.9843Y2.4016
X2.0866Y-0.0591
X2.0866Y-1.9685
T6
G00X-2.1831Y2.1496
M15
G01X-2.1476Y2.1496
M16
G05
G00X-2.1831Y1.6457
M15
G01X-2.1476Y1.6457
M16
G05
G00X-1.9469Y2.1496
M15
G01X-1.9114Y2.1496
M16
G05
G00X-1.9469Y1.6457
M15
G01X-1.9114Y1.6457
M16
G05
G00X-1.6957Y2.4673
M15
G01X-1.6957Y2.4437
M16
G05
G00X-1.6957Y2.3126
M15
G01X-1.6957Y2.2693
M16
G05
G00X-1.3555Y2.4673
M15
G01X-1.3555Y2.4437
M16
G05
G00X-1.3555Y2.3126
M15
G01X-1.3555Y2.2693
M16
G05
M30
